<svg xmlns="http://www.w3.org/2000/svg" version="1.1" xmlns:xlink="http://www.w3.org/1999/xlink" width="28" height="22"><svg width="28" height="22" viewBox="0 0 28 22" fill="none" xmlns="http://www.w3.org/2000/svg">
<g clip-path="url(#clip0_7877_28019)">
<path d="M24.1936 19.6873C24.1936 19.6873 24.1623 19.7299 24.1018 19.8124C24.0356 19.8951 23.9379 20.0157 23.7901 20.1533C23.7156 20.2213 23.6306 20.2955 23.53 20.3678C23.4308 20.4421 23.317 20.5156 23.1891 20.5861C22.9338 20.7279 22.6176 20.8507 22.2498 20.9275C21.8822 21.0022 21.4615 21.0278 21.0117 20.969C20.7869 20.9402 20.555 20.8908 20.3217 20.8147C20.2926 20.8052 20.2633 20.7956 20.2339 20.7859C20.205 20.7751 20.1758 20.7643 20.1465 20.7534C20.0875 20.7328 20.0299 20.7071 19.971 20.6832C19.8562 20.6353 19.7394 20.5867 19.6208 20.5372C19.5017 20.4879 19.3808 20.4378 19.258 20.3868C19.1965 20.3616 19.1346 20.3362 19.0722 20.3106C19.0091 20.2876 18.9456 20.2645 18.8816 20.2412C18.7536 20.195 18.6239 20.1481 18.4924 20.1006C18.4267 20.0769 18.3605 20.053 18.2939 20.0289C18.2273 20.0051 18.1609 19.9795 18.0918 19.9592C17.8172 19.8741 17.5356 19.7868 17.2473 19.6975C16.9557 19.6207 16.6574 19.5421 16.3527 19.4618C16.0454 19.3942 15.7316 19.3252 15.4119 19.2549C15.0899 19.1983 14.7618 19.1406 14.4281 19.082C14.2603 19.0591 14.0911 19.0362 13.9206 19.013C13.8354 19.0015 13.7498 18.9898 13.664 18.9782C13.6211 18.9723 13.5781 18.9665 13.535 18.9607C13.4917 18.9566 13.4482 18.9525 13.4048 18.9484C13.2311 18.9313 13.0559 18.9142 12.8796 18.8969C12.7915 18.888 12.7031 18.8792 12.6144 18.8703C12.5255 18.8634 12.436 18.8596 12.3464 18.854C12.1672 18.8436 11.9868 18.8333 11.8052 18.8228L11.6688 18.8149C11.6233 18.8128 11.5776 18.8131 11.5318 18.8121C11.4404 18.8104 11.3486 18.8089 11.2565 18.8072C11.0726 18.8036 10.8875 18.7999 10.7014 18.7962C10.5152 18.8003 10.328 18.8044 10.1398 18.8085C9.76333 18.8094 9.38401 18.8432 9.00094 18.8655C8.80917 18.8739 8.61787 18.9005 8.42524 18.9194C8.23279 18.9407 8.03914 18.9586 7.8455 18.9828C7.65243 19.0116 7.45859 19.0406 7.26403 19.0696C7.16677 19.0842 7.06933 19.0987 6.97173 19.1132C6.87453 19.1303 6.77761 19.1502 6.6803 19.1687C6.48589 19.2062 6.2907 19.2437 6.0949 19.2815L6.02151 19.2957L5.94865 19.313L5.80279 19.3477C5.70554 19.3708 5.60809 19.394 5.5105 19.4171C5.41295 19.4403 5.31522 19.4635 5.21739 19.4867L5.06048 19.5237L4.98561 19.5412L4.94815 19.5499L4.90516 19.5585C4.78596 19.5825 4.67487 19.5999 4.56162 19.6126C4.44837 19.6254 4.33436 19.634 4.22005 19.6371C3.76288 19.6509 3.29999 19.5898 2.85569 19.4491C2.41172 19.3088 1.98649 19.0851 1.61687 18.7798C1.24667 18.4761 0.938383 18.0838 0.733257 17.6414L0.714047 17.6L0.704489 17.5792C0.698966 17.5663 0.703336 17.5786 0.689697 17.5452L0.66064 17.472L0.646136 17.4353C0.641189 17.4227 0.636722 17.4127 0.630959 17.3945L0.598829 17.2955C0.575679 17.2273 0.563336 17.1679 0.547823 17.1053C0.531254 17.0436 0.524002 16.9802 0.512283 16.9175C0.473477 16.6655 0.474246 16.4093 0.507961 16.1604C0.575199 15.6614 0.771679 15.1951 1.04472 14.7934C1.3178 14.3904 1.66797 14.049 2.0603 13.776C2.45274 13.5018 2.88974 13.3007 3.34105 13.1619L3.5114 13.1136L3.67647 13.0736L3.98327 12.9999C4.18763 12.9508 4.3918 12.9017 4.59562 12.8527C4.69591 12.8266 4.80277 12.8069 4.90833 12.786C5.01394 12.7652 5.11951 12.7444 5.22498 12.7237C5.4361 12.6822 5.6469 12.6409 5.85726 12.5996C5.90994 12.5885 5.96239 12.5802 6.01479 12.5726L6.17198 12.5485C6.27673 12.5325 6.38138 12.5165 6.48594 12.5005C6.69514 12.4686 6.90392 12.4368 7.11212 12.405C7.53034 12.3558 7.94765 12.3141 8.36237 12.2707C8.77833 12.2451 9.19199 12.2169 9.60311 12.1974C10.0146 12.1924 10.4233 12.1851 10.8286 12.1825C12.4502 12.2033 14.0146 12.3797 15.4692 12.6727C16.9244 12.9674 18.266 13.3871 19.4667 13.8534C19.7656 13.9742 20.0583 14.0908 20.3419 14.21C20.6218 14.3376 20.8952 14.4622 21.1618 14.5837C21.43 14.6998 21.681 14.8366 21.9285 14.96C22.0517 15.0226 22.1732 15.0843 22.2929 15.145C22.3527 15.1753 22.412 15.2054 22.4709 15.2353L22.493 15.2463L22.5084 15.2542L22.5191 15.2602L22.5618 15.284C22.5902 15.2998 22.6185 15.3156 22.6466 15.3312C22.8867 15.4684 23.0986 15.6204 23.2922 15.7823C23.4853 15.9444 23.655 16.1185 23.8032 16.2971C24.1003 16.6543 24.3042 17.0337 24.4317 17.3935C24.496 17.5735 24.5373 17.7502 24.5647 17.9177C24.5909 18.0854 24.6048 18.2445 24.6004 18.3927C24.5972 18.5407 24.5837 18.6773 24.5597 18.8004C24.5391 18.924 24.507 19.0337 24.4754 19.1305C24.4098 19.3239 24.3331 19.4611 24.2811 19.5521C24.2241 19.6404 24.1945 19.6859 24.1945 19.6859L24.1936 19.6873Z" fill="#FAFAFA"></path>
<path d="M25.7448 5.96147C25.7448 5.96147 25.808 5.98017 25.9262 6.01522C25.9557 6.02479 25.9892 6.03196 26.0249 6.04631C26.0608 6.06056 26.1 6.07606 26.1422 6.09284C26.1842 6.11025 26.2307 6.12613 26.2776 6.14832C26.3239 6.17176 26.3729 6.19663 26.4249 6.22288C26.6288 6.33288 26.8726 6.48301 27.1065 6.71171C27.1383 6.73773 27.1641 6.7703 27.1937 6.80029C27.2226 6.83104 27.252 6.86227 27.2818 6.89393C27.3131 6.92464 27.3388 6.96046 27.3665 6.99575C27.394 7.03124 27.4219 7.06725 27.4501 7.1037C27.48 7.13928 27.5027 7.18017 27.5291 7.21958C27.5548 7.25956 27.5808 7.30007 27.6072 7.34101C27.633 7.38238 27.6531 7.42743 27.6768 7.47143C27.6993 7.51605 27.7239 7.56053 27.7453 7.60702C27.9117 7.98001 28.0105 8.43183 27.9755 8.91109C27.9756 8.94122 27.9703 8.97078 27.9664 9.00067C27.9623 9.03056 27.9581 9.06055 27.954 9.09063C27.9497 9.12076 27.9455 9.15104 27.9413 9.18136L27.9348 9.22698C27.9365 9.22096 27.9315 9.24181 27.9316 9.24138L27.9303 9.24664L27.9277 9.25716L27.9224 9.27816C27.8923 9.39136 27.8728 9.50007 27.8218 9.62691C27.7986 9.68764 27.7789 9.7525 27.7516 9.8108C27.7236 9.86871 27.6956 9.92692 27.6673 9.98541C27.6413 10.0453 27.6039 10.0991 27.5704 10.1557L27.5186 10.24L27.4925 10.2822L27.4626 10.322C27.4225 10.375 27.3821 10.4282 27.3417 10.4817C27.3005 10.5346 27.252 10.5818 27.2069 10.6323L27.1377 10.7071C27.113 10.7305 27.0873 10.7528 27.062 10.7757C27.0106 10.8206 26.9611 10.8687 26.907 10.9111C26.6912 11.0833 26.4457 11.222 26.1847 11.3322C25.9212 11.4377 25.6399 11.5029 25.3526 11.5337L25.1359 11.5445L25.0815 11.5469L25.0272 11.5443L24.9185 11.539L24.8096 11.5333C24.7731 11.5323 24.7376 11.5239 24.7016 11.5194L24.5937 11.5031L24.5397 11.4948L24.5128 11.4905L24.4993 11.4884L24.4925 11.4874C24.484 11.4854 24.5021 11.4903 24.4716 11.4827L24.2802 11.4346L24.2323 11.4226C24.2167 11.419 24.2005 11.4148 24.1816 11.4076L24.0734 11.369L23.9652 11.3295L23.9112 11.3094L23.8616 11.2859L23.6633 11.1918C23.4068 11.0514 23.1665 10.8804 22.9576 10.6767C22.7534 10.4697 22.5722 10.2399 22.4346 9.98713C22.3996 9.92443 22.3714 9.85848 22.3399 9.7942C22.3248 9.76182 22.309 9.72973 22.2952 9.69687L22.2597 9.5962C22.2374 9.52877 22.2106 9.46286 22.1929 9.39457C22.1763 9.32589 22.1597 9.2575 22.1432 9.18939C22.0951 8.9141 22.0694 8.63609 22.102 8.36817C22.1081 8.23325 22.1414 8.10384 22.1657 7.97528L22.1706 7.95127L22.1731 7.93927L22.1743 7.93329C22.1736 7.93496 22.1838 7.89632 22.1803 7.91028L22.1936 7.86915C22.2023 7.8418 22.2112 7.81449 22.22 7.78732C22.2288 7.76016 22.2375 7.73304 22.2462 7.70602C22.2553 7.67876 22.262 7.65374 22.2768 7.62065C22.3039 7.55895 22.3309 7.49764 22.3576 7.43676C22.3715 7.40706 22.384 7.3754 22.3992 7.34804C22.4149 7.32111 22.4305 7.29428 22.446 7.2676C22.4776 7.21475 22.5089 7.16233 22.54 7.11034C22.5744 7.06051 22.6114 7.01302 22.6471 6.96567C22.7876 6.77408 22.9596 6.6208 23.1246 6.48263C23.468 6.21705 23.8325 6.06209 24.1582 5.97471C24.4846 5.88365 24.7775 5.86921 25.0127 5.86945C25.0718 5.87098 25.1276 5.87351 25.1799 5.87409C25.2322 5.87677 25.2809 5.8848 25.3263 5.8893C25.3715 5.89446 25.4134 5.89924 25.4517 5.90369C25.4901 5.90781 25.5241 5.91732 25.5548 5.92273L25.7438 5.96118L25.7448 5.96147Z" fill="#FAFAFA"></path>
<path d="M25.7448 5.96147C25.7448 5.96147 25.808 5.98017 25.9262 6.01522C25.9557 6.02479 25.9892 6.03196 26.0249 6.04631C26.0608 6.06056 26.1 6.07606 26.1422 6.09284C26.1842 6.11025 26.2307 6.12613 26.2776 6.14832C26.3239 6.17176 26.3729 6.19663 26.4249 6.22288C26.6288 6.33288 26.8726 6.48301 27.1065 6.71171C27.1383 6.73773 27.1641 6.7703 27.1937 6.80029C27.2226 6.83104 27.252 6.86227 27.2818 6.89393C27.3131 6.92464 27.3388 6.96046 27.3665 6.99575C27.394 7.03124 27.4219 7.06725 27.4501 7.1037C27.48 7.13928 27.5027 7.18017 27.5291 7.21958C27.5548 7.25956 27.5808 7.30007 27.6072 7.34101C27.633 7.38238 27.6531 7.42743 27.6768 7.47143C27.6993 7.51605 27.7239 7.56053 27.7453 7.60702C27.9117 7.98001 28.0105 8.43183 27.9755 8.91109C27.9756 8.94122 27.9703 8.97078 27.9664 9.00067C27.9623 9.03056 27.9581 9.06055 27.954 9.09063C27.9497 9.12076 27.9455 9.15104 27.9413 9.18136L27.9348 9.22698C27.9365 9.22096 27.9315 9.24181 27.9316 9.24138L27.9303 9.24664L27.9277 9.25716L27.9224 9.27816C27.8923 9.39136 27.8728 9.50007 27.8218 9.62691C27.7986 9.68764 27.7789 9.7525 27.7516 9.8108C27.7236 9.86871 27.6956 9.92692 27.6673 9.98541C27.6413 10.0453 27.6039 10.0991 27.5704 10.1557L27.5186 10.24L27.4925 10.2822L27.4626 10.322C27.4225 10.375 27.3821 10.4282 27.3417 10.4817C27.3005 10.5346 27.252 10.5818 27.2069 10.6323L27.1377 10.7071C27.113 10.7305 27.0873 10.7528 27.062 10.7757C27.0106 10.8206 26.9611 10.8687 26.907 10.9111C26.6912 11.0833 26.4457 11.222 26.1847 11.3322C25.9212 11.4377 25.6399 11.5029 25.3526 11.5337L25.1359 11.5445L25.0815 11.5469L25.0272 11.5443L24.9185 11.539L24.8096 11.5333C24.7731 11.5323 24.7376 11.5239 24.7016 11.5194L24.5937 11.5031L24.5397 11.4948L24.5128 11.4905L24.4993 11.4884L24.4925 11.4874C24.484 11.4854 24.5021 11.4903 24.4716 11.4827L24.2802 11.4346L24.2323 11.4226C24.2167 11.419 24.2005 11.4148 24.1816 11.4076L24.0734 11.369L23.9652 11.3295L23.9112 11.3094L23.8616 11.2859L23.6633 11.1918C23.4068 11.0514 23.1665 10.8804 22.9576 10.6767C22.7534 10.4697 22.5722 10.2399 22.4346 9.98713C22.3996 9.92443 22.3714 9.85848 22.3399 9.7942C22.3248 9.76182 22.309 9.72973 22.2952 9.69687L22.2597 9.5962C22.2374 9.52877 22.2106 9.46286 22.1929 9.39457C22.1763 9.32589 22.1597 9.2575 22.1432 9.18939C22.0951 8.9141 22.0694 8.63609 22.102 8.36817C22.1081 8.23325 22.1414 8.10384 22.1657 7.97528L22.1706 7.95127L22.1731 7.93927L22.1743 7.93329C22.1736 7.93496 22.1838 7.89632 22.1803 7.91028L22.1936 7.86915C22.2023 7.8418 22.2112 7.81449 22.22 7.78732C22.2288 7.76016 22.2375 7.73304 22.2462 7.70602C22.2553 7.67876 22.262 7.65374 22.2768 7.62065C22.3039 7.55895 22.3309 7.49764 22.3576 7.43676C22.3715 7.40706 22.384 7.3754 22.3992 7.34804C22.4149 7.32111 22.4305 7.29428 22.446 7.2676C22.4776 7.21475 22.5089 7.16233 22.54 7.11034C22.5744 7.06051 22.6114 7.01302 22.6471 6.96567C22.7876 6.77408 22.9596 6.6208 23.1246 6.48263C23.468 6.21705 23.8325 6.06209 24.1582 5.97471C24.4846 5.88365 24.7775 5.86921 25.0127 5.86945C25.0718 5.87098 25.1276 5.87351 25.1799 5.87409C25.2322 5.87677 25.2809 5.8848 25.3263 5.8893C25.3715 5.89446 25.4134 5.89924 25.4517 5.90369C25.4901 5.90781 25.5241 5.91732 25.5548 5.92273L25.7438 5.96118L25.7448 5.96147ZM25.727 6.03096C25.7269 6.03091 25.6628 6.02182 25.5424 6.0046C25.5122 6.00111 25.479 5.9937 25.4416 5.99198C25.4043 5.99097 25.3636 5.98992 25.3196 5.98877C25.2756 5.98844 25.2285 5.98485 25.1784 5.98686C25.1282 5.9904 25.075 5.99604 25.019 6.00087C24.7964 6.02593 24.5261 6.084 24.2522 6.22437C23.9787 6.36182 23.6999 6.5679 23.4682 6.84386C23.4406 6.87925 23.4128 6.91497 23.3846 6.95108C23.3568 6.98705 23.327 7.02163 23.3039 7.06214C23.2558 7.14134 23.2006 7.21604 23.1601 7.30198C23.1381 7.3434 23.116 7.38515 23.0936 7.42729C23.0752 7.47114 23.0567 7.51534 23.0381 7.55991C23.0288 7.58205 23.0192 7.60415 23.0092 7.62605C22.9998 7.64796 22.9951 7.66924 22.9876 7.69081C22.9736 7.73333 22.9595 7.77618 22.9452 7.81932C22.937 7.83787 22.9308 7.8681 22.9241 7.89531C22.9175 7.92291 22.9108 7.9506 22.9041 7.97834C22.8974 8.00613 22.8907 8.03396 22.8839 8.06194L22.8738 8.10393C22.8694 8.12139 22.8783 8.08609 22.8772 8.0914L22.8765 8.09604L22.8753 8.10537L22.8727 8.12402C22.86 8.22359 22.8394 8.32307 22.8391 8.42542C22.8227 8.62887 22.8415 8.83739 22.8797 9.04467C22.8908 9.09632 22.9021 9.14821 22.9133 9.2003C22.925 9.25233 22.9452 9.30226 22.9604 9.35387L22.9847 9.43106L23.0161 9.50595C23.0377 9.55569 23.0556 9.60758 23.0798 9.65665C23.1763 9.85365 23.2996 10.0408 23.4464 10.2133C23.5968 10.3828 23.775 10.5295 23.9698 10.6547L24.1218 10.7397L24.16 10.7608L24.1977 10.7766L24.273 10.8089L24.3484 10.8422C24.355 10.8449 24.3604 10.848 24.3678 10.8505L24.3914 10.8578L24.4386 10.8722L24.6273 10.9302C24.6009 10.9234 24.6231 10.929 24.6186 10.9277L24.624 10.9288L24.6348 10.9309L24.6564 10.9351L24.6998 10.9436L24.7864 10.961C24.8154 10.9659 24.844 10.9749 24.8734 10.9766L24.9613 10.9849L25.0493 10.9935L25.0934 10.998L25.1375 10.9978L25.3143 10.9974C25.5493 10.9823 25.783 10.9404 26.0053 10.8634C26.2254 10.7819 26.435 10.6751 26.6252 10.5418C26.6728 10.5088 26.7161 10.4703 26.7618 10.4352C26.7843 10.417 26.8073 10.3996 26.8294 10.3811L26.891 10.3211C26.9313 10.2803 26.9755 10.2431 27.0128 10.2C27.0497 10.1565 27.0865 10.1132 27.1232 10.07L27.1508 10.0376L27.175 10.0028L27.223 9.93328C27.2543 9.88655 27.2899 9.84246 27.3145 9.79219C27.3417 9.74331 27.3687 9.69463 27.3956 9.64623C27.4221 9.59768 27.4388 9.54861 27.4612 9.50026C27.5072 9.41025 27.5381 9.2892 27.5734 9.18074L27.5798 9.16003L27.583 9.1497L27.5847 9.14453C27.5858 9.14085 27.5812 9.15792 27.5836 9.14841L27.592 9.109C27.5977 9.08274 27.6033 9.05653 27.6089 9.03047C27.6146 9.0043 27.6203 8.97824 27.6259 8.95227C27.6314 8.92625 27.6384 8.90043 27.64 8.87407C27.6459 8.82151 27.6517 8.76934 27.6574 8.71754C27.6598 8.69157 27.6645 8.66565 27.6651 8.63977C27.6655 8.61385 27.6659 8.58803 27.6663 8.5623C27.6675 8.5106 27.6688 8.45928 27.6701 8.40834C27.6674 8.35755 27.6626 8.30719 27.6591 8.25702C27.6558 8.15592 27.6334 8.05931 27.6184 7.96246C27.6124 7.91358 27.5977 7.86743 27.5854 7.82099C27.5727 7.77441 27.5602 7.72826 27.5479 7.68263C27.4332 7.32092 27.243 7.01541 27.0348 6.78049C26.8272 6.54265 26.5941 6.38554 26.3958 6.27674C26.3452 6.25062 26.2974 6.2259 26.2524 6.20261C26.2065 6.18142 26.1616 6.16669 26.1209 6.15014C26.0799 6.13431 26.0419 6.11972 26.0072 6.10633C25.9723 6.09351 25.9377 6.0871 25.9082 6.07854C25.7993 6.0499 25.737 6.03354 25.727 6.03096Z" fill="#2C5134"></path>
<path d="M24.1936 19.6873C24.1936 19.6873 24.1623 19.7299 24.1018 19.8124C24.0356 19.8951 23.9379 20.0157 23.7901 20.1533C23.7156 20.2213 23.6306 20.2955 23.53 20.3678C23.4308 20.4421 23.317 20.5156 23.1891 20.5861C22.9338 20.7279 22.6176 20.8507 22.2498 20.9275C21.8822 21.0022 21.4615 21.0278 21.0117 20.969C20.7869 20.9402 20.555 20.8908 20.3217 20.8147C20.2926 20.8052 20.2633 20.7956 20.2339 20.7859C20.205 20.7751 20.1758 20.7643 20.1465 20.7534C20.0875 20.7328 20.0299 20.7071 19.971 20.6832C19.8562 20.6353 19.7394 20.5867 19.6208 20.5372C19.5017 20.4879 19.3808 20.4378 19.258 20.3868C19.1965 20.3616 19.1346 20.3362 19.0722 20.3106C19.0091 20.2876 18.9456 20.2645 18.8816 20.2412C18.7536 20.195 18.6239 20.1481 18.4924 20.1006C18.4267 20.0769 18.3605 20.053 18.2939 20.0289C18.2273 20.0051 18.1609 19.9795 18.0918 19.9592C17.8172 19.8741 17.5356 19.7868 17.2473 19.6975C16.9557 19.6207 16.6574 19.5421 16.3527 19.4618C16.0454 19.3942 15.7316 19.3252 15.4119 19.2549C15.0899 19.1983 14.7618 19.1406 14.4281 19.082C14.2603 19.0591 14.0911 19.0362 13.9206 19.013C13.8354 19.0015 13.7498 18.9898 13.664 18.9782C13.6211 18.9723 13.5781 18.9665 13.535 18.9607C13.4917 18.9566 13.4482 18.9525 13.4048 18.9484C13.2311 18.9313 13.0559 18.9142 12.8796 18.8969C12.7915 18.888 12.7031 18.8792 12.6144 18.8703C12.5255 18.8634 12.436 18.8596 12.3464 18.854C12.1672 18.8436 11.9868 18.8333 11.8052 18.8228L11.6688 18.8149C11.6233 18.8128 11.5776 18.8131 11.5318 18.8121C11.4404 18.8104 11.3486 18.8089 11.2565 18.8072C11.0726 18.8036 10.8875 18.7999 10.7014 18.7962C10.5152 18.8003 10.328 18.8044 10.1398 18.8085C9.76333 18.8094 9.38401 18.8432 9.00094 18.8655C8.80917 18.8739 8.61787 18.9005 8.42524 18.9194C8.23279 18.9407 8.03914 18.9586 7.8455 18.9828C7.65243 19.0116 7.45859 19.0406 7.26403 19.0696C7.16677 19.0842 7.06933 19.0987 6.97173 19.1132C6.87453 19.1303 6.77761 19.1502 6.6803 19.1687C6.48589 19.2062 6.2907 19.2437 6.0949 19.2815L6.02151 19.2957L5.94865 19.313L5.80279 19.3477C5.70554 19.3708 5.60809 19.394 5.5105 19.4171C5.41295 19.4403 5.31522 19.4635 5.21739 19.4867L5.06048 19.5237L4.98561 19.5412L4.94815 19.5499L4.90516 19.5585C4.78596 19.5825 4.67487 19.5999 4.56162 19.6126C4.44837 19.6254 4.33436 19.634 4.22005 19.6371C3.76288 19.6509 3.29999 19.5898 2.85569 19.4491C2.41172 19.3088 1.98649 19.0851 1.61687 18.7798C1.24667 18.4761 0.938383 18.0838 0.733257 17.6414L0.714047 17.6L0.704489 17.5792C0.698966 17.5663 0.703336 17.5786 0.689697 17.5452L0.66064 17.472L0.646136 17.4353C0.641189 17.4227 0.636722 17.4127 0.630959 17.3945L0.598829 17.2955C0.575679 17.2273 0.563336 17.1679 0.547823 17.1053C0.531254 17.0436 0.524002 16.9802 0.512283 16.9175C0.473477 16.6655 0.474246 16.4093 0.507961 16.1604C0.575199 15.6614 0.771679 15.1951 1.04472 14.7934C1.3178 14.3904 1.66797 14.049 2.0603 13.776C2.45274 13.5018 2.88974 13.3007 3.34105 13.1619L3.5114 13.1136L3.67647 13.0736L3.98327 12.9999C4.18763 12.9508 4.3918 12.9017 4.59562 12.8527C4.69591 12.8266 4.80277 12.8069 4.90833 12.786C5.01394 12.7652 5.11951 12.7444 5.22498 12.7237C5.4361 12.6822 5.6469 12.6409 5.85726 12.5996C5.90994 12.5885 5.96239 12.5802 6.01479 12.5726L6.17198 12.5485C6.27673 12.5325 6.38138 12.5165 6.48594 12.5005C6.69514 12.4686 6.90392 12.4368 7.11212 12.405C7.53034 12.3558 7.94765 12.3141 8.36237 12.2707C8.77833 12.2451 9.19199 12.2169 9.60311 12.1974C10.0146 12.1924 10.4233 12.1851 10.8286 12.1825C12.4502 12.2033 14.0146 12.3797 15.4692 12.6727C16.9244 12.9674 18.266 13.3871 19.4667 13.8534C19.7656 13.9742 20.0583 14.0908 20.3419 14.21C20.6218 14.3376 20.8952 14.4622 21.1618 14.5837C21.43 14.6998 21.681 14.8366 21.9285 14.96C22.0517 15.0226 22.1732 15.0843 22.2929 15.145C22.3527 15.1753 22.412 15.2054 22.4709 15.2353L22.493 15.2463L22.5084 15.2542L22.5191 15.2602L22.5618 15.284C22.5902 15.2998 22.6185 15.3156 22.6466 15.3312C22.8867 15.4684 23.0986 15.6204 23.2922 15.7823C23.4853 15.9444 23.655 16.1185 23.8032 16.2971C24.1003 16.6543 24.3042 17.0337 24.4317 17.3935C24.496 17.5735 24.5373 17.7502 24.5647 17.9177C24.5909 18.0854 24.6048 18.2445 24.6004 18.3927C24.5972 18.5407 24.5837 18.6773 24.5597 18.8004C24.5391 18.924 24.507 19.0337 24.4754 19.1305C24.4098 19.3239 24.3331 19.4611 24.2811 19.5521C24.2241 19.6404 24.1945 19.6859 24.1945 19.6859L24.1936 19.6873ZM24.0951 19.6191C24.0951 19.6191 24.1216 19.5752 24.1729 19.4904C24.2192 19.403 24.2874 19.2718 24.3433 19.0886C24.3985 18.906 24.4433 18.6711 24.4334 18.3941C24.4243 18.118 24.3669 17.7995 24.2259 17.4722C24.0882 17.1444 23.8711 16.8082 23.5726 16.5027C23.4234 16.3502 23.253 16.2067 23.0648 16.0756C22.8774 15.9441 22.6671 15.8273 22.4487 15.7297C22.4191 15.717 22.3894 15.7042 22.3595 15.6913L22.3146 15.672L22.3034 15.6671C22.2986 15.6649 22.3046 15.6681 22.2967 15.6647L22.2739 15.6561C22.213 15.6332 22.1516 15.6102 22.0898 15.587C21.9662 15.5407 21.8407 15.4938 21.7134 15.4461C21.4583 15.3528 21.2002 15.2473 20.9258 15.1635C20.6538 15.0748 20.3749 14.984 20.0894 14.891C19.8014 14.8063 19.5044 14.7273 19.2038 14.6411C17.9948 14.316 16.6733 14.0291 15.2653 13.8126C13.858 13.593 12.3614 13.4519 10.8098 13.4283C9.25914 13.3993 7.65142 13.4816 6.03515 13.7059C5.83555 13.7374 5.63556 13.769 5.43519 13.8007C5.33491 13.8165 5.23453 13.8323 5.13411 13.8481C5.03359 13.8639 4.93364 13.878 4.83005 13.901C4.62458 13.9428 4.41884 13.9846 4.2128 14.0265L3.9036 14.0894L3.76062 14.1186L3.62581 14.1519C3.26872 14.2474 2.92461 14.3928 2.61953 14.5954C2.31384 14.7958 2.04321 15.0473 1.83472 15.3376C1.62676 15.6276 1.48229 15.9565 1.42869 16.2918C1.40161 16.4593 1.39709 16.628 1.41846 16.7922C1.42586 16.8328 1.42802 16.8746 1.43854 16.9146C1.44757 16.9542 1.45521 16.9981 1.46592 17.0295L1.47989 17.0811C1.48109 17.0882 1.48686 17.1025 1.49118 17.1144L1.50487 17.1513L1.53215 17.2252C1.52355 17.2039 1.53359 17.228 1.53339 17.2272L1.54002 17.2423L1.55323 17.2725C1.69376 17.5958 1.90834 17.8858 2.1797 18.1199C2.45014 18.3545 2.77255 18.5368 3.11945 18.6555C3.46631 18.7746 3.83597 18.8333 4.20382 18.831C4.29579 18.8308 4.38767 18.826 4.47911 18.8179C4.57065 18.8099 4.66301 18.7972 4.74561 18.7838C4.75661 18.782 4.76612 18.7809 4.77832 18.7786L4.81602 18.7709L4.89138 18.7557L5.0344 18.7264C5.13636 18.7053 5.23818 18.6842 5.33981 18.6632C5.44143 18.6422 5.54292 18.6212 5.64421 18.6003L5.79602 18.569L5.87181 18.5533L5.94817 18.5408C6.15167 18.5077 6.35449 18.4746 6.55658 18.4417C6.65763 18.4256 6.75825 18.4081 6.85911 18.3934C6.96035 18.3812 7.0614 18.3691 7.16226 18.357C7.36388 18.3329 7.56468 18.3089 7.76471 18.285C7.96518 18.2658 8.16541 18.253 8.36434 18.2369C8.56346 18.2232 8.76109 18.2019 8.95897 18.1988C9.35423 18.187 9.74513 18.1641 10.1325 18.1742C10.326 18.1756 10.5184 18.1771 10.7098 18.1786C10.9009 18.1878 11.091 18.1972 11.2798 18.2063C11.3742 18.2113 11.4683 18.2162 11.562 18.2211C11.6089 18.224 11.6557 18.2254 11.7023 18.2294L11.8419 18.2428C12.0276 18.2607 12.2121 18.2784 12.3954 18.2961C12.4869 18.3053 12.5783 18.3129 12.669 18.3234C12.7596 18.336 12.8498 18.3484 12.9396 18.3609C13.1192 18.3861 13.2975 18.4112 13.4745 18.4361C13.5186 18.4426 13.5627 18.4491 13.6067 18.4555C13.6505 18.4637 13.6941 18.4719 13.7377 18.4802C13.8248 18.4966 13.9116 18.513 13.998 18.5292C14.1706 18.5618 14.3419 18.5941 14.5117 18.6262C14.8492 18.7008 15.1796 18.78 15.5034 18.8573C15.8238 18.9478 16.1381 19.0366 16.446 19.1237C16.7497 19.2231 17.047 19.3205 17.3376 19.4157C17.6237 19.5228 17.9031 19.6274 18.1756 19.7294C18.2441 19.7533 18.3104 19.7828 18.3768 19.8103C18.4431 19.8381 18.509 19.8657 18.5744 19.8931C18.7051 19.9479 18.834 20.0019 18.9611 20.0553C19.0245 20.082 19.0875 20.1086 19.15 20.135C19.211 20.1637 19.2716 20.1922 19.3317 20.2205C19.4522 20.2766 19.5708 20.3319 19.6876 20.3864C19.8047 20.4406 19.92 20.494 20.0334 20.5465C20.1439 20.5982 20.2543 20.6461 20.3662 20.6841C20.5888 20.7635 20.8112 20.8191 21.0283 20.8514C21.4627 20.9168 21.8723 20.8996 22.2295 20.8278C22.5874 20.7572 22.8935 20.6356 23.1394 20.4973C23.387 20.361 23.5741 20.2075 23.7141 20.0738C23.8542 19.9392 23.9461 19.8216 24.0063 19.7441C24.0653 19.6608 24.0957 19.6178 24.0957 19.6178L24.0951 19.6191Z" fill="#2C5134"></path>
<path d="M19.6858 9.63693C19.4823 9.54209 19.2738 9.45835 19.0761 9.3813C18.9774 9.34213 18.8803 9.30879 18.7886 9.27336C18.6957 9.24299 18.6086 9.20664 18.5263 9.18057C18.3598 9.12514 18.221 9.07899 18.1238 9.04661C18.0235 9.01457 17.9662 8.9962 17.9662 8.9962C17.9662 8.9962 18.025 8.9776 18.1303 8.96191C18.1829 8.95483 18.2475 8.94508 18.3211 8.94211C18.395 8.9379 18.479 8.93365 18.5696 8.93876C18.6611 8.93953 18.759 8.94876 18.8631 8.95986C18.966 8.97535 19.0759 8.99075 19.1866 9.01777C19.2974 9.04413 19.4124 9.07239 19.5252 9.11343C19.6401 9.14877 19.7523 9.19674 19.8639 9.24585C19.8672 9.24724 19.8703 9.24906 19.8736 9.25054C19.8806 8.89735 19.8221 8.60221 19.726 8.35882C19.6284 8.25672 19.5302 8.1569 19.4342 8.06269C19.3591 7.98798 19.283 7.91902 19.2128 7.85043C19.1394 7.78606 19.074 7.71843 19.0087 7.66209C18.8775 7.54573 18.7683 7.44874 18.6918 7.38088C18.6124 7.31201 18.567 7.2726 18.567 7.2726C18.567 7.2726 18.6282 7.27853 18.7314 7.3056C18.7825 7.31975 18.8457 7.33616 18.9145 7.36246C18.9841 7.38748 19.0629 7.4167 19.1441 7.45706C19.2278 7.4937 19.3143 7.54062 19.4054 7.59184C19.4941 7.6465 19.5887 7.7038 19.6797 7.77209C19.7278 7.80772 19.7766 7.84469 19.8248 7.88329C21.002 7.29847 21.8539 7.74875 22.1675 7.97105C22.2466 7.47352 22.4548 6.99698 22.7827 6.59481C22.0269 5.66626 20.7345 4.12062 19.6566 3.04248C18.0214 1.40682 14.287 -1.07243 9.66036 2.69966C5.6164 5.99669 3.31411 11.966 2.79834 13.4173C3.07142 13.2785 3.37083 13.1661 3.69386 13.0874C9.97138 11.5543 16.594 12.2057 22.4489 14.9322C22.867 15.1265 23.2282 15.3756 23.5279 15.6597C23.6756 13.4385 21.1102 11.512 19.9708 9.77022C19.8759 9.72689 19.7841 9.67552 19.6858 9.63693Z" fill="#CC3332"></path>
<path d="M9.65736 6.26991C9.84325 6.23887 10.0751 6.24497 10.2625 6.26342C10.9876 6.33472 11.589 6.71742 12.0429 7.27401C11.8098 7.44297 11.5602 7.59506 11.3198 7.75371L11.3102 7.74076C11.1028 7.46373 10.7963 7.17659 10.4378 7.12973C10.2416 7.1041 10.0371 7.1353 9.87839 7.25925C9.7906 7.32779 9.71408 7.41981 9.70311 7.53493C9.67299 7.85173 10.4252 8.20316 10.652 8.36121C10.8125 8.47307 10.9674 8.60141 11.0969 8.74865C11.3269 9.01033 11.4722 9.34459 11.4442 9.69727C11.4152 10.063 11.2105 10.4032 10.9354 10.6381C10.4092 11.0874 9.66354 11.1917 8.9955 11.1356C8.8199 11.1349 8.64485 11.1162 8.47305 11.0798C7.76374 10.9347 7.02877 10.4813 6.62354 9.86933C6.94351 9.64103 7.33584 9.41151 7.6927 9.24604C7.83454 9.4238 7.97254 9.6038 8.14897 9.74907C8.39988 9.95569 8.7302 10.1013 9.05889 10.0683C9.25058 10.049 9.49709 9.97038 9.61877 9.81085C9.6903 9.71701 9.71073 9.60172 9.69464 9.48637C9.63316 9.04526 8.91822 8.77452 8.59549 8.54075C8.34885 8.3621 8.11843 8.12445 8.07156 7.81025C8.02641 7.50736 8.16296 7.18772 8.34303 6.95142C8.66104 6.53412 9.15173 6.33439 9.65736 6.26991Z" fill="#FAFAFA"></path>
<path d="M17.2666 7.27066C17.3154 7.26773 17.357 7.27859 17.4031 7.29014L17.4127 7.33661C16.778 8.69595 16.1304 10.048 15.4702 11.3924C14.7968 10.6833 14.1706 9.89274 13.5307 9.14034C13.224 9.71797 12.9831 10.3746 12.7239 10.9815C12.3592 10.9874 11.6251 11.055 11.3053 10.9703L11.3065 10.9073L13.141 6.74342C13.7814 7.67388 14.5039 8.55949 15.2216 9.40354C15.6032 8.68848 15.8905 7.91644 16.2501 7.18805C16.5894 7.21401 16.9258 7.25087 17.2666 7.27066Z" fill="#FAFAFA"></path>
<path d="M23.7524 9.11499C23.813 9.06785 23.8406 9.04603 23.8352 9.04952C24.0097 8.90812 24.1468 8.79203 24.2465 8.70126C24.348 8.61048 24.4335 8.51534 24.503 8.41584C24.5724 8.31633 24.6071 8.21945 24.6071 8.12518C24.6071 8.0536 24.5902 7.99774 24.5564 7.95759C24.5226 7.91744 24.4718 7.89736 24.4041 7.89736C24.3365 7.89736 24.2831 7.92268 24.2439 7.9733C24.2065 8.02218 24.1878 8.09201 24.1878 8.18279H23.7471C23.7506 8.0344 23.7827 7.91046 23.8432 7.81095C23.9055 7.71145 23.9866 7.63813 24.0863 7.59099C24.1878 7.54386 24.3 7.52029 24.4228 7.52029C24.6347 7.52029 24.7941 7.57354 24.9009 7.68003C25.0096 7.78651 25.0639 7.9253 25.0639 8.09637C25.0639 8.28316 24.9989 8.45686 24.8689 8.61746C24.7389 8.77632 24.5733 8.93169 24.3721 9.08357H25.0933V9.44754H23.7524V9.11499Z" fill="#CC3332"></path>
<path d="M25.2944 8.49177C25.2944 8.19151 25.3531 7.95497 25.4706 7.78215C25.5899 7.60932 25.7814 7.52291 26.0449 7.52291C26.3084 7.52291 26.499 7.60932 26.6165 7.78215C26.7358 7.95497 26.7955 8.19151 26.7955 8.49177C26.7955 8.79553 26.7358 9.03381 26.6165 9.20664C26.499 9.37946 26.3084 9.46587 26.0449 9.46587C25.7814 9.46587 25.5899 9.37946 25.4706 9.20664C25.3531 9.03381 25.2944 8.79553 25.2944 8.49177ZM26.3467 8.49177C26.3467 8.31546 26.3271 8.18017 26.288 8.0859C26.2488 7.98989 26.1678 7.94188 26.0449 7.94188C25.922 7.94188 25.841 7.98989 25.8018 8.0859C25.7627 8.18017 25.7431 8.31546 25.7431 8.49177C25.7431 8.61048 25.7502 8.70911 25.7645 8.78767C25.7787 8.86448 25.8072 8.92733 25.8499 8.9762C25.8944 9.02334 25.9594 9.04691 26.0449 9.04691C26.1304 9.04691 26.1945 9.02334 26.2372 8.9762C26.2817 8.92733 26.3111 8.86448 26.3254 8.78767C26.3396 8.70911 26.3467 8.61048 26.3467 8.49177Z" fill="#CC3332"></path>
</g>
<defs>
<clipPath id="SvgjsClipPath1009">
<rect width="28" height="22" fill="white"></rect>
</clipPath>
</defs>
</svg><style>@media (prefers-color-scheme: light) { :root { filter: none; } }
@media (prefers-color-scheme: dark) { :root { filter: none; } }
</style></svg>