<svg width="367" height="66" viewBox="0 0 367 66" fill="none" xmlns="http://www.w3.org/2000/svg">
<path d="M362.161 20.2426C361.127 20.8084 360.195 21.564 359.87 21.4744C359.546 21.3849 359.48 20.7765 359.48 20.7765C359.347 18.8145 357.016 14.6421 353.73 13.1639C350.445 11.6854 350.035 11.3681 349.771 10.8343C349.507 10.3004 350.415 9.65192 350.981 9.13167C351.547 8.61142 351.296 7.76414 351.224 7.61292C351.152 7.46171 351.178 7.2733 351.18 6.8017C351.183 6.33011 350.143 6.75208 349.605 7.00237C349.067 7.25267 348.542 7.44891 348.003 7.39159C347.463 7.33426 346.231 7.45485 345.677 7.66265C345.124 7.87028 344.55 7.80934 343.94 7.51838C343.331 7.22742 343.548 6.20503 343.614 5.64516C343.68 5.08529 343.956 4.60883 344.316 4.36031C344.676 4.11178 345.083 3.55336 344.005 3.17908C342.927 2.80393 342.418 4.00084 342.339 4.48501C342.261 4.96919 342.35 6.37947 342.275 6.8294C342.201 7.27933 341.912 6.46267 341.73 5.93039C341.548 5.39811 341.586 4.97847 341.662 4.44717C341.738 3.91569 341.637 2.68813 340.615 2.9413C339.594 3.19446 340.356 4.93716 340.648 5.4596C340.94 5.9829 341.009 6.42763 340.692 6.2708C340.375 6.11397 338.799 4.96832 338.799 4.96832C338.258 4.34287 337.766 3.1975 337.766 3.1975C337.609 2.68878 337.169 1.81489 337.745 1.66471C338.32 1.51454 338.102 0.800747 337.936 0.310959C337.77 -0.178835 336.766 -0.223835 336.413 1.17417C336.06 2.57218 336.901 4.34942 337.439 5.05642C337.978 5.76324 337.462 5.81085 336.925 5.54138C336.387 5.2719 335.552 4.15723 335.147 3.46501C334.743 2.77278 334.771 2.06443 334.771 2.06443C334.747 1.39223 334.576 1.19892 334.103 1.09768C333.91 1.05678 333.199 1.14487 333.388 2.25851C333.576 3.37215 334.94 5.16526 335.568 6.06578C336.194 6.96649 335.186 6.64672 334.181 6.29392C333.175 5.94026 333.144 5.72537 332.958 5.35688C332.772 4.9884 331.701 3.58971 331.422 3.19045C331.144 2.79206 331.361 2.54787 331.169 1.85749C330.976 1.16709 329.767 1.44112 329.912 2.52346C330.057 3.60492 331.286 4.99357 332.149 5.91968C333.012 6.84578 332.564 6.6403 331.918 6.55788C331.272 6.47546 329.774 5.49514 329.252 4.83167C328.729 4.16734 328.324 3.03758 328.005 2.31367C327.687 1.58977 326.929 1.85714 326.875 2.62329C326.821 3.3903 327.767 4.75549 329.06 6.05484C330.354 7.35505 331.005 7.58147 332.851 7.97621C334.697 8.37181 333.866 8.61771 332.72 9.27471C331.574 9.93171 331.099 9.52561 330.613 9.22103C330.127 8.91628 329.287 9.83145 329.953 10.6203C330.619 11.409 332.148 10.7382 332.73 10.5199C333.313 10.3015 333.226 10.9827 333.588 11.4319C333.949 11.8801 334.866 12.1698 336.168 12.3632C337.469 12.5566 337.825 12.9916 337.105 13.7481C336.384 14.5048 335.315 14.5006 334.564 14.4404C333.814 14.3811 333.79 14.0158 333.577 13.3984C333.363 12.781 332.352 12.2834 331.908 13.2613C331.464 14.2392 332.499 14.8893 333.31 15.024C334.12 15.1588 335.155 15.6307 334.652 16.1924C334.149 16.7541 333.331 16.8171 332.457 16.7715C331.582 16.726 331.443 16.4376 331.225 15.9842C331.007 15.5305 330.598 15.3429 330.102 15.5771C329.607 15.811 329.386 16.6082 329.806 17.0836C330.226 17.5591 331.6 18.2937 333.523 18.157C335.446 18.0202 336.386 17.116 336.719 16.3591C337.051 15.6022 337.685 15.0883 338.047 15.2771C338.408 15.4659 338.28 16.0336 337.396 16.5267C336.513 17.0198 337.529 18.6184 338.64 18.0401C339.751 17.4617 339.969 13.7941 339.892 13.1088C339.815 12.4237 340.145 11.3592 341.107 10.4632C342.067 9.56833 342.829 10.0934 342.829 10.0934C343.916 10.7243 342.255 11.3304 342.581 11.8573C342.872 12.3278 343.502 11.8526 343.883 12.1804C344.255 12.5003 343.803 13.362 344.274 13.5202C344.786 13.6915 345.115 12.9678 345.132 12.6211C345.148 12.2744 345.501 12.0932 345.831 12.3266C346.161 12.5599 347.922 14.5929 349.236 16.0805C350.551 17.5672 351.683 20.3877 350.839 21.3985C349.994 22.4092 348.555 22.76 346.328 22.2969C344.1 21.8338 341.07 22.3851 341.07 22.3851C339.638 20.9746 337.839 21.4868 338.461 22.9603C339.083 24.4339 340.183 24.8782 340.183 24.8782C340.183 24.8782 340.227 25.0788 340.251 25.4105C327.189 35.5287 313.532 34.8355 311.734 34.6935C311.145 32.5184 309.504 29.5791 307.116 28.1594C304.017 26.3172 303.646 25.9556 303.444 25.3961C303.242 24.8357 304.217 24.2952 304.838 23.8426C305.459 23.3898 305.305 22.5202 305.25 22.3618C305.195 22.2033 305.242 22.0193 305.298 21.5509C305.353 21.0826 304.272 21.3844 303.709 21.5716C303.147 21.7587 302.602 21.8951 302.073 21.7762C301.544 21.6573 300.305 21.6378 299.731 21.7814C299.158 21.9239 298.595 21.7986 298.022 21.4404C297.449 21.0822 297.779 20.0916 297.908 19.5426C298.037 18.9938 298.364 18.5515 298.75 18.346C299.136 18.1397 299.603 17.6325 298.574 17.1371C297.544 16.6426 296.904 17.7729 296.772 18.2441C296.639 18.7154 296.569 20.1271 296.444 20.5653C296.319 21.0035 296.124 20.1596 296.003 19.6108C295.882 19.0619 295.966 18.6487 296.103 18.1297C296.239 17.61 296.276 16.3799 295.232 16.5144C294.188 16.6499 294.75 18.4668 294.981 19.0201C295.213 19.5734 295.231 20.0225 294.933 19.8309C294.636 19.6393 293.199 18.3219 293.199 18.3219C292.732 17.6393 292.372 16.4451 292.372 16.4451C292.273 15.9221 291.935 15.0035 292.523 14.9198C293.111 14.8362 292.975 14.1023 292.865 13.5971C292.755 13.0918 291.762 12.9327 291.255 14.2807C290.747 15.6288 291.382 17.4903 291.838 18.2535C292.294 19.0166 291.775 19.0054 291.272 18.6765C290.769 18.3476 290.063 17.1458 289.739 16.4121C289.416 15.6784 289.523 14.9783 289.523 14.9783C289.575 14.3081 289.427 14.0963 288.968 13.9426C288.781 13.8797 288.064 13.8863 288.126 15.0141C288.189 16.1419 289.342 18.078 289.864 19.0432C290.386 20.0095 289.419 19.5773 288.46 19.1121C287.501 18.6469 287.493 18.4297 287.35 18.0422C287.206 17.6548 286.299 16.1429 286.067 15.7157C285.836 15.2884 286.078 15.0712 285.964 14.3632C285.85 13.6552 284.618 13.791 284.641 14.8814C284.663 15.9718 285.728 17.4916 286.482 18.5094C287.236 19.5273 286.812 19.2723 286.18 19.1175C285.548 18.9618 284.17 17.8184 283.725 17.0996C283.281 16.3809 283.005 15.2119 282.77 14.4567C282.535 13.7006 281.752 13.8807 281.612 14.6362C281.472 15.3919 282.259 16.8557 283.398 18.2932C284.537 19.7315 285.159 20.0308 286.948 20.6329C288.738 21.2351 287.886 21.3857 286.672 21.9075C285.459 22.4293 285.032 21.9724 284.584 21.6147C284.135 21.257 283.198 22.0705 283.771 22.9295C284.344 23.7884 285.94 23.2962 286.543 23.1464C287.145 22.9957 286.984 23.6624 287.292 24.1497C287.601 24.6362 288.479 25.0277 289.751 25.3679C291.023 25.7081 291.328 26.1802 290.526 26.8503C289.725 27.5205 288.662 27.3934 287.923 27.2496C287.184 27.105 287.203 26.74 287.06 26.103C286.916 25.4652 285.969 24.8562 285.417 25.7768C284.865 26.6975 285.82 27.4616 286.611 27.687C287.403 27.9124 288.376 28.4998 287.814 29.0003C287.251 29.5008 286.431 29.4707 285.568 29.3264C284.703 29.1823 284.597 28.8798 284.431 28.4044C284.266 27.9289 283.88 27.6966 283.362 27.8724C282.843 28.0484 282.534 28.8148 282.898 29.3354C283.262 29.8551 284.545 30.7407 286.471 30.8239C288.398 30.907 289.435 30.1156 289.85 29.4014C290.266 28.6871 290.953 28.2493 291.292 28.4781C291.629 28.7071 291.438 29.2557 290.505 29.646C289.571 30.0353 290.401 31.7384 291.571 31.2908C292.74 30.8424 293.369 27.2242 293.369 26.5351C293.37 25.8461 293.818 24.8258 294.874 24.0458C295.929 23.2658 296.627 23.8739 296.627 23.8739C297.636 24.624 295.917 25.038 296.181 25.5979C296.418 26.098 297.097 25.6977 297.439 26.0673C297.773 26.4278 297.226 27.232 297.677 27.4424C298.166 27.6708 298.574 26.9895 298.63 26.6473C298.685 26.305 299.056 26.1648 299.357 26.4341C299.659 26.7032 301.18 28.9232 302.32 30.5496C303.459 32.1763 304.267 35.1062 303.314 36.0148C302.361 36.9235 300.892 37.108 298.731 36.3947C296.569 35.6816 293.495 35.8846 293.495 35.8846C292.231 34.3207 290.385 34.6246 290.838 36.1595C291.29 37.6934 292.334 38.2605 292.334 38.2605C292.334 38.2605 292.353 38.423 292.346 38.7019C292.299 38.7057 292.251 38.7176 292.209 38.7464C279.109 47.5558 266.131 46.4841 263.374 46.1299C263.177 43.8915 261.872 40.4278 259.502 38.6061C256.643 36.4077 256.317 36.0041 256.182 35.424C256.048 34.8437 257.079 34.4237 257.75 34.0477C258.421 33.6728 258.37 32.791 258.334 32.6266C258.299 32.4631 258.368 32.2855 258.478 31.8279C258.588 31.3703 257.479 31.5395 256.898 31.6584C256.317 31.7774 255.761 31.8471 255.249 31.6659C254.737 31.4848 253.508 31.3172 252.922 31.3913C252.336 31.4646 251.792 31.2731 251.265 30.8484C250.738 30.4245 251.184 29.4805 251.377 28.9505C251.569 28.4205 251.946 28.0215 252.354 27.8628C252.762 27.7041 253.286 27.2558 252.322 26.6421C251.358 26.0284 250.589 27.0736 250.401 27.5259C250.214 27.9783 249.978 29.3703 249.801 29.7906C249.625 30.2108 249.531 29.35 249.476 28.7899C249.42 28.2307 249.553 27.8306 249.749 27.3313C249.946 26.832 250.128 25.6143 249.075 25.6239C248.022 25.6333 248.365 27.5048 248.53 28.0813C248.694 28.6578 248.659 29.1066 248.386 28.8801C248.113 28.6535 246.842 27.1748 246.842 27.1748C246.459 26.4421 246.242 25.2137 246.242 25.2137C246.205 24.6821 245.978 23.7307 246.573 23.7178C247.167 23.7049 247.119 22.9605 247.069 22.4461C247.019 21.9315 246.052 21.6545 245.388 22.932C244.725 24.2096 245.136 26.1333 245.498 26.9461C245.861 27.7579 245.347 27.6851 244.886 27.2987C244.425 26.9122 243.866 25.635 243.631 24.8681C243.397 24.1011 243.586 23.4188 243.586 23.4188C243.716 22.7589 243.594 22.5317 243.157 22.3239C242.978 22.2395 242.265 22.1603 242.194 23.2868C242.123 24.4133 243.039 26.4727 243.444 27.4945C243.848 28.5154 242.939 27.971 242.041 27.3946C241.143 26.8181 241.161 26.6017 241.065 26.1998C240.968 25.7989 240.246 24.1891 240.066 23.7373C239.887 23.2855 240.153 23.0982 240.124 22.3822C240.094 21.6662 238.855 21.6531 238.748 22.7386C238.641 23.824 239.52 25.4592 240.148 26.5596C240.776 27.6599 240.386 27.3564 239.777 27.1265C239.167 26.8967 237.933 25.5966 237.577 24.8302C237.22 24.063 237.084 22.8707 236.94 22.0926C236.796 21.3144 235.997 21.3997 235.768 22.1327C235.54 22.8657 236.148 24.4125 237.11 25.9768C238.072 27.5402 238.653 27.912 240.361 28.7235C242.068 29.535 241.202 29.583 239.936 29.9558C238.669 30.3286 238.3 29.8244 237.897 29.4156C237.494 29.0069 236.466 29.7026 236.934 30.6235C237.402 31.5445 239.044 31.2467 239.661 31.1696C240.278 31.0926 240.038 31.7352 240.287 32.255C240.537 32.7748 241.362 33.2685 242.586 33.7586C243.809 34.2479 244.056 34.7529 243.181 35.3226C242.305 35.8915 241.265 35.6398 240.548 35.4075C239.832 35.1761 239.893 34.8155 239.826 34.166C239.759 33.5155 238.89 32.798 238.233 33.6464C237.576 34.4948 238.435 35.3669 239.193 35.6847C239.951 36.0027 240.849 36.7017 240.232 37.1319C239.614 37.5614 238.803 37.4338 237.962 37.1866C237.121 36.9403 237.051 36.6274 236.942 36.1353C236.834 35.6431 236.479 35.3665 235.943 35.4796C235.407 35.5926 235.009 36.3165 235.309 36.876C235.609 37.4355 236.778 38.4685 238.682 38.7807C240.586 39.0929 241.709 38.4319 242.206 37.7723C242.703 37.1127 243.438 36.7602 243.746 37.0279C244.055 37.2955 243.8 37.8171 242.827 38.0925C241.853 38.368 242.477 40.1581 243.69 39.8524C244.904 39.5476 245.957 36.0311 246.04 35.3472C246.122 34.6633 246.688 33.7036 247.828 33.056C248.968 32.4075 249.59 33.0956 249.59 33.0956C250.504 33.9606 248.748 34.1663 248.944 34.7541C249.119 35.2788 249.842 34.9631 250.137 35.3696C250.426 35.7676 249.788 36.5002 250.211 36.7633C250.67 37.0485 251.157 36.421 251.251 36.0874C251.347 35.7537 251.732 35.6593 251.999 35.9626C252.267 36.266 253.515 38.6511 254.455 40.4021C255.395 42.1521 255.851 45.1577 254.796 45.9457C253.743 46.7335 252.261 46.7412 250.199 45.7747C248.136 44.8081 245.06 44.6426 245.06 44.6426C243.988 42.9394 242.12 43.0204 242.388 44.5971C242.535 45.4665 242.894 46.0566 243.188 46.4192C228.988 54.5332 215.681 52.0588 213.827 51.6559C213.859 49.411 212.905 45.817 210.72 43.7606C208.091 41.2871 207.807 40.8539 207.731 40.2622C207.654 39.6714 208.723 39.357 209.428 39.0504C210.133 38.7448 210.17 37.8624 210.15 37.6955C210.13 37.5286 210.216 37.3599 210.372 36.9153C210.527 36.4707 209.406 36.5289 208.816 36.5885C208.226 36.6482 207.665 36.6621 207.173 36.4315C206.682 36.2001 205.476 35.9106 204.885 35.9253C204.294 35.9403 203.772 35.6946 203.289 35.2199C202.807 34.7451 203.344 33.851 203.588 33.3435C203.832 32.8359 204.247 32.4766 204.669 32.3599C205.091 32.2432 205.657 31.8492 204.759 31.1421C203.861 30.4342 202.991 31.3981 202.76 31.829C202.529 32.2601 202.156 33.6219 201.939 34.0219C201.722 34.4219 201.714 33.5564 201.714 32.9943C201.715 32.4322 201.886 32.0481 202.131 31.5709C202.377 31.0937 202.678 29.9011 201.63 29.8052C200.581 29.7093 200.737 31.6051 200.844 32.1949C200.951 32.7847 200.871 33.2276 200.622 32.9752C200.372 32.7229 199.254 31.1244 199.254 31.1244C198.945 30.3568 198.851 29.1133 198.851 29.1133C198.868 28.5811 198.735 27.6114 199.328 27.6583C199.921 27.7044 199.947 26.9594 199.948 26.4422C199.949 25.9259 199.014 25.5537 198.227 26.7576C197.44 27.9624 197.659 29.9169 197.939 30.7617C198.219 31.6055 197.715 31.4812 197.294 31.051C196.873 30.6208 196.443 29.2937 196.286 28.5076C196.129 27.7214 196.384 27.061 196.384 27.061C196.58 26.4179 196.481 26.1796 196.066 25.9291C195.896 25.8273 195.195 25.6766 195.012 26.7907C194.829 27.9049 195.539 30.0453 195.839 31.1017C196.14 32.1582 195.289 31.5258 194.453 30.8623C193.617 30.199 193.656 29.9852 193.601 29.5764C193.544 29.1678 192.984 27.4946 192.85 27.027C192.717 26.5591 193 26.4007 193.042 25.6848C193.083 24.9699 191.852 24.8327 191.637 25.9013C191.423 26.97 192.136 28.6854 192.653 29.8428C193.169 31.0002 192.811 30.6593 192.227 30.3701C191.643 30.0808 190.543 28.6638 190.264 27.8657C189.985 27.0667 189.968 25.8671 189.902 25.0787C189.836 24.2904 189.032 24.2947 188.732 25.0013C188.433 25.708 188.885 27.3069 189.686 28.9593C190.489 30.6107 191.031 31.0386 192.649 32.0176C194.268 32.9966 193.402 32.9563 192.105 33.2005C190.807 33.4448 190.489 32.9053 190.128 32.4588C189.767 32.0114 188.677 32.6008 189.051 33.5642C189.425 34.5276 191.09 34.3952 191.712 34.3801C192.333 34.365 192.031 34.9805 192.227 35.5223C192.424 36.0641 193.197 36.6383 194.366 37.2481C195.535 37.8578 195.731 38.3846 194.804 38.8635C193.876 39.3418 192.866 38.9873 192.175 38.6846C191.485 38.3819 191.581 38.0309 191.58 37.3775C191.578 36.724 190.782 35.9231 190.045 36.7012C189.307 37.4795 190.076 38.4329 190.799 38.8257C191.522 39.2188 192.347 40.0035 191.69 40.3693C191.033 40.735 190.238 40.5266 189.425 40.1967C188.613 39.8669 188.574 39.5491 188.515 39.0492C188.457 38.5492 188.13 38.2377 187.585 38.2967C187.041 38.3557 186.574 39.0358 186.817 39.6227C187.06 40.2096 188.121 41.3538 189.986 41.8546C191.849 42.3564 193.033 41.8102 193.593 41.204C194.153 40.5976 194.919 40.3205 195.2 40.6175C195.48 40.9144 195.175 41.408 194.179 41.5847C193.183 41.7613 193.626 43.6043 194.865 43.422C196.104 43.2397 197.499 39.8477 197.648 39.1748C197.797 38.5028 198.456 37.6053 199.655 37.074C200.854 36.5427 201.405 37.2893 201.405 37.2893C202.229 38.2409 200.46 38.2701 200.597 38.874C200.72 39.4135 201.47 39.1712 201.724 39.6063C201.971 40.031 201.264 40.6965 201.659 40.9998C202.087 41.3294 202.634 40.7539 202.761 40.4314C202.889 40.1089 203.282 40.0541 203.518 40.3822C203.754 40.7102 204.761 43.2089 205.523 45.0436C206.284 46.8793 206.441 49.9144 205.313 50.5927C204.186 51.2709 202.712 51.1303 200.754 49.9622C198.798 48.7949 195.751 48.322 195.751 48.322C194.854 46.5205 192.986 46.4141 193.096 48.01C193.113 48.2541 193.153 48.4736 193.2 48.6796C178.902 48.945 166.427 41.7035 159.724 36.8627C159.419 36.4574 159.06 36.2167 158.68 36.0958C157.266 35.0354 156.182 34.1392 155.47 33.526C155.776 33.2402 155.903 32.8493 155.74 32.5392C155.567 32.2111 155.139 32.0887 154.707 32.2112C154.742 32.1308 154.746 32.047 154.708 31.9749C154.632 31.8299 154.41 31.7807 154.222 31.8738C154.219 31.8754 154.216 31.8769 154.212 31.8785L153.961 32.0112C153.883 31.9442 153.768 31.9252 153.67 31.9741L153.38 32.1177C153.283 32.1652 153.229 32.265 153.232 32.367C151.953 33.0181 150.625 33.5551 149.259 33.9708C148.903 33.533 148.463 33.1448 148.144 32.4831C148.168 32.4853 148.191 32.4893 148.215 32.4904C148.803 32.497 149.284 32.1084 149.289 31.6219C149.293 31.1698 148.84 30.7005 148.264 30.5492C148.257 30.4949 148.253 30.4415 148.245 30.3867C148.208 30.171 148.155 29.9635 148.093 29.7596C148.35 29.8069 148.546 29.8732 148.546 29.8732C148.475 29.4264 148.076 29.3642 148.076 29.3642L148.332 29.3207C148.257 29.2737 148.176 29.2476 148.094 29.2309C148.805 29.0122 148.717 27.7296 148 27.8288C145.663 23.2623 140.984 24.526 139.262 26.9528C137.771 29.0528 136.962 30.6585 134.856 29.8291C134.925 29.2048 134.523 28.6139 133.899 28.4727C133.229 28.3206 132.565 28.7428 132.415 29.415C132.265 30.088 132.687 30.7567 133.356 30.909C133.646 30.9753 133.932 30.928 134.179 30.8052C134.25 30.863 134.324 30.9166 134.398 30.9567C136.456 32.0746 138.553 31.8443 138.85 31.5118C138.58 31.9898 139.26 32.5594 139.26 32.5594C139.305 32.6047 139.387 32.5855 139.49 32.5267C139.716 33.2658 140.091 33.9219 140.576 34.4564C140.115 35.4298 139.497 36.8716 139.067 38.4067C138.463 38.3494 137.588 38.7732 136.557 39.2733C137.187 38.6378 137.847 37.95 137.985 37.6837C138 37.6373 138 37.5941 137.989 37.555C137.96 37.4451 137.845 37.3578 137.711 37.2891C137.366 37.0319 137 36.7927 136.619 36.5711L136.883 35.5962L136.754 35.5606L133.647 34.7008C133.978 34.6908 134.356 34.733 134.723 34.7748C135.448 34.8567 136.198 34.9404 136.532 34.6063C136.692 34.4472 136.752 34.2049 136.716 33.8657C136.677 33.4921 136.317 33.0255 135.705 32.8567C135.273 32.7369 134.772 32.7722 134.217 32.9612C133.622 33.1643 133.181 33.6003 132.867 34.2957L132.856 34.2709C132.994 33.4437 132.966 32.5653 132.313 31.7331C131.959 31.2815 131.536 30.9852 131.055 30.8523C130.051 30.5748 129.076 31.1028 128.793 31.7699C128.65 32.1074 128.631 32.3781 128.732 32.596C128.925 33.0073 129.538 33.193 130.188 33.3891C130.829 33.5833 131.492 33.7837 131.905 34.221L128.6 33.3069L128.473 33.2717L128.279 33.9867C127.458 33.8711 126.902 33.8262 126.776 33.8171C126.758 33.8145 126.748 33.815 126.748 33.815C126.736 33.8256 126.72 33.874 126.713 33.9259C126.697 33.9905 127.11 35.34 127.114 36.3939C125.403 33.5522 123.457 30.0797 122.527 29.3895C121.377 28.537 118.815 27.9431 117.604 31.3653C116.393 34.7866 117.994 37.7163 118.816 36.3241C120.518 33.4415 121.565 36.4008 122.032 39.9642C122.5 43.5285 122.597 50.3489 124.069 52.0884C125.706 54.0217 126.014 54.891 130.724 55.6849C129.312 59.7135 127.023 61.5194 126.524 61.8741C124.55 61.7335 123.312 61.6444 123.248 61.6401C123.241 61.6398 122.453 61.5802 121.703 61.1524C120.747 60.6073 120.317 59.7378 120.388 58.4934C120.47 57.0629 121.258 56.4226 121.967 56.2998C122.51 56.206 123.265 56.3832 123.605 57.1891C123.79 57.6279 124.293 57.8335 124.729 57.648C125.165 57.4626 125.368 56.9574 125.183 56.5186C124.589 55.1119 123.179 54.3409 121.673 54.6007C120.378 54.8237 118.816 55.9501 118.675 58.3899C118.537 60.8042 119.787 62.0398 120.86 62.6511C121.262 62.8799 121.663 63.036 122.014 63.1415C122.612 63.3207 123.066 63.3556 123.136 63.3597C124.488 63.4568 156.287 65.7327 158.538 65.8099C162.2 65.9357 164.627 64.7994 165.958 62.3361C167.473 59.532 167.01 57.0059 164.544 54.613C163.994 54.0789 162.705 52.8282 162.748 52.3515C162.753 52.2991 162.81 52.1024 163.336 51.7566C163.732 51.4968 163.842 50.9627 163.583 50.5639C163.323 50.1651 162.792 50.053 162.396 50.3128C161.549 50.8682 161.107 51.4811 161.042 52.1874C160.929 53.3947 161.976 54.5141 163.356 55.8528C165.265 57.7047 165.593 59.3976 164.451 61.5108C163.446 63.3716 161.585 64.1897 158.593 64.088C158.343 64.0798 157.705 64.0426 156.772 63.9823C156.728 63.8719 156.667 63.7687 156.569 63.6886C156.563 63.6828 155.872 63.111 155.07 61.9044C154.477 61.0118 153.729 59.6047 153.193 57.6824C159.196 56.8206 160.932 50.1888 160.299 47.474C163.877 48.8117 168.267 50.1356 173.121 50.923C179.491 51.9566 186.656 52.0654 193.814 50.0685C193.973 50.2823 194.097 50.3903 194.097 50.3903C194.097 50.3903 193.98 51.5454 193.103 52.8286C192.227 54.1117 190.405 54.5514 189.438 54.7119C188.472 54.8722 186.879 56.0203 185.752 56.9751C184.624 57.9299 182.472 59.1221 180.71 60.1227C178.946 61.1234 179.031 62.6102 179.523 62.8569C180.016 63.1035 180.602 62.9222 181.105 62.4532C181.608 61.9851 182.579 61.414 182.994 61.0701C183.41 60.7259 185.464 59.277 186.356 58.6172C187.248 57.9575 187.534 57.8589 187.812 58.0493C188.09 58.2397 187.619 58.7838 185.898 60.224C184.177 61.6643 183.743 61.8727 183.297 61.6855C182.853 61.4989 181.66 63.4276 181.836 64.3198C182.011 65.2119 182.898 64.9018 184.045 64.1446C185.193 63.3873 188.231 60.182 189.906 58.728C191.582 57.2741 191.499 57.5951 193.792 57.6753C196.084 57.7563 196.75 57.1617 197.643 56.5323C198.537 55.903 200.826 57.032 202.216 57.9551C203.606 58.8782 204.937 58.7853 205.853 58.4132C206.768 58.0411 207.851 58.2579 209.761 58.8037C211.671 59.3496 213.568 57.6775 214.075 57.3607C214.582 57.0449 214.404 57.7475 213.769 58.3715C213.133 58.9947 212.471 58.6311 211.791 59.2557C211.11 59.8805 211.174 61.7329 211.919 61.806C212.665 61.879 214.01 59.9918 214.453 59.5401C214.896 59.0884 214.405 60.0276 213.932 61.0728C213.46 62.118 213.507 62.7699 213.968 62.9718C214.428 63.1731 214.937 62.3551 215.414 61.4774C215.891 60.5997 217.949 57.0084 218.66 55.2128C219.371 53.4172 217.556 53.0212 216.393 53.217C215.23 53.4129 214.104 53.8199 213.826 53.6294C213.548 53.439 213.684 52.8428 213.684 52.8428C213.73 52.6699 213.761 52.4669 213.784 52.2513C214.846 52.4751 218.449 53.1231 223.489 52.8453C228.988 52.5419 236.185 51.132 243.605 46.8574C243.608 46.8596 243.618 46.8673 243.618 46.8673C243.618 46.8673 243.616 48.0286 242.871 49.3929C242.126 50.7572 240.357 51.3773 239.411 51.6341C238.466 51.8909 236.995 53.1932 235.969 54.2553C234.942 55.3183 232.919 56.7201 231.264 57.8922C229.61 59.0643 229.841 60.5363 230.356 60.7313C230.869 60.9275 231.435 60.6883 231.889 60.1713C232.343 59.6551 233.252 58.99 233.631 58.6049C234.011 58.2208 235.911 56.5732 236.733 55.8273C237.556 55.0806 237.83 54.9548 238.126 55.1162C238.422 55.2784 238.007 55.8664 236.437 57.4717C234.868 59.0778 234.456 59.3283 233.996 59.1867C233.535 59.0451 232.539 61.0849 232.802 61.9549C233.065 62.8248 233.916 62.4277 234.983 61.559C236.049 60.6902 238.755 57.1961 240.277 55.5811C241.799 53.9662 241.749 54.2937 244.038 54.145C246.326 53.9964 246.93 53.3384 247.757 52.6224C248.583 51.9063 250.973 52.8007 252.446 53.5807C253.92 54.3608 255.236 54.1343 256.109 53.673C256.983 53.2118 258.081 53.3188 260.035 53.6707C261.99 54.0227 263.711 52.168 264.184 51.8027C264.657 51.4374 264.549 52.1547 263.979 52.8388C263.409 53.5228 262.714 53.2274 262.099 53.9166C261.483 54.6058 261.731 56.4436 262.479 56.4413C263.227 56.439 264.378 54.4263 264.774 53.9333C265.17 53.4395 264.775 54.423 264.408 55.5106C264.041 56.5982 264.153 57.2427 264.631 57.3969C265.109 57.5511 265.535 56.686 265.922 55.7652C266.31 54.8434 268.001 51.0635 268.53 49.2056C269.059 47.3478 267.214 47.1348 266.077 47.4458C264.94 47.7569 263.86 48.2755 263.564 48.1133C263.268 47.9519 263.344 47.3449 263.344 47.3449C263.374 47.1629 263.385 46.9498 263.386 46.7254C264.768 46.8955 268.199 47.1831 272.769 46.6196C278.193 45.9513 285.211 44.0795 292.273 39.3955C292.213 39.8117 292.097 40.3166 291.879 40.8627C291.301 42.3067 289.617 43.1339 288.709 43.5015C287.801 43.8693 286.496 45.3382 285.602 46.5162C284.708 47.6941 282.866 49.3285 281.363 50.691C279.858 52.0527 280.263 53.487 280.796 53.6196C281.329 53.753 281.863 53.4478 282.252 52.8804C282.642 52.313 283.465 51.5436 283.796 51.1167C284.127 50.6897 285.818 48.8262 286.547 47.9869C287.276 47.1475 287.533 46.9893 287.845 47.1147C288.158 47.2402 287.816 47.8739 286.448 49.6561C285.08 51.4383 284.701 51.7368 284.227 51.6511C283.753 51.5654 283.006 53.7099 283.37 54.5432C283.733 55.3765 284.531 54.88 285.487 53.8896C286.443 52.8992 288.716 49.1055 290.036 47.32C291.356 45.5345 291.345 45.8656 293.599 45.4442C295.852 45.0228 296.374 44.2976 297.11 43.4874C297.846 42.6772 300.323 43.2808 301.878 43.8789C303.433 44.4778 304.712 44.0951 305.525 43.5325C306.337 42.9698 307.44 42.9443 309.421 43.0608C311.403 43.1774 312.892 41.1297 313.319 40.7103C313.746 40.2909 313.723 41.0161 313.238 41.7642C312.753 42.5121 312.027 42.3007 311.498 43.0597C310.969 43.8179 311.431 45.6137 312.174 45.5225C312.917 45.4313 313.822 43.2945 314.156 42.7569C314.49 42.2193 314.215 43.2434 313.979 44.367C313.743 45.4906 313.931 46.1172 314.423 46.2133C314.916 46.3095 315.236 45.4002 315.512 44.4384C315.788 43.4774 317.02 39.5202 317.325 37.6117C317.631 35.7033 315.775 35.7124 314.683 36.157C313.591 36.6016 312.58 37.2452 312.267 37.1198C311.955 36.9943 311.958 36.3821 311.958 36.3821C311.972 36.0748 311.933 35.703 311.855 35.2953C313.016 35.3737 316.629 35.4983 321.482 34.555C326.793 33.5226 333.581 31.2017 340.238 26.1445C340.218 26.5406 340.16 27.005 340.019 27.5177C339.608 29.0181 338.029 30.032 337.167 30.5006C336.306 30.9691 335.175 32.5775 334.42 33.8504C333.664 35.1232 332.019 36.9572 330.678 38.4813C329.337 40.0055 329.9 41.3845 330.445 41.457C330.989 41.5286 331.484 41.165 331.808 40.5567C332.131 39.9486 332.862 39.0906 333.143 38.6284C333.423 38.1662 334.894 36.1225 335.523 35.2054C336.152 34.2882 336.39 34.1016 336.714 34.1912C337.039 34.2807 336.771 34.9492 335.612 36.8759C334.454 38.8027 334.112 39.142 333.631 39.111C333.149 39.08 332.649 41.2956 333.104 42.0823C333.56 42.869 334.296 42.2847 335.135 41.1923C335.973 40.099 337.804 36.0705 338.915 34.1459C340.025 32.2212 340.051 32.5515 342.242 31.8769C344.434 31.2021 344.871 30.4212 345.51 29.5324C346.149 28.6436 348.678 28.9617 350.29 29.38C351.902 29.7984 353.13 29.2726 353.874 28.6209C354.619 27.9691 355.711 27.819 357.692 27.7095C359.674 27.5999 360.922 25.3954 361.299 24.9299C361.675 24.4644 361.735 25.1884 361.337 25.9863C360.939 26.7842 360.196 26.6576 359.756 27.4717C359.315 28.2857 359.976 30.0176 360.704 29.8423C361.431 29.667 362.09 27.4412 362.361 26.8683C362.633 26.2962 362.474 27.3451 362.366 28.4884C362.259 29.6324 362.515 30.2336 363.015 30.2732C363.515 30.3129 363.73 29.3727 363.897 28.3855C364.063 27.3982 364.841 23.3259 364.93 21.395C365.039 19.4562 363.196 19.676 362.161 20.2426ZM337.989 11.2755C336.735 11.6239 336.167 11.2043 335.528 10.8591C334.89 10.5139 334.125 10.0227 334.875 9.69215C334.875 9.69215 335.324 9.40206 335.554 8.97497C335.783 8.54805 336.321 8.29863 336.512 8.81095C336.703 9.32326 336.971 9.7824 337.69 9.75658C338.408 9.73095 338.905 9.76297 339.092 10.1313C339.277 10.5008 339.243 10.9279 337.989 11.2755ZM341.069 8.73385C340.327 8.89068 339.348 8.86822 339.348 8.86822C339.348 8.86822 338.098 8.89899 337.965 8.0238C337.833 7.14861 338.043 6.99672 339.054 7.29972C340.065 7.60184 340.294 7.56496 340.948 7.75819C341.603 7.94951 342.183 8.49903 341.069 8.73385ZM291.685 24.4949C290.4 24.6977 289.882 24.2171 289.287 23.8015C288.691 23.3858 287.985 22.8109 288.768 22.5679C288.768 22.5679 289.248 22.3309 289.524 21.9326C289.8 21.5354 290.362 21.3474 290.495 21.8785C290.627 22.4087 290.842 22.8962 291.559 22.9518C292.276 23.0075 292.767 23.0968 292.911 23.4841C293.052 23.871 292.97 24.2912 291.685 24.4949ZM295.033 22.3198C294.277 22.3913 293.306 22.2572 293.306 22.2572C293.306 22.2572 292.06 22.1455 292.027 21.261C291.994 20.3764 292.221 20.2499 293.191 20.6651C294.161 21.0803 294.393 21.0696 295.021 21.3361C295.65 21.6023 296.165 22.2133 295.033 22.3198ZM244.612 33.12C243.311 33.1686 242.853 32.6283 242.311 32.1455C241.769 31.6628 241.136 31.0065 241.942 30.8595C241.942 30.8595 242.447 30.6811 242.767 30.3194C243.088 29.9576 243.669 29.8386 243.738 30.3815C243.806 30.9243 243.962 31.4326 244.668 31.5743C245.373 31.7153 245.85 31.8624 245.947 32.2633C246.043 32.6644 245.911 33.0716 244.612 33.12ZM248.194 31.3616C247.435 31.3419 246.486 31.0932 246.486 31.0932C246.486 31.0932 245.262 30.8329 245.334 29.9512C245.406 29.0695 245.646 28.9708 246.56 29.4987C247.475 30.0275 247.707 30.044 248.299 30.3836C248.892 30.7225 249.33 31.3912 248.194 31.3616ZM196.446 36.8132C195.147 36.7308 194.745 36.1481 194.253 35.6131C193.762 35.0782 193.197 34.3625 194.014 34.2969C194.014 34.2969 194.534 34.1701 194.889 33.8426C195.244 33.5148 195.834 33.4543 195.848 34.0015C195.863 34.5488 195.968 35.0703 196.656 35.2808C197.344 35.4921 197.804 35.6861 197.86 36.0947C197.917 36.5041 197.745 36.8956 196.446 36.8132ZM200.185 35.4231C199.432 35.3275 198.513 34.9852 198.513 34.9852C198.513 34.9852 197.32 34.6038 197.479 33.7343C197.637 32.8639 197.886 32.7895 198.744 33.4068C199.602 34.0241 199.831 34.0637 200.387 34.4607C200.943 34.8576 201.314 35.5659 200.185 35.4231ZM157.619 36.007C156.591 36.13 155.692 36.7209 155.692 36.7209C155.692 36.7209 152.437 38.4161 152.888 41.8415C152.958 42.3528 153.033 42.9752 153.096 43.6599C152.603 43.4062 152.198 43.1888 151.883 43.0161C151.835 42.8696 151.761 42.7241 151.643 42.5953C151.729 42.5904 151.806 42.5569 151.853 42.4902C151.947 42.3569 151.89 42.1357 151.721 42.0096C151.717 42.0075 151.714 42.0055 151.711 42.0035L151.462 41.8259C151.481 41.7272 151.465 41.6244 151.38 41.5606L151.12 41.3655C151.032 41.2994 150.926 41.3149 150.836 41.3654C150.289 40.9665 149.757 40.5474 149.243 40.1055C149.175 39.531 149.081 38.9475 148.977 38.3852C150.011 38.6922 150.731 38.7535 150.731 38.7535C150.208 38.1171 149.712 37.3471 149.846 36.0849C149.851 36.037 149.85 35.9976 149.854 35.9518C151.333 35.5103 152.768 34.9397 154.156 34.2384C154.235 34.318 154.357 34.3443 154.462 34.2922L154.752 34.1486C154.851 34.0997 154.906 33.9961 154.9 33.892L154.975 33.8508C155.567 34.3672 156.462 35.1154 157.619 36.007ZM146.219 57.3248C146.878 60.2189 148.02 62.2196 148.936 63.4461C144.353 63.1287 138.879 62.7432 134.163 62.4099C135.198 61.4613 136.791 59.6242 137.936 56.5665C140.213 56.7929 142.945 57.0409 146.219 57.3248ZM147.149 52.5873C145.356 52.3721 145.294 51.6495 145.671 48.2173C145.718 47.7858 145.71 47.367 145.678 46.9549C145.744 46.9248 145.865 46.9513 146.108 47.1103C146.836 47.6157 146.186 51.4392 147.068 51.9155C147.044 52.0114 147.037 52.1157 147.055 52.2361C147.078 52.3717 147.115 52.4755 147.149 52.5873ZM147.923 29.2049C147.916 29.2047 147.909 29.2063 147.901 29.2069C147.898 29.1978 147.894 29.1887 147.889 29.1797C147.901 29.1881 147.914 29.1971 147.923 29.2049ZM134.358 33.605C134.892 33.4213 135.289 33.3701 135.575 33.449C135.808 33.513 135.928 33.6532 136.028 33.802C136.036 33.8112 136.046 33.8234 136.05 33.8415C136.079 33.9785 136.061 34.0877 135.995 34.1675C135.831 34.3654 135.395 34.3518 134.891 34.3356C134.38 34.319 133.68 34.2515 133.243 34.4382L133.269 34.4056C133.559 34.0504 133.855 33.7786 134.358 33.605ZM130.941 33.1172C130.467 32.9452 130.057 32.7963 129.967 32.5129C129.918 32.3611 129.965 32.1846 130.121 31.9613C130.25 31.844 130.712 31.4727 131.279 31.6296C131.608 31.7201 131.852 31.9465 132.104 32.3685C132.555 33.1272 132.47 33.5721 132.436 33.9846L132.383 33.9258C131.989 33.4735 131.552 33.3394 130.941 33.1172ZM132.351 55.9243C133.501 56.0834 134.849 56.2437 136.454 56.4131C134.844 60.4198 132.418 61.9793 132.383 62.0011C132.276 62.0673 132.201 62.1624 132.143 62.2665C130.942 62.1813 129.815 62.1012 128.792 62.0286C129.893 60.895 131.348 58.9457 132.351 55.9243ZM151.203 63.6018C150.706 63.1374 148.878 61.2186 147.907 57.4703C148.887 57.5548 149.895 57.6403 150.968 57.7312C151.236 57.7543 151.497 57.7646 151.752 57.7681C152.545 60.8165 153.862 62.7853 154.756 63.8418C153.718 63.7733 152.517 63.6916 151.203 63.6018ZM152.257 51.3943C152.223 51.305 152.177 51.2276 152.12 51.1668C151.882 50.9128 151.754 50.6861 150.268 50.8605C150.192 49.2791 151.258 45.559 149.897 44.5371C149.609 44.3209 149.199 44.191 148.762 44.1109C149.034 43.8369 149.198 43.3967 149.283 42.851C149.383 42.927 149.487 43.0005 149.588 43.0743C149.581 43.164 149.602 43.2533 149.678 43.311L149.938 43.5053C150.023 43.5691 150.126 43.5562 150.215 43.5095L150.513 43.7163C150.983 44.0495 151.569 44.0331 151.824 43.669C151.828 43.6627 151.829 43.6554 151.832 43.6483C152.185 43.8391 152.628 44.0737 153.15 44.3382C153.321 46.7605 153.269 49.7148 152.257 51.3943ZM160.077 46.7556C159.251 44.722 157.902 44.2963 157.021 43.0993C156.141 41.9048 155.55 39.6799 156.946 38.8509C158.374 38.0025 156.21 41.2679 157.99 42.2422C159.372 42.9985 161.163 40.7429 160.269 37.9536C163.756 40.3952 168.554 43.3038 174.226 45.562C179.892 47.8185 186.431 49.4231 193.392 49.2603C193.432 49.3608 193.473 49.4574 193.517 49.5445C180.871 53.0061 168.225 49.8608 160.077 46.7556Z" fill="#CC3332"/>
<path d="M108.037 59.3317L107.264 60.1435L107.091 59.0311L106.083 58.5412L107.081 58.0354L107.23 56.9203L108.021 57.7196L109.122 57.5206L108.612 58.5207L109.143 59.5127L108.037 59.3317Z" fill="#CC3332"/>
<path d="M69.6082 49.6256C69.6563 49.5443 69.7478 49.4987 69.8416 49.5103L71.5968 49.7262L72.3278 48.1101C72.3667 48.0234 72.4527 47.9691 72.5477 47.9696C72.6421 47.9712 72.7267 48.0279 72.7641 48.1155L73.46 49.7507L75.2194 49.5821C75.3133 49.573 75.4039 49.6203 75.4502 49.7033C75.4965 49.7862 75.4896 49.8885 75.4332 49.9645L74.3741 51.3847L75.4025 52.8322C75.4575 52.9097 75.4623 53.0122 75.4134 53.0938C75.3653 53.1751 75.2738 53.2207 75.18 53.2091L73.4248 52.9932L72.6939 54.6093C72.655 54.696 72.5689 54.7503 72.4739 54.7498C72.3795 54.7482 72.2941 54.6916 72.2575 54.6039L71.5616 52.9687L69.8022 53.1373C69.7083 53.1464 69.6175 53.0982 69.5714 53.0161C69.5251 52.9332 69.532 52.8309 69.5884 52.7549L70.6484 51.3345L69.6199 49.887C69.5641 49.8097 69.5593 49.7072 69.6082 49.6256ZM71.8693 50.0645C71.8242 50.1471 71.7692 50.2128 71.6745 50.2014L70.3018 50.0411L71.1271 51.194C71.1874 51.2794 71.1908 51.3967 71.1288 51.4801L70.2913 52.6074L71.6876 52.4745C71.7911 52.4642 71.8896 52.5234 71.9307 52.62L72.4822 53.9167L73.0613 52.6355C73.1046 52.5398 73.2039 52.4845 73.3068 52.4968L74.6987 52.6675L73.8834 51.5196C73.8232 51.4342 73.8239 51.3197 73.8867 51.2361L74.7264 50.1102L73.3311 50.2438C73.2276 50.2541 73.1299 50.1947 73.089 50.0989L72.499 48.7806L71.8812 50.0404C71.8777 50.0493 71.8738 50.0564 71.8693 50.0645Z" fill="#CC3332"/>
<path d="M85.4814 46.7651L84.9768 45.8025L86.0421 45.9867L86.7956 45.2096L86.9525 46.2849L87.9226 46.7668L86.9545 47.2463L86.8008 48.3219L86.0452 47.5432L84.9801 47.7264L85.4814 46.7651Z" fill="#CC3332"/>
<path d="M82.2445 53.9753L81.2159 53.6139L81.5586 54.6533L80.902 55.5242L81.9899 55.5199L82.6119 56.4198L82.942 55.3779L83.9834 55.062L83.0988 54.4223L83.1207 53.3288L82.2445 53.9753Z" fill="#CC3332"/>
<path d="M76.6658 41.2737C76.7504 41.0522 76.6402 40.8036 76.4207 40.7188C76.201 40.6331 75.954 40.7433 75.8693 40.9639C75.7848 41.1854 75.8949 41.434 76.1144 41.5188C76.3341 41.6045 76.5811 41.4944 76.6658 41.2737Z" fill="#CC3332"/>
<path d="M60.1377 49.9212L60.0579 48.8214L59.239 49.552L58.1744 49.2866L58.6139 50.2973L58.0364 51.2324L59.1267 51.1258L59.8344 51.9697L60.0687 50.8941L61.0838 50.4802L60.1377 49.9212Z" fill="#CC3332"/>
<path d="M65.7651 37.1765L65.4437 36.3847L65.0146 37.1208L64.1661 37.1814L64.731 37.8214L64.5285 38.6507L65.3067 38.3096L66.0296 38.7621L65.9454 37.9109L66.595 37.3612L65.7651 37.1765Z" fill="#CC3332"/>
<path d="M56.4353 41.2314C56.2201 41.3267 55.9672 41.2283 55.872 41.0117C55.7765 40.7942 55.874 40.5411 56.0893 40.4458C56.3053 40.3504 56.5573 40.449 56.6526 40.6656C56.7488 40.882 56.6514 41.136 56.4353 41.2314Z" fill="#CC3332"/>
<path d="M1.09993 26.7116C0.884693 26.8068 0.63186 26.7084 0.536573 26.4918C0.441285 26.2752 0.538629 26.0212 0.753865 25.9259C0.969102 25.8307 1.22193 25.9291 1.31722 26.1457C1.41251 26.3623 1.31517 26.6163 1.09993 26.7116Z" fill="#CC3332"/>
<path d="M58.1702 34.1895C57.9603 34.2972 57.7032 34.2122 57.5958 34.0018C57.4882 33.7905 57.5721 33.5322 57.7811 33.4248C57.991 33.3171 58.248 33.4012 58.3556 33.6125C58.4632 33.8238 58.3801 34.0819 58.1702 34.1895Z" fill="#CC3332"/>
<path d="M101.044 56.6085C100.829 56.7038 100.576 56.6053 100.48 56.3887C100.385 56.1721 100.482 55.9181 100.698 55.8228C100.913 55.7276 101.166 55.826 101.261 56.0426C101.356 56.2592 101.259 56.5123 101.044 56.6085Z" fill="#CC3332"/>
<path d="M45.8335 39.5102L44.7946 39.0078L45.8215 38.4851L45.9741 37.3368L46.7882 38.159L47.9217 37.9522L47.3976 38.9832L47.9457 40.0032L46.8078 39.8182L46.0133 40.6553L45.8335 39.5102Z" fill="#CC3332"/>
<path d="M98.7069 51.4252C98.4956 51.5305 98.2398 51.4434 98.1346 51.2307C98.0294 51.018 98.1162 50.7609 98.3267 50.6558C98.538 50.5506 98.7938 50.6376 98.899 50.8503C99.0042 51.063 98.9183 51.3199 98.7069 51.4252Z" fill="#CC3332"/>
<path d="M34.3013 38.0563C34.396 38.0515 34.484 38.103 34.527 38.1876L35.328 39.7735L37.0724 39.4883C37.1659 39.4729 37.2589 39.5144 37.3108 39.5943C37.3627 39.6742 37.3622 39.777 37.311 39.8563L36.3467 41.3438L37.4676 42.7203C37.5271 42.7941 37.5389 42.8961 37.4961 42.9808C37.4532 43.0656 37.3647 43.1168 37.2705 43.1116L35.5053 43.0131L34.8825 44.6747C34.8495 44.7637 34.7666 44.8245 34.6727 44.8292C34.5779 44.834 34.4899 44.7825 34.4469 44.698L33.646 43.112L31.9015 43.3973C31.8081 43.4126 31.7151 43.3712 31.6632 43.2912C31.6112 43.2113 31.6109 43.1087 31.663 43.0292L32.6272 41.5418L31.5055 40.1654C31.446 40.0916 31.4342 39.9896 31.477 39.9049C31.5199 39.8201 31.6075 39.7691 31.7026 39.7741L33.4678 39.8726L34.0906 38.211C34.1245 38.1218 34.2073 38.061 34.3013 38.0563ZM35.2286 40.5232C35.1352 40.5305 35.036 40.3543 34.9927 40.269L34.3524 38.9497L33.8557 40.2359C33.8192 40.3338 33.7217 40.3806 33.6184 40.3746L32.2185 40.2885L33.1068 41.3759C33.1732 41.4563 33.1793 41.5694 33.1227 41.6571L32.3587 42.8354L33.7414 42.609C33.8445 42.5925 33.9458 42.6439 33.9926 42.7375L34.6279 43.9949L35.1215 42.6777C35.158 42.5799 35.2541 42.518 35.3573 42.5231L36.7564 42.6013L35.8671 41.5097C35.8008 41.4292 35.7951 41.3142 35.8517 41.2265L36.6265 40.1703L35.2538 40.5197C35.2454 40.5224 35.2373 40.5223 35.2286 40.5232Z" fill="#CC3332"/>
<path d="M38.4469 31.7131L38.1255 30.9213L37.6955 31.6575L36.8479 31.7179L37.4128 32.3579L37.2103 33.1872L37.9886 32.847L38.7114 33.2986L38.6274 32.4483L39.277 31.8986L38.4469 31.7131Z" fill="#CC3332"/>
<path d="M26.4603 32.1202L26.1398 31.3283L25.7098 32.0645L24.8621 32.1249L25.4271 32.7649L25.2237 33.5944L26.0029 33.254L26.7248 33.7058L26.6417 32.8553L27.2911 32.3048L26.4603 32.1202Z" fill="#CC3332"/>
<path d="M17.7002 37.4655L16.7868 36.4709L18.1255 36.3493L18.782 35.1705L19.314 36.4137L20.6329 36.6792L19.6232 37.5692L19.7816 38.9126L18.6252 38.22L17.4045 38.7829L17.7002 37.4655Z" fill="#CC3332"/>
<path d="M7.18578 33.145C6.78044 33.3527 6.28381 33.1899 6.07621 32.782C5.86862 32.374 6.02941 31.8751 6.43474 31.6673C6.84008 31.4596 7.33671 31.6224 7.54431 32.0304C7.7519 32.4384 7.59129 32.9381 7.18578 33.145Z" fill="#CC3332"/>
<path d="M9.45535 26.8061C9.24543 26.9138 8.98831 26.8288 8.8809 26.6184C8.77331 26.4071 8.85721 26.1488 9.06627 26.0413C9.27619 25.9337 9.53313 26.0178 9.64072 26.2291C9.74813 26.4395 9.66527 26.6985 9.45535 26.8061Z" fill="#CC3332"/>
<path d="M34.5971 24.8528L34.2757 24.061L33.8466 24.7971L32.9981 24.8577L33.563 25.4977L33.3605 26.327L34.1387 25.9859L34.8616 26.4384L34.7774 25.5872L35.427 25.0375L34.5971 24.8528Z" fill="#CC3332"/>
<path d="M92.0031 54.6893C92.0502 54.6415 92.1213 54.6264 92.1836 54.6501L93.3552 55.1026L94.1354 54.1181C94.1769 54.0652 94.2455 54.0425 94.3111 54.0601C94.3755 54.077 94.4247 54.1314 94.4352 54.1976L94.6335 55.4424L95.8735 55.6309C95.9401 55.6411 95.9941 55.6891 96.0117 55.7547C96.029 55.8194 96.0071 55.8889 95.9552 55.9315L94.982 56.7237L95.4419 57.8976C95.467 57.9608 95.4516 58.0316 95.4045 58.0794C95.3573 58.1273 95.2862 58.1424 95.2239 58.1187L94.0523 57.6661L93.2722 58.6506C93.2306 58.7036 93.162 58.7263 93.0965 58.7087C93.0318 58.6909 92.9828 58.6374 92.9723 58.5712L92.774 57.3264L91.5339 57.1369C91.4673 57.1268 91.413 57.078 91.3957 57.0132C91.3783 56.9485 91.4003 56.879 91.4521 56.8364L92.4253 56.0441L91.9654 54.8703C91.9416 54.8087 91.9568 54.737 92.0031 54.6893ZM93.4847 55.3831C93.4394 55.4314 93.3899 55.4681 93.3274 55.4436L92.41 55.0955L92.7798 56.0309C92.807 56.0999 92.7885 56.1813 92.7321 56.2275L91.9623 56.8567L92.9461 57.007C93.0191 57.0176 93.077 57.0755 93.0882 57.1488L93.2451 58.1358L93.8635 57.355C93.9095 57.2975 93.9872 57.2756 94.0565 57.3023L94.9851 57.6606L94.6208 56.7303C94.5936 56.6613 94.6145 56.583 94.6716 56.5357L95.4424 55.9072L94.4597 55.7576C94.3865 55.7462 94.3296 55.6889 94.3176 55.6158L94.1387 54.61L93.4979 55.3695C93.4935 55.374 93.4891 55.3786 93.4847 55.3831Z" fill="#CC3332"/>
<path d="M48.2267 27.8854C48.285 27.8775 48.3419 27.905 48.3721 27.9545L48.9464 28.8915L50.0075 28.6263C50.0646 28.6124 50.1236 28.6332 50.1603 28.6794C50.1961 28.7258 50.2016 28.7895 50.1739 28.8404L49.6552 29.8081L50.4172 30.5998C50.4576 30.6426 50.4699 30.7048 50.4483 30.7589C50.4258 30.8133 50.3744 30.8494 50.3157 30.8511L49.2216 30.881L48.9216 31.9381C48.9058 31.9946 48.8583 32.0362 48.8 32.0441C48.7425 32.0518 48.6848 32.0245 48.6546 31.9751L48.0802 31.038L47.0191 31.3032C46.9621 31.3171 46.9022 31.2965 46.8664 31.2501C46.8305 31.2037 46.8251 31.14 46.8526 31.0882L47.3714 30.1215L46.6103 29.3295C46.5699 29.2868 46.5576 29.2245 46.5792 29.1704C46.6008 29.1163 46.6531 29.08 46.7119 29.0783L47.8059 29.0484L48.1059 27.9912C48.1208 27.9349 48.1684 27.8933 48.2267 27.8854ZM48.8336 28.8912C48.777 28.9032 48.7514 29.0311 48.7201 28.981L48.2808 28.317L48.0512 29.1953C48.0339 29.2575 47.982 29.3207 47.918 29.3227L47.053 29.3561L47.6575 29.9886C47.7022 30.0349 47.7123 30.1076 47.6823 30.1644L47.2716 30.9325L48.1133 30.7221C48.1762 30.706 48.2412 30.7337 48.2752 30.7886L48.7305 31.532L48.9679 30.6944C48.9852 30.6322 49.0413 30.5888 49.1054 30.5869L49.9724 30.5629L49.3689 29.9356C49.3242 29.8892 49.3145 29.8183 49.3445 29.7615L49.7236 28.8362L48.849 28.8879C48.8438 28.889 48.8387 28.8901 48.8336 28.8912Z" fill="#CC3332"/>
<path d="M15.488 30.1412C15.2747 30.2415 15.0204 30.1487 14.9201 29.9341C14.8199 29.7194 14.9116 29.464 15.1248 29.3637C15.3381 29.2635 15.5924 29.3562 15.6927 29.5708C15.7929 29.7855 15.7013 30.0409 15.488 30.1412Z" fill="#CC3332"/>
<path d="M47.737 47.9748C47.3393 48.1512 46.8744 47.969 46.6982 47.5697C46.5218 47.1695 46.7019 46.7025 47.0987 46.5263C47.4955 46.3501 47.9613 46.5321 48.1375 46.9314C48.3139 47.3316 48.1338 47.7986 47.737 47.9748Z" fill="#CC3332"/>
<path d="M66.182 45.3944C65.7843 45.5708 65.3196 45.3894 65.1432 44.9892C64.9668 44.589 65.1469 44.1221 65.5437 43.9459C65.9414 43.7695 66.4063 43.9516 66.5827 44.3518C66.7587 44.7503 66.5788 45.2182 66.182 45.3944Z" fill="#CC3332"/>
<path d="M22.1373 24.0842C22.1703 24.0628 22.2133 24.0627 22.2465 24.0844L22.8694 24.496L23.4469 24.0238C23.4773 23.9984 23.5202 23.9938 23.5564 24.0122C23.5917 24.0308 23.6129 24.0677 23.6107 24.1078L23.569 24.8552L24.2653 25.1233C24.3024 25.1379 24.3276 25.1722 24.3299 25.2122C24.3321 25.2523 24.3105 25.2893 24.275 25.3077L23.6103 25.6435L23.729 26.3829C23.7355 26.422 23.718 26.4618 23.6841 26.4834C23.651 26.5048 23.6081 26.5049 23.5748 26.4832L22.9519 26.0716L22.3744 26.5438C22.344 26.5692 22.3011 26.5738 22.265 26.5554C22.2297 26.5367 22.2084 26.4998 22.2106 26.4597L22.2523 25.7124L21.556 25.4443C21.5189 25.4297 21.4935 25.3945 21.4914 25.3553C21.4892 25.3153 21.5109 25.2783 21.5464 25.2599L22.211 24.9241L22.0924 24.1847C22.0867 24.1454 22.1042 24.1056 22.1373 24.0842ZM22.9227 24.6918C22.8911 24.7156 22.8509 24.7205 22.8175 24.6979L22.3253 24.3748L22.4208 24.9633C22.4274 25.0069 22.4063 25.051 22.3674 25.0701L21.8403 25.337L22.3923 25.5493C22.4332 25.5649 22.4598 25.6061 22.4566 25.65L22.4232 26.2425L22.881 25.8687C22.9153 25.8407 22.9632 25.8386 22.9996 25.8624L23.4934 26.1889L23.3993 25.6028C23.3919 25.5593 23.4141 25.5167 23.4529 25.4968L23.9801 25.2307L23.4282 25.0184C23.3873 25.0028 23.3608 24.9625 23.3638 24.9177L23.3922 24.3182L22.9302 24.6848C22.929 24.6877 22.926 24.6902 22.9227 24.6918Z" fill="#CC3332"/>
<path d="M113.58 61.4805C113.312 61.614 112.987 61.503 112.853 61.2333C112.72 60.9636 112.829 60.6368 113.097 60.5032C113.365 60.3697 113.691 60.4807 113.824 60.7504C113.957 61.0212 113.848 61.3478 113.58 61.4805Z" fill="#CC3332"/>
</svg>
