<svg width="59" height="60" viewBox="0 0 59 60" fill="none" xmlns="http://www.w3.org/2000/svg">
<g clip-path="url(#clip0_6064_42887)">
<path d="M19.6787 13.6855C19.481 13.3817 19.0744 13.2958 18.7707 13.4935C18.4669 13.6913 18.381 14.0978 18.5787 14.4015L39.3445 46.3004C39.5422 46.6042 39.9487 46.6901 40.2525 46.4924C40.5562 46.2946 40.6422 45.8881 40.4444 45.5844L19.6787 13.6855Z" fill="#FBEFEF"/>
<path d="M37.5505 12.7295L20.3051 46.6611C20.1409 46.9842 20.2697 47.3792 20.5928 47.5434C20.9159 47.7076 21.311 47.5788 21.4752 47.2557L38.7205 13.3241C38.8847 13.001 38.7559 12.606 38.4328 12.4418C38.1097 12.2776 37.7147 12.4064 37.5505 12.7295Z" fill="#FBEFEF"/>
<path d="M10.4719 30.3545C10.11 30.3739 9.83228 30.683 9.85165 31.0449C9.87102 31.4068 10.1801 31.6845 10.542 31.6651L48.5501 29.6309C48.9121 29.6115 49.1897 29.3024 49.1704 28.9405C49.151 28.5786 48.8419 28.3009 48.48 28.3203L10.4719 30.3545Z" fill="#FBEFEF"/>
<path d="M40.6814 44.022L39.0444 43.9131C38.9027 43.9037 38.7618 43.9404 38.6428 44.0179C38.5238 44.0954 38.4332 44.2094 38.3844 44.3427L37.8215 45.8838C37.7618 46.0472 37.6396 46.1803 37.4818 46.2537C37.3239 46.327 37.1434 46.3347 36.98 46.275C36.899 46.2454 36.8247 46.2002 36.7612 46.1419C36.6977 46.0836 36.6464 46.0134 36.61 45.9352C36.5737 45.8571 36.5531 45.7726 36.5495 45.6865C36.5458 45.6004 36.5591 45.5144 36.5887 45.4334L37.3205 43.4301C37.4179 43.1633 37.5993 42.9354 37.8373 42.7805C38.0753 42.6255 38.3571 42.552 38.6405 42.5708L40.7686 42.7124C40.9422 42.7239 41.1042 42.804 41.2188 42.935C41.3334 43.066 41.3914 43.2371 41.3798 43.4108C41.3741 43.4968 41.3515 43.5808 41.3133 43.658C41.2751 43.7353 41.2221 43.8043 41.1572 43.861C41.0924 43.9178 41.017 43.9612 40.9353 43.9888C40.8537 44.0164 40.7674 44.0277 40.6814 44.022Z" fill="#FBEFEF"/>
<path d="M23.4255 20.6435C23.3292 20.7066 23.2181 20.7433 23.1032 20.7499L18.4776 21.0204C18.3914 21.0252 18.305 21.013 18.2235 20.9844C18.142 20.9558 18.067 20.9115 18.0027 20.8538C17.9384 20.7961 17.8861 20.7264 17.8488 20.6484C17.8115 20.5705 17.79 20.486 17.7854 20.3998C17.7754 20.2261 17.8348 20.0555 17.9505 19.9256C18.0662 19.7956 18.2287 19.717 18.4024 19.7068L22.2809 19.4819C22.3948 19.4752 22.5051 19.439 22.6008 19.3767C22.6965 19.3144 22.7743 19.2282 22.8264 19.1267L24.6018 15.6711C24.6814 15.5164 24.8191 15.3996 24.9847 15.3464C25.1504 15.2932 25.3304 15.3079 25.4852 15.3874C25.6399 15.4669 25.7567 15.6047 25.8099 15.7703C25.8631 15.9359 25.8484 16.1159 25.7689 16.2707L23.6496 20.3911C23.5981 20.4933 23.5209 20.5803 23.4255 20.6435Z" fill="#FBEFEF"/>
<path d="M25.5756 23.9421C25.467 24.0128 25.3398 24.0498 25.2102 24.0484L21.1367 24.0026C21.0505 24.0019 20.9652 23.9842 20.8858 23.9506C20.8063 23.9169 20.7343 23.8679 20.6739 23.8064C20.6134 23.7449 20.5656 23.6721 20.5333 23.5921C20.501 23.5122 20.4848 23.4266 20.4856 23.3403C20.4865 23.2542 20.5045 23.169 20.5383 23.0897C20.5722 23.0105 20.6214 22.9387 20.683 22.8784C20.7446 22.8181 20.8175 22.7706 20.8975 22.7385C20.9775 22.7064 21.063 22.6904 21.1492 22.6914L24.3499 22.7268C24.4795 22.7282 24.6067 22.6913 24.7153 22.6205C24.824 22.5498 24.9092 22.4485 24.9604 22.3294L26.2233 19.3882C26.2573 19.309 26.3066 19.2373 26.3683 19.1771C26.43 19.1169 26.503 19.0695 26.583 19.0375C26.6631 19.0056 26.7486 18.9897 26.8348 18.9908C26.921 18.9919 27.0061 19.01 27.0853 19.044C27.1646 19.078 27.2363 19.1272 27.2965 19.1889C27.3566 19.2507 27.4041 19.3236 27.436 19.4037C27.468 19.4837 27.4839 19.5693 27.4828 19.6555C27.4817 19.7416 27.4636 19.8268 27.4296 19.906L25.8207 23.651C25.7695 23.7701 25.6843 23.8714 25.5756 23.9421Z" fill="#FBEFEF"/>
<path d="M21.2778 17.3439C21.1588 17.4214 21.0179 17.4582 20.8762 17.4487L18.257 17.2745C18.0834 17.2629 17.9214 17.1829 17.8068 17.0519C17.6921 16.9209 17.6342 16.7498 17.6458 16.5761C17.6573 16.4025 17.7374 16.2405 17.8684 16.1259C17.9994 16.0112 18.1705 15.9533 18.3442 15.9649L19.9812 16.0738C20.1228 16.0832 20.2638 16.0464 20.3828 15.969C20.5018 15.8915 20.5924 15.7775 20.6411 15.6442L21.2041 14.1031C21.2638 13.9396 21.386 13.8066 21.5438 13.7332C21.7016 13.6598 21.8822 13.6522 22.0456 13.7119C22.2091 13.7716 22.3422 13.8938 22.4156 14.0516C22.4889 14.2095 22.4966 14.39 22.4369 14.5535L21.5362 17.0191C21.4875 17.1525 21.3968 17.2665 21.2778 17.3439Z" fill="#FBEFEF"/>
<path d="M40.6234 40.2784L36.745 40.5034C36.631 40.51 36.5207 40.5463 36.425 40.6086C36.3294 40.6708 36.2516 40.757 36.1994 40.8586L34.424 44.3141C34.3445 44.4689 34.2067 44.5857 34.0411 44.6389C33.8754 44.6921 33.6954 44.6774 33.5407 44.5979C33.3859 44.5183 33.2691 44.3806 33.2159 44.215C33.1627 44.0493 33.1774 43.8693 33.2569 43.7145L35.2034 39.9252C35.3078 39.7221 35.4633 39.5498 35.6547 39.4252C35.846 39.3006 36.0666 39.2281 36.2945 39.2149L40.5474 38.9685C40.7211 38.9585 40.8917 39.0178 41.0217 39.1335C41.1516 39.2492 41.2303 39.4118 41.2404 39.5855C41.2504 39.7592 41.1911 39.9297 41.0754 40.0597C40.9597 40.1896 40.7971 40.2683 40.6234 40.2784Z" fill="#FBEFEF"/>
<path d="M37.8772 37.2933L34.6765 37.2579C34.5469 37.2564 34.4197 37.2934 34.3111 37.3641C34.2024 37.4349 34.1172 37.5362 34.066 37.6553L32.803 40.5965C32.7691 40.6757 32.7198 40.7474 32.6581 40.8076C32.5964 40.8677 32.5234 40.9152 32.4434 40.9471C32.3633 40.9791 32.2777 40.995 32.1916 40.9939C32.1054 40.9928 32.0202 40.9747 31.941 40.9407C31.8618 40.9067 31.7901 40.8575 31.7299 40.7957C31.6698 40.734 31.6223 40.6611 31.5904 40.581C31.5584 40.501 31.5425 40.4154 31.5436 40.3292C31.5447 40.243 31.5628 40.1579 31.5968 40.0787L33.0335 36.7356C33.1358 36.4976 33.3062 36.2952 33.5232 36.1539C33.7403 36.0126 33.9943 35.9387 34.2533 35.9415L37.8919 35.9807C37.9781 35.9816 38.0632 35.9996 38.1425 36.0334C38.2217 36.0673 38.2936 36.1165 38.3538 36.1781C38.4141 36.2397 38.4616 36.3126 38.4937 36.3926C38.5258 36.4726 38.5418 36.5582 38.5408 36.6443C38.5399 36.7305 38.5219 36.8157 38.4881 36.8949C38.4542 36.9742 38.405 37.046 38.3434 37.1063C38.2818 37.1665 38.2089 37.2141 38.1289 37.2462C38.0489 37.2782 37.9634 37.2942 37.8772 37.2933Z" fill="#FBEFEF"/>
<path d="M26.1592 44.7578L24.0254 41.5113C23.9623 41.4158 23.8753 41.3385 23.7731 41.2871C23.6709 41.2356 23.5571 41.2117 23.4428 41.2178L19.5653 41.407C19.4792 41.4112 19.3931 41.3985 19.312 41.3694C19.2308 41.3404 19.1561 41.2956 19.0923 41.2377C19.0284 41.1798 18.9766 41.1099 18.9397 41.032C18.9029 40.954 18.8817 40.8696 18.8775 40.7835C18.8691 40.6098 18.9299 40.4398 19.0467 40.3109C19.1635 40.182 19.3267 40.1047 19.5005 40.0961L23.755 39.887C23.9831 39.8759 24.2102 39.9245 24.4139 40.028C24.6175 40.1315 24.7906 40.2864 24.916 40.4773L27.2559 44.0368C27.3509 44.1827 27.384 44.3603 27.348 44.5306C27.312 44.7009 27.2098 44.8499 27.064 44.9448C26.919 45.0392 26.7426 45.0726 26.5731 45.0375C26.4037 45.0025 26.2549 44.902 26.1592 44.7578Z" fill="#FBEFEF"/>
<path d="M28.268 41.1388C28.1163 41.224 27.9371 41.2455 27.7695 41.1987C27.602 41.1518 27.46 41.0403 27.3746 40.8887L25.8044 38.099C25.7408 37.9862 25.6452 37.8948 25.5298 37.8362C25.4143 37.7776 25.2841 37.7545 25.1555 37.7697L21.976 38.1458C21.8032 38.1662 21.6295 38.1171 21.4929 38.0094C21.3563 37.9018 21.268 37.7443 21.2474 37.5715C21.2264 37.3989 21.2748 37.225 21.382 37.088C21.4891 36.9511 21.6462 36.8622 21.8188 36.841L25.4328 36.4131C25.69 36.3827 25.9505 36.429 26.1814 36.5464C26.4124 36.6637 26.6034 36.8468 26.7305 37.0725L28.5155 40.2439C28.558 40.3189 28.5854 40.4016 28.5959 40.4871C28.6065 40.5727 28.6001 40.6595 28.5772 40.7426C28.5542 40.8257 28.515 40.9035 28.462 40.9715C28.4089 41.0394 28.343 41.0963 28.268 41.1388Z" fill="#FBEFEF"/>
<path d="M23.8262 46.9786C23.67 47.0554 23.4898 47.067 23.3251 47.0109C23.1604 46.9548 23.0247 46.8357 22.9479 46.6796L22.2239 45.2066C22.1612 45.0792 22.0589 44.9756 21.9323 44.9113C21.8058 44.847 21.6618 44.8255 21.5219 44.85L19.9054 45.1334C19.734 45.1632 19.5578 45.1238 19.4155 45.0238C19.2732 44.9238 19.1764 44.7714 19.1464 44.6001C19.1163 44.4287 19.1556 44.2524 19.2555 44.11C19.3555 43.9675 19.5079 43.8706 19.6792 43.8405L21.7803 43.4727C22.06 43.4237 22.348 43.4668 22.6012 43.5954C22.8543 43.724 23.0589 43.9312 23.1843 44.1859L24.1257 46.1C24.1638 46.1773 24.1862 46.2614 24.1917 46.3475C24.1973 46.4335 24.1858 46.5198 24.158 46.6014C24.1301 46.6829 24.0865 46.7583 24.0296 46.823C23.9727 46.8877 23.9035 46.9406 23.8262 46.9786Z" fill="#FBEFEF"/>
<path d="M39.5237 19.8907L35.273 20.0972C35.0449 20.1084 34.8178 20.0598 34.6142 19.9563C34.4105 19.8528 34.2374 19.6979 34.112 19.507L31.7721 15.9474C31.6771 15.8016 31.644 15.624 31.68 15.4537C31.716 15.2834 31.8182 15.1344 31.964 15.0394C32.1094 14.9448 32.2864 14.9116 32.4562 14.947C32.626 14.9825 32.7749 15.0837 32.8703 15.2286L35.0047 18.4748C35.0677 18.5703 35.1547 18.6476 35.2569 18.6991C35.3591 18.7505 35.4729 18.7744 35.5872 18.7683L39.4669 18.5777C39.553 18.5735 39.6391 18.5862 39.7203 18.6153C39.8014 18.6443 39.8761 18.689 39.9399 18.7469C40.0038 18.8048 40.0557 18.8748 40.0925 18.9527C40.1293 19.0306 40.1505 19.1151 40.1547 19.2012C40.1591 19.288 40.1463 19.3749 40.1169 19.4567C40.0875 19.5386 40.0421 19.6138 39.9834 19.6779C39.9247 19.7421 39.8538 19.7939 39.7749 19.8305C39.696 19.867 39.6106 19.8875 39.5237 19.8907Z" fill="#FBEFEF"/>
<path d="M39.3453 16.1456L37.2436 16.5138C36.964 16.5628 36.6759 16.5197 36.4228 16.3912C36.1697 16.2626 35.9651 16.0553 35.8397 15.8006L34.8983 13.8865C34.8215 13.7304 34.8099 13.5502 34.866 13.3855C34.922 13.2208 35.0412 13.0851 35.1973 13.0083C35.3534 12.9315 35.5336 12.9199 35.6983 12.976C35.863 13.032 35.9987 13.1512 36.0755 13.3073L36.7995 14.7803C36.8622 14.9077 36.9645 15.0113 37.0911 15.0756C37.2177 15.1399 37.3617 15.1614 37.5015 15.1369L39.1181 14.8535C39.2894 14.8235 39.4657 14.8628 39.6082 14.9627C39.7506 15.0626 39.8475 15.215 39.8776 15.3864C39.9076 15.5577 39.8683 15.7338 39.7685 15.8761C39.6687 16.0185 39.5165 16.1154 39.3453 16.1456Z" fill="#FBEFEF"/>
<path d="M37.2047 23.1453L33.5913 23.5729C33.3339 23.6035 33.0732 23.5571 32.8421 23.4397C32.611 23.3223 32.4198 23.1391 32.2927 22.9132L30.508 19.7424C30.4228 19.5907 30.4012 19.4115 30.4481 19.2439C30.495 19.0764 30.6065 18.9344 30.7581 18.849C30.9097 18.7638 31.089 18.7422 31.2565 18.7891C31.424 18.836 31.5661 18.9475 31.6514 19.0991L33.2249 21.8866C33.2885 21.9994 33.3841 22.0909 33.4996 22.1495C33.615 22.2081 33.7453 22.2312 33.8739 22.2159L37.0533 21.8399C37.2261 21.8195 37.3999 21.8685 37.5365 21.9762C37.6731 22.0839 37.7613 22.2414 37.7819 22.4141C37.7923 22.5001 37.7857 22.5872 37.7623 22.6706C37.7389 22.754 37.6992 22.8319 37.6456 22.8999C37.5919 22.9679 37.5253 23.0245 37.4497 23.0667C37.374 23.1088 37.2907 23.1355 37.2047 23.1453Z" fill="#FBEFEF"/>
<path d="M44.1744 33.8083C44.0286 33.9032 43.851 33.9363 43.6807 33.9003C43.5104 33.8643 43.3614 33.7622 43.2664 33.6163L40.9584 30.036C40.8346 29.8439 40.7631 29.6229 40.7509 29.3947C40.7388 29.1666 40.7864 28.9392 40.8891 28.7351L42.8015 24.9295C42.8402 24.8525 42.8937 24.7838 42.9589 24.7274C43.0242 24.6711 43.0999 24.6281 43.1817 24.601C43.2635 24.5739 43.3499 24.5632 43.4359 24.5695C43.5219 24.5758 43.6058 24.599 43.6828 24.6377C43.7598 24.6764 43.8285 24.7299 43.8848 24.7951C43.9412 24.8604 43.9842 24.9361 44.0113 25.0179C44.0384 25.0997 44.0491 25.1861 44.0428 25.2721C44.0365 25.3581 44.0133 25.442 43.9746 25.519L42.2315 28.9856C42.1796 29.0876 42.1554 29.2014 42.1611 29.3157C42.1668 29.43 42.2023 29.5408 42.264 29.6371L44.3687 32.9026C44.4627 33.0486 44.495 33.2258 44.4586 33.3956C44.4222 33.5653 44.32 33.7137 44.1744 33.8083Z" fill="#FBEFEF"/>
<path d="M39.2887 33.2311L37.1114 30.3158C36.9563 30.1082 36.8661 29.8592 36.8523 29.6004C36.8385 29.3415 36.9016 29.0844 37.0337 28.8614L38.8871 25.7301C38.9758 25.5805 39.1202 25.4722 39.2887 25.429C39.4572 25.3858 39.636 25.4113 39.7857 25.4998C39.9353 25.5885 40.0436 25.733 40.0868 25.9015C40.13 26.07 40.1045 26.2487 40.016 26.3985L38.3862 29.1539C38.3202 29.2653 38.2887 29.3938 38.2955 29.5231C38.3024 29.6524 38.3473 29.7768 38.4247 29.8806L40.3403 32.4455C40.4443 32.5849 40.4888 32.7599 40.4639 32.9321C40.4389 33.1042 40.3467 33.2594 40.2074 33.3636C40.1383 33.4152 40.0598 33.4528 39.9763 33.474C39.8928 33.4953 39.8059 33.4999 39.7206 33.4876C39.6353 33.4753 39.5532 33.4463 39.4791 33.4023C39.405 33.3583 39.3403 33.3001 39.2887 33.2311Z" fill="#FBEFEF"/>
<path d="M46.4221 31.5848L45.0522 29.9496C44.87 29.7318 44.7633 29.4609 44.7482 29.1773C44.733 28.8938 44.8102 28.613 44.9682 28.3771L46.1549 26.6046C46.2518 26.4601 46.4021 26.36 46.5728 26.3262C46.7435 26.2925 46.9206 26.3279 47.0652 26.4247C47.2097 26.5216 47.3098 26.6719 47.3436 26.8426C47.3773 27.0133 47.3419 27.1904 47.2451 27.335L46.3317 28.6985C46.2527 28.8165 46.2141 28.9569 46.2217 29.0987C46.2292 29.2404 46.2826 29.3759 46.3737 29.4848L47.4277 30.743C47.5393 30.8764 47.5934 31.0487 47.578 31.222C47.5626 31.3953 47.479 31.5554 47.3457 31.6671C47.2122 31.7785 47.04 31.8324 46.8668 31.817C46.6937 31.8015 46.5337 31.718 46.4221 31.5848Z" fill="#FBEFEF"/>
<path d="M15.3415 35.3516C15.2645 35.3129 15.1958 35.2594 15.1395 35.1942C15.0831 35.1289 15.0401 35.0532 15.013 34.9714C14.986 34.8896 14.9752 34.8032 14.9815 34.7172C14.9878 34.6312 15.011 34.5473 15.0497 34.4703L16.7941 30.9997C16.846 30.8977 16.8702 30.7839 16.8645 30.6696C16.8588 30.5553 16.8233 30.4445 16.7616 30.3482L14.6563 27.083C14.5624 26.9372 14.5301 26.76 14.5664 26.5904C14.6027 26.4208 14.7047 26.2724 14.8501 26.1778C14.9959 26.0828 15.1736 26.0497 15.3438 26.0857C15.5141 26.1217 15.6631 26.2238 15.7581 26.3697L18.0661 29.95C18.1899 30.142 18.2615 30.3629 18.2738 30.591C18.286 30.8191 18.2385 31.0465 18.136 31.2506L16.223 35.0565C16.1846 35.1339 16.1313 35.2029 16.0662 35.2596C16.0011 35.3163 15.9254 35.3596 15.8435 35.387C15.7616 35.4144 15.6751 35.4254 15.589 35.4193C15.5028 35.4132 15.4188 35.3902 15.3415 35.3516Z" fill="#FBEFEF"/>
<path d="M11.9608 33.5608C11.8163 33.464 11.7161 33.3138 11.6822 33.1432C11.6484 32.9726 11.6837 32.7955 11.7803 32.6509L12.6937 31.2874C12.7727 31.1694 12.8113 31.029 12.8037 30.8872C12.7961 30.7455 12.7428 30.61 12.6517 30.5011L11.5977 29.2429C11.4861 29.1095 11.432 28.9372 11.4474 28.7639C11.4628 28.5906 11.5463 28.4305 11.6797 28.3188C11.8132 28.2072 11.9855 28.1531 12.1588 28.1685C12.332 28.1839 12.4921 28.2674 12.6039 28.4008L13.9732 30.0363C14.1554 30.2541 14.262 30.525 14.2772 30.8086C14.2923 31.0921 14.2151 31.3729 14.0572 31.6088L12.871 33.3809C12.7741 33.5254 12.6238 33.6256 12.4531 33.6593C12.2825 33.6931 12.1053 33.6576 11.9608 33.5608Z" fill="#FBEFEF"/>
<path d="M19.2411 34.4881C19.0915 34.3994 18.9832 34.255 18.94 34.0865C18.8968 33.918 18.9223 33.7392 19.0109 33.5895L20.6415 30.8342C20.7075 30.7228 20.7391 30.5944 20.7322 30.4651C20.7254 30.3358 20.6804 30.2114 20.603 30.1075L18.6875 27.5427C18.5834 27.4033 18.539 27.2282 18.5639 27.0561C18.5888 26.8839 18.6811 26.7287 18.8204 26.6245C18.9598 26.5205 19.1348 26.476 19.3069 26.5009C19.4791 26.5259 19.6343 26.6181 19.7385 26.7574L21.9162 29.6732C22.0711 29.8808 22.1612 30.1296 22.1751 30.3882C22.1889 30.6469 22.1259 30.9039 21.994 31.1268L20.1376 34.2569C20.049 34.4061 19.905 34.5142 19.7371 34.5575C19.5691 34.6008 19.3908 34.5759 19.2411 34.4881Z" fill="#FBEFEF"/>
<path d="M30.1528 38.1903C30.0753 38.2408 29.988 38.2743 29.8966 38.2887C29.8052 38.3031 29.7118 38.298 29.6225 38.2738C29.5332 38.2495 29.4501 38.2067 29.3785 38.148C29.307 38.0894 29.2486 38.0163 29.2073 37.9335L27.3456 34.2004L23.5301 34.5834C23.4104 34.5953 23.2897 34.5741 23.1813 34.522C23.0728 34.47 22.9807 34.3892 22.9151 34.2884C22.8495 34.1875 22.8128 34.0706 22.8091 33.9504C22.8054 33.8302 22.8349 33.7112 22.8942 33.6066L24.7886 30.2725L22.1283 27.0593C22.0484 26.9628 21.9978 26.8455 21.9824 26.7212C21.967 26.5969 21.9875 26.4708 22.0415 26.3578C22.0954 26.2448 22.1806 26.1496 22.287 26.0834C22.3933 26.0173 22.5163 25.9829 22.6416 25.9844L26.9359 26.0313L28.6309 22.0854C28.6802 21.9703 28.7614 21.8717 28.8649 21.8013C28.9685 21.7308 29.09 21.6914 29.2152 21.6878C29.3404 21.6842 29.464 21.7165 29.5714 21.7809C29.6788 21.8453 29.7656 21.939 29.8215 22.0511L31.6837 25.7838L35.4987 25.4013C35.6184 25.3893 35.7391 25.4106 35.8475 25.4626C35.956 25.5146 36.0481 25.5954 36.1137 25.6962C36.1793 25.7971 36.216 25.914 36.2197 26.0342C36.2233 26.1545 36.1939 26.2734 36.1345 26.378L34.2407 29.7118L36.9004 32.9254C36.9803 33.0218 37.031 33.1391 37.0464 33.2634C37.0617 33.3877 37.0413 33.5138 36.9873 33.6268C36.9333 33.7398 36.8481 33.835 36.7418 33.9012C36.6355 33.9674 36.5124 34.0017 36.3872 34.0002L32.0922 33.9522L30.3972 37.8981C30.3464 38.0175 30.2614 38.1192 30.1528 38.1903ZM31.3045 32.7422C31.4132 32.6715 31.5403 32.6345 31.6699 32.6359L34.9856 32.67L32.9394 30.1979C32.855 30.0954 32.8036 29.9697 32.7921 29.8374C32.7806 29.705 32.8095 29.5723 32.8751 29.4568L34.3663 26.8338L31.3635 27.1348C31.2313 27.1479 31.0982 27.1207 30.9819 27.0566C30.8655 26.9926 30.7713 26.8947 30.7118 26.776L29.2793 23.9044L27.9686 26.9502C27.9175 27.0693 27.8322 27.1707 27.7236 27.2414C27.6149 27.3121 27.4878 27.3491 27.3581 27.3476L24.0457 27.3114L26.0919 29.7834C26.1764 29.886 26.2277 30.0119 26.2391 30.1443C26.2505 30.2767 26.2214 30.4094 26.1557 30.5249L24.6641 33.1498L27.6669 32.8488C27.7992 32.8355 27.9323 32.8626 28.0488 32.9266C28.1653 32.9906 28.2596 33.0884 28.3192 33.2072L29.7516 36.0788L31.0591 33.0351C31.11 32.9153 31.1955 32.8133 31.3045 32.7422Z" fill="#FBEFEF"/>
</g>
<defs>
<clipPath id="clip0_6064_42887">
<rect width="42" height="42" fill="white" transform="translate(0.445312 23.8574) rotate(-33.0636)"/>
</clipPath>
</defs>
</svg>
