<svg width="13" height="12" viewBox="0 0 13 12" fill="none" xmlns="http://www.w3.org/2000/svg">
<path d="M6.69141 0.5625C6.69141 0.458947 6.60746 0.375 6.50391 0.375C6.40035 0.375 6.31641 0.458947 6.31641 0.5625L6.31641 11.4375C6.31641 11.5411 6.40035 11.625 6.50391 11.625C6.60746 11.625 6.69141 11.5411 6.69141 11.4375L6.69141 0.5625Z" fill="#FBEFEF"/>
<path d="M11.12 3.119L1.70145 8.55568C1.61177 8.60745 1.58103 8.72212 1.6328 8.8118C1.68457 8.90149 1.79924 8.93222 1.88892 8.88045L11.3074 3.44378C11.3971 3.39201 11.4278 3.27734 11.3761 3.18765C11.3243 3.09797 11.2096 3.06723 11.12 3.119Z" fill="#FBEFEF"/>
<path d="M1.88894 3.1186C1.79926 3.06682 1.68459 3.09755 1.63281 3.18723C1.58104 3.27691 1.61176 3.39158 1.70144 3.44336L11.1195 8.88086C11.2091 8.93264 11.3238 8.90191 11.3756 8.81223C11.4274 8.72255 11.3966 8.60788 11.307 8.5561L1.88894 3.1186Z" fill="#FBEFEF"/>
<path d="M6.9918 11.1L6.6168 10.8188C6.58434 10.7944 6.54487 10.7812 6.5043 10.7812C6.46373 10.7812 6.42425 10.7944 6.3918 10.8188L6.0168 11.1C5.97701 11.1298 5.92701 11.1426 5.87778 11.1356C5.82855 11.1286 5.78413 11.1023 5.7543 11.0625C5.73952 11.0428 5.72877 11.0204 5.72266 10.9965C5.71655 10.9727 5.7152 10.9479 5.71868 10.9235C5.72216 10.8991 5.73041 10.8757 5.74296 10.8545C5.7555 10.8333 5.7721 10.8148 5.7918 10.8L6.2793 10.4344C6.34421 10.3857 6.42316 10.3594 6.5043 10.3594C6.58544 10.3594 6.66439 10.3857 6.7293 10.4344L7.2168 10.8C7.25658 10.8298 7.28288 10.8743 7.28991 10.9235C7.29695 10.9727 7.28413 11.0227 7.2543 11.0625C7.23952 11.0822 7.22101 11.0988 7.19983 11.1113C7.17864 11.1239 7.15519 11.1321 7.13081 11.1356C7.10644 11.1391 7.08162 11.1377 7.05776 11.1316C7.03391 11.1255 7.0115 11.1148 6.9918 11.1Z" fill="#FBEFEF"/>
<path d="M6.5037 2.8122C6.47082 2.81231 6.43849 2.80378 6.40995 2.78745L5.2602 2.1312C5.2388 2.11892 5.22003 2.10254 5.20497 2.08299C5.18991 2.06344 5.17886 2.04111 5.17245 2.01728C5.16604 1.99345 5.1644 1.96859 5.16762 1.94412C5.17083 1.91965 5.17885 1.89606 5.1912 1.8747C5.21588 1.83155 5.25668 1.79996 5.30464 1.78688C5.3526 1.7738 5.40379 1.7803 5.44695 1.80495L6.4107 2.35564C6.43903 2.37182 6.47108 2.38033 6.5037 2.38033C6.53632 2.38033 6.56838 2.37182 6.5967 2.35564L7.56045 1.80495C7.60362 1.7803 7.65481 1.7738 7.70277 1.78688C7.75073 1.79996 7.79153 1.83155 7.8162 1.8747C7.84086 1.91787 7.84736 1.96906 7.83428 2.01702C7.8212 2.06498 7.78961 2.10578 7.74645 2.13045L6.5967 2.7867C6.56846 2.80316 6.5364 2.81196 6.5037 2.8122Z" fill="#FBEFEF"/>
<path d="M6.50396 3.93796C6.46692 3.93797 6.43071 3.92701 6.3999 3.90646L5.43165 3.26052C5.4111 3.24692 5.39343 3.2294 5.37966 3.20896C5.36589 3.18852 5.35628 3.16557 5.35139 3.14142C5.3465 3.11726 5.34641 3.09238 5.35114 3.06819C5.35587 3.04401 5.36533 3.02099 5.37896 3.00046C5.39262 2.97997 5.41019 2.96238 5.43065 2.94868C5.45112 2.93498 5.47408 2.92545 5.49823 2.92062C5.52238 2.9158 5.54724 2.91578 5.5714 2.92057C5.59556 2.92536 5.61854 2.93486 5.63902 2.94852L6.3999 3.4559C6.43071 3.47646 6.46692 3.48743 6.50396 3.48743C6.541 3.48743 6.57721 3.47646 6.60802 3.4559L7.3689 2.94852C7.38938 2.93486 7.41236 2.92536 7.43652 2.92057C7.46067 2.91578 7.48554 2.9158 7.50969 2.92062C7.53384 2.92545 7.5568 2.93498 7.57726 2.94868C7.59773 2.96238 7.6153 2.97997 7.62896 3.00046C7.64263 3.02095 7.65213 3.04392 7.65691 3.06808C7.6617 3.09224 7.66168 3.1171 7.65686 3.14125C7.65204 3.1654 7.6425 3.18837 7.62881 3.20883C7.61511 3.2293 7.59751 3.24686 7.57702 3.26052L6.60802 3.90646C6.57721 3.92701 6.541 3.93797 6.50396 3.93796Z" fill="#FBEFEF"/>
<path d="M6.5043 1.68731C6.46373 1.68731 6.42425 1.67415 6.3918 1.64981L5.7918 1.19981C5.75202 1.16997 5.72571 1.12555 5.71868 1.07632C5.71165 1.02709 5.72446 0.977088 5.7543 0.937305C5.78413 0.897523 5.82855 0.871223 5.87778 0.86419C5.92701 0.857157 5.97702 0.869969 6.0168 0.899805L6.3918 1.18106C6.42425 1.2054 6.46373 1.21856 6.5043 1.21856C6.54487 1.21856 6.58434 1.2054 6.6168 1.18106L6.9918 0.899805C7.03158 0.869969 7.08159 0.857157 7.13081 0.86419C7.18004 0.871223 7.22446 0.897523 7.2543 0.937305C7.28413 0.977088 7.29695 1.02709 7.28991 1.07632C7.28288 1.12555 7.25658 1.16997 7.2168 1.19981L6.6168 1.64981C6.58434 1.67415 6.54487 1.68731 6.5043 1.68731Z" fill="#FBEFEF"/>
<path d="M7.5619 10.1946L6.59815 9.64395C6.56982 9.62777 6.53777 9.61926 6.50515 9.61926C6.47253 9.61926 6.44047 9.62777 6.41215 9.64395L5.4484 10.1946C5.40523 10.2193 5.35404 10.2258 5.30608 10.2127C5.25812 10.1996 5.21732 10.168 5.19265 10.1249C5.168 10.0817 5.1615 10.0305 5.17458 9.98257C5.18766 9.93461 5.21924 9.89381 5.2624 9.86914L6.31915 9.2652C6.3758 9.23284 6.43991 9.21582 6.50515 9.21582C6.57039 9.21582 6.6345 9.23284 6.69115 9.2652L7.7479 9.86914C7.79105 9.89381 7.82264 9.93461 7.83572 9.98257C7.8488 10.0305 7.8423 10.0817 7.81765 10.1249C7.79297 10.168 7.75217 10.1996 7.70421 10.2127C7.65625 10.2258 7.60506 10.2193 7.5619 10.1946Z" fill="#FBEFEF"/>
<path d="M7.36913 9.05208L6.60825 8.5447C6.57744 8.52415 6.54123 8.51318 6.50419 8.51318C6.46715 8.51318 6.43094 8.52415 6.40013 8.5447L5.63925 9.05208C5.61877 9.06575 5.59579 9.07525 5.57163 9.08003C5.54747 9.08482 5.52261 9.0848 5.49846 9.07998C5.47431 9.07516 5.45135 9.06562 5.43088 9.05193C5.41042 9.03823 5.39285 9.02063 5.37919 9.00014C5.36552 8.97966 5.35602 8.95668 5.35123 8.93252C5.34645 8.90837 5.34646 8.8835 5.35129 8.85935C5.35611 8.8352 5.36564 8.81224 5.37934 8.79177C5.39304 8.77131 5.41064 8.75374 5.43113 8.74008L6.29625 8.16352C6.35784 8.12248 6.43019 8.10059 6.50419 8.10059C6.57819 8.10059 6.65054 8.12248 6.71213 8.16352L7.57725 8.74008C7.59774 8.75374 7.61534 8.77131 7.62903 8.79177C7.64273 8.81224 7.65227 8.8352 7.65709 8.85935C7.66191 8.8835 7.66193 8.90837 7.65714 8.93252C7.65236 8.95668 7.64286 8.97966 7.62919 9.00014C7.61553 9.02063 7.59796 9.03823 7.57749 9.05193C7.55703 9.06562 7.53407 9.07516 7.50992 9.07998C7.48577 9.0848 7.4609 9.08482 7.43675 9.08003C7.41259 9.07525 7.38961 9.06575 7.36913 9.05208Z" fill="#FBEFEF"/>
<path d="M3.39963 9.01268L3.39475 7.90268C3.39452 7.86999 3.38575 7.83793 3.36931 7.80968C3.35286 7.78142 3.32931 7.75796 3.301 7.74162L2.34307 7.18249C2.32179 7.17009 2.30316 7.15361 2.28825 7.134C2.27334 7.1144 2.26244 7.09205 2.25617 7.06823C2.24991 7.04441 2.24839 7.01959 2.25172 6.99518C2.25505 6.97078 2.26315 6.94726 2.27557 6.92599C2.30062 6.88307 2.34169 6.85185 2.38975 6.83919C2.43781 6.82653 2.48893 6.83348 2.53188 6.85849L3.58319 7.47162C3.63956 7.50451 3.68637 7.55155 3.71899 7.60807C3.75161 7.6646 3.76892 7.72867 3.76919 7.79393L3.77463 9.01099C3.77463 9.06072 3.75487 9.10841 3.71971 9.14357C3.68455 9.17874 3.63686 9.19849 3.58713 9.19849C3.53769 9.19849 3.49025 9.17897 3.45514 9.14417C3.42002 9.10937 3.40007 9.06212 3.39963 9.01268Z" fill="#FBEFEF"/>
<path d="M4.4686 8.4753C4.41901 8.47207 4.37272 8.44929 4.33992 8.41195C4.30711 8.37461 4.29048 8.32578 4.29366 8.27618L4.35254 7.36343C4.35489 7.3265 4.34626 7.28971 4.32774 7.25768C4.30922 7.22565 4.28165 7.19982 4.24848 7.18343L3.42854 6.77786C3.384 6.75582 3.35003 6.71699 3.33411 6.66991C3.31818 6.62284 3.3216 6.57136 3.3436 6.5268C3.36548 6.48219 3.40417 6.4481 3.45118 6.43199C3.49818 6.41589 3.54965 6.41911 3.59429 6.44093L4.52635 6.9018C4.59269 6.93462 4.64783 6.98633 4.68483 7.05043C4.72183 7.11452 4.73904 7.18813 4.73429 7.26199L4.66735 8.29961C4.66585 8.3242 4.65951 8.34826 4.64871 8.37039C4.6379 8.39253 4.62284 8.41233 4.60438 8.42864C4.58592 8.44496 4.56443 8.45748 4.54113 8.46548C4.51784 8.47349 4.49319 8.47683 4.4686 8.4753Z" fill="#FBEFEF"/>
<path d="M2.49535 9.18043C2.446 9.17447 2.40104 9.14916 2.37034 9.11006C2.33965 9.07096 2.32573 9.02128 2.33166 8.97193L2.38791 8.50636C2.39275 8.46609 2.38441 8.42534 2.36412 8.39021C2.34384 8.35509 2.31271 8.32749 2.27541 8.31155L1.84416 8.12743C1.79848 8.10786 1.76243 8.07097 1.74393 8.02484C1.72544 7.97871 1.72602 7.92713 1.74553 7.88143C1.76506 7.83571 1.80195 7.79962 1.84808 7.78109C1.89421 7.76256 1.94581 7.76311 1.99153 7.78261L2.55197 8.02205C2.62657 8.05392 2.68883 8.10912 2.7294 8.17937C2.76996 8.24962 2.78666 8.33113 2.77697 8.41168L2.70403 9.01674C2.70109 9.04119 2.69335 9.06482 2.68126 9.08629C2.66918 9.10775 2.65298 9.12662 2.6336 9.14182C2.61422 9.15702 2.59204 9.16825 2.56832 9.17488C2.54459 9.1815 2.5198 9.18339 2.49535 9.18043Z" fill="#FBEFEF"/>
<path d="M10.4758 5.14176L9.42581 4.52863C9.36944 4.49574 9.32263 4.4487 9.29001 4.39218C9.25739 4.33565 9.24009 4.27159 9.23981 4.20632L9.23438 2.98926C9.23438 2.93953 9.25413 2.89184 9.28929 2.85668C9.32446 2.82151 9.37215 2.80176 9.42187 2.80176C9.47144 2.80176 9.51899 2.82138 9.55413 2.85634C9.58926 2.8913 9.60913 2.93875 9.60937 2.98832L9.61444 4.09832C9.61467 4.13101 9.62344 4.16307 9.63989 4.19132C9.65633 4.21958 9.67988 4.24304 9.70819 4.25938L10.6669 4.81851C10.6882 4.83091 10.7068 4.84739 10.7217 4.867C10.7366 4.8866 10.7475 4.90895 10.7538 4.93277C10.76 4.95659 10.7615 4.98141 10.7582 5.00582C10.7549 5.03022 10.7468 5.05374 10.7344 5.07501C10.7219 5.0965 10.7053 5.1153 10.6855 5.13031C10.6657 5.14533 10.6431 5.15626 10.6191 5.16247C10.595 5.16868 10.5699 5.17005 10.5454 5.16649C10.5208 5.16294 10.4971 5.15453 10.4758 5.14176Z" fill="#FBEFEF"/>
<path d="M11.0168 4.21751L10.4562 3.97807C10.3816 3.9462 10.3193 3.891 10.2788 3.82075C10.2382 3.7505 10.2215 3.66899 10.2312 3.58845L10.3041 2.98338C10.3101 2.93404 10.3354 2.88907 10.3745 2.85838C10.4136 2.82769 10.4633 2.81377 10.5126 2.8197C10.562 2.82566 10.6069 2.85096 10.6376 2.89006C10.6683 2.92916 10.6822 2.97885 10.6763 3.0282L10.6201 3.49376C10.6152 3.53403 10.6236 3.57479 10.6439 3.60991C10.6641 3.64504 10.6953 3.67264 10.7326 3.68857L11.1638 3.8727C11.2095 3.89222 11.2456 3.92911 11.2642 3.97524C11.2827 4.02137 11.2821 4.07297 11.2626 4.1187C11.2431 4.16437 11.2063 4.20042 11.1602 4.21895C11.1141 4.23747 11.0625 4.23696 11.0168 4.21751Z" fill="#FBEFEF"/>
<path d="M9.41422 5.5594L8.48234 5.09853C8.41594 5.06572 8.36074 5.01399 8.3237 4.94986C8.28666 4.88572 8.26944 4.81206 8.27422 4.73815L8.34115 3.70071C8.34438 3.65112 8.36717 3.60483 8.40451 3.57203C8.44185 3.53923 8.49068 3.52259 8.54028 3.52578C8.58988 3.529 8.63616 3.55179 8.66896 3.58913C8.70177 3.62647 8.7184 3.6753 8.71522 3.7249L8.65747 4.63765C8.65512 4.67457 8.66375 4.71137 8.68226 4.7434C8.70078 4.77543 8.72836 4.80126 8.76153 4.81765L9.58147 5.22321C9.62601 5.24526 9.65997 5.28409 9.6759 5.33117C9.69182 5.37824 9.68841 5.42972 9.6664 5.47428C9.65551 5.49649 9.64032 5.51633 9.62172 5.53264C9.60312 5.54896 9.58148 5.56144 9.55804 5.56935C9.53459 5.57726 9.50981 5.58046 9.48513 5.57875C9.46045 5.57704 9.43635 5.57047 9.41422 5.5594Z" fill="#FBEFEF"/>
<path d="M9.41992 9.19955C9.37019 9.19955 9.3225 9.1798 9.28734 9.14463C9.25218 9.10947 9.23242 9.06178 9.23242 9.01205L9.23786 7.79499C9.23815 7.7297 9.25549 7.66563 9.28814 7.6091C9.3208 7.55257 9.36764 7.50555 9.42405 7.47268L10.4752 6.85955C10.4964 6.84713 10.52 6.83903 10.5444 6.8357C10.5688 6.83238 10.5936 6.83389 10.6174 6.84016C10.6412 6.84643 10.6636 6.85733 10.6832 6.87224C10.7028 6.88715 10.7193 6.90577 10.7317 6.92705C10.7441 6.94832 10.7522 6.97183 10.7555 6.99624C10.7588 7.02064 10.7573 7.04546 10.7511 7.06928C10.7448 7.0931 10.7339 7.11546 10.719 7.13506C10.7041 7.15467 10.6855 7.17115 10.6642 7.18355L9.70642 7.74192C9.67811 7.75827 9.65457 7.78173 9.63812 7.80998C9.62167 7.83824 9.6129 7.8703 9.61267 7.90299L9.60761 9.01299C9.60736 9.06259 9.58747 9.11006 9.5523 9.14503C9.51712 9.18 9.46952 9.1996 9.41992 9.19955Z" fill="#FBEFEF"/>
<path d="M8.34115 8.29897L8.27422 7.26153C8.26944 7.18762 8.28666 7.11396 8.3237 7.04982C8.36074 6.98569 8.41594 6.93396 8.48234 6.90116L9.41422 6.44028C9.45878 6.41828 9.51025 6.41486 9.55733 6.43079C9.6044 6.44671 9.64323 6.48068 9.66528 6.52522C9.68729 6.56978 9.6907 6.62125 9.67477 6.66833C9.65885 6.71541 9.62488 6.75423 9.58034 6.77628L8.76059 7.18203C8.72742 7.19842 8.69984 7.22426 8.68133 7.25629C8.66281 7.28832 8.65418 7.32511 8.65653 7.36203L8.7154 8.27478C8.71859 8.32438 8.70195 8.37321 8.66915 8.41055C8.63635 8.44789 8.59006 8.47068 8.54047 8.47391C8.51589 8.47551 8.49124 8.47226 8.46793 8.46433C8.44461 8.45641 8.42308 8.44397 8.40457 8.42772C8.38607 8.41148 8.37094 8.39175 8.36006 8.36965C8.34918 8.34756 8.34275 8.32354 8.34115 8.29897Z" fill="#FBEFEF"/>
<path d="M10.3043 9.01674L10.2312 8.41168C10.2215 8.33113 10.2382 8.24962 10.2788 8.17937C10.3193 8.10912 10.3816 8.05392 10.4562 8.02205L11.0166 7.78261C11.0624 7.76311 11.114 7.76256 11.1601 7.78109C11.2062 7.79962 11.2431 7.83571 11.2626 7.88143C11.2821 7.92715 11.2827 7.97875 11.2642 8.02489C11.2456 8.07102 11.2095 8.1079 11.1638 8.12743L10.7326 8.31155C10.6953 8.32749 10.6641 8.35509 10.6439 8.39021C10.6236 8.42534 10.6152 8.46609 10.6201 8.50636L10.6763 8.97193C10.6822 9.02128 10.6683 9.07096 10.6376 9.11006C10.6069 9.14916 10.562 9.17447 10.5126 9.18043C10.4633 9.1863 10.4137 9.17236 10.3746 9.14167C10.3356 9.11098 10.3103 9.06605 10.3043 9.01674Z" fill="#FBEFEF"/>
<path d="M2.27557 5.07403C2.26315 5.05276 2.25505 5.02925 2.25172 5.00484C2.24839 4.98044 2.24991 4.95562 2.25617 4.9318C2.26244 4.90798 2.27334 4.88562 2.28825 4.86602C2.30316 4.84641 2.32179 4.82994 2.34307 4.81753L3.30175 4.25841C3.33006 4.24206 3.35361 4.2186 3.37006 4.19035C3.3865 4.16209 3.39527 4.13003 3.3955 4.09734L3.40038 2.98734C3.40063 2.93778 3.42049 2.89033 3.45563 2.85537C3.49076 2.82041 3.53831 2.80078 3.58788 2.80078C3.63761 2.80078 3.6853 2.82054 3.72046 2.8557C3.75562 2.89086 3.77538 2.93855 3.77538 2.98828L3.76994 4.20534C3.76967 4.27061 3.75236 4.33467 3.71974 4.3912C3.68712 4.44773 3.64031 4.49476 3.58394 4.52766L2.53263 5.14078C2.51138 5.15332 2.48786 5.16154 2.46343 5.16496C2.43899 5.16839 2.41412 5.16697 2.39024 5.16077C2.36636 5.15456 2.34394 5.14371 2.32426 5.12883C2.30458 5.11394 2.28803 5.09532 2.27557 5.07403Z" fill="#FBEFEF"/>
<path d="M1.74553 4.1187C1.72602 4.07299 1.72544 4.02141 1.74393 3.97529C1.76243 3.92916 1.79848 3.89226 1.84416 3.8727L2.27541 3.68857C2.31271 3.67264 2.34384 3.64504 2.36412 3.60991C2.38441 3.57479 2.39275 3.53403 2.38791 3.49376L2.33166 3.0282C2.32573 2.97885 2.33965 2.92916 2.37034 2.89006C2.40104 2.85096 2.446 2.82566 2.49535 2.8197C2.5447 2.81377 2.59438 2.82769 2.63348 2.85838C2.67258 2.88907 2.69789 2.93404 2.70385 2.98338L2.77678 3.58845C2.78647 3.66899 2.76978 3.7505 2.72921 3.82075C2.68864 3.891 2.62639 3.9462 2.55178 3.97807L1.99153 4.21751C1.94581 4.23702 1.89421 4.23756 1.84808 4.21903C1.80195 4.20051 1.76506 4.16441 1.74553 4.1187Z" fill="#FBEFEF"/>
<path d="M3.3436 5.47525C3.3216 5.43069 3.31818 5.37922 3.33411 5.33214C3.35003 5.28507 3.384 5.24624 3.42854 5.22419L4.24848 4.81863C4.28165 4.80224 4.30922 4.7764 4.32774 4.74437C4.34626 4.71234 4.35489 4.67555 4.35254 4.63863L4.29366 3.72588C4.29048 3.67628 4.30711 3.62744 4.33992 3.59011C4.37272 3.55277 4.41901 3.52998 4.4686 3.52675C4.5182 3.52357 4.56703 3.5402 4.60437 3.57301C4.64171 3.60581 4.6645 3.65209 4.66773 3.70169L4.73466 4.73932C4.73941 4.81317 4.72221 4.88678 4.6852 4.95088C4.6482 5.01497 4.59306 5.06668 4.52673 5.0995L3.59429 5.55963C3.54984 5.58156 3.49851 5.58499 3.45153 5.56918C3.40455 5.55337 3.36575 5.5196 3.3436 5.47525Z" fill="#FBEFEF"/>
<path d="M5.3807 8.0626C5.35427 8.06261 5.32813 8.05704 5.304 8.04624C5.27987 8.03544 5.2583 8.01966 5.2407 7.99993C5.2231 7.98021 5.20987 7.95699 5.20188 7.93179C5.19389 7.90659 5.19131 7.87999 5.19433 7.85373L5.33045 6.66966L4.35714 6.1666C4.32662 6.1508 4.30103 6.12691 4.28317 6.09754C4.26531 6.06818 4.25586 6.03447 4.25586 6.0001C4.25586 5.96573 4.26531 5.93202 4.28317 5.90266C4.30103 5.87329 4.32662 5.84941 4.35714 5.8336L5.33045 5.33054L5.19433 4.14648C5.19023 4.11093 5.19639 4.07495 5.21208 4.04279C5.22776 4.01063 5.25233 3.98363 5.28287 3.96498C5.3134 3.94633 5.34864 3.93681 5.38442 3.93754C5.42019 3.93827 5.45501 3.94922 5.48476 3.9691L6.5057 4.64973L7.52664 3.9691C7.55639 3.94922 7.59121 3.93827 7.62699 3.93754C7.66276 3.93681 7.698 3.94633 7.72854 3.96498C7.75907 3.98363 7.78364 4.01063 7.79933 4.04279C7.81502 4.07495 7.82117 4.11093 7.81708 4.14648L7.68114 5.33054L8.65426 5.8336C8.68478 5.84941 8.71037 5.87329 8.72823 5.90266C8.7461 5.93202 8.75554 5.96573 8.75554 6.0001C8.75554 6.03447 8.7461 6.06818 8.72823 6.09754C8.71037 6.12691 8.68478 6.1508 8.65426 6.1666L7.68114 6.66966L7.81708 7.85373C7.82117 7.88927 7.81502 7.92525 7.79933 7.95741C7.78364 7.98957 7.75907 8.01657 7.72854 8.03522C7.698 8.05387 7.66276 8.06339 7.62699 8.06266C7.59121 8.06193 7.55639 8.05098 7.52664 8.0311L6.5057 7.3501L5.48476 8.03073C5.45399 8.05141 5.41778 8.0625 5.3807 8.0626ZM6.5057 6.9376C6.54274 6.93759 6.57895 6.94855 6.60976 6.9691L7.39839 7.4941L7.29376 6.58323C7.28952 6.54551 7.29681 6.5074 7.31469 6.47392C7.33257 6.44044 7.36018 6.41317 7.39389 6.39573L8.15983 6.0001L7.39389 5.6041C7.36018 5.58665 7.33257 5.55939 7.31469 5.52591C7.29681 5.49243 7.28952 5.45432 7.29376 5.4166L7.39839 4.50573L6.60976 5.03073C6.57895 5.05128 6.54274 5.06225 6.5057 5.06225C6.46866 5.06225 6.43245 5.05128 6.40164 5.03073L5.61414 4.50573L5.71876 5.4166C5.723 5.45434 5.71567 5.49247 5.69776 5.52595C5.67985 5.55943 5.65219 5.58668 5.61845 5.6041L4.85214 6.0001L5.61808 6.3961C5.65182 6.41352 5.67947 6.44077 5.69738 6.47426C5.7153 6.50774 5.72262 6.54587 5.71839 6.5836L5.61376 7.49448L6.40126 6.96948C6.43214 6.94872 6.4685 6.93763 6.5057 6.9376Z" fill="#FBEFEF"/>
</svg>
