<svg width="385" height="82" viewBox="0 0 385 82" fill="none" xmlns="http://www.w3.org/2000/svg">
  <path d="M69.668 25.9688C69.668 25.6063 69.3742 25.3125 69.0117 25.3125C68.6493 25.3125 68.3555 25.6063 68.3555 25.9688V64.0312C68.3555 64.3937 68.6493 64.6875 69.0117 64.6875C69.3742 64.6875 69.668 64.3937 69.668 64.0312V25.9688Z" fill="#F1F5F2"/>
  <path d="M85.1679 34.9176L52.2031 53.946C51.8892 54.1272 51.7816 54.5285 51.9628 54.8424C52.144 55.1563 52.5454 55.2639 52.8593 55.0827L85.824 36.0543C86.1379 35.8731 86.2455 35.4718 86.0643 35.1579C85.8831 34.844 85.4818 34.7364 85.1679 34.9176Z" fill="#F1F5F2"/>
  <path d="M52.8593 34.9158C52.5455 34.7346 52.1441 34.8422 51.9629 35.156C51.7817 35.4699 51.8892 35.8713 52.2031 36.0525L85.1662 55.0837C85.4801 55.265 85.8814 55.1574 86.0626 54.8435C86.2439 54.5297 86.1363 54.1283 85.8224 53.9471L52.8593 34.9158Z" fill="#F1F5F2"/>
  <path d="M70.7203 62.85L69.4078 61.8656C69.2942 61.7804 69.1561 61.7344 69.0141 61.7344C68.8721 61.7344 68.7339 61.7804 68.6203 61.8656L67.3078 62.85C67.1686 62.9544 66.9936 62.9993 66.8213 62.9747C66.649 62.95 66.4935 62.858 66.3891 62.7187C66.3374 62.6498 66.2997 62.5714 66.2783 62.4879C66.257 62.4044 66.2522 62.3175 66.2644 62.2322C66.2766 62.1469 66.3055 62.0648 66.3494 61.9906C66.3933 61.9165 66.4514 61.8517 66.5203 61.8L68.2266 60.5203C68.4538 60.3499 68.7301 60.2578 69.0141 60.2578C69.298 60.2578 69.5744 60.3499 69.8016 60.5203L71.5078 61.8C71.6471 61.9044 71.7391 62.0599 71.7637 62.2322C71.7883 62.4045 71.7435 62.5795 71.6391 62.7187C71.5874 62.7877 71.5226 62.8458 71.4484 62.8897C71.3743 62.9336 71.2922 62.9625 71.2069 62.9747C71.1216 62.9868 71.0347 62.9821 70.9512 62.9607C70.8677 62.9393 70.7893 62.9017 70.7203 62.85Z" fill="#D5E7D9"/>
  <path d="M69.0139 33.8439C68.8989 33.8443 68.7857 33.8144 68.6858 33.7573L64.6617 31.4604C64.5868 31.4174 64.5211 31.3601 64.4684 31.2917C64.4157 31.2232 64.377 31.1451 64.3546 31.0617C64.3321 30.9783 64.3264 30.8913 64.3376 30.8056C64.3489 30.72 64.377 30.6374 64.4202 30.5627C64.5066 30.4116 64.6494 30.3011 64.8172 30.2553C64.9851 30.2095 65.1642 30.2323 65.3153 30.3186L68.6884 32.246C68.7876 32.3026 68.8998 32.3324 69.0139 32.3324C69.1281 32.3324 69.2403 32.3026 69.3394 32.246L72.7126 30.3186C72.8637 30.2323 73.0428 30.2095 73.2107 30.2553C73.3785 30.3011 73.5213 30.4116 73.6077 30.5627C73.694 30.7138 73.7167 30.8929 73.6709 31.0608C73.6252 31.2286 73.5146 31.3714 73.3636 31.4578L69.3394 33.7547C69.2406 33.8123 69.1284 33.8431 69.0139 33.8439Z" fill="#D5E7D9"/>
  <path d="M69.0139 37.7812C68.8842 37.7812 68.7575 37.7428 68.6496 37.6709L65.2608 35.4101C65.1888 35.3625 65.127 35.3012 65.0788 35.2296C65.0306 35.1581 64.997 35.0778 64.9799 34.9932C64.9627 34.9087 64.9624 34.8216 64.979 34.737C64.9956 34.6523 65.0286 34.5718 65.0764 34.4999C65.1242 34.4282 65.1857 34.3666 65.2573 34.3187C65.3289 34.2707 65.4093 34.2374 65.4938 34.2205C65.5783 34.2036 65.6654 34.2035 65.7499 34.2203C65.8345 34.237 65.9149 34.2703 65.9866 34.3181L68.6496 36.0939C68.7575 36.1659 68.8842 36.2043 69.0139 36.2043C69.1435 36.2043 69.2702 36.1659 69.3781 36.0939L72.0411 34.3181C72.1128 34.2703 72.1933 34.237 72.2778 34.2203C72.3624 34.2035 72.4494 34.2036 72.5339 34.2205C72.6184 34.2374 72.6988 34.2707 72.7704 34.3187C72.8421 34.3666 72.9035 34.4282 72.9514 34.4999C72.9992 34.5716 73.0324 34.652 73.0492 34.7366C73.066 34.8211 73.0659 34.9081 73.049 34.9927C73.0321 35.0772 72.9988 35.1576 72.9508 35.2292C72.9029 35.3008 72.8413 35.3623 72.7696 35.4101L69.3781 37.6709C69.2702 37.7428 69.1435 37.7812 69.0139 37.7812Z" fill="#D5E7D9"/>
  <path d="M69.0141 29.9063C68.8721 29.9063 68.7339 29.8602 68.6203 29.7751L66.5203 28.2001C66.3811 28.0956 66.289 27.9402 66.2644 27.7679C66.2398 27.5956 66.2846 27.4205 66.3891 27.2813C66.4935 27.1421 66.649 27.05 66.8213 27.0254C66.9936 27.0008 67.1686 27.0456 67.3078 27.1501L68.6203 28.1344C68.7339 28.2196 68.8721 28.2657 69.0141 28.2657C69.1561 28.2657 69.2942 28.2196 69.4078 28.1344L70.7203 27.1501C70.8596 27.0456 71.0346 27.0008 71.2069 27.0254C71.3792 27.05 71.5346 27.1421 71.6391 27.2813C71.7435 27.4205 71.7883 27.5956 71.7637 27.7679C71.7391 27.9402 71.6471 28.0956 71.5078 28.2001L69.4078 29.7751C69.2942 29.8602 69.1561 29.9063 69.0141 29.9063Z" fill="#D5E7D9"/>
  <path d="M72.7127 59.6817L69.3396 57.7543C69.2405 57.6977 69.1283 57.6679 69.0141 57.6679C68.8999 57.6679 68.7877 57.6977 68.6886 57.7543L65.3155 59.6817C65.1644 59.768 64.9852 59.7907 64.8174 59.745C64.6495 59.6992 64.5067 59.5886 64.4204 59.4376C64.3341 59.2865 64.3113 59.1073 64.3571 58.9395C64.4029 58.7716 64.5134 58.6288 64.6645 58.5425L68.3631 56.4287C68.5614 56.3154 68.7858 56.2559 69.0141 56.2559C69.2425 56.2559 69.4668 56.3154 69.6651 56.4287L73.3637 58.5425C73.5148 58.6288 73.6253 58.7716 73.6711 58.9395C73.7169 59.1073 73.6941 59.2865 73.6079 59.4376C73.5215 59.5886 73.3787 59.6992 73.2108 59.745C73.043 59.7907 72.8638 59.768 72.7127 59.6817Z" fill="#D5E7D9"/>
  <path d="M72.04 55.6817L69.3769 53.9059C69.2691 53.8339 69.1423 53.7955 69.0127 53.7955C68.8831 53.7955 68.7563 53.8339 68.6485 53.9059L65.9854 55.6817C65.9137 55.7295 65.8333 55.7628 65.7488 55.7795C65.6642 55.7963 65.5772 55.7962 65.4927 55.7793C65.4081 55.7624 65.3278 55.7291 65.2561 55.6811C65.1845 55.6332 65.123 55.5716 65.0752 55.4999C65.0274 55.4282 64.9941 55.3478 64.9774 55.2632C64.9606 55.1787 64.9607 55.0916 64.9776 55.0071C64.9944 54.9226 65.0278 54.8422 65.0757 54.7706C65.1237 54.699 65.1853 54.6375 65.257 54.5897L68.2849 52.5717C68.5005 52.4281 68.7537 52.3514 69.0127 52.3514C69.2717 52.3514 69.5249 52.4281 69.7405 52.5717L72.7684 54.5897C72.8401 54.6375 72.9017 54.699 72.9497 54.7706C72.9976 54.8422 73.031 54.9226 73.0479 55.0071C73.0647 55.0916 73.0648 55.1787 73.048 55.2632C73.0313 55.3478 72.998 55.4282 72.9502 55.4999C72.9024 55.5716 72.8409 55.6332 72.7693 55.6811C72.6976 55.7291 72.6173 55.7624 72.5328 55.7793C72.4482 55.7962 72.3612 55.7963 72.2767 55.7795C72.1921 55.7628 72.1117 55.7295 72.04 55.6817Z" fill="#D5E7D9"/>
  <path d="M58.1467 55.5439L58.1297 51.6589C58.1289 51.5445 58.0982 51.4323 58.0406 51.3334C57.9831 51.2345 57.9006 51.1524 57.8016 51.0952L54.4488 49.1382C54.3743 49.0948 54.3091 49.0371 54.2569 48.9685C54.2047 48.8999 54.1666 48.8217 54.1447 48.7383C54.1227 48.6549 54.1174 48.5681 54.1291 48.4826C54.1407 48.3972 54.1691 48.3149 54.2125 48.2405C54.3002 48.0903 54.444 47.981 54.6122 47.9367C54.7804 47.8924 54.9593 47.9167 55.1096 48.0042L58.7892 50.1502C58.9865 50.2653 59.1503 50.4299 59.2645 50.6278C59.3787 50.8256 59.4393 51.0498 59.4402 51.2783L59.4592 55.538C59.4592 55.712 59.3901 55.879 59.267 56.002C59.144 56.1251 58.977 56.1942 58.803 56.1942C58.63 56.1942 58.4639 56.1259 58.341 56.0041C58.2181 55.8823 58.1483 55.7169 58.1467 55.5439Z" fill="#D5E7D9"/>
  <path d="M61.8901 53.6626C61.7165 53.6513 61.5545 53.5715 61.4397 53.4408C61.3249 53.3102 61.2667 53.1392 61.2778 52.9656L61.4839 49.771C61.4921 49.6418 61.4619 49.513 61.3971 49.4009C61.3323 49.2888 61.2358 49.1984 61.1197 49.141L58.2499 47.7215C58.094 47.6444 57.9751 47.5085 57.9194 47.3437C57.8636 47.1789 57.8756 46.9988 57.9526 46.8428C58.0292 46.6867 58.1646 46.5674 58.3291 46.511C58.4936 46.4546 58.6738 46.4659 58.83 46.5423L62.0922 48.1553C62.3244 48.2702 62.5174 48.4512 62.6469 48.6755C62.7764 48.8999 62.8366 49.1575 62.82 49.416L62.5857 53.0477C62.5805 53.1337 62.5583 53.2179 62.5205 53.2954C62.4827 53.3729 62.4299 53.4422 62.3653 53.4993C62.3007 53.5564 62.2255 53.6002 62.144 53.6282C62.0624 53.6562 61.9762 53.6679 61.8901 53.6626Z" fill="#D5E7D9"/>
  <path d="M54.9818 56.1326C54.809 56.1117 54.6517 56.0232 54.5442 55.8863C54.4368 55.7495 54.3881 55.5756 54.4089 55.4028L54.6057 53.7734C54.6227 53.6324 54.5935 53.4898 54.5225 53.3668C54.4515 53.2439 54.3425 53.1473 54.212 53.0915L52.7026 52.4471C52.5427 52.3786 52.4165 52.2495 52.3518 52.088C52.2871 51.9266 52.2891 51.7461 52.3574 51.5861C52.4258 51.4261 52.5549 51.2998 52.7163 51.2349C52.8778 51.1701 53.0584 51.172 53.2184 51.2402L55.1799 52.0783C55.4411 52.1898 55.6589 52.383 55.8009 52.6289C55.9429 52.8748 56.0013 53.1601 55.9674 53.442L55.7122 55.5597C55.7018 55.6453 55.6748 55.728 55.6325 55.8031C55.5902 55.8782 55.5335 55.9443 55.4657 55.9975C55.3978 56.0507 55.3202 56.09 55.2372 56.1132C55.1541 56.1364 55.0673 56.143 54.9818 56.1326Z" fill="#D5E7D9"/>
  <path d="M82.9134 41.9957L79.2384 39.8497C79.0411 39.7346 78.8773 39.57 78.7631 39.3721C78.6489 39.1743 78.5884 38.9501 78.5874 38.7216L78.5684 34.4619C78.5684 34.2879 78.6375 34.1209 78.7606 33.9979C78.8836 33.8748 79.0506 33.8057 79.2246 33.8057C79.3981 33.8057 79.5645 33.8744 79.6875 33.9967C79.8105 34.1191 79.88 34.2852 79.8809 34.4586L79.8986 38.3436C79.8994 38.458 79.9301 38.5703 79.9876 38.6691C80.0452 38.768 80.1276 38.8501 80.2267 38.9074L83.5821 40.8643C83.6566 40.9077 83.7218 40.9654 83.774 41.034C83.8261 41.1026 83.8643 41.1808 83.8862 41.2642C83.9082 41.3476 83.9135 41.4345 83.9018 41.5199C83.8902 41.6053 83.8618 41.6876 83.8184 41.762C83.7747 41.8373 83.7166 41.9031 83.6473 41.9556C83.578 42.0082 83.4989 42.0464 83.4147 42.0682C83.3305 42.0899 83.2429 42.0947 83.1568 42.0822C83.0707 42.0698 82.988 42.0404 82.9134 41.9957Z" fill="#D5E7D9"/>
  <path d="M84.8099 38.7597L82.8477 37.9217C82.5866 37.8101 82.3687 37.6169 82.2267 37.371C82.0847 37.1252 82.0263 36.8399 82.0602 36.558L82.3155 34.4403C82.3363 34.2675 82.4249 34.1102 82.5617 34.0027C82.6986 33.8953 82.8725 33.8466 83.0452 33.8674C83.2179 33.8882 83.3753 33.9768 83.4827 34.1136C83.5902 34.2505 83.6388 34.4244 83.6181 34.5971L83.4212 36.2266C83.4043 36.3675 83.4335 36.5102 83.5045 36.6331C83.5755 36.756 83.6844 36.8526 83.815 36.9084L85.3244 37.5529C85.4844 37.6212 85.6107 37.7503 85.6755 37.9117C85.7404 38.0732 85.7385 38.2538 85.6702 38.4139C85.6019 38.5737 85.4729 38.6999 85.3116 38.7647C85.1503 38.8296 84.9698 38.8278 84.8099 38.7597Z" fill="#D5E7D9"/>
  <path d="M79.1959 43.4577L75.9343 41.8446C75.7019 41.7298 75.5087 41.5487 75.3791 41.3243C75.2494 41.0998 75.1891 40.842 75.2059 40.5833L75.4401 36.9523C75.4514 36.7787 75.5312 36.6167 75.6619 36.5019C75.7926 36.387 75.9635 36.3288 76.1371 36.34C76.3107 36.3513 76.4727 36.431 76.5875 36.5617C76.7023 36.6924 76.7605 36.8633 76.7494 37.0369L76.5472 40.2315C76.539 40.3608 76.5692 40.4895 76.634 40.6016C76.6988 40.7137 76.7954 40.8042 76.9114 40.8615L79.7812 42.281C79.9371 42.3582 80.056 42.4941 80.1117 42.6588C80.1675 42.8236 80.1555 43.0038 80.0785 43.1597C80.0404 43.2375 79.9872 43.3069 79.9221 43.364C79.857 43.4211 79.7813 43.4648 79.6992 43.4925C79.6172 43.5202 79.5304 43.5314 79.4441 43.5254C79.3577 43.5194 79.2733 43.4964 79.1959 43.4577Z" fill="#D5E7D9"/>
  <path d="M79.2207 56.1971C79.0467 56.1971 78.8797 56.1279 78.7567 56.0049C78.6336 55.8818 78.5645 55.7149 78.5645 55.5408L78.5835 51.2811C78.5845 51.0526 78.6452 50.8284 78.7595 50.6305C78.8738 50.4327 79.0377 50.2681 79.2351 50.153L82.9141 48.0071C82.9885 47.9636 83.0708 47.9353 83.1562 47.9236C83.2417 47.912 83.3285 47.9173 83.4119 47.9392C83.4953 47.9612 83.5735 47.9993 83.6421 48.0515C83.7107 48.1037 83.7684 48.1689 83.8118 48.2433C83.8553 48.3178 83.8836 48.4001 83.8953 48.4855C83.9069 48.5709 83.9016 48.6578 83.8797 48.7412C83.8578 48.8245 83.8196 48.9028 83.7674 48.9714C83.7152 49.04 83.6501 49.0977 83.5756 49.1411L80.2235 51.0954C80.1244 51.1526 80.042 51.2347 79.9844 51.3336C79.9268 51.4325 79.8961 51.5447 79.8953 51.6591L79.8776 55.5441C79.8767 55.7177 79.8071 55.8839 79.684 56.0063C79.5609 56.1286 79.3943 56.1973 79.2207 56.1971Z" fill="#D5E7D9"/>
  <path d="M75.4401 53.0476L75.2059 49.4166C75.1891 49.1579 75.2494 48.9001 75.3791 48.6756C75.5087 48.4511 75.7019 48.2701 75.9343 48.1553L79.1959 46.5422C79.3518 46.4652 79.532 46.4532 79.6967 46.509C79.8615 46.5647 79.9974 46.6836 80.0746 46.8395C80.1516 46.9954 80.1635 47.1756 80.1078 47.3404C80.0521 47.5051 79.9332 47.641 79.7773 47.7182L76.9082 49.1383C76.7921 49.1957 76.6955 49.2861 76.6307 49.3982C76.5659 49.5103 76.5357 49.6391 76.5439 49.7683L76.75 52.963C76.7612 53.1365 76.7029 53.3075 76.5881 53.4382C76.4733 53.5688 76.3113 53.6486 76.1377 53.6599C76.0517 53.6655 75.9654 53.6541 75.8838 53.6264C75.8022 53.5986 75.7269 53.5551 75.6621 53.4983C75.5973 53.4414 75.5444 53.3723 75.5063 53.295C75.4682 53.2177 75.4457 53.1336 75.4401 53.0476Z" fill="#D5E7D9"/>
  <path d="M82.3161 55.5597L82.0602 53.442C82.0263 53.1601 82.0847 52.8748 82.2267 52.6289C82.3687 52.383 82.5866 52.1898 82.8477 52.0783L84.8092 51.2402C84.9692 51.172 85.1498 51.1701 85.3113 51.2349C85.4728 51.2998 85.6019 51.4261 85.6702 51.5861C85.7385 51.7461 85.7404 51.9267 85.6755 52.0882C85.6107 52.2497 85.4844 52.3787 85.3244 52.4471L83.815 53.0915C83.6844 53.1473 83.5755 53.2439 83.5045 53.3668C83.4335 53.4898 83.4043 53.6324 83.4212 53.7734L83.6181 55.4028C83.6388 55.5756 83.5902 55.7495 83.4827 55.8863C83.3753 56.0232 83.2179 56.1117 83.0452 56.1326C82.8726 56.1531 82.6988 56.1044 82.5621 55.9969C82.4255 55.8895 82.337 55.7323 82.3161 55.5597Z" fill="#D5E7D9"/>
  <path d="M54.2125 41.7595C54.1691 41.685 54.1407 41.6027 54.1291 41.5173C54.1174 41.4319 54.1227 41.345 54.1447 41.2617C54.1666 41.1783 54.2047 41.1001 54.2569 41.0314C54.3091 40.9628 54.3743 40.9051 54.4488 40.8617L57.8042 38.9048C57.9033 38.8476 57.9857 38.7655 58.0432 38.6666C58.1008 38.5677 58.1315 38.4555 58.1323 38.3411L58.1494 34.4561C58.1502 34.2826 58.2198 34.1165 58.3427 33.9942C58.4657 33.8718 58.6321 33.8031 58.8056 33.8031C58.9797 33.8031 59.1466 33.8722 59.2697 33.9953C59.3927 34.1184 59.4619 34.2853 59.4619 34.4594L59.4428 38.7191C59.4419 38.9475 59.3813 39.1717 59.2671 39.3696C59.153 39.5674 58.9891 39.732 58.7918 39.8472L55.1122 41.9931C55.0379 42.037 54.9556 42.0657 54.87 42.0777C54.7845 42.0897 54.6975 42.0848 54.6139 42.063C54.5303 42.0413 54.4518 42.0034 54.383 41.9513C54.3141 41.8992 54.2562 41.834 54.2125 41.7595Z" fill="#D5E7D9"/>
  <path d="M52.3574 38.4139C52.2891 38.2539 52.2871 38.0734 52.3518 37.9119C52.4165 37.7505 52.5427 37.6213 52.7026 37.5529L54.212 36.9084C54.3425 36.8526 54.4515 36.756 54.5225 36.6331C54.5935 36.5102 54.6227 36.3675 54.6057 36.2266L54.4089 34.5971C54.3881 34.4244 54.4368 34.2505 54.5442 34.1136C54.6517 33.9768 54.809 33.8882 54.9818 33.8674C55.1545 33.8466 55.3284 33.8953 55.4652 34.0027C55.6021 34.1102 55.6907 34.2675 55.7115 34.4403L55.9668 36.558C56.0007 36.8399 55.9423 37.1252 55.8003 37.371C55.6583 37.6169 55.4404 37.8101 55.1793 37.9217L53.2184 38.7597C53.0584 38.828 52.8778 38.8299 52.7163 38.765C52.5549 38.7002 52.4258 38.5739 52.3574 38.4139Z" fill="#D5E7D9"/>
  <path d="M57.9526 43.1627C57.8756 43.0067 57.8636 42.8265 57.9194 42.6618C57.9751 42.497 58.094 42.3611 58.2499 42.2839L61.1197 40.8645C61.2358 40.8071 61.3323 40.7167 61.3971 40.6046C61.4619 40.4925 61.4921 40.3637 61.4839 40.2345L61.2778 37.0398C61.2667 36.8662 61.3249 36.6953 61.4397 36.5646C61.5545 36.434 61.7165 36.3542 61.8901 36.3429C62.0637 36.3318 62.2346 36.39 62.3653 36.5048C62.496 36.6196 62.5757 36.7816 62.587 36.9552L62.8213 40.5869C62.838 40.8454 62.7777 41.103 62.6482 41.3273C62.5187 41.5517 62.3257 41.7327 62.0935 41.8475L58.83 43.458C58.6744 43.5347 58.4948 43.5467 58.3304 43.4914C58.1659 43.436 58.0301 43.3179 57.9526 43.1627Z" fill="#D5E7D9"/>
  <path d="M65.0776 52.2187C64.985 52.2188 64.8936 52.1993 64.8091 52.1615C64.7247 52.1237 64.6492 52.0684 64.5876 51.9994C64.526 51.9304 64.4797 51.8491 64.4517 51.7609C64.4237 51.6727 64.4147 51.5796 64.4253 51.4877L64.9017 47.3435L61.4951 45.5827C61.3883 45.5274 61.2987 45.4438 61.2362 45.341C61.1737 45.2383 61.1406 45.1203 61.1406 45C61.1406 44.8797 61.1737 44.7617 61.2362 44.6589C61.2987 44.5562 61.3883 44.4726 61.4951 44.4172L64.9017 42.6565L64.4253 38.5123C64.4109 38.3879 64.4325 38.262 64.4874 38.1494C64.5423 38.0368 64.6283 37.9423 64.7351 37.8771C64.842 37.8118 64.9654 37.7785 65.0906 37.781C65.2158 37.7836 65.3377 37.8219 65.4418 37.8915L69.0151 40.2737L72.5884 37.8915C72.6925 37.8219 72.8144 37.7836 72.9396 37.781C73.0648 37.7785 73.1881 37.8118 73.295 37.8771C73.4019 37.9423 73.4879 38.0368 73.5428 38.1494C73.5977 38.262 73.6192 38.3879 73.6049 38.5123L73.1291 42.6565L76.535 44.4172C76.6419 44.4726 76.7314 44.5562 76.7939 44.6589C76.8565 44.7617 76.8895 44.8797 76.8895 45C76.8895 45.1203 76.8565 45.2383 76.7939 45.341C76.7314 45.4438 76.6419 45.5274 76.535 45.5827L73.1291 47.3435L73.6049 51.4877C73.6192 51.6121 73.5977 51.738 73.5428 51.8506C73.4879 51.9631 73.4019 52.0576 73.295 52.1229C73.1881 52.1882 73.0648 52.2215 72.9396 52.219C72.8144 52.2164 72.6925 52.1781 72.5884 52.1085L69.0151 49.725L65.4418 52.1072C65.3341 52.1796 65.2073 52.2184 65.0776 52.2187ZM69.0151 48.2812C69.1447 48.2812 69.2714 48.3196 69.3793 48.3915L72.1395 50.229L71.7733 47.0409C71.7584 46.9089 71.784 46.7755 71.8465 46.6583C71.9091 46.5412 72.0058 46.4457 72.1237 46.3847L74.8045 45L72.1237 43.614C72.0058 43.5529 71.9091 43.4575 71.8465 43.3403C71.784 43.2231 71.7584 43.0897 71.7733 42.9577L72.1395 39.7697L69.3793 41.6072C69.2714 41.6791 69.1447 41.7175 69.0151 41.7175C68.8854 41.7175 68.7587 41.6791 68.6509 41.6072L65.8946 39.7697L66.2608 42.9577C66.2756 43.0898 66.25 43.2233 66.1873 43.3404C66.1246 43.4576 66.0278 43.553 65.9097 43.614L63.2276 45L65.9084 46.386C66.0265 46.447 66.1233 46.5423 66.186 46.6595C66.2487 46.7767 66.2743 46.9102 66.2595 47.0422L65.8933 50.2303L68.6495 48.3928C68.7576 48.3202 68.8849 48.2813 69.0151 48.2812Z" fill="#D5E7D9"/>
  <path d="M316.668 25.9688C316.668 25.6063 316.374 25.3125 316.012 25.3125C315.649 25.3125 315.355 25.6063 315.355 25.9688V64.0312C315.355 64.3937 315.649 64.6875 316.012 64.6875C316.374 64.6875 316.668 64.3937 316.668 64.0312V25.9688Z" fill="#F1F5F2"/>
  <path d="M332.168 34.9176L299.203 53.946C298.889 54.1272 298.782 54.5285 298.963 54.8424C299.144 55.1563 299.545 55.2639 299.859 55.0827L332.824 36.0543C333.138 35.8731 333.245 35.4718 333.064 35.1579C332.883 34.844 332.482 34.7364 332.168 34.9176Z" fill="#F1F5F2"/>
  <path d="M299.859 34.9158C299.545 34.7346 299.144 34.8422 298.963 35.156C298.782 35.4699 298.889 35.8713 299.203 36.0525L332.166 55.0837C332.48 55.265 332.881 55.1574 333.063 54.8435C333.244 54.5297 333.136 54.1283 332.822 53.9471L299.859 34.9158Z" fill="#F1F5F2"/>
  <path d="M317.72 62.85L316.408 61.8656C316.294 61.7804 316.156 61.7344 316.014 61.7344C315.872 61.7344 315.734 61.7804 315.62 61.8656L314.308 62.85C314.169 62.9544 313.994 62.9993 313.821 62.9747C313.649 62.95 313.493 62.858 313.389 62.7187C313.337 62.6498 313.3 62.5714 313.278 62.4879C313.257 62.4044 313.252 62.3175 313.264 62.2322C313.277 62.1469 313.305 62.0648 313.349 61.9906C313.393 61.9165 313.451 61.8517 313.52 61.8L315.227 60.5203C315.454 60.3499 315.73 60.2578 316.014 60.2578C316.298 60.2578 316.574 60.3499 316.802 60.5203L318.508 61.8C318.647 61.9044 318.739 62.0599 318.764 62.2322C318.788 62.4045 318.743 62.5795 318.639 62.7187C318.587 62.7877 318.523 62.8458 318.448 62.8897C318.374 62.9336 318.292 62.9625 318.207 62.9747C318.122 62.9868 318.035 62.9821 317.951 62.9607C317.868 62.9393 317.789 62.9017 317.72 62.85Z" fill="#D5E7D9"/>
  <path d="M316.014 33.8439C315.899 33.8443 315.786 33.8144 315.686 33.7573L311.662 31.4604C311.587 31.4174 311.521 31.3601 311.468 31.2917C311.416 31.2232 311.377 31.1451 311.355 31.0617C311.332 30.9783 311.326 30.8913 311.338 30.8056C311.349 30.72 311.377 30.6374 311.42 30.5627C311.507 30.4116 311.649 30.3011 311.817 30.2553C311.985 30.2095 312.164 30.2323 312.315 30.3186L315.688 32.246C315.788 32.3026 315.9 32.3324 316.014 32.3324C316.128 32.3324 316.24 32.3026 316.339 32.246L319.713 30.3186C319.864 30.2323 320.043 30.2095 320.211 30.2553C320.379 30.3011 320.521 30.4116 320.608 30.5627C320.694 30.7138 320.717 30.8929 320.671 31.0608C320.625 31.2286 320.515 31.3714 320.364 31.4578L316.339 33.7547C316.241 33.8123 316.128 33.8431 316.014 33.8439Z" fill="#D5E7D9"/>
  <path d="M316.014 37.7812C315.884 37.7812 315.757 37.7428 315.65 37.6709L312.261 35.4101C312.189 35.3625 312.127 35.3012 312.079 35.2296C312.031 35.1581 311.997 35.0778 311.98 34.9932C311.963 34.9087 311.962 34.8216 311.979 34.737C311.996 34.6523 312.029 34.5718 312.076 34.4999C312.124 34.4282 312.186 34.3666 312.257 34.3187C312.329 34.2707 312.409 34.2374 312.494 34.2205C312.578 34.2036 312.665 34.2035 312.75 34.2203C312.834 34.237 312.915 34.2703 312.987 34.3181L315.65 36.0939C315.757 36.1659 315.884 36.2043 316.014 36.2043C316.143 36.2043 316.27 36.1659 316.378 36.0939L319.041 34.3181C319.113 34.2703 319.193 34.237 319.278 34.2203C319.362 34.2035 319.449 34.2036 319.534 34.2205C319.618 34.2374 319.699 34.2707 319.77 34.3187C319.842 34.3666 319.904 34.4282 319.951 34.4999C319.999 34.5716 320.032 34.652 320.049 34.7366C320.066 34.8211 320.066 34.9081 320.049 34.9927C320.032 35.0772 319.999 35.1576 319.951 35.2292C319.903 35.3008 319.841 35.3623 319.77 35.4101L316.378 37.6709C316.27 37.7428 316.143 37.7812 316.014 37.7812Z" fill="#D5E7D9"/>
  <path d="M316.014 29.9063C315.872 29.9063 315.734 29.8602 315.62 29.7751L313.52 28.2001C313.381 28.0956 313.289 27.9402 313.264 27.7679C313.24 27.5956 313.285 27.4205 313.389 27.2813C313.493 27.1421 313.649 27.05 313.821 27.0254C313.994 27.0008 314.169 27.0456 314.308 27.1501L315.62 28.1344C315.734 28.2196 315.872 28.2657 316.014 28.2657C316.156 28.2657 316.294 28.2196 316.408 28.1344L317.72 27.1501C317.86 27.0456 318.035 27.0008 318.207 27.0254C318.379 27.05 318.535 27.1421 318.639 27.2813C318.743 27.4205 318.788 27.5956 318.764 27.7679C318.739 27.9402 318.647 28.0956 318.508 28.2001L316.408 29.7751C316.294 29.8602 316.156 29.9063 316.014 29.9063Z" fill="#D5E7D9"/>
  <path d="M319.713 59.6817L316.34 57.7543C316.24 57.6977 316.128 57.6679 316.014 57.6679C315.9 57.6679 315.788 57.6977 315.689 57.7543L312.315 59.6817C312.164 59.768 311.985 59.7907 311.817 59.745C311.65 59.6992 311.507 59.5886 311.42 59.4376C311.334 59.2865 311.311 59.1073 311.357 58.9395C311.403 58.7716 311.513 58.6288 311.664 58.5425L315.363 56.4287C315.561 56.3154 315.786 56.2559 316.014 56.2559C316.242 56.2559 316.467 56.3154 316.665 56.4287L320.364 58.5425C320.515 58.6288 320.625 58.7716 320.671 58.9395C320.717 59.1073 320.694 59.2865 320.608 59.4376C320.521 59.5886 320.379 59.6992 320.211 59.745C320.043 59.7907 319.864 59.768 319.713 59.6817Z" fill="#D5E7D9"/>
  <path d="M319.04 55.6817L316.377 53.9059C316.269 53.8339 316.142 53.7955 316.013 53.7955C315.883 53.7955 315.756 53.8339 315.648 53.9059L312.985 55.6817C312.914 55.7295 312.833 55.7628 312.749 55.7795C312.664 55.7963 312.577 55.7962 312.493 55.7793C312.408 55.7624 312.328 55.7291 312.256 55.6811C312.185 55.6332 312.123 55.5716 312.075 55.4999C312.027 55.4282 311.994 55.3478 311.977 55.2632C311.961 55.1787 311.961 55.0916 311.978 55.0071C311.994 54.9226 312.028 54.8422 312.076 54.7706C312.124 54.699 312.185 54.6375 312.257 54.5897L315.285 52.5717C315.5 52.4281 315.754 52.3514 316.013 52.3514C316.272 52.3514 316.525 52.4281 316.74 52.5717L319.768 54.5897C319.84 54.6375 319.902 54.699 319.95 54.7706C319.998 54.8422 320.031 54.9226 320.048 55.0071C320.065 55.0916 320.065 55.1787 320.048 55.2632C320.031 55.3478 319.998 55.4282 319.95 55.4999C319.902 55.5716 319.841 55.6332 319.769 55.6811C319.698 55.7291 319.617 55.7624 319.533 55.7793C319.448 55.7962 319.361 55.7963 319.277 55.7795C319.192 55.7628 319.112 55.7295 319.04 55.6817Z" fill="#D5E7D9"/>
  <path d="M305.147 55.5439L305.13 51.6589C305.129 51.5445 305.098 51.4323 305.041 51.3334C304.983 51.2345 304.901 51.1524 304.802 51.0952L301.449 49.1382C301.374 49.0948 301.309 49.0371 301.257 48.9685C301.205 48.8999 301.167 48.8217 301.145 48.7383C301.123 48.6549 301.117 48.5681 301.129 48.4826C301.141 48.3972 301.169 48.3149 301.213 48.2405C301.3 48.0903 301.444 47.981 301.612 47.9367C301.78 47.8924 301.959 47.9167 302.11 48.0042L305.789 50.1502C305.987 50.2653 306.15 50.4299 306.265 50.6278C306.379 50.8256 306.439 51.0498 306.44 51.2783L306.459 55.538C306.459 55.712 306.39 55.879 306.267 56.002C306.144 56.1251 305.977 56.1942 305.803 56.1942C305.63 56.1942 305.464 56.1259 305.341 56.0041C305.218 55.8823 305.148 55.7169 305.147 55.5439Z" fill="#D5E7D9"/>
  <path d="M308.89 53.6626C308.717 53.6513 308.555 53.5715 308.44 53.4408C308.325 53.3102 308.267 53.1392 308.278 52.9656L308.484 49.771C308.492 49.6418 308.462 49.513 308.397 49.4009C308.332 49.2888 308.236 49.1984 308.12 49.141L305.25 47.7215C305.094 47.6444 304.975 47.5085 304.919 47.3437C304.864 47.1789 304.876 46.9988 304.953 46.8428C305.029 46.6867 305.165 46.5674 305.329 46.511C305.494 46.4546 305.674 46.4659 305.83 46.5423L309.092 48.1553C309.324 48.2702 309.517 48.4512 309.647 48.6755C309.776 48.8999 309.837 49.1575 309.82 49.416L309.586 53.0477C309.58 53.1337 309.558 53.2179 309.52 53.2954C309.483 53.3729 309.43 53.4422 309.365 53.4993C309.301 53.5564 309.226 53.6002 309.144 53.6282C309.062 53.6562 308.976 53.6679 308.89 53.6626Z" fill="#D5E7D9"/>
  <path d="M301.982 56.1326C301.809 56.1117 301.652 56.0232 301.544 55.8863C301.437 55.7495 301.388 55.5756 301.409 55.4028L301.606 53.7734C301.623 53.6324 301.593 53.4898 301.522 53.3668C301.451 53.2439 301.343 53.1473 301.212 53.0915L299.703 52.4471C299.543 52.3786 299.417 52.2495 299.352 52.088C299.287 51.9266 299.289 51.7461 299.357 51.5861C299.426 51.4261 299.555 51.2998 299.716 51.2349C299.878 51.1701 300.058 51.172 300.218 51.2402L302.18 52.0783C302.441 52.1898 302.659 52.383 302.801 52.6289C302.943 52.8748 303.001 53.1601 302.967 53.442L302.712 55.5597C302.702 55.6453 302.675 55.728 302.632 55.8031C302.59 55.8782 302.533 55.9443 302.466 55.9975C302.398 56.0507 302.32 56.09 302.237 56.1132C302.154 56.1364 302.067 56.143 301.982 56.1326Z" fill="#D5E7D9"/>
  <path d="M329.913 41.9957L326.238 39.8497C326.041 39.7346 325.877 39.57 325.763 39.3721C325.649 39.1743 325.588 38.9501 325.587 38.7216L325.568 34.4619C325.568 34.2879 325.638 34.1209 325.761 33.9979C325.884 33.8748 326.051 33.8057 326.225 33.8057C326.398 33.8057 326.565 33.8744 326.687 33.9967C326.81 34.1191 326.88 34.2852 326.881 34.4586L326.899 38.3436C326.899 38.458 326.93 38.5703 326.988 38.6691C327.045 38.768 327.128 38.8501 327.227 38.9074L330.582 40.8643C330.657 40.9077 330.722 40.9654 330.774 41.034C330.826 41.1026 330.864 41.1808 330.886 41.2642C330.908 41.3476 330.913 41.4345 330.902 41.5199C330.89 41.6053 330.862 41.6876 330.818 41.762C330.775 41.8373 330.717 41.9031 330.647 41.9556C330.578 42.0082 330.499 42.0464 330.415 42.0682C330.331 42.0899 330.243 42.0947 330.157 42.0822C330.071 42.0698 329.988 42.0404 329.913 41.9957Z" fill="#D5E7D9"/>
  <path d="M331.81 38.7597L329.848 37.9217C329.587 37.8101 329.369 37.6169 329.227 37.371C329.085 37.1252 329.026 36.8399 329.06 36.558L329.315 34.4403C329.336 34.2675 329.425 34.1102 329.562 34.0027C329.699 33.8953 329.872 33.8466 330.045 33.8674C330.218 33.8882 330.375 33.9768 330.483 34.1136C330.59 34.2505 330.639 34.4244 330.618 34.5971L330.421 36.2266C330.404 36.3675 330.433 36.5102 330.504 36.6331C330.575 36.756 330.684 36.8526 330.815 36.9084L332.324 37.5529C332.484 37.6212 332.611 37.7503 332.676 37.9117C332.74 38.0732 332.738 38.2538 332.67 38.4139C332.602 38.5737 332.473 38.6999 332.312 38.7647C332.15 38.8296 331.97 38.8278 331.81 38.7597Z" fill="#D5E7D9"/>
  <path d="M326.196 43.4577L322.934 41.8446C322.702 41.7298 322.509 41.5487 322.379 41.3243C322.249 41.0998 322.189 40.842 322.206 40.5833L322.44 36.9523C322.451 36.7787 322.531 36.6167 322.662 36.5019C322.793 36.387 322.963 36.3288 323.137 36.34C323.311 36.3513 323.473 36.431 323.587 36.5617C323.702 36.6924 323.761 36.8633 323.749 37.0369L323.547 40.2315C323.539 40.3608 323.569 40.4895 323.634 40.6016C323.699 40.7137 323.795 40.8042 323.911 40.8615L326.781 42.281C326.937 42.3582 327.056 42.4941 327.112 42.6588C327.167 42.8236 327.156 43.0038 327.079 43.1597C327.04 43.2375 326.987 43.3069 326.922 43.364C326.857 43.4211 326.781 43.4648 326.699 43.4925C326.617 43.5202 326.53 43.5314 326.444 43.5254C326.358 43.5194 326.273 43.4964 326.196 43.4577Z" fill="#D5E7D9"/>
  <path d="M326.221 56.1971C326.047 56.1971 325.88 56.1279 325.757 56.0049C325.634 55.8818 325.564 55.7149 325.564 55.5408L325.583 51.2811C325.585 51.0526 325.645 50.8284 325.759 50.6305C325.874 50.4327 326.038 50.2681 326.235 50.153L329.914 48.0071C329.989 47.9636 330.071 47.9353 330.156 47.9236C330.242 47.912 330.329 47.9173 330.412 47.9392C330.495 47.9612 330.574 47.9993 330.642 48.0515C330.711 48.1037 330.768 48.1689 330.812 48.2433C330.855 48.3178 330.884 48.4001 330.895 48.4855C330.907 48.5709 330.902 48.6578 330.88 48.7412C330.858 48.8245 330.82 48.9028 330.767 48.9714C330.715 49.04 330.65 49.0977 330.576 49.1411L327.223 51.0954C327.124 51.1526 327.042 51.2347 326.984 51.3336C326.927 51.4325 326.896 51.5447 326.895 51.6591L326.878 55.5441C326.877 55.7177 326.807 55.8839 326.684 56.0063C326.561 56.1286 326.394 56.1973 326.221 56.1971Z" fill="#D5E7D9"/>
  <path d="M322.44 53.0476L322.206 49.4166C322.189 49.1579 322.249 48.9001 322.379 48.6756C322.509 48.4511 322.702 48.2701 322.934 48.1553L326.196 46.5422C326.352 46.4652 326.532 46.4532 326.697 46.509C326.862 46.5647 326.997 46.6836 327.075 46.8395C327.152 46.9954 327.164 47.1756 327.108 47.3404C327.052 47.5051 326.933 47.641 326.777 47.7182L323.908 49.1383C323.792 49.1957 323.696 49.2861 323.631 49.3982C323.566 49.5103 323.536 49.6391 323.544 49.7683L323.75 52.963C323.761 53.1365 323.703 53.3075 323.588 53.4382C323.473 53.5688 323.311 53.6486 323.138 53.6599C323.052 53.6655 322.965 53.6541 322.884 53.6264C322.802 53.5986 322.727 53.5551 322.662 53.4983C322.597 53.4414 322.544 53.3723 322.506 53.295C322.468 53.2177 322.446 53.1336 322.44 53.0476Z" fill="#D5E7D9"/>
  <path d="M329.316 55.5597L329.06 53.442C329.026 53.1601 329.085 52.8748 329.227 52.6289C329.369 52.383 329.587 52.1898 329.848 52.0783L331.809 51.2402C331.969 51.172 332.15 51.1701 332.311 51.2349C332.473 51.2998 332.602 51.4261 332.67 51.5861C332.738 51.7461 332.74 51.9267 332.676 52.0882C332.611 52.2497 332.484 52.3787 332.324 52.4471L330.815 53.0915C330.684 53.1473 330.575 53.2439 330.504 53.3668C330.433 53.4898 330.404 53.6324 330.421 53.7734L330.618 55.4028C330.639 55.5756 330.59 55.7495 330.483 55.8863C330.375 56.0232 330.218 56.1117 330.045 56.1326C329.873 56.1531 329.699 56.1044 329.562 55.9969C329.425 55.8895 329.337 55.7323 329.316 55.5597Z" fill="#D5E7D9"/>
  <path d="M301.213 41.7595C301.169 41.685 301.141 41.6027 301.129 41.5173C301.117 41.4319 301.123 41.345 301.145 41.2617C301.167 41.1783 301.205 41.1001 301.257 41.0314C301.309 40.9628 301.374 40.9051 301.449 40.8617L304.804 38.9048C304.903 38.8476 304.986 38.7655 305.043 38.6666C305.101 38.5677 305.132 38.4555 305.132 38.3411L305.149 34.4561C305.15 34.2826 305.22 34.1165 305.343 33.9942C305.466 33.8718 305.632 33.8031 305.806 33.8031C305.98 33.8031 306.147 33.8722 306.27 33.9953C306.393 34.1184 306.462 34.2853 306.462 34.4594L306.443 38.7191C306.442 38.9475 306.381 39.1717 306.267 39.3696C306.153 39.5674 305.989 39.732 305.792 39.8472L302.112 41.9931C302.038 42.037 301.956 42.0657 301.87 42.0777C301.785 42.0897 301.697 42.0848 301.614 42.063C301.53 42.0413 301.452 42.0034 301.383 41.9513C301.314 41.8992 301.256 41.834 301.213 41.7595Z" fill="#D5E7D9"/>
  <path d="M299.357 38.4139C299.289 38.2539 299.287 38.0734 299.352 37.9119C299.417 37.7505 299.543 37.6213 299.703 37.5529L301.212 36.9084C301.343 36.8526 301.451 36.756 301.522 36.6331C301.593 36.5102 301.623 36.3675 301.606 36.2266L301.409 34.5971C301.388 34.4244 301.437 34.2505 301.544 34.1136C301.652 33.9768 301.809 33.8882 301.982 33.8674C302.154 33.8466 302.328 33.8953 302.465 34.0027C302.602 34.1102 302.691 34.2675 302.712 34.4403L302.967 36.558C303.001 36.8399 302.942 37.1252 302.8 37.371C302.658 37.6169 302.44 37.8101 302.179 37.9217L300.218 38.7597C300.058 38.828 299.878 38.8299 299.716 38.765C299.555 38.7002 299.426 38.5739 299.357 38.4139Z" fill="#D5E7D9"/>
  <path d="M304.953 43.1627C304.876 43.0067 304.864 42.8265 304.919 42.6618C304.975 42.497 305.094 42.3611 305.25 42.2839L308.12 40.8645C308.236 40.8071 308.332 40.7167 308.397 40.6046C308.462 40.4925 308.492 40.3637 308.484 40.2345L308.278 37.0398C308.267 36.8662 308.325 36.6953 308.44 36.5646C308.555 36.434 308.717 36.3542 308.89 36.3429C309.064 36.3318 309.235 36.39 309.365 36.5048C309.496 36.6196 309.576 36.7816 309.587 36.9552L309.821 40.5869C309.838 40.8454 309.778 41.103 309.648 41.3273C309.519 41.5517 309.326 41.7327 309.094 41.8475L305.83 43.458C305.674 43.5347 305.495 43.5467 305.33 43.4914C305.166 43.436 305.03 43.3179 304.953 43.1627Z" fill="#D5E7D9"/>
  <path d="M312.078 52.2187C311.985 52.2188 311.894 52.1993 311.809 52.1615C311.725 52.1237 311.649 52.0684 311.588 51.9994C311.526 51.9304 311.48 51.8491 311.452 51.7609C311.424 51.6727 311.415 51.5796 311.425 51.4877L311.902 47.3435L308.495 45.5827C308.388 45.5274 308.299 45.4438 308.236 45.341C308.174 45.2383 308.141 45.1203 308.141 45C308.141 44.8797 308.174 44.7617 308.236 44.6589C308.299 44.5562 308.388 44.4726 308.495 44.4172L311.902 42.6565L311.425 38.5123C311.411 38.3879 311.432 38.262 311.487 38.1494C311.542 38.0368 311.628 37.9423 311.735 37.8771C311.842 37.8118 311.965 37.7785 312.091 37.781C312.216 37.7836 312.338 37.8219 312.442 37.8915L316.015 40.2737L319.588 37.8915C319.692 37.8219 319.814 37.7836 319.94 37.781C320.065 37.7785 320.188 37.8118 320.295 37.8771C320.402 37.9423 320.488 38.0368 320.543 38.1494C320.598 38.262 320.619 38.3879 320.605 38.5123L320.129 42.6565L323.535 44.4172C323.642 44.4726 323.731 44.5562 323.794 44.6589C323.856 44.7617 323.89 44.8797 323.89 45C323.89 45.1203 323.856 45.2383 323.794 45.341C323.731 45.4438 323.642 45.5274 323.535 45.5827L320.129 47.3435L320.605 51.4877C320.619 51.6121 320.598 51.738 320.543 51.8506C320.488 51.9631 320.402 52.0576 320.295 52.1229C320.188 52.1882 320.065 52.2215 319.94 52.219C319.814 52.2164 319.692 52.1781 319.588 52.1085L316.015 49.725L312.442 52.1072C312.334 52.1796 312.207 52.2184 312.078 52.2187ZM316.015 48.2812C316.145 48.2812 316.271 48.3196 316.379 48.3915L319.139 50.229L318.773 47.0409C318.758 46.9089 318.784 46.7755 318.847 46.6583C318.909 46.5412 319.006 46.4457 319.124 46.3847L321.805 45L319.124 43.614C319.006 43.5529 318.909 43.4575 318.847 43.3403C318.784 43.2231 318.758 43.0897 318.773 42.9577L319.139 39.7697L316.379 41.6072C316.271 41.6791 316.145 41.7175 316.015 41.7175C315.885 41.7175 315.759 41.6791 315.651 41.6072L312.895 39.7697L313.261 42.9577C313.276 43.0898 313.25 43.2233 313.187 43.3404C313.125 43.4576 313.028 43.553 312.91 43.614L310.228 45L312.908 46.386C313.026 46.447 313.123 46.5423 313.186 46.6595C313.249 46.7767 313.274 46.9102 313.259 47.0422L312.893 50.2303L315.65 48.3928C315.758 48.3202 315.885 48.2813 316.015 48.2812Z" fill="#D5E7D9"/>
</svg>
