<?xml version="1.0" encoding="utf-8"?>
<svg width="406" height="161" viewBox="0 0 406 161"
	xmlns="http://www.w3.org/2000/svg" xmlns:xlink="http://www.w3.org/1999/xlink">
	<view id="Gifts" viewBox="256 0 150 106" /><svg width="150" height="106" fill="none" viewBox="0 0 150 106" x="256"
		xmlns="http://www.w3.org/2000/svg">
		<path d="m66.739 61.486-63.22 1.741 1.176 42.77 63.22-1.74-1.177-42.77Z" fill="#2C5134" />
		<path opacity=".3"
			d="M4.696 106 3.52 63.23l63.22-1.743.382 13.764c-16.295 1.14-32.717-2.142-48.912 2.82-2.538.59-5.503 4.288-3.394 6.809 10.654 15.225 28.88 9.042 44.778 11.18 2.992.443 5.737 1.336 8.175 2.656l.147 5.544L4.696 106Z"
			fill="#A7A9AC" />
		<path opacity=".6"
			d="M47.167 73.029c-10.111.008-20.216.13-30.326.395-4.163.13-8.637-.144-13.042-.005l-.28-10.19 63.222-1.742.312 11.08c-6.594-.465-13.26.44-19.886.462Z"
			fill="#76A700" />
		<path d="m.492 71.674 69.793-.747-.4-14.196L0 54.188l.492 17.486Z" fill="#76A700" />
		<path opacity=".6"
			d="M22.669 55.011c-3.13 1.164-5.39 2.819-3.454 5.137 12.169 13.308 31.326 5.11 47.365 6.37 1.203-.037 2.405.05 3.58.212l.126 4.196-69.794.748L0 54.187l22.669.824Z"
			fill="#76A700" />
		<path
			d="M13.012 54.17c2.311 2.03 5.084 3.315 8.002 4.217 1.67.51 3.361.888 5.09 1.17 1.514.247 3.5.217 4.966.742-.397 4.624.028 11.717.028 11.717l8.788-.252s-.079-5.908-.15-8.863c2.446.226 4.988.027 7.153-.26 3.215-.44 6.406-1.469 9.2-3.165 5.16-3.174 8.446-9.792 3.74-15.018-4.136-4.556-11.372-4.689-16.609-2.274-2.98 1.386-5.985 3.81-8.1 6.768-1.071-2.74-2.613-5.479-4.85-7.416-4.346-3.758-11.012-5.286-16.098-1.97-5.094 3.32-5.886 10.465-1.16 14.603Zm25.798 1.295c-.028-.053-.063-.11-.083-.163.255-.412.518-.822.795-1.22 1.359-1.966 3.121-3.985 5.189-5.228 2.931-1.768 4.892-2.48 7.894-.285 3.453 2.545.984 5.573-1.26 6.376-2.391.871-4.83 1.309-7.395 1.231-1.719-.058-3.44-.442-5.14-.711Zm-18.928-9.39c3.722-1.802 5.956-1.36 8.103 1.933 1.182 1.808 2.003 3.66 2.669 5.676-3.627-.739-7.427-.9-10.81-2.644-2.476-1.288-4.033-3.008.038-4.966Z"
			fill="#CD0007" />
		<path opacity=".32"
			d="M58.534 49.686c-.053-1.696-1.782-3.357-3.483-4.168-6.732-3.17-14.795 4.439-18.342 1.497 1.905-2.08 4.212-3.764 6.511-4.83 5.237-2.416 12.473-2.283 16.608 2.273 4.707 5.226 1.421 11.844-3.739 15.019-.76.46-1.55.867-2.374 1.22 3.846-2.682 6.93-6.39 4.819-11.01Z"
			fill="#fff" />
		<path opacity=".14"
			d="M14.173 39.567c2.952-1.927 6.435-2.21 9.687-1.384-2.728 1.245-4.952 3.704-5.93 5.806-.69 1.533-.837 2.953-.518 4.296-.09.481.095.958.491 1.385 1.918 4.007 7.709 7.064 13.074 9.307 3.254.726 6.769 4.003 8.837 8.363.05 2.326.072 4.424.072 4.424l-8.789.253s-.424-7.095-.027-11.717c-1.466-.525-3.452-.495-4.966-.742-1.729-.284-3.42-.66-5.09-1.17-2.918-.902-5.69-2.188-8.002-4.218-4.727-4.138-3.935-11.284 1.161-14.603Z"
			fill="#231F20" />
		<path
			d="M56.023 81.577a3.695 3.695 0 0 0 3.805 3.603 3.695 3.695 0 0 0 3.601-3.793c-.062-2.06-1.762-3.67-3.804-3.603a3.696 3.696 0 0 0-3.602 3.793ZM43.204 89.494c.062 2.061 1.764 3.671 3.802 3.619a3.722 3.722 0 0 0 3.607-3.805 3.719 3.719 0 0 0-3.807-3.603 3.714 3.714 0 0 0-3.602 3.789ZM27.517 80.926a3.705 3.705 0 0 0 3.8 3.598 3.722 3.722 0 0 0 3.605-3.807 3.696 3.696 0 0 0-3.812-3.603 3.705 3.705 0 0 0-3.593 3.812ZM57.641 99.424a3.717 3.717 0 0 0 3.807 3.601c2.05-.065 3.665-1.764 3.607-3.807-.06-2.043-1.766-3.668-3.807-3.602-2.045.05-3.646 1.753-3.607 3.808ZM25.72 97.401a3.698 3.698 0 0 0 3.8 3.601c2.045-.051 3.657-1.768 3.606-3.81a3.709 3.709 0 0 0-3.807-3.6c-2.041.067-3.657 1.766-3.599 3.81ZM9.637 80.449a3.686 3.686 0 0 0 3.799 3.597c2.037-.053 3.647-1.765 3.596-3.807a3.703 3.703 0 0 0-3.8-3.6c-2.04.068-3.658 1.768-3.595 3.81ZM8.36 98.531a3.71 3.71 0 0 0 3.798 3.601 3.705 3.705 0 0 0 3.6-3.81c-.046-2.04-1.762-3.652-3.808-3.602a3.725 3.725 0 0 0-3.59 3.811Z"
			fill="#fff" />
		<path d="M146.375 31.762H73.918v72.403h72.457V31.762Z" fill="#E80505" />
		<path opacity=".8"
			d="M123.593 50.355c-11.582-.46-23.157-.722-34.755-.722-4.753 0-9.876-.661-14.92-.661v-17.21h72.457V50.51c-7.527-1.09-15.194.121-22.782-.155Z"
			fill="#BE1E2D" />
		<path opacity=".6" d="M150 39.568v8.668L70.178 46.15V24.656h7.886C92.829 46.258 124.482 48.529 150 39.568Z"
			fill="#FFCE00" />
		<path opacity=".39"
			d="M73.918 104.165V31.762h72.457v23.299c-18.711 1.169-37.415-5.152-56.112 2.47-2.921.892-6.44 7.015-4.086 11.371C97.882 95.174 118.95 85.537 137.1 89.91c3.411.906 6.524 2.548 9.275 4.88v9.375l-72.457.001Z"
			fill="#A7A9AC" />
		<path d="m70.178 46.15 79.821 2.086v-23.58H70.178V46.15Z" fill="#6E9315" />
		<path d="M114.789 24.656h-9.297v79.509h9.297v-79.51Z" fill="#FFB14A" />
		<path
			d="M146.375 63.547H73.918v8.809h72.457v-8.81ZM86.66 16.733c2.362 2.12 5.206 3.47 8.201 4.432 1.727.544 3.462.95 5.25 1.264 1.547.272 3.873 1.679 5.381 2.227v18h9.297s.039-13.553 0-16.579c2.522.265 4.474.036 6.716-.237 3.333-.402 6.638-1.416 9.536-3.14 5.358-3.165 8.838-9.915 4.047-15.318-4.202-4.718-11.677-4.95-17.1-2.544-3.098 1.38-6.228 3.825-8.444 6.843-1.07-2.838-2.627-5.654-4.915-7.666C100.204.1 93.347-1.543 88.054 1.8c-5.297 3.34-6.21 10.628-1.394 14.932Zm26.596 1.664c-.026-.056-.053-.116-.085-.17.277-.414.552-.835.833-1.237 1.442-2.012 3.283-4.046 5.431-5.302 3.034-1.77 7.576-2.68 10.642-.386 3.535 2.633-1.555 5.913-3.872 6.718-2.485.86-5.021 1.276-7.653 1.167-1.783-.076-3.534-.503-5.296-.79ZM91.794 6.921c3.872-1.785 8.223.29 10.406 3.69 1.182 1.879 2.007 3.789 2.662 5.852-3.724-.808-7.645-1.004-11.1-2.847-2.546-1.35-6.195-4.733-1.968-6.695Z"
			fill="#FFB14A" />
	</svg>
	<view id="S.Nick" viewBox="0 0 256 161" /><svg width="256" height="161" fill="none" viewBox="0 0 256 161"
		xmlns="http://www.w3.org/2000/svg">
		<path
			d="M87.949 90.355c-1.613 32.824 19.316 37.974 43.146 37.974 23.831 0 43.147-12.387 43.147-37.975 0-25.587-19.364-35.725-43.187-35.725-23.839 0-41.542 3.949-43.106 35.726Z"
			fill="#fff" />
		<path
			d="M92.92 94.48c-1.402 32.825 16.738 37.974 37.375 37.974 20.646 0 37.376-12.386 37.376-37.974 0-25.58-16.73-37.966-37.376-37.966-20.645 0-36.021 6.19-37.375 37.966Z"
			fill="#F8C1A5" />
		<path
			d="M102.848 101.798c0 2.483 3.315 4.489 7.4 4.489 4.085 0 7.401-2.006 7.401-4.489 0-2.482-3.316-4.489-7.401-4.489s-7.4 2.007-7.4 4.489ZM140.75 101.798c0 2.483 3.315 4.489 7.401 4.489 4.085 0 7.4-2.006 7.4-4.489 0-2.482-3.315-4.489-7.4-4.489-4.086 0-7.401 2.007-7.401 4.489Z"
			fill="#FBE1DB" />
		<path
			d="M84.967 96.366c0 6.987 3.558 8.083 7.951 8.083 4.394 0 7.952-2.635 7.952-8.083 0-5.44-3.558-8.075-7.952-8.075-4.393 0-7.951 1.088-7.951 8.075ZM159.721 96.366c0 6.987 3.558 8.083 7.951 8.083 4.394 0 7.952-2.635 7.952-8.083 0-5.44-3.558-8.075-7.952-8.075-4.393 0-7.951 1.088-7.951 8.075Z"
			fill="#F8C1A5" />
		<path
			d="M109.145 103.619c5.301-1.515 12.515-1.748 19.77-1.813v12.983c-1.67-.217-2.87-.354-4.215.065-9.59 2.998-12.662-.226-17.865-.581-2.432-.169-7.036.621-7.036.621s1.07-8.905 9.346-11.275ZM152 103.619c-5.301-1.515-12.515-1.748-19.77-1.813v12.983c1.67-.217 2.87-.354 4.215.065 9.589 2.998 12.662-.226 17.865-.581 2.432-.169 7.036.621 7.036.621s-1.078-8.905-9.346-11.275Z"
			fill="#F0F8FD" />
		<path
			d="M130.293 72.399c-18.643 0-34.052 1.878-32.366 22.082h-5.009c1.354-33.357 16.738-39.852 37.375-39.852 20.646 0 37.376 12.999 37.376 39.852h-4.337c1.281-18.181-17.905-22.082-33.039-22.082Z"
			fill="#fff" />
		<path
			d="M167.67 94.48c-.819 14.072 6.484 24.081 6.565 35.815.106 15.433-9.937 30.697-43.941 30.697-35.86 0-46.032-15.925-45.327-32.671.47-11.211 7.92-20.672 7.952-33.84 0 0 4.612-6.464 5.01 0 .9 14.651 16.024 7.317 32.025 7.317 17.168 0 31.077 4.489 33.379-7.317.714-3.643 4.337 0 4.337 0Z"
			fill="#fff" />
		<path
			d="M123.09 112.193c0 2.958 3.072 5.352 6.865 5.352 3.794 0 6.866-2.394 6.866-5.352 0-2.957-3.072-5.351-6.866-5.351-3.793 0-6.865 2.402-6.865 5.351Z"
			fill="#E53212" />
		<path
			d="M101.049 112.975s3.656-1.62 8.665-.266c4.377 1.177 9.751 3.683 14.623 2.265 7.311-2.128 6.225-9.131 6.225-9.131s-4.604-5.142-12.459-5.117c-13.155.032-17.054 12.249-17.054 12.249Z"
			fill="#fff" />
		<path
			d="M159.532 112.975s-3.656-1.62-8.665-.266c-4.377 1.177-9.751 3.683-14.623 2.265-7.311-2.128-6.233-9.131-6.233-9.131s4.604-5.142 12.458-5.117c13.172.032 17.063 12.249 17.063 12.249Z"
			fill="#fff" />
		<path
			d="M120.697 100.315c0 3.522 4.142 6.375 9.257 6.375 5.115 0 9.257-2.853 9.257-6.375s-4.142-6.375-9.257-6.375c-5.115 0-9.257 2.861-9.257 6.375Z"
			fill="#F2937B" />
		<path
			d="M89.921 79.5c3.932-1.548 7.725-3.58 11.746-4.893 5.163-1.692 10.488-2.482 15.903-2.844 11.599-.774 23.393-.299 34.903 1.33 5.391.765 10.7 1.885 16.058 2.804 1.986.338 4.125.169 6.03-.516-.008 2.047-.429 3.82-1.443 4.972-2.099 2.41-22.517-5.004-42.83-4.625-19.146.362-40.042 6.858-41.096 4.972a5.24 5.24 0 0 1-.34-.806c.364-.12.721-.25 1.07-.395Z"
			fill="#F0F8FD" />
		<path opacity=".3"
			d="M124.312 96.931c0 1.354 2.529 2.442 5.642 2.442 3.113 0 5.642-1.096 5.642-2.442 0-1.354-2.521-2.45-5.642-2.45-3.113 0-5.642 1.096-5.642 2.45Z"
			fill="#fff" />
		<path
			d="M112.549 89.984c0 1.967 1.605 3.57 3.591 3.57 1.977 0 3.59-1.595 3.59-3.57 0-1.966-1.604-3.57-3.59-3.57-1.978 0-3.591 1.596-3.591 3.57ZM143.877 89.984c0 1.967 1.605 3.57 3.591 3.57a3.577 3.577 0 0 0 3.591-3.57c0-1.966-1.605-3.57-3.591-3.57-1.978 0-3.591 1.596-3.591 3.57Z"
			fill="#2F120C" />
		<path
			d="M104.873 84.527c1.897 1.08 8.195-2.828 15.053-1.885 3.307.45 1.921-5.714 0-6.327-5.844-1.886-12.07-.556-15.109 3.393-2.505 3.248-1.84 3.74.056 4.82ZM155.155 83.616c-1.897 1.08-8.195-2.828-15.052-1.885-3.308.45-1.913-5.714 0-6.327 5.844-1.886 12.069-.556 15.109 3.393 2.512 3.248 1.84 3.74-.057 4.82Z"
			fill="#fff" />
		<path
			d="M161.008 41.893a42.462 42.462 0 0 0-2.545-1.087c-.412-.166-.818-.308-1.201-.458-.387-.13-.751-.284-1.094-.395l-1.681-.569-.658-.214s.245-.079.685-.146c.22-.03.489-.071.797-.084a8.826 8.826 0 0 1 1.037-.014c.382.003.791.042 1.226.09.429.066.888.13 1.35.246a12.5 12.5 0 0 1 1.414.406c.48.15.948.354 1.414.563l.041.02c.029-1.501-.215-2.755-.617-3.79a53.644 53.644 0 0 0-1.218-1.258c-.314-.317-.631-.61-.924-.902-.307-.273-.58-.56-.853-.8l-1.323-1.195-.521-.46s.256.025.687.14c.213.06.477.13.764.242.291.106.62.23.959.402.349.155.711.355 1.091.572.37.233.765.476 1.145.767.201.15.405.308.606.472 4.915-2.485 8.472-.572 9.781.373.331-2.114 1.2-4.14 2.569-5.848-3.156-3.946-8.552-10.514-13.052-15.095-6.828-6.95-22.42-17.486-41.737-1.457-16.884 14.01-26.497 39.376-28.65 45.543 1.14-.59 2.39-1.068 3.739-1.402 26.21-6.515 53.861-3.747 78.306 7.839a16.843 16.843 0 0 1 4.505 3.091c.617-9.438-10.094-17.624-14.851-25.026-.396-.184-.78-.402-1.191-.566Z"
			fill="#CC3332" />
		<path
			d="m178.844 78.91-.362.468c-.262.309-.647.759-1.233 1.27-.296.252-.633.528-1.033.795-.394.275-.847.545-1.357.804-1.017.52-2.28.963-3.753 1.23a16.025 16.025 0 0 1-4.969.075 16.21 16.21 0 0 1-2.778-.63l-.354-.114-.353-.13c-.238-.081-.47-.182-.708-.277l-1.414-.575-1.465-.593-.75-.302c-.255-.09-.511-.182-.769-.275l-1.57-.557-.801-.285c-.269-.094-.536-.196-.815-.277l-3.405-1.047-3.604-.951-3.789-.845-3.959-.72-2.041-.294-1.032-.15-.519-.074-.524-.055-2.111-.23-1.066-.118c-.358-.032-.717-.052-1.077-.08l-2.175-.153-.548-.04c-.183-.01-.366-.012-.55-.019l-1.105-.037-2.23-.078-2.254.01c-1.511-.022-3.032.08-4.569.14-.77.02-1.536.107-2.309.166-.771.068-1.548.123-2.324.202a5328.463 5328.463 0 0 1-3.501.436c-.389.058-.777.127-1.167.19l-2.344.389-.294.049-.292.06-.584.122-1.169.243-1.173.244-.628.13-.3.061-.15.031-.172.03a16.988 16.988 0 0 1-2.746.252 17.665 17.665 0 0 1-5.489-.802 15.714 15.714 0 0 1-5.01-2.615c-1.502-1.174-2.76-2.68-3.608-4.368l-.08-.158-.04-.08c-.022-.048-.004-.002-.06-.129l-.121-.279-.06-.14c-.02-.048-.04-.086-.063-.155l-.135-.377c-.096-.26-.15-.485-.215-.723-.07-.235-.102-.475-.153-.713a9.47 9.47 0 0 1-.058-2.866c.243-1.885 1.007-3.637 2.082-5.14 1.074-1.507 2.462-2.776 4.022-3.783 1.561-1.012 3.305-1.745 5.11-2.24l.68-.172.661-.14 1.228-.259 2.45-.517c.402-.092.83-.16 1.252-.231l1.268-.216 2.532-.427c.211-.039.421-.067.631-.092l.63-.08 1.258-.162 2.509-.32c1.676-.158 3.35-.289 5.012-.426 1.669-.07 3.328-.149 4.978-.195 1.652.008 3.292.007 4.919.024 6.512.186 12.802.957 18.659 2.162 5.858 1.212 11.267 2.89 16.113 4.734 1.206.477 2.388.938 3.533 1.407l3.312 1.47c1.083.456 2.098.99 3.098 1.474l1.473.725.72.353.089.043.063.031.043.024.172.092.344.185c.971.535 1.83 1.124 2.616 1.75a16.466 16.466 0 0 1 2.079 1.982 14.021 14.021 0 0 1 2.583 4.192c.268.685.443 1.357.562 1.993.114.636.179 1.24.169 1.8a8.636 8.636 0 0 1-.141 1.54 7.831 7.831 0 0 1-1.078 2.828l-.341.5-.003.006ZM185.516 25.296l.777.229c.126.04.27.07.423.132l.503.198c.18.073.379.141.58.235l.631.317c.874.468 1.919 1.105 2.922 2.077.136.11.246.25.373.377.125.13.251.263.378.398.134.13.244.282.363.432l.358.459c.128.151.226.325.339.492l.335.516c.111.176.197.368.298.555.096.19.202.378.294.576a11.527 11.527 0 0 1 .986 5.541c.001.128-.022.254-.039.38l-.053.383-.054.386-.028.194a.782.782 0 0 1-.014.06l-.005.023-.012.045-.022.089c-.129.48-.213.943-.431 1.482-.1.258-.185.534-.301.781l-.361.742c-.112.255-.272.483-.416.724l-.222.358-.112.18-.128.168-.518.68c-.177.224-.385.424-.578.64l-.297.317c-.105.1-.216.194-.324.292-.22.19-.432.394-.664.575-.925.731-1.978 1.32-3.096 1.79a13.555 13.555 0 0 1-3.566.855l-.929.047-.233.01-.233-.011-.466-.023-.467-.025c-.156-.004-.308-.04-.463-.058l-.462-.07-.231-.035-.116-.018-.058-.009-.029-.004c-.036-.009.041.012-.089-.02l-.821-.205-.205-.05a1.589 1.589 0 0 1-.217-.065l-.464-.163-.464-.168-.232-.086-.212-.1-.85-.4a13.832 13.832 0 0 1-3.024-2.188c-.876-.88-1.652-1.856-2.242-2.93-.15-.267-.271-.547-.406-.82-.065-.138-.133-.274-.191-.414l-.153-.428c-.095-.286-.21-.566-.286-.856l-.213-.872c-.206-1.17-.317-2.351-.177-3.49.027-.573.169-1.123.273-1.67l.021-.101.011-.051.005-.026c-.003.007.041-.157.026-.098l.057-.174.113-.348.113-.346c.038-.115.067-.222.131-.362l.346-.782c.06-.126.113-.26.178-.377l.201-.342.403-.668c.147-.212.306-.413.459-.614.602-.815 1.339-1.466 2.046-2.053a12.585 12.585 0 0 1 4.43-2.158c1.399-.387 2.655-.449 3.663-.448.253.007.492.018.717.02.224.011.432.046.627.065l.537.06c.165.018.31.059.442.082l.81.163.005.001Z"
			fill="#FAFAFA" />
		<path
			d="m185.516 25.296.777.229c.126.04.27.07.423.132l.503.198c.18.073.379.141.58.235l.631.317c.874.468 1.919 1.105 2.922 2.077.136.11.246.25.373.377.125.13.251.263.378.398.134.13.244.282.363.432l.358.459c.128.151.226.325.339.492l.335.516c.111.176.197.368.298.555.096.19.202.378.294.576a11.527 11.527 0 0 1 .986 5.541c.001.128-.022.254-.039.38l-.053.383-.054.386-.028.194a.782.782 0 0 1-.014.06l-.005.023-.012.045-.022.089c-.129.48-.213.943-.431 1.482-.1.258-.185.534-.301.781l-.361.742c-.112.255-.272.483-.416.724l-.222.358-.112.18-.128.168-.518.68c-.177.224-.385.424-.578.64l-.297.317c-.105.1-.216.194-.324.292-.22.19-.432.394-.664.575-.925.731-1.978 1.32-3.096 1.79a13.555 13.555 0 0 1-3.566.855l-.929.047-.233.01-.233-.011-.466-.023-.467-.025c-.156-.004-.308-.04-.463-.058l-.462-.07-.231-.035-.116-.018-.058-.009-.029-.004c-.036-.009.041.012-.089-.02l-.821-.205-.205-.05a1.589 1.589 0 0 1-.217-.065l-.464-.163-.464-.168-.232-.086-.212-.1-.85-.4a13.832 13.832 0 0 1-3.024-2.188c-.876-.88-1.652-1.856-2.242-2.93-.15-.267-.271-.547-.406-.82-.065-.138-.133-.274-.191-.414l-.153-.428c-.095-.286-.21-.566-.286-.856l-.213-.872c-.206-1.17-.317-2.351-.177-3.49.027-.573.169-1.123.273-1.67l.021-.101.011-.051.005-.026c-.003.007.041-.157.026-.098l.057-.174.113-.348.113-.346c.038-.115.067-.222.131-.362l.346-.782c.06-.126.113-.26.178-.377l.201-.342.403-.668c.147-.212.306-.413.459-.614.602-.815 1.339-1.466 2.046-2.053a12.585 12.585 0 0 1 4.43-2.158c1.399-.387 2.655-.449 3.663-.448.253.007.492.018.717.02.224.011.432.046.627.065l.537.06c.165.018.31.059.442.082l.81.163.005.001Zm-.077.296s-.275-.04-.791-.112c-.129-.015-.272-.047-.432-.054l-.523-.014c-.188-.001-.39-.016-.605-.008-.215.015-.443.04-.683.06-.954.106-2.113.353-3.287.95a10.678 10.678 0 0 0-3.36 2.632l-.358.456c-.12.152-.247.3-.346.471-.207.337-.443.654-.617 1.02l-.285.532-.238.564c-.039.094-.08.188-.123.28-.041.094-.061.184-.093.276l-.181.546c-.036.079-.062.207-.091.323l-.086.353-.086.355-.044.178c-.018.075.02-.075.015-.053l-.003.02-.005.04-.011.079c-.055.423-.143.846-.144 1.28-.071.865.01 1.751.174 2.632l.144.661c.05.221.136.433.201.653l.104.328.135.318c.093.211.17.432.273.64a11.36 11.36 0 0 0 1.572 2.366c.644.72 1.408 1.343 2.243 1.875l.651.361.164.09.162.067.323.138.322.141c.029.012.052.025.084.035l.101.031.202.062.809.246c-.113-.029-.018-.005-.037-.01l.023.004.046.009.093.018.185.036.372.074c.124.02.247.059.373.066l.376.035.378.037.188.02.19-.002.757-.002a11.313 11.313 0 0 0 2.962-.569c.943-.346 1.842-.8 2.657-1.366.204-.14.389-.304.585-.454.097-.077.195-.15.29-.23l.264-.255c.173-.173.362-.33.522-.514l.473-.553.119-.137.103-.148.206-.295c.134-.199.287-.386.392-.6l.348-.62c.113-.206.185-.415.281-.62.197-.383.33-.897.481-1.358l.027-.088.014-.044.007-.022c.005-.016-.015.057-.004.017l.036-.168.072-.334.073-.332c.024-.11.053-.22.06-.332l.075-.665c.01-.11.03-.22.033-.33l.005-.33.016-.654c-.011-.216-.032-.43-.047-.643-.014-.43-.11-.84-.174-1.252-.026-.208-.089-.404-.142-.601l-.16-.588a10.678 10.678 0 0 0-2.199-3.833c-.89-1.011-1.889-1.679-2.739-2.141l-.615-.315c-.197-.09-.389-.153-.564-.223l-.487-.186c-.15-.055-.298-.082-.424-.118l-.777-.202Z"
			fill="#F6B3A3" />
		<path
			d="m177.741 78.673-.352.497c-.254.328-.63.807-1.201 1.35a10.55 10.55 0 0 1-1.006.847c-.384.292-.825.58-1.321.856-.991.553-2.222 1.027-3.658 1.312a14.35 14.35 0 0 1-4.844.087 14.712 14.712 0 0 1-2.71-.665l-.345-.121-.344-.137c-.232-.086-.459-.194-.691-.293l-1.379-.61-1.429-.628-.732-.319-.75-.291-1.532-.59-.78-.302c-.263-.1-.524-.207-.796-.293l-3.321-1.107-3.515-1.006-3.694-.892-3.861-.76-1.991-.309-1.007-.157-.505-.078-.511-.058-2.059-.241-1.039-.124c-.349-.033-.699-.055-1.05-.083l-2.121-.16-.534-.04c-.178-.012-.357-.014-.536-.021l-1.078-.037-2.174-.08-2.197.013c-1.474-.02-2.957.09-4.455.156-.751.021-1.498.116-2.251.18-.752.073-1.509.132-2.266.217l-2.271.312-1.141.156c-.38.063-.758.137-1.138.204l-2.285.417-.287.052-.284.065-.569.13-1.14.26-1.143.261-.613.139-.292.065-.146.033-.168.032a15.2 15.2 0 0 1-2.677.272 15.91 15.91 0 0 1-5.351-.844 14.917 14.917 0 0 1-4.888-2.772 13.624 13.624 0 0 1-3.524-4.635l-.078-.168-.038-.084c-.023-.052-.005-.002-.06-.138l-.118-.296-.06-.148c-.02-.051-.037-.092-.06-.165l-.132-.4c-.095-.276-.146-.516-.21-.769-.07-.249-.101-.504-.15-.757a10.955 10.955 0 0 1-.061-3.045c.235-2.003.977-3.865 2.023-5.463a14.945 14.945 0 0 1 3.917-4.026c1.52-1.078 3.22-1.858 4.978-2.387l.664-.184.644-.15 1.197-.277 2.389-.552c.391-.099.808-.171 1.22-.248l1.236-.23 2.468-.459c.205-.041.41-.071.615-.098l.614-.087 1.226-.173 2.446-.343c1.634-.171 3.265-.312 4.886-.46 1.627-.076 3.245-.163 4.853-.215 1.61.006 3.21.003 4.796.019a97.259 97.259 0 0 1 18.194 2.27c5.713 1.28 10.989 3.054 15.716 5.006 1.177.505 2.329.993 3.446 1.49l3.231 1.557c1.056.484 2.047 1.05 3.023 1.562l1.437.768.702.374.087.046.061.033.042.025.168.098.335.195a18.017 18.017 0 0 1 2.553 1.856c.765.664 1.44 1.376 2.03 2.103a15.201 15.201 0 0 1 2.523 4.45c.262.728.434 1.441.55 2.117.113.676.176 1.317.167 1.912a9.982 9.982 0 0 1-.135 1.637 8.927 8.927 0 0 1-.312 1.322 9.039 9.039 0 0 1-.736 1.684l-.331.532-.004.006Zm-.389-.281.297-.513a8.58 8.58 0 0 0 .644-1.605c.206-.73.367-1.672.313-2.787a10.689 10.689 0 0 0-.865-3.72c-.558-1.328-1.427-2.694-2.613-3.941a14.652 14.652 0 0 0-2.012-1.751 15.124 15.124 0 0 0-2.432-1.43l-.351-.161-.177-.08-.044-.02c-.019-.01.004.003-.027-.01l-.09-.037-.724-.29-1.481-.59c-1.005-.392-2.021-.833-3.1-1.188l-3.289-1.15c-1.133-.36-2.3-.696-3.481-1.062a143.033 143.033 0 0 0-15.465-3.586 123.562 123.562 0 0 0-17.463-1.832c-6.072-.217-12.36.01-18.674.809l-2.344.342-1.175.171c-.393.058-.783.108-1.188.194l-2.409.465-1.206.233-.558.108-.526.125c-1.393.361-2.731.924-3.914 1.72-1.185.785-2.23 1.78-3.03 2.933-.797 1.153-1.344 2.467-1.534 3.812a7.153 7.153 0 0 0-.012 2.011c.032.164.043.332.086.494.038.16.07.337.114.464l.057.208c.005.029.029.087.046.135l.056.149.111.299c-.035-.086.006.011.005.008l.027.061.053.123a9.932 9.932 0 0 0 2.501 3.448 11.495 11.495 0 0 0 3.71 2.215 12.752 12.752 0 0 0 6.373.62c.043-.007.08-.01.127-.019l.147-.028.295-.057.558-.108 1.192-.234 1.188-.234.592-.116.296-.058.298-.046 2.376-.359c.395-.058.787-.122 1.181-.175l1.185-.127 2.354-.25c.784-.065 1.567-.103 2.345-.155.778-.042 1.551-.116 2.325-.115 1.547-.022 3.076-.09 4.592-.023l2.261.054 2.232.149 1.106.077c.184.015.367.024.55.043l.547.063 2.17.25c.358.043.717.079 1.072.127l1.062.168 2.098.337.518.087.515.107 1.021.214 2.017.423c1.325.322 2.623.662 3.895.994l3.705 1.132 3.507 1.232 3.298 1.315c.27.1.531.224.793.339l.778.345 1.523.677.744.333.716.356 1.402.69 1.363.666c.436.215.871.415 1.311.575.876.333 1.75.572 2.601.715 1.704.291 3.307.249 4.701-.017a11.498 11.498 0 0 0 3.543-1.27 10.326 10.326 0 0 0 3.35-2.974l.343-.502-.002.005Z"
			fill="#F0F8FD" />
		<path
			d="M120.597 25.429c.736-.124 1.654-.1 2.395-.026 2.871.284 5.252 1.808 7.049 4.025-.923.673-1.911 1.278-2.863 1.91l-.038-.051c-.821-1.104-2.034-2.247-3.453-2.434-.777-.102-1.587.022-2.215.516-.348.273-.651.64-.694 1.098-.119 1.262 2.859 2.661 3.757 3.29.635.446 1.248.958 1.761 1.544.911 1.042 1.485 2.373 1.375 3.778-.115 1.456-.926 2.811-2.015 3.747-2.083 1.79-5.035 2.205-7.68 1.981a10.118 10.118 0 0 1-2.068-.222c-2.808-.578-5.718-2.383-7.322-4.82a27.755 27.755 0 0 1 4.233-2.483c.561.708 1.108 1.425 1.806 2.003.993.823 2.301 1.403 3.602 1.272.759-.077 1.735-.39 2.217-1.026.283-.373.364-.833.3-1.292-.243-1.757-3.073-2.835-4.351-3.766-.977-.712-1.889-1.658-2.074-2.91-.179-1.206.361-2.479 1.074-3.42 1.259-1.662 3.202-2.457 5.204-2.714ZM150.865 29.096c.196-.012.363.031.548.077l.038.185a901.31 901.31 0 0 1-7.787 16.12c-2.7-2.818-5.21-5.96-7.776-8.95-1.229 2.295-2.195 4.905-3.234 7.317-1.463.024-4.406.293-5.688-.044l.005-.25L134.326 27c2.567 3.698 5.464 7.218 8.341 10.573 1.53-2.842 2.682-5.91 4.123-8.806 1.361.104 2.709.25 4.075.329Z"
			fill="#FAFAFA" />
		<path
			d="M176.974 38.697a41.69 41.69 0 0 0 2.118-1.758 7.08 7.08 0 0 0 1.099-1.213c.298-.423.446-.835.446-1.236 0-.304-.072-.541-.217-.712-.145-.17-.363-.255-.653-.255a.825.825 0 0 0-.687.322c-.16.208-.24.505-.24.89h-1.889c.015-.63.153-1.157.412-1.58a2.447 2.447 0 0 1 1.042-.934c.435-.2.916-.3 1.443-.3.908 0 1.591.225 2.049.678.465.452.698 1.042.698 1.77 0 .793-.279 1.53-.836 2.213-.557.675-1.267 1.336-2.129 1.981h3.091v1.547h-5.747v-1.413ZM183.583 36.048c0-1.276.252-2.28.755-3.015.512-.735 1.332-1.102 2.462-1.102 1.129 0 1.946.367 2.45 1.102.511.734.767 1.74.767 3.015 0 1.291-.256 2.304-.767 3.038-.504.734-1.321 1.102-2.45 1.102-1.13 0-1.95-.368-2.462-1.102-.503-.734-.755-1.747-.755-3.038Zm4.51 0c0-.749-.084-1.324-.252-1.724-.167-.408-.515-.612-1.041-.612-.527 0-.874.204-1.042.612-.168.4-.252.975-.252 1.724 0 .505.031.924.092 1.258.061.326.183.593.366.8.191.201.469.301.836.301.366 0 .641-.1.824-.3.191-.208.317-.475.378-.801.061-.334.091-.753.091-1.258Z"
			fill="#CC3332" />
		<path
			d="M203.656 135.131c4.115 5.882 4.792 5.248 11.27 10.334 3.634 2.928 7.769 4.682 9.075.471.477-3.296.477-3.296-.544-8.252 5.375 4.938 22.671 12.202 29.284 5.296 7.721-6.759-4.569-24.941-9.942-29.879-7.973-7.331-13.456-9.586-24.496-7.934-5.522.822-23.467 11.054-19.745 22.237l5.098 7.727Z"
			fill="#fff" />
		<path
			d="M204.689 135.991c5.46 5.237 1.571 2.213 7.848 7.137 3.519 2.836 7.164 5.632 10.03 4.69 1.91-1.883 1.465-2.824 1.465-9.551 5.2 4.792 22.034 11.729 28.588 4.861 7.637-6.737-4.167-24.469-9.364-29.261-7.711-7.114-13.048-9.266-23.871-7.511-5.412.873-23.094 11.147-19.589 22.098l4.893 7.537Z"
			fill="#8C0706" />
		<path d="m218.926 131.044 4.799 6.871" stroke="#fff" stroke-linecap="round" />
		<path
			d="M54.307 135.131c-4.115 5.882-4.792 5.248-11.27 10.334-3.634 2.928-7.769 4.682-9.075.471-.478-3.296-.478-3.296.544-8.252-5.375 4.938-22.671 12.202-29.284 5.296-7.721-6.759 4.569-24.941 9.942-29.879 7.973-7.331 13.455-9.586 24.496-7.934 5.522.822 23.466 11.054 19.745 22.237l-5.098 7.727Z"
			fill="#fff" />
		<path
			d="M53.273 135.991c-5.459 5.237-1.57 2.213-7.847 7.137-3.52 2.836-7.164 5.632-10.03 4.69-1.91-1.883-1.465-2.824-1.465-9.551-5.2 4.792-22.034 11.729-28.588 4.861-7.637-6.737 4.167-24.469 9.364-29.261 7.711-7.114 13.048-9.266 23.87-7.511 5.413.873 23.095 11.147 19.59 22.098l-4.894 7.537Z"
			fill="#8C0706" />
		<path d="m39.037 131.044-4.8 6.871" stroke="#fff" stroke-linecap="round" />
	</svg>
</svg>