<svg width="314" height="200" viewBox="0 0 314 200" fill="none" xmlns="http://www.w3.org/2000/svg">
<path d="M107.875 112.241C105.896 153.017 131.567 159.414 160.797 159.414C190.027 159.414 213.719 144.027 213.719 112.241C213.719 80.4555 189.967 67.8613 160.747 67.8613C131.507 67.8613 109.794 72.7669 107.875 112.241Z" fill="white"/>
<path d="M113.972 117.366C112.252 158.142 134.503 164.539 159.816 164.539C185.138 164.539 205.659 149.152 205.659 117.366C205.659 85.5904 185.138 70.2031 159.816 70.2031C134.493 70.2031 115.633 77.8918 113.972 117.366Z" fill="#F8C1A5"/>
<path d="M126.148 126.457C126.148 129.541 130.215 132.033 135.226 132.033C140.236 132.033 144.303 129.541 144.303 126.457C144.303 123.374 140.236 120.881 135.226 120.881C130.215 120.881 126.148 123.374 126.148 126.457Z" fill="#FBE1DB"/>
<path d="M172.639 126.457C172.639 129.541 176.705 132.033 181.716 132.033C186.727 132.033 190.793 129.541 190.793 126.457C190.793 123.374 186.727 120.881 181.716 120.881C176.705 120.881 172.639 123.374 172.639 126.457Z" fill="#FBE1DB"/>
<path d="M104.217 119.71C104.217 128.39 108.581 129.751 113.97 129.751C119.359 129.751 123.723 126.478 123.723 119.71C123.723 112.952 119.359 109.679 113.97 109.679C108.581 109.679 104.217 111.03 104.217 119.71Z" fill="#F8C1A5"/>
<path d="M195.906 119.71C195.906 128.39 200.271 129.751 205.66 129.751C211.048 129.751 215.413 126.478 215.413 119.71C215.413 112.952 211.048 109.679 205.66 109.679C200.271 109.679 195.906 111.03 195.906 119.71Z" fill="#F8C1A5"/>
<path d="M133.872 128.719C140.374 126.837 149.222 126.547 158.12 126.467V142.595C156.072 142.325 154.601 142.154 152.95 142.675C141.189 146.399 137.421 142.395 131.038 141.954C128.055 141.744 122.408 142.725 122.408 142.725C122.408 142.725 123.721 131.663 133.872 128.719Z" fill="#F0F8FD"/>
<path d="M186.438 128.719C179.936 126.837 171.088 126.547 162.189 126.467V142.595C164.238 142.325 165.709 142.154 167.359 142.675C179.121 146.399 182.889 142.395 189.272 141.954C192.255 141.744 197.902 142.725 197.902 142.725C197.902 142.725 196.579 131.663 186.438 128.719Z" fill="#F0F8FD"/>
<path d="M159.814 89.9362C136.947 89.9362 118.047 92.2688 120.115 117.367H113.971C115.631 75.9304 134.501 67.8613 159.814 67.8613C185.137 67.8613 205.657 84.0095 205.657 117.367H200.338C201.909 94.7816 178.376 89.9362 159.814 89.9362Z" fill="white"/>
<path d="M205.657 117.367C204.653 134.847 213.611 147.281 213.71 161.857C213.839 181.029 201.521 199.99 159.814 199.99C115.83 199.99 103.352 180.208 104.217 159.405C104.794 145.479 113.931 133.726 113.97 117.367C113.97 117.367 119.628 109.338 120.115 117.367C121.218 135.568 139.77 126.458 159.396 126.458C180.454 126.458 197.514 132.034 200.338 117.367C201.213 112.842 205.657 117.367 205.657 117.367Z" fill="white"/>
<path d="M150.977 139.37C150.977 143.044 154.745 146.018 159.398 146.018C164.05 146.018 167.819 143.044 167.819 139.37C167.819 135.696 164.05 132.723 159.398 132.723C154.745 132.723 150.977 135.706 150.977 139.37Z" fill="#E53212"/>
<path d="M123.941 140.342C123.941 140.342 128.425 138.33 134.57 140.012C139.938 141.474 146.53 144.587 152.505 142.825C161.473 140.182 160.141 131.482 160.141 131.482C160.141 131.482 154.494 125.095 144.86 125.125C128.724 125.165 123.941 140.342 123.941 140.342Z" fill="white"/>
<path d="M195.676 140.342C195.676 140.342 191.192 138.33 185.048 140.012C179.679 141.474 173.088 144.587 167.113 142.825C158.145 140.182 159.467 131.482 159.467 131.482C159.467 131.482 165.114 125.095 174.748 125.125C190.904 125.165 195.676 140.342 195.676 140.342Z" fill="white"/>
<path d="M148.043 124.614C148.043 128.989 153.123 132.533 159.397 132.533C165.67 132.533 170.751 128.989 170.751 124.614C170.751 120.239 165.67 116.695 159.397 116.695C153.123 116.695 148.043 120.249 148.043 124.614Z" fill="#F2937B"/>
<path d="M110.293 98.7572C115.115 96.835 119.768 94.3122 124.699 92.6803C131.032 90.578 137.564 89.5969 144.206 89.1464C158.433 88.1853 172.899 88.7759 187.016 90.7982C193.628 91.7493 200.14 93.1409 206.712 94.2821C209.148 94.7026 211.772 94.4924 214.109 93.6414C214.099 96.1843 213.582 98.3868 212.339 99.8184C209.764 102.812 184.72 93.6014 159.805 94.0719C136.321 94.5224 110.691 102.592 109.398 100.249C109.239 99.9485 109.1 99.6081 108.98 99.2477C109.428 99.0976 109.865 98.9374 110.293 98.7572Z" fill="#F0F8FD"/>
<path opacity="0.3" d="M152.479 120.412C152.479 122.093 155.58 123.445 159.398 123.445C163.216 123.445 166.318 122.083 166.318 120.412C166.318 118.73 163.226 117.368 159.398 117.368C155.58 117.368 152.479 118.73 152.479 120.412Z" fill="white"/>
<path d="M138.047 111.782C138.047 114.224 140.015 116.217 142.451 116.217C144.877 116.217 146.856 114.234 146.856 111.782C146.856 109.339 144.887 107.347 142.451 107.347C140.025 107.347 138.047 109.329 138.047 111.782Z" fill="#2F120C"/>
<path d="M176.475 111.782C176.475 114.224 178.443 116.217 180.879 116.217C183.315 116.217 185.283 114.234 185.283 111.782C185.283 109.339 183.315 107.347 180.879 107.347C178.453 107.347 176.475 109.329 176.475 111.782Z" fill="#2F120C"/>
<path d="M128.633 105.003C130.96 106.345 138.685 101.489 147.096 102.661C151.152 103.221 149.452 95.5627 147.096 94.8018C139.928 92.4592 132.292 94.1111 128.564 99.0166C125.492 103.051 126.307 103.662 128.633 105.003Z" fill="white"/>
<path d="M190.307 103.872C187.981 105.213 180.256 100.358 171.845 101.529C167.788 102.089 169.498 94.4309 171.845 93.67C179.013 91.3274 186.649 92.9792 190.377 97.8848C193.459 101.919 192.634 102.53 190.307 103.872Z" fill="white"/>
<path d="M197.487 52.0408C196.445 51.5401 195.377 51.0981 194.365 50.6914C193.859 50.4846 193.362 50.3087 192.892 50.1216C192.417 49.9613 191.971 49.7694 191.549 49.6318C190.696 49.3392 189.986 49.0956 189.488 48.9247C188.974 48.7555 188.681 48.6586 188.681 48.6586C188.681 48.6586 188.982 48.5604 189.521 48.4776C189.79 48.4402 190.121 48.3887 190.499 48.3731C190.877 48.3509 191.307 48.3284 191.771 48.3554C192.24 48.3594 192.741 48.4082 193.274 48.4667C193.801 48.5485 194.364 48.6298 194.93 48.7725C195.498 48.9116 196.087 49.0608 196.665 49.2774C197.253 49.4639 197.828 49.7171 198.399 49.9764C198.416 49.9837 198.432 49.9933 198.449 50.0012C198.485 48.1368 198.185 46.5789 197.693 45.2941C197.193 44.7551 196.69 44.2282 196.199 43.7309C195.814 43.3366 195.424 42.9725 195.065 42.6105C194.689 42.2707 194.354 41.9137 194.019 41.6163C193.347 41.0021 192.788 40.4901 192.397 40.1319C191.99 39.7683 191.757 39.5603 191.757 39.5603C191.757 39.5603 192.071 39.5916 192.6 39.7345C192.861 39.8092 193.185 39.8958 193.537 40.0347C193.894 40.1667 194.297 40.321 194.713 40.534C195.142 40.7274 195.585 40.9751 196.051 41.2455C196.505 41.534 196.99 41.8365 197.456 42.197C197.702 42.3851 197.952 42.5802 198.199 42.7839C204.228 39.6969 208.59 42.0738 210.196 43.2472C210.602 40.6209 211.668 38.1054 213.347 35.9825C209.476 31.0811 202.858 22.9222 197.338 17.2311C188.963 8.59704 169.839 -4.49004 146.145 15.4214C125.436 32.8253 113.645 64.3351 111.004 71.9962C112.402 71.263 113.936 70.6698 115.59 70.2547C147.738 62.1617 181.654 65.6004 211.638 79.9925C213.779 81.0185 215.628 82.333 217.163 83.8326C217.92 72.1077 204.782 61.9388 198.947 52.7444C198.461 52.5156 197.991 52.2445 197.487 52.0408Z" fill="#CC3332"/>
<path d="M219.363 98.0262C219.363 98.0262 219.211 98.224 218.919 98.6067C218.598 98.9901 218.125 99.5493 217.406 100.184C217.044 100.498 216.63 100.84 216.139 101.171C215.656 101.513 215.1 101.849 214.475 102.17C213.228 102.816 211.678 103.367 209.872 103.698C208.067 104.019 205.997 104.105 203.778 103.791C202.669 103.638 201.523 103.386 200.37 103.01C200.226 102.962 200.081 102.915 199.936 102.867C199.792 102.814 199.648 102.76 199.503 102.707C199.211 102.605 198.926 102.479 198.634 102.362C198.065 102.128 197.487 101.889 196.9 101.647C196.31 101.405 195.711 101.16 195.103 100.91C194.799 100.787 194.492 100.662 194.183 100.536C193.871 100.423 193.556 100.309 193.24 100.195C192.607 99.9666 191.965 99.7358 191.314 99.5017C190.989 99.3845 190.661 99.2668 190.332 99.148C190.002 99.0308 189.674 98.9048 189.332 98.8036C187.974 98.3809 186.581 97.9474 185.156 97.5037C183.715 97.1186 182.24 96.7246 180.735 96.322C179.217 95.979 177.667 95.6288 176.088 95.2719C174.498 94.9792 172.879 94.6811 171.232 94.378C170.404 94.257 169.569 94.1351 168.728 94.0123C168.308 93.9509 167.886 93.8892 167.462 93.8273C167.25 93.7963 167.038 93.7653 166.826 93.7344C166.612 93.7117 166.398 93.6888 166.183 93.6661C165.327 93.5716 164.463 93.4765 163.594 93.3806C163.159 93.3317 162.723 93.2831 162.286 93.234C161.848 93.1943 161.407 93.1687 160.965 93.1353C160.082 93.0718 159.193 93.0082 158.298 92.944L157.626 92.8957C157.401 92.8821 157.176 92.8799 156.951 92.8712C156.5 92.8561 156.048 92.8411 155.595 92.8257C154.689 92.7935 153.777 92.7612 152.86 92.7286C151.944 92.7325 151.022 92.7364 150.096 92.7403C148.242 92.7135 146.376 92.8411 144.491 92.9149C143.547 92.9385 142.607 93.0476 141.66 93.1208C140.713 93.2051 139.761 93.2733 138.809 93.3712C137.86 93.4912 136.907 93.6114 135.951 93.7319C135.473 93.7923 134.994 93.8526 134.515 93.9128C134.037 93.9853 133.561 94.0711 133.083 94.1497C132.128 94.3101 131.169 94.4708 130.208 94.6324L129.847 94.6931L129.489 94.7686L128.773 94.9197C128.296 95.0201 127.818 95.1211 127.339 95.222C126.86 95.3228 126.38 95.4238 125.9 95.5249L125.13 95.6863L124.762 95.7622L124.578 95.8003L124.367 95.837C123.782 95.9399 123.236 96.0126 122.679 96.0632C122.122 96.1141 121.561 96.1453 120.998 96.1505C118.748 96.178 116.464 95.8523 114.267 95.1545C112.071 94.4582 109.962 93.3713 108.122 91.9058C106.279 90.4471 104.735 88.5773 103.695 86.4801L103.598 86.2838L103.55 86.1851C103.522 86.1244 103.544 86.1824 103.475 86.024L103.327 85.6776L103.253 85.5041C103.228 85.4441 103.205 85.397 103.175 85.3108L103.011 84.8427C102.892 84.5201 102.827 84.2398 102.747 83.9444C102.661 83.6527 102.621 83.3541 102.559 83.0583C102.352 81.8702 102.338 80.6653 102.488 79.498C102.786 77.1571 103.723 74.9806 105.041 73.1142C106.359 71.2416 108.061 69.6649 109.975 68.4136C111.889 67.1566 114.028 66.2468 116.241 65.6313L117.077 65.4179L117.887 65.2432L119.393 64.9221C120.396 64.7079 121.399 64.4939 122.399 64.2801C122.891 64.1656 123.416 64.0817 123.935 63.9923C124.453 63.9029 124.972 63.814 125.49 63.7251C126.527 63.5477 127.562 63.3707 128.595 63.1936C128.854 63.1458 129.112 63.111 129.369 63.0795L130.142 62.9793C130.657 62.9125 131.171 62.8458 131.685 62.7793C132.713 62.6464 133.739 62.514 134.762 62.3818C136.819 62.1847 138.871 62.0227 140.91 61.8525C142.957 61.7663 144.992 61.6678 147.016 61.6098C149.041 61.62 151.054 61.6194 153.05 61.6403C161.036 61.8714 168.752 62.8292 175.935 64.3263C183.12 65.8314 189.755 67.9152 195.699 70.2061C197.179 70.7987 198.628 71.3712 200.032 71.9549C201.419 72.5779 202.774 73.1862 204.095 73.7795C205.423 74.3475 206.668 75.0111 207.895 75.6116C208.506 75.9161 209.109 76.2161 209.702 76.5116C209.998 76.659 210.292 76.8054 210.584 76.9505L210.694 77.0043L210.771 77.0429L210.824 77.0719L211.035 77.1872C211.176 77.2639 211.317 77.3402 211.456 77.4163C212.648 78.0808 213.701 78.8131 214.665 79.5902C215.627 80.3682 216.474 81.2009 217.216 82.0528C218.703 83.7566 219.732 85.5573 220.383 87.2596C220.712 88.1114 220.927 88.9457 221.073 89.7357C221.213 90.5263 221.292 91.2756 221.28 91.972C221.274 92.6675 221.217 93.3089 221.107 93.8856C221.014 94.4654 220.863 94.9786 220.713 95.431C220.403 96.335 220.034 96.9737 219.785 97.3976C219.509 97.8079 219.367 98.0195 219.367 98.0195L219.363 98.0262Z" fill="#FAFAFA"/>
<path d="M227.546 31.4242C227.546 31.4242 227.878 31.5229 228.499 31.708C228.654 31.7585 228.83 31.7963 229.018 31.8721C229.207 31.9473 229.413 32.0291 229.635 32.1177C229.855 32.2096 230.1 32.2934 230.346 32.4106C230.59 32.5343 230.848 32.6655 231.121 32.8041C232.193 33.3848 233.475 34.1773 234.704 35.3845C234.871 35.5218 235.007 35.6938 235.162 35.852C235.315 36.0144 235.469 36.1792 235.626 36.3464C235.79 36.5084 235.925 36.6975 236.071 36.8838C236.216 37.0712 236.362 37.2613 236.51 37.4536C236.667 37.6415 236.787 37.8573 236.925 38.0653C237.061 38.2764 237.198 38.4902 237.336 38.7063C237.472 38.9247 237.578 39.1625 237.702 39.3948C237.82 39.6303 237.95 39.8651 238.062 40.1105C238.937 42.0794 239.457 44.4643 239.273 46.9942C239.273 47.1533 239.245 47.3093 239.225 47.4671C239.203 47.6249 239.181 47.7831 239.159 47.9419C239.137 48.101 239.115 48.2608 239.093 48.4208L239.058 48.6617C239.067 48.6299 239.041 48.74 239.042 48.7377L239.035 48.7654L239.021 48.821L238.993 48.9318C238.835 49.5294 238.733 50.1032 238.465 50.7727C238.343 51.0934 238.239 51.4357 238.095 51.7434C237.948 52.0492 237.801 52.3564 237.652 52.6651C237.516 52.9812 237.319 53.2652 237.143 53.5639L236.871 54.009L236.733 54.2319L236.576 54.4417C236.365 54.7214 236.153 55.0026 235.94 55.2849C235.724 55.5644 235.469 55.813 235.232 56.0799L234.868 56.4747C234.738 56.5982 234.603 56.7161 234.47 56.837C234.2 57.0738 233.94 57.3275 233.655 57.5517C232.521 58.4603 231.23 59.1927 229.858 59.7746C228.473 60.3312 226.994 60.6753 225.484 60.8379L224.344 60.8952L224.058 60.9076L223.773 60.8942L223.202 60.8659L222.629 60.8356C222.437 60.8306 222.251 60.7862 222.061 60.7627L221.494 60.6763L221.21 60.6324L221.069 60.6102L220.998 60.5991L220.962 60.5935C220.917 60.5832 221.013 60.6087 220.852 60.569L219.846 60.3151L219.594 60.2517C219.512 60.2325 219.427 60.2103 219.328 60.1722L218.759 59.9687L218.19 59.7602L217.906 59.6542L217.645 59.5302L216.603 59.0331C215.254 58.2922 213.991 57.3894 212.893 56.3144C211.819 55.2218 210.867 54.0087 210.144 52.6742C209.96 52.3433 209.811 51.9951 209.646 51.6558C209.566 51.4849 209.483 51.3155 209.411 51.1421L209.224 50.6107C209.107 50.2547 208.966 49.9068 208.873 49.5463C208.785 49.1838 208.699 48.8228 208.612 48.4633C208.359 47.0101 208.223 45.5426 208.395 44.1283C208.427 43.4162 208.602 42.733 208.73 42.0544L208.756 41.9277L208.769 41.8643L208.775 41.8327C208.772 41.8416 208.825 41.6376 208.807 41.7113L208.876 41.4942C208.923 41.3498 208.969 41.2056 209.015 41.0622C209.061 40.9188 209.107 40.7757 209.153 40.6331C209.201 40.4892 209.236 40.3571 209.314 40.1824C209.456 39.8568 209.598 39.5331 209.739 39.2117C209.812 39.055 209.878 38.8878 209.958 38.7434C210.04 38.6013 210.122 38.4597 210.204 38.3188C210.37 38.0398 210.534 37.7631 210.698 37.4887C210.878 37.2257 211.073 36.975 211.261 36.725C211.999 35.7137 212.904 34.9046 213.771 34.1752C215.576 32.7733 217.493 31.9554 219.205 31.4941C220.921 31.0135 222.46 30.9372 223.697 30.9385C224.008 30.9466 224.301 30.9599 224.576 30.963C224.851 30.9771 225.107 31.0195 225.346 31.0433C225.583 31.0705 225.803 31.0958 226.005 31.1193C226.206 31.141 226.385 31.1912 226.547 31.2197L227.54 31.4227L227.546 31.4242Z" fill="#FAFAFA"/>
<path d="M227.546 31.4242C227.546 31.4242 227.878 31.5229 228.499 31.708C228.654 31.7585 228.83 31.7963 229.018 31.8721C229.207 31.9473 229.413 32.0291 229.635 32.1177C229.855 32.2096 230.1 32.2934 230.346 32.4106C230.59 32.5343 230.848 32.6655 231.121 32.8041C232.193 33.3848 233.475 34.1773 234.704 35.3845C234.871 35.5218 235.007 35.6938 235.162 35.852C235.315 36.0144 235.469 36.1792 235.626 36.3464C235.79 36.5084 235.925 36.6975 236.071 36.8838C236.216 37.0712 236.362 37.2613 236.51 37.4536C236.667 37.6415 236.787 37.8573 236.925 38.0653C237.061 38.2764 237.198 38.4902 237.336 38.7063C237.472 38.9247 237.578 39.1625 237.702 39.3948C237.82 39.6303 237.95 39.8651 238.062 40.1105C238.937 42.0794 239.457 44.4643 239.273 46.9942C239.273 47.1533 239.245 47.3093 239.225 47.4671C239.203 47.6249 239.181 47.7831 239.159 47.9419C239.137 48.101 239.115 48.2608 239.093 48.4208L239.058 48.6617C239.067 48.6299 239.041 48.74 239.042 48.7377L239.035 48.7654L239.021 48.821L238.993 48.9318C238.835 49.5294 238.733 50.1032 238.465 50.7727C238.343 51.0934 238.239 51.4357 238.095 51.7434C237.948 52.0492 237.801 52.3564 237.652 52.6651C237.516 52.9812 237.319 53.2652 237.143 53.5639L236.871 54.009L236.733 54.2319L236.576 54.4417C236.365 54.7214 236.153 55.0026 235.94 55.2849C235.724 55.5644 235.469 55.813 235.232 56.0799L234.868 56.4747C234.738 56.5982 234.603 56.7161 234.47 56.837C234.2 57.0738 233.94 57.3275 233.655 57.5517C232.521 58.4603 231.23 59.1927 229.858 59.7746C228.473 60.3312 226.994 60.6753 225.484 60.8379L224.344 60.8952L224.058 60.9076L223.773 60.8942L223.202 60.8659L222.629 60.8356C222.437 60.8306 222.251 60.7862 222.061 60.7627L221.494 60.6763L221.21 60.6324L221.069 60.6102L220.998 60.5991L220.962 60.5935C220.917 60.5832 221.013 60.6087 220.852 60.569L219.846 60.3151L219.594 60.2517C219.512 60.2325 219.427 60.2103 219.328 60.1722L218.759 59.9687L218.19 59.7602L217.906 59.6542L217.645 59.5302L216.603 59.0331C215.254 58.2922 213.991 57.3894 212.893 56.3144C211.819 55.2218 210.867 54.0087 210.144 52.6742C209.96 52.3433 209.811 51.9951 209.646 51.6558C209.566 51.4849 209.483 51.3155 209.411 51.1421L209.224 50.6107C209.107 50.2547 208.966 49.9068 208.873 49.5463C208.785 49.1838 208.699 48.8228 208.612 48.4633C208.359 47.0101 208.223 45.5426 208.395 44.1283C208.427 43.4162 208.602 42.733 208.73 42.0544L208.756 41.9277L208.769 41.8643L208.775 41.8327C208.772 41.8416 208.825 41.6376 208.807 41.7113L208.876 41.4942C208.923 41.3498 208.969 41.2056 209.015 41.0622C209.061 40.9188 209.107 40.7757 209.153 40.6331C209.201 40.4892 209.236 40.3571 209.314 40.1824C209.456 39.8568 209.598 39.5331 209.739 39.2117C209.812 39.055 209.878 38.8878 209.958 38.7434C210.04 38.6013 210.122 38.4597 210.204 38.3188C210.37 38.0398 210.534 37.7631 210.698 37.4887C210.878 37.2257 211.073 36.975 211.261 36.725C211.999 35.7137 212.904 34.9046 213.771 34.1752C215.576 32.7733 217.493 31.9554 219.205 31.4941C220.921 31.0135 222.46 30.9372 223.697 30.9385C224.008 30.9466 224.301 30.9599 224.576 30.963C224.851 30.9771 225.107 31.0195 225.346 31.0433C225.583 31.0705 225.803 31.0958 226.005 31.1193C226.206 31.141 226.385 31.1912 226.547 31.2197L227.54 31.4227L227.546 31.4242ZM227.452 31.791C227.452 31.7908 227.115 31.7428 226.481 31.6519C226.323 31.6335 226.148 31.5944 225.952 31.5853C225.756 31.58 225.542 31.5744 225.31 31.5684C225.079 31.5666 224.832 31.5477 224.568 31.5583C224.304 31.577 224.024 31.6067 223.73 31.6322C222.56 31.7645 221.138 32.071 219.699 32.812C218.261 33.5375 216.795 34.6254 215.577 36.082C215.432 36.2689 215.286 36.4574 215.138 36.648C214.992 36.8379 214.835 37.0204 214.714 37.2342C214.461 37.6523 214.17 38.0467 213.958 38.5003C213.842 38.7189 213.726 38.9393 213.608 39.1618C213.511 39.3933 213.414 39.6265 213.316 39.8618C213.267 39.9787 213.217 40.0953 213.165 40.211C213.115 40.3266 213.09 40.4389 213.051 40.5528C212.977 40.7772 212.903 41.0034 212.828 41.2311C212.785 41.3291 212.752 41.4886 212.717 41.6323C212.682 41.778 212.647 41.9241 212.612 42.0706C212.577 42.2172 212.541 42.3642 212.506 42.5119L212.453 42.7335C212.43 42.8257 212.476 42.6393 212.47 42.6674L212.467 42.6919L212.46 42.7411L212.447 42.8395C212.38 43.3652 212.272 43.8903 212.27 44.4305C212.184 45.5045 212.283 46.6052 212.483 47.6993C212.542 47.972 212.601 48.2459 212.66 48.5208C212.721 48.7955 212.828 49.0591 212.908 49.3315L213.035 49.7389L213.2 50.1343C213.314 50.3968 213.408 50.6707 213.535 50.9298C214.043 51.9696 214.691 52.9577 215.463 53.8681C216.253 54.7628 217.19 55.5373 218.214 56.1983L219.013 56.6466L219.214 56.758L219.412 56.8415L219.808 57.0122L220.205 57.1879C220.239 57.2023 220.268 57.2185 220.307 57.2318L220.431 57.27L220.679 57.3464L221.671 57.6524C221.532 57.6166 221.649 57.6459 221.625 57.6393L221.653 57.6448L221.71 57.656L221.824 57.6782L222.052 57.7231L222.507 57.8148C222.66 57.8408 222.81 57.8882 222.964 57.8973L223.426 57.941L223.889 57.9867L224.121 58.0104L224.353 58.0094L225.282 58.0069C226.518 57.9276 227.746 57.7065 228.915 57.2997C230.072 56.8696 231.174 56.3056 232.174 55.6022C232.424 55.428 232.651 55.2248 232.892 55.0392C233.01 54.9436 233.131 54.8514 233.247 54.7537L233.571 54.4369C233.783 54.2218 234.015 54.0254 234.211 53.7979C234.406 53.5682 234.599 53.3395 234.792 53.1115L234.937 52.9408L235.064 52.757L235.317 52.39C235.481 52.1433 235.668 51.9106 235.798 51.6452C235.94 51.3872 236.083 51.1302 236.224 50.8747C236.363 50.6185 236.451 50.3595 236.569 50.1042C236.811 49.6291 236.973 48.9901 237.159 48.4176L237.192 48.3083L237.209 48.2537L237.218 48.2265C237.224 48.207 237.2 48.2971 237.212 48.2469L237.257 48.0389C237.286 47.9003 237.316 47.7619 237.345 47.6243C237.375 47.4863 237.405 47.3487 237.435 47.2116C237.464 47.0742 237.5 46.9379 237.509 46.7988C237.54 46.5214 237.57 46.2459 237.6 45.9725C237.613 45.8354 237.638 45.6986 237.641 45.562C237.643 45.4252 237.645 45.2889 237.647 45.1531C237.653 44.8801 237.66 44.6093 237.667 44.3404C237.653 44.0723 237.627 43.8064 237.609 43.5416C237.592 43.0079 237.474 42.498 237.395 41.9867C237.364 41.7287 237.286 41.4851 237.221 41.24C237.155 40.9941 237.089 40.7505 237.025 40.5096C236.421 38.6003 235.421 36.9876 234.327 35.7475C233.236 34.4921 232.01 33.6627 230.968 33.0884C230.702 32.9506 230.45 32.8201 230.214 32.6971C229.973 32.5853 229.737 32.5075 229.522 32.4202C229.307 32.3366 229.108 32.2596 228.925 32.1889C228.741 32.1213 228.56 32.0874 228.405 32.0422C227.832 31.891 227.504 31.8047 227.452 31.791Z" fill="#F6B3A3"/>
<path d="M218.012 97.7303C218.012 97.7303 217.864 97.9407 217.58 98.3478C217.268 98.7556 216.807 99.3503 216.107 100.026C215.754 100.359 215.351 100.724 214.873 101.077C214.402 101.44 213.861 101.798 213.252 102.14C212.036 102.828 210.526 103.416 208.766 103.77C207.006 104.114 204.988 104.208 202.824 103.878C201.743 103.717 200.626 103.451 199.501 103.053C199.36 103.003 199.219 102.952 199.077 102.902C198.937 102.845 198.796 102.789 198.655 102.732C198.37 102.625 198.092 102.492 197.807 102.367C197.253 102.119 196.689 101.867 196.115 101.61C195.54 101.354 194.956 101.094 194.363 100.83C194.066 100.699 193.767 100.567 193.465 100.434C193.161 100.314 192.854 100.193 192.546 100.072C191.928 99.8309 191.302 99.5866 190.667 99.3389C190.35 99.2149 190.031 99.0903 189.709 98.9646C189.387 98.8405 189.067 98.7071 188.734 98.6C187.409 98.153 186.051 97.6944 184.66 97.225C183.255 96.818 181.817 96.4015 180.349 95.976C178.868 95.6138 177.357 95.2439 175.817 94.8671C174.267 94.5584 172.688 94.244 171.081 93.9244C170.274 93.797 169.46 93.6688 168.64 93.5395C168.23 93.4748 167.818 93.4099 167.405 93.3447C167.199 93.3122 166.992 93.2796 166.785 93.247C166.577 93.2232 166.368 93.1992 166.159 93.1754C165.323 93.0762 164.481 92.9764 163.633 92.8758C163.21 92.8245 162.785 92.7735 162.358 92.722C161.931 92.6804 161.501 92.6539 161.07 92.619C160.209 92.5528 159.342 92.4866 158.469 92.4197L157.814 92.3694C157.595 92.3552 157.376 92.3532 157.156 92.3443C156.717 92.3289 156.276 92.3136 155.834 92.2979C154.951 92.265 154.062 92.2321 153.168 92.1988C152.274 92.2042 151.376 92.2097 150.473 92.2152C148.665 92.1894 146.846 92.3277 145.008 92.4089C144.088 92.4353 143.172 92.5526 142.248 92.6318C141.325 92.7227 140.397 92.7966 139.469 92.902C138.544 93.0309 137.615 93.1599 136.683 93.2894C136.217 93.3542 135.75 93.419 135.283 93.4836C134.817 93.5614 134.353 93.6533 133.887 93.7375C132.957 93.9092 132.022 94.0814 131.085 94.2545L130.733 94.3196L130.385 94.4002L129.687 94.5618C129.221 94.6692 128.755 94.7773 128.288 94.8851C127.822 94.9929 127.354 95.101 126.886 95.209L126.135 95.3817L125.777 95.4629L125.598 95.5036L125.392 95.5429C124.821 95.6531 124.289 95.7312 123.746 95.7856C123.203 95.8406 122.656 95.8745 122.108 95.8809C119.914 95.9133 117.687 95.5707 115.544 94.8325C113.402 94.0959 111.345 92.9442 109.549 91.3897C107.75 89.8427 106.242 87.8583 105.226 85.6315L105.131 85.4231L105.084 85.3184C105.056 85.2539 105.078 85.3154 105.01 85.1473L104.866 84.7794L104.793 84.5953C104.769 84.5315 104.747 84.4815 104.718 84.39L104.556 83.8928C104.441 83.5503 104.377 83.2525 104.298 82.9388C104.214 82.629 104.175 82.3118 104.114 81.9977C103.91 80.7356 103.896 79.4555 104.04 78.215C104.328 75.7274 105.239 73.4136 106.522 71.4287C107.804 69.4371 109.462 67.7594 111.326 66.4272C113.191 65.0888 115.275 64.1191 117.432 63.4619L118.247 63.2339L119.037 63.0472L120.505 62.7038C121.482 62.4748 122.459 62.2459 123.434 62.0174C123.914 61.8949 124.426 61.805 124.931 61.7093C125.437 61.6136 125.942 61.5184 126.447 61.4231C127.458 61.2331 128.467 61.0435 129.474 60.8539C129.726 60.8027 129.978 60.7653 130.229 60.7315L130.982 60.6239C131.483 60.5523 131.985 60.4806 132.486 60.4092C133.488 60.2665 134.488 60.1244 135.485 59.9824C137.49 59.77 139.491 59.5948 141.479 59.411C143.474 59.3165 145.459 59.2089 147.431 59.1443C149.406 59.1522 151.368 59.1485 153.314 59.1678C161.101 59.4018 168.625 60.4082 175.63 61.9883C182.637 63.577 189.108 65.7812 194.906 68.2067C196.35 68.8341 197.763 69.4403 199.133 70.0584C200.486 70.7183 201.808 71.3626 203.096 71.991C204.392 72.5926 205.607 73.2958 206.804 73.932C207.4 74.2547 207.988 74.5726 208.566 74.8856C208.856 75.0419 209.142 75.1969 209.427 75.3507L209.534 75.4077L209.609 75.4486L209.661 75.4793L209.867 75.6015C210.005 75.6828 210.142 75.7637 210.278 75.8443C211.44 76.5486 212.468 77.3251 213.409 78.1493C214.348 78.9745 215.175 79.858 215.899 80.7621C217.351 82.5702 218.356 84.4819 218.993 86.2896C219.315 87.1941 219.526 88.0802 219.669 88.9194C219.807 89.7592 219.885 90.5552 219.874 91.295C219.869 92.034 219.814 92.7156 219.707 93.3284C219.617 93.9447 219.471 94.4902 219.325 94.971C219.024 95.932 218.665 96.6111 218.422 97.0619C218.155 97.4981 218.016 97.7232 218.016 97.7232L218.012 97.7303ZM217.534 97.3815C217.534 97.3815 217.658 97.1645 217.898 96.7447C218.115 96.3117 218.433 95.6618 218.688 94.7509C218.941 93.8436 219.139 92.6733 219.072 91.2886C219.009 89.9088 218.711 88.3129 218.011 86.6664C217.327 85.0178 216.261 83.3207 214.806 81.771C214.079 80.9969 213.251 80.2667 212.338 79.5963C211.429 78.9247 210.411 78.3244 209.355 77.8192C209.213 77.7531 209.069 77.6869 208.925 77.62L208.708 77.5199L208.654 77.4949C208.631 77.4835 208.659 77.4997 208.621 77.4824L208.511 77.4373C208.217 77.3182 207.921 77.1981 207.622 77.0773C207.026 76.8361 206.42 76.5917 205.805 76.3435C204.574 75.857 203.327 75.309 202.004 74.8684C200.692 74.4039 199.346 73.9279 197.969 73.4406C196.58 72.9939 195.149 72.5756 193.699 72.121C187.871 70.4 181.506 68.8612 174.731 67.6666C167.958 66.4571 160.763 65.6324 153.311 65.3905C145.864 65.1213 138.151 65.4038 130.406 66.3951C129.45 66.5366 128.492 66.6785 127.532 66.8206C127.052 66.8914 126.571 66.9622 126.09 67.0331C125.608 67.1041 125.129 67.1668 124.634 67.2732C123.65 67.4654 122.665 67.658 121.679 67.8508L120.199 68.1404L119.514 68.2748L118.869 68.4303C117.161 68.8786 115.519 69.5779 114.069 70.5656C112.615 71.5422 111.333 72.7768 110.353 74.2107C109.375 75.6427 108.704 77.2742 108.47 78.9451C108.352 79.7794 108.342 80.622 108.456 81.4442C108.495 81.6476 108.508 81.8566 108.561 82.057C108.608 82.2555 108.647 82.4757 108.701 82.6333L108.772 82.8925C108.778 82.9279 108.807 82.9996 108.828 83.0594L108.897 83.245L109.033 83.6163C108.99 83.5093 109.04 83.6303 109.039 83.6262L109.072 83.7022L109.137 83.8545C109.835 85.4807 110.885 86.9468 112.205 88.1378C113.52 89.3316 115.081 90.2682 116.754 90.889C118.428 91.5117 120.207 91.8345 121.973 91.8522C122.415 91.8586 122.856 91.8423 123.294 91.809C123.733 91.7764 124.176 91.7205 124.571 91.66C124.624 91.6518 124.67 91.6473 124.728 91.6365L124.908 91.6013L125.269 91.5311L125.954 91.3964C126.442 91.2992 126.929 91.2019 127.416 91.1052C127.902 91.0082 128.388 90.9117 128.873 90.8151L129.6 90.6708L129.962 90.5987L130.328 90.5422C131.303 90.3929 132.274 90.2441 133.242 90.0958C133.726 90.0237 134.208 89.944 134.691 89.8785C135.177 89.8259 135.661 89.7733 136.144 89.7212C137.111 89.6169 138.073 89.513 139.032 89.4096C139.993 89.3298 140.954 89.282 141.908 89.2174C142.863 89.1648 143.81 89.0741 144.76 89.0746C146.657 89.0472 148.532 88.964 150.393 89.0457C151.322 89.0684 152.246 89.0912 153.165 89.1136C154.083 89.1753 154.996 89.2371 155.904 89.2978C156.357 89.3303 156.809 89.3622 157.26 89.3943C157.485 89.4124 157.71 89.4235 157.934 89.4471L158.605 89.5251C159.498 89.6294 160.385 89.7328 161.266 89.8356C161.706 89.889 162.146 89.9341 162.582 89.9939C163.018 90.064 163.452 90.1334 163.884 90.2029C164.748 90.3434 165.606 90.4831 166.457 90.6215C166.67 90.6573 166.882 90.6934 167.094 90.7289C167.304 90.7735 167.514 90.8181 167.724 90.8627C168.143 90.9516 168.561 91.0405 168.977 91.1284C169.809 91.3052 170.633 91.4804 171.451 91.6541C173.076 92.0541 174.668 92.4762 176.229 92.888C177.773 93.3659 179.289 93.8347 180.773 94.2942C182.238 94.8155 183.673 95.3258 185.075 95.8247C186.455 96.3826 187.804 96.9275 189.12 97.4587C189.451 97.5839 189.771 97.7366 190.092 97.8793C190.412 98.0234 190.73 98.1666 191.046 98.3087C191.678 98.593 192.3 98.873 192.914 99.1496C193.221 99.2885 193.525 99.4264 193.827 99.5633C194.122 99.7115 194.415 99.8588 194.705 100.005C195.288 100.295 195.861 100.581 196.426 100.862C196.992 101.142 197.549 101.418 198.097 101.69C198.632 101.957 199.165 102.205 199.705 102.404C200.779 102.818 201.851 103.114 202.896 103.293C204.986 103.654 206.952 103.601 208.661 103.271C210.375 102.946 211.836 102.364 213.007 101.692C214.186 101.031 215.074 100.279 215.737 99.6227C216.4 98.9614 216.833 98.3812 217.116 97.9987C217.394 97.5877 217.537 97.3753 217.537 97.3753L217.534 97.3815Z" fill="#F0F8FD"/>
<path d="M147.92 31.5883C148.822 31.4348 149.948 31.4649 150.858 31.5562C154.379 31.909 157.299 33.8023 159.503 36.5561C158.372 37.392 157.16 38.1444 155.992 38.9293L155.945 38.8653C154.939 37.4947 153.45 36.074 151.709 35.8422C150.757 35.7154 149.763 35.8698 148.993 36.483C148.567 36.8221 148.195 37.2774 148.142 37.8469C147.995 39.4143 151.648 41.1529 152.749 41.9349C153.529 42.4883 154.281 43.1232 154.91 43.8517C156.027 45.1464 156.732 46.8001 156.596 48.5449C156.455 50.3544 155.461 52.0374 154.125 53.1997C151.57 55.4223 147.949 55.9387 144.706 55.661C143.853 55.6574 143.003 55.565 142.169 55.385C138.724 54.6668 135.155 52.4241 133.188 49.3962C134.741 48.2667 136.646 47.1312 138.379 46.3125C139.068 47.192 139.738 48.0825 140.595 48.8012C141.813 49.8234 143.417 50.5439 145.013 50.3806C145.944 50.2852 147.141 49.8961 147.732 49.1068C148.079 48.6426 148.179 48.0722 148.101 47.5015C147.802 45.3191 144.33 43.9797 142.763 42.8231C141.565 41.9393 140.447 40.7635 140.219 39.209C140 37.7105 140.663 36.1291 141.537 34.96C143.081 32.8955 145.464 31.9074 147.92 31.5883Z" fill="#FAFAFA"/>
<path d="M185.045 36.1433C185.285 36.1289 185.49 36.1825 185.717 36.2396L185.764 36.469C182.643 43.1809 179.458 49.8566 176.212 56.4948C172.9 52.9935 169.821 49.0901 166.675 45.375C165.166 48.2272 163.982 51.4694 162.707 54.4657C160.914 54.495 157.304 54.8289 155.731 54.4109L155.737 54.0997L164.758 33.5401C167.907 38.1343 171.46 42.5071 174.989 46.6746C176.866 43.144 178.279 39.332 180.047 35.7355C181.715 35.8637 183.37 36.0456 185.045 36.1433Z" fill="#FAFAFA"/>
<path d="M217.071 48.0701C217.389 47.8213 217.534 47.7062 217.506 47.7246C218.424 46.9782 219.145 46.3654 219.669 45.8862C220.202 45.407 220.652 44.9048 221.017 44.3796C221.382 43.8543 221.564 43.3429 221.564 42.8453C221.564 42.4675 221.475 42.1726 221.298 41.9607C221.12 41.7487 220.853 41.6428 220.497 41.6428C220.141 41.6428 219.861 41.7764 219.655 42.0436C219.458 42.3016 219.36 42.6702 219.36 43.1494H217.043C217.062 42.3661 217.23 41.7119 217.548 41.1866C217.876 40.6614 218.302 40.2743 218.826 40.0255C219.36 39.7767 219.95 39.6523 220.596 39.6523C221.709 39.6523 222.547 39.9334 223.109 40.4955C223.68 41.0576 223.965 41.7902 223.965 42.6933C223.965 43.6793 223.624 44.5961 222.94 45.4439C222.257 46.2825 221.387 47.1026 220.329 47.9043H224.12V49.8256H217.071V48.0701Z" fill="#CC3332"/>
<path d="M225.177 44.7804C225.177 43.1955 225.486 41.9469 226.104 41.0346C226.731 40.1223 227.737 39.6662 229.123 39.6662C230.508 39.6662 231.51 40.1223 232.128 41.0346C232.755 41.9469 233.069 43.1955 233.069 44.7804C233.069 46.3838 232.755 47.6417 232.128 48.5539C231.51 49.4662 230.508 49.9223 229.123 49.9223C227.737 49.9223 226.731 49.4662 226.104 48.5539C225.486 47.6417 225.177 46.3838 225.177 44.7804ZM230.71 44.7804C230.71 43.8497 230.607 43.1356 230.401 42.638C230.195 42.1311 229.769 41.8777 229.123 41.8777C228.477 41.8777 228.051 42.1311 227.845 42.638C227.639 43.1356 227.536 43.8497 227.536 44.7804C227.536 45.407 227.574 45.9277 227.648 46.3424C227.723 46.7478 227.873 47.0795 228.098 47.3376C228.332 47.5864 228.673 47.7108 229.123 47.7108C229.572 47.7108 229.909 47.5864 230.134 47.3376C230.368 47.0795 230.522 46.7478 230.597 46.3424C230.672 45.9277 230.71 45.407 230.71 44.7804Z" fill="#CC3332"/>
<path d="M249.796 167.865C254.844 175.171 255.674 174.385 263.62 180.702C268.077 184.339 273.149 186.518 274.751 181.287C275.336 177.193 275.336 177.193 274.083 171.036C280.677 177.171 301.891 186.194 310.003 177.615C319.473 169.219 304.398 146.633 297.807 140.498C288.028 131.392 281.303 128.591 267.761 130.642C260.989 131.664 238.979 144.375 243.543 158.266L249.796 167.865Z" fill="white"/>
<path d="M251.066 168.933C257.762 175.438 252.993 171.682 260.691 177.799C265.008 181.322 269.479 184.795 272.993 183.625C275.337 181.286 274.791 180.117 274.791 171.76C281.168 177.713 301.817 186.331 309.856 177.799C319.223 169.429 304.745 147.403 298.37 141.45C288.912 132.613 282.366 129.939 269.091 132.119C262.452 133.204 240.765 145.966 245.064 159.57L251.066 168.933Z" fill="#8C0706"/>
<path d="M268.525 162.788L274.413 171.323" stroke="white" stroke-linecap="round"/>
<path d="M66.6125 167.865C61.5643 175.171 60.7343 174.385 52.7882 180.702C48.3313 184.339 43.2596 186.518 41.6577 181.287C41.0718 177.193 41.0718 177.193 42.3253 171.036C35.7316 177.171 14.5171 186.194 6.40565 177.615C-3.06432 169.219 12.0101 146.633 18.6007 140.498C28.3798 131.392 35.1048 128.591 48.6467 130.642C55.4197 131.664 77.4296 144.375 72.865 158.266L66.6125 167.865Z" fill="white"/>
<path d="M65.3423 168.933C58.6461 175.438 63.4155 171.682 55.717 177.799C51.3999 181.322 46.9297 184.795 43.4147 183.625C41.0714 181.286 41.6174 180.117 41.6174 171.76C35.2398 177.713 14.5915 186.331 6.55206 177.799C-2.81445 169.429 11.6631 147.403 18.0377 141.45C27.4963 132.613 34.0424 129.939 47.3168 132.119C53.9558 133.204 75.6435 145.966 71.3444 159.57L65.3423 168.933Z" fill="#8C0706"/>
<path d="M47.8809 162.788L41.9937 171.323" stroke="white" stroke-linecap="round"/>
</svg>
