<svg width="744" height="359" viewBox="0 0 744 359" fill="none" xmlns="http://www.w3.org/2000/svg">
<path d="M151.6 312.2C143.6 312.2 137.333 310.066 132.8 305.8C128.267 301.267 126 294.866 126 286.6V255.4H27.2C18.9333 255.4 12.2667 253.666 7.2 250.2C2.4 246.733 0 241.266 0 233.8C0 229.533 1.06667 224.866 3.2 219.8C5.6 214.733 9.73333 208.066 15.6 199.8L125.2 40.9998C128.933 35.3998 133.067 31.1331 137.6 28.1998C142.133 25.2665 147.333 23.7998 153.2 23.7998C160.133 23.7998 165.867 25.9331 170.4 30.1998C174.933 34.1998 177.2 40.5998 177.2 49.3998V213H196.8C204.533 213 210.267 214.866 214 218.6C218 222.066 220 227.266 220 234.2C220 241.133 218 246.466 214 250.2C210.267 253.666 204.533 255.4 196.8 255.4H177.2V286.6C177.2 294.866 174.933 301.267 170.4 305.8C165.867 310.066 159.6 312.2 151.6 312.2ZM126 213V88.1998H137.6L43.2 226.6V213H126Z" fill="#CC3332"/>
<path d="M377.243 286.429C396.254 286.429 413.453 287.791 425.889 289.988C432.11 291.088 437.116 292.392 440.554 293.828C442.275 294.547 443.574 295.288 444.436 296.031C445.3 296.778 445.662 297.473 445.662 298.107C445.662 298.742 445.3 299.437 444.436 300.184C443.574 300.927 442.275 301.668 440.554 302.387C437.116 303.823 432.11 305.127 425.889 306.227C413.453 308.424 396.254 309.786 377.243 309.786C358.232 309.786 341.032 308.424 328.597 306.227C322.375 305.127 317.37 303.823 313.933 302.387C312.212 301.668 310.912 300.927 310.051 300.184C309.186 299.437 308.824 298.742 308.824 298.107C308.824 297.473 309.187 296.778 310.051 296.031C310.912 295.288 312.212 294.547 313.933 293.828C317.37 292.392 322.375 291.088 328.597 289.988C341.032 287.791 358.232 286.429 377.243 286.429Z" fill="#B42D2C" stroke="black"/>
<path d="M409.513 176.468L408.2 307.327L394.846 308.785H360.126L344.966 307.313L345.45 176.468H409.513Z" fill="#A7C93F" stroke="#192D1E" stroke-width="3"/>
<g clip-path="url(#clip0_8031_50359)">
<path d="M400.665 18.2554C400.665 18.1132 400.781 17.9933 400.923 17.9845C409.566 17.4513 409.601 17.4818 413.165 20.6102C413.415 20.8248 413.665 21.0394 413.922 21.2606C414.798 22.0857 415.448 22.9017 416.064 23.891C416.217 24.1366 416.391 24.3654 416.596 24.5702C416.738 24.7122 416.869 24.8681 416.982 25.0339C417.157 25.2908 417.328 25.5509 417.494 25.8133C417.669 26.0832 417.669 26.0832 417.846 26.3586C418.07 26.791 418.106 26.8602 418.112 27.3351C418.114 27.5124 418.255 27.6564 418.432 27.6564C418.554 27.6564 418.668 27.7259 418.722 27.8356C418.804 28.0013 418.833 28.0597 418.96 28.319C419.439 29.27 419.937 30.2086 420.44 31.1468C420.794 31.8098 421.146 32.4732 421.498 33.1367C421.62 33.3648 421.741 33.5929 421.866 33.8279C422.443 34.944 422.526 35.1043 422.538 35.6776C422.542 35.8595 422.686 36.0074 422.867 36.0074C422.986 36.0074 423.098 36.0709 423.154 36.1747C423.481 36.7727 423.563 37.0949 423.579 37.7731C423.583 37.9508 423.724 38.0952 423.901 38.0952C424.023 38.0952 424.137 38.165 424.192 38.2741C424.884 39.6621 424.898 39.6894 425.239 40.3786C426.415 42.7197 427.638 45.022 429.05 47.2291C429.387 47.8302 429.528 48.1304 429.562 48.7188C429.573 48.9046 429.72 49.0559 429.906 49.0559C430.021 49.0559 430.13 49.114 430.191 49.211C430.428 49.5881 430.653 49.9736 430.873 50.3607C431.286 50.9734 431.702 51.5826 432.122 52.1906C432.362 52.5871 432.418 52.6806 432.432 52.9356C432.44 53.0987 432.566 53.2314 432.73 53.2314C432.863 53.2314 432.981 53.3202 433.017 53.4484C433.067 53.6296 433.117 53.8118 433.168 53.998C433.213 54.1144 433.258 54.2308 433.304 54.3478C433.414 54.6325 433.642 54.8522 433.932 54.9489C434.142 55.0192 434.327 55.1567 434.452 55.3402C434.741 55.7643 435.023 56.1928 435.3 56.624C435.719 57.1163 436.148 57.6003 436.586 58.0757C436.803 58.3128 437.021 58.55 437.244 58.7944C437.698 59.275 438.163 59.7443 438.638 60.2032C439.002 60.5851 439.133 60.7224 439.18 60.9089C439.241 61.1504 439.361 61.3787 439.594 61.4654C439.628 61.4779 439.662 61.4939 439.693 61.5128C440.323 61.9 440.668 62.3566 441.124 62.9424C441.865 63.754 442.756 64.3843 443.631 65.0444C443.752 65.1494 443.874 65.2544 443.997 65.361C444.097 65.4474 444.155 65.5712 444.155 65.7033C444.155 65.8922 444.271 66.0632 444.448 66.1302C444.55 66.1689 444.653 66.2078 444.757 66.2473C445.394 66.5146 445.451 66.5385 446.046 66.9348C446.166 67.0146 446.238 67.1474 446.238 67.2913C446.238 67.4675 446.345 67.6278 446.509 67.6933C446.832 67.8229 446.95 67.8701 447.291 68.0067C447.441 68.067 447.54 68.211 447.54 68.3731C447.54 68.5277 447.63 68.6702 447.77 68.7351C447.817 68.7569 447.87 68.7812 447.963 68.8244C448.667 69.1956 449.318 69.6041 449.962 70.0632C450.077 70.1451 450.144 70.276 450.144 70.417C450.144 70.5968 450.253 70.7605 450.42 70.8279C450.473 70.8493 450.527 70.8709 450.581 70.8928C454.389 73.0671 456.784 78.467 458.046 82.4468C458.188 82.8905 458.347 83.3287 458.51 83.7649C458.758 84.6184 458.857 85.4271 458.934 86.3104C458.988 86.8997 458.988 86.8997 459.13 87.4793C459.391 88.9406 459.307 90.4399 459.308 91.9202C459.311 92.2556 459.314 92.591 459.317 92.9366C459.32 94.7557 459.209 96.3615 458.738 98.1182C458.647 98.7265 458.559 99.3354 458.478 99.945C458.302 100.901 458.069 101.83 457.81 102.767C457.705 103.149 457.705 103.149 457.598 103.538C457.515 103.837 457.73 104.14 458.04 104.147C458.524 104.157 458.715 104.111 459.336 103.917C459.458 103.879 459.584 103.856 459.711 103.849C461.713 103.747 463.57 103.854 465.509 104.382C466.121 104.525 466.735 104.666 467.348 104.806C467.784 104.907 468.221 105.008 468.657 105.109C468.796 105.142 468.894 105.264 468.894 105.406C468.894 105.564 469.014 105.698 469.171 105.714C469.353 105.731 469.537 105.75 469.724 105.768C470.61 105.928 471.153 106.111 471.836 106.596C471.953 106.679 472.019 106.812 472.019 106.955C472.019 107.135 472.125 107.3 472.289 107.373C472.338 107.395 472.395 107.421 472.491 107.464C472.723 107.59 472.925 107.714 473.106 107.848C473.92 108.448 474.188 109.596 473.702 110.483C473.542 110.776 473.343 111.055 473.132 111.335C473.085 111.396 472.967 111.488 472.902 111.529C472.489 111.792 472.41 112.358 472.773 112.687C473.368 113.227 473.999 113.713 474.656 114.201C477.567 116.411 480.069 119.024 481.84 122.25C481.889 122.341 481.915 122.443 481.915 122.546C481.915 122.667 481.915 122.789 481.915 122.911C481.915 123.055 482.03 123.171 482.173 123.171C482.317 123.171 482.436 123.288 482.436 123.432C482.436 123.605 482.436 123.779 482.436 123.955C482.436 124.099 482.55 124.215 482.694 124.215C482.838 124.215 482.957 124.332 482.957 124.476C482.957 124.716 482.957 124.957 482.957 125.201C482.957 125.377 483.097 125.52 483.274 125.52C483.397 125.52 483.512 125.591 483.561 125.704C483.982 126.667 484.059 127.465 484.049 128.551C484.048 128.876 484.046 129.202 484.044 129.537C484.04 129.875 484.035 130.212 484.031 130.56C484.029 130.903 484.026 131.245 484.024 131.598C484.019 132.265 484.013 132.932 484.005 133.599C484.001 133.913 483.786 134.185 483.481 134.262C483.404 134.281 483.327 134.3 483.25 134.32C483.077 134.363 482.957 134.516 482.957 134.693C482.957 134.829 482.885 134.958 482.767 135.027C482.115 135.411 481.648 135.643 480.921 135.646C480.694 135.647 480.47 135.604 480.251 135.547C480.113 135.51 479.973 135.474 479.832 135.437C479.628 135.389 479.423 135.34 479.213 135.29C479.206 135.288 479.198 135.286 479.191 135.284C479.022 135.238 478.871 135.401 478.93 135.566C478.934 135.578 478.938 135.59 478.94 135.602C479.09 136.463 478.931 137.182 478.79 138.047C478.745 138.443 478.701 138.84 478.66 139.237C478.453 141.103 478.041 142.853 477.538 144.655C477.508 144.76 477.414 144.832 477.306 144.832C477.14 144.832 477.021 144.994 477.073 145.152C477.105 145.246 477.136 145.341 477.168 145.437C477.206 145.551 477.198 145.676 477.145 145.784C476.909 146.267 476.857 146.354 476.556 146.769C476.487 146.864 476.379 146.92 476.262 146.92C476.072 146.92 475.913 147.064 475.896 147.253C475.891 147.309 475.886 147.366 475.881 147.423C475.878 147.457 475.872 147.491 475.862 147.524C475.476 148.826 474.43 149.834 473.428 150.738C473.36 150.8 473.27 150.834 473.177 150.834C473.139 150.834 473.1 150.834 473.061 150.834C472.917 150.834 472.8 150.949 472.8 151.093C472.8 151.237 472.686 151.356 472.542 151.356C472.398 151.356 472.28 151.473 472.28 151.617C472.28 151.638 472.28 151.659 472.28 151.68C472.28 151.802 472.212 151.913 472.103 151.968C471.831 152.107 471.559 152.246 471.287 152.384C471.01 152.524 471.01 152.524 470.728 152.668C469.495 153.256 468.332 153.371 467.047 152.996C466.905 152.954 466.811 152.824 466.811 152.677C466.811 152.516 466.699 152.375 466.542 152.34C466.486 152.328 466.429 152.315 466.371 152.302C465.802 152.148 465.771 152.14 465.219 151.863C465.152 151.83 465.083 151.802 465.012 151.781C464.665 151.677 464.281 151.709 463.983 151.914C463.839 152.013 463.736 152.106 463.533 152.297C463.464 152.363 463.372 152.4 463.277 152.4C463.254 152.4 463.231 152.4 463.208 152.4C463.041 152.4 462.905 152.534 462.905 152.702C462.905 152.832 462.821 152.95 462.697 152.991C460.432 153.726 459.172 153.65 456.948 152.596C455.736 151.968 454.511 151.301 453.438 150.449C453.33 150.363 453.269 150.234 453.269 150.096C453.269 149.912 453.159 149.743 452.99 149.67C452.93 149.644 452.87 149.619 452.809 149.593C450.185 148.13 448.012 144.312 447.045 141.515C447.028 141.464 447.019 141.413 447.019 141.359C447.019 141.108 446.83 140.897 446.581 140.871C446.54 140.867 446.498 140.863 446.457 140.858C443.746 140.485 441.787 138.267 440.998 135.647C440.772 134.898 440.583 134.138 440.399 133.396C440.289 132.916 440.271 132.837 440.105 132.523C440.034 132.389 439.895 132.305 439.743 132.305C439.577 132.305 439.425 132.404 439.359 132.557C439.33 132.625 439.301 132.693 439.272 132.762C438.494 134.165 437.308 134.891 435.789 135.339C435.697 135.357 435.606 135.376 435.514 135.394C435.372 135.423 435.232 135.461 435.095 135.51C435.076 135.517 435.056 135.525 435.036 135.532C434.909 135.577 434.773 135.614 434.638 135.629C433.312 135.783 432.142 136.601 432.499 137.887C432.561 138.108 432.627 138.334 432.696 138.569C432.83 139.186 432.949 139.806 433.069 140.426C433.301 141.603 433.562 142.774 433.82 143.946C433.945 144.564 434.048 145.186 434.136 145.811C434.236 146.503 434.419 147.095 434.672 147.692C434.862 148.142 435.392 148.327 435.838 148.127C436.769 147.727 437.706 147.444 438.686 147.181C438.954 147.094 439.223 147.008 439.5 146.92C442.303 146.131 445.616 145.602 448.462 146.443C448.794 146.541 448.922 146.93 448.73 147.218C448.638 147.357 448.484 147.449 448.317 147.46C447.986 147.483 447.862 147.484 447.585 147.465C447.421 147.454 447.28 147.581 447.28 147.746C447.28 147.873 447.195 147.987 447.072 148.021C446.881 148.074 446.814 148.093 446.515 148.176C445.368 148.503 444.242 148.885 443.113 149.268C443.05 149.289 442.987 149.31 442.924 149.332C442.422 149.499 442.391 150.248 442.917 150.186C443.042 150.172 443.185 150.145 443.363 150.108C443.503 150.079 443.634 150.183 443.634 150.325C443.634 150.457 443.747 150.562 443.879 150.55C444.058 150.533 444.136 150.526 444.433 150.498C444.785 150.468 445.137 150.439 445.489 150.41C445.662 150.393 445.836 150.376 446.014 150.359C446.614 150.312 447.125 150.329 447.628 150.412C448.634 150.58 449.615 150.894 450.628 151.008C452.185 151.25 453.469 151.801 454.654 152.657C455.493 153.263 456.193 154.124 456.227 155.157C456.252 155.925 456.021 156.704 455.552 157.312C455.203 157.766 454.775 158.082 454.116 158.37C453.921 158.437 453.727 158.505 453.529 158.573C453.374 158.627 453.269 158.772 453.269 158.937C453.269 159.087 453.356 159.226 453.493 159.289C453.569 159.325 453.647 159.361 453.725 159.397C454.276 159.689 454.753 159.993 455.227 160.384C455.307 160.451 455.353 160.549 455.353 160.653C455.353 160.85 455.513 161.012 455.71 161.012C455.778 161.012 455.846 161.012 455.914 161.012C456.055 161.012 456.191 161.065 456.295 161.161C456.758 161.59 456.818 161.653 457.436 162.317C457.639 162.516 457.842 162.715 458.051 162.92C460.096 165.008 461.938 167.542 463.081 170.306C463.795 172.033 463.852 174.245 462.237 175.186C461.942 175.331 461.646 175.477 461.342 175.626C461.312 175.641 461.283 175.656 461.253 175.671C460.969 175.813 460.656 175.891 460.339 175.894C460.007 175.896 459.675 175.896 459.344 175.892C459.133 175.89 458.939 176.006 458.845 176.194C458.777 176.33 458.768 176.49 458.821 176.632C458.978 177.05 459.137 177.467 459.303 177.881C459.605 178.741 459.766 179.612 459.928 180.507C459.999 180.887 460.08 181.265 460.175 181.64C460.991 184.97 460.698 188.854 459.88 192.191C459.816 192.453 459.681 192.688 459.491 192.878C459.339 193.031 459.22 193.216 459.144 193.417C459.081 193.583 459.045 193.678 458.933 193.976C458.506 194.991 458.053 195.51 457.191 196.07C457.012 196.187 456.804 196.255 456.589 196.257C455.749 196.265 454.954 196.056 454.179 195.744C453.931 195.645 453.668 195.877 453.753 196.131C453.776 196.202 453.774 196.281 453.744 196.35C453.579 196.732 453.556 196.772 453.269 197.287C453.081 197.742 452.896 198.199 452.716 198.657C452.624 198.89 452.532 199.123 452.437 199.362C452.396 199.467 452.355 199.571 452.314 199.677C452.262 199.809 452.136 199.897 451.993 199.897C451.828 199.897 451.684 200.014 451.652 200.176C451.641 200.233 451.63 200.291 451.618 200.349C451.069 202.237 449.476 203.994 447.968 205.24C447.857 205.332 447.734 205.407 447.602 205.465C447.156 205.664 447.051 205.707 446.704 205.828C446.581 205.87 446.498 205.984 446.498 206.114C446.498 206.283 446.362 206.421 446.194 206.421C446.122 206.421 446.05 206.421 445.978 206.421C445.834 206.421 445.717 206.536 445.717 206.68C445.717 206.824 445.6 206.943 445.456 206.943C445.229 206.943 445.002 206.943 444.772 206.943C444.575 206.943 444.415 207.101 444.415 207.298C444.415 207.403 444.369 207.504 444.29 207.571C443.852 207.943 443.412 208.311 442.969 208.674C442.892 208.737 442.83 208.815 442.785 208.904C442.757 208.961 442.728 209.018 442.7 209.076C442.634 209.208 442.501 209.291 442.353 209.291C442.186 209.291 442.035 209.398 441.982 209.557C441.949 209.658 441.915 209.759 441.88 209.862C441.119 211.556 439.61 212.932 438.149 214.109C437.815 214.379 437.497 214.669 437.205 214.984C436.981 215.187 436.903 215.257 436.656 215.281C436.315 215.314 436.009 215.511 435.901 215.837C435.85 215.991 435.751 216.129 435.621 216.226C435.221 216.524 435.137 216.575 434.487 216.974C434.227 217.133 433.968 217.293 433.7 217.457C433.455 217.604 433.21 217.752 432.957 217.903C432.778 218.013 432.6 218.123 432.417 218.236C431.577 218.739 430.75 219.102 429.83 219.391C429.677 219.439 429.571 219.578 429.571 219.738C429.571 219.889 429.477 220.026 429.336 220.079C429.226 220.12 429.115 220.161 429.002 220.203C428.266 220.494 428.266 220.494 427.618 220.905C426.977 221.29 426.359 221.543 425.665 221.818C425.197 222.027 424.731 222.24 424.265 222.454C422.744 223.15 421.215 223.813 419.659 224.428C418.682 224.817 417.747 225.252 416.811 225.733C416.138 226.019 415.475 226.265 414.776 226.483C414.131 226.711 413.587 226.951 412.986 227.266C411.909 227.823 410.797 228.218 409.655 228.621C408.966 228.862 408.966 228.862 408.217 229.256C407.256 229.737 406.267 230.076 405.255 230.434C404.521 230.696 404.521 230.696 403.66 231.148C403.108 231.424 403.024 231.466 402.536 231.473C402.366 231.475 402.228 231.61 402.228 231.78C402.228 231.909 402.148 232.026 402.027 232.071C401.949 232.1 401.891 232.122 401.74 232.178C400.345 232.717 399.059 233.322 397.777 234.096C397.356 234.306 397.291 234.339 396.808 234.344C396.637 234.345 396.498 234.481 396.498 234.652C396.498 234.78 396.419 234.897 396.3 234.943C396.113 235.014 395.925 235.086 395.733 235.16C394.927 235.502 394.251 235.926 393.536 236.432C392.496 237.154 391.466 237.577 390.277 237.918C390.107 237.967 389.988 238.119 389.988 238.296C389.988 238.434 389.915 238.564 389.797 238.634C388.282 239.539 388.059 239.662 387.438 239.773C387.257 239.805 387.123 239.958 387.123 240.142C387.123 240.269 387.06 240.389 386.953 240.457C386.52 240.734 386.075 240.994 385.626 241.244C384.483 241.882 384.483 241.882 383.408 242.623C383.076 242.869 382.988 242.933 382.757 242.951C382.58 242.964 382.436 243.098 382.436 243.275C382.436 243.398 382.366 243.513 382.253 243.563C381.227 244.02 380.333 244.079 379.181 244.082C378.845 244.086 378.509 244.091 378.163 244.095C377.24 244.002 376.776 243.801 376.061 243.312C375.971 243.25 375.872 243.201 375.768 243.168C375.457 243.069 375.354 243.04 375.147 243.002C374.995 242.974 374.884 242.846 374.884 242.692C374.884 242.543 374.78 242.412 374.635 242.381C374.581 242.369 374.527 242.358 374.473 242.346C373.652 242.122 372.876 241.815 372.084 241.505C371.779 241.386 371.475 241.267 371.161 241.145C370.998 241.081 370.834 241.017 370.669 240.952C370.541 240.902 370.457 240.78 370.457 240.643C370.457 240.475 370.332 240.331 370.165 240.309C370.113 240.302 370.052 240.295 369.952 240.282C368.339 239.886 366.924 239.11 365.509 238.259C364.55 237.804 363.592 237.373 362.591 237.025C362.467 236.982 362.384 236.868 362.384 236.738C362.384 236.57 362.248 236.432 362.08 236.432C361.926 236.432 361.77 236.432 361.614 236.432C361.464 236.432 361.342 236.313 361.342 236.163C361.342 236.021 361.233 235.902 361.092 235.89C360.906 235.875 360.719 235.86 360.528 235.845C360.024 235.747 359.638 235.615 359.281 235.44C358.346 234.983 357.469 234.406 356.487 234.063C355.433 233.65 354.44 233.116 353.435 232.597C352.815 232.272 352.753 232.24 352.179 232.061C352.053 232.022 351.967 231.908 351.967 231.776C351.967 231.61 351.833 231.474 351.667 231.474C351.513 231.474 351.358 231.474 351.201 231.474C351.049 231.474 350.925 231.352 350.925 231.2C350.925 231.06 350.82 230.94 350.681 230.924C350.481 230.901 350.402 230.891 350.079 230.854C349.255 230.716 348.762 230.586 348.061 230.169C347.952 230.115 347.844 230.06 347.734 230.005C347.615 229.946 347.54 229.826 347.54 229.693C347.54 229.518 347.411 229.368 347.238 229.343C347.163 229.332 347.087 229.322 347.01 229.311C346.044 229.079 345.191 228.675 344.301 228.244C344.134 228.165 343.966 228.086 343.794 228.004C341.108 226.725 341.108 226.725 340.111 226.109C339.428 225.71 338.765 225.451 338.019 225.194C337.165 224.899 336.36 224.589 335.561 224.167C335.449 224.111 335.337 224.055 335.224 223.998C335.111 223.941 335.04 223.828 335.04 223.702C335.04 223.524 334.901 223.377 334.724 223.367C334.642 223.363 334.56 223.359 334.477 223.354C334.44 223.352 334.403 223.347 334.368 223.338C333.278 223.065 332.513 222.577 331.562 221.977C330.906 221.577 330.247 221.237 329.555 220.905C328.469 220.374 327.493 219.754 326.5 219.068C325.942 218.698 325.377 218.38 324.786 218.067C323.136 217.17 321.308 216.062 320.046 214.637C319.974 214.556 319.936 214.453 319.936 214.345C319.936 214.137 319.794 213.953 319.592 213.903C319.451 213.867 319.309 213.832 319.166 213.796C319.006 213.756 318.894 213.614 318.894 213.449C318.894 213.303 318.806 213.17 318.671 213.115C318.599 213.086 318.528 213.056 318.455 213.027C317.723 212.61 317.203 212.1 316.647 211.487C316.585 211.418 316.55 211.328 316.55 211.235C316.55 211.229 316.55 211.223 316.55 211.217C316.55 211.018 316.391 210.857 316.193 210.857C316.09 210.857 315.99 210.813 315.922 210.737C315.197 209.924 315.035 209.728 314.998 209.384C314.978 209.19 314.831 209.03 314.636 209.03C314.53 209.03 314.428 208.983 314.361 208.901C313.947 208.392 313.553 207.881 313.165 207.35C312.531 206.4 312.422 206.237 311.802 205.739C311.586 205.565 311.262 205.673 311.19 205.941C311.183 205.967 311.173 205.993 311.161 206.017C311.065 206.205 310.995 206.341 310.93 206.45C310.572 207.055 309.838 207.346 309.136 207.366C308.32 207.39 307.546 207.176 306.747 206.838C306.52 206.742 306.349 206.546 306.271 206.312C306.184 206.049 305.983 205.838 305.717 205.76C305.571 205.717 305.456 205.696 305.207 205.656C305.131 205.644 305.057 205.62 304.988 205.586C304.92 205.552 304.853 205.518 304.785 205.484C304.654 205.418 304.571 205.286 304.571 205.14C304.571 204.972 304.462 204.821 304.301 204.77C304.202 204.739 304.103 204.707 304.002 204.676C303.166 204.285 302.656 203.807 302.061 203.135C302 203.067 301.967 202.978 301.967 202.886C301.967 202.879 301.967 202.871 301.967 202.864C301.967 202.666 301.809 202.506 301.611 202.506C301.508 202.506 301.407 202.461 301.339 202.383C301.076 202.08 301.038 202.026 300.681 201.528C300.55 201.346 300.419 201.164 300.284 200.977C300.152 200.793 300.02 200.608 299.884 200.418C299.666 200.158 299.666 200.158 299.443 199.892C299.143 199.436 299.107 199.382 299.103 198.663C299.102 198.48 298.956 198.331 298.773 198.331C298.656 198.331 298.544 198.269 298.488 198.166C298.135 197.521 298.035 197.004 298.049 196.292C298.052 196.123 297.921 195.982 297.753 195.982C297.627 195.982 297.513 195.901 297.473 195.782C297.329 195.348 297.185 194.914 297.04 194.48C296.735 193.561 295.719 193.004 295.099 193.747C294.169 194.657 293.547 194.905 292.346 194.935C292.195 194.939 292.071 194.817 292.071 194.665C292.071 194.525 291.965 194.405 291.826 194.39C291.774 194.384 291.722 194.379 291.67 194.373C291.634 194.369 291.598 194.361 291.564 194.348C291.135 194.185 290.852 193.971 290.607 193.697C290.142 193.177 289.851 192.526 289.596 191.877C289.553 191.766 289.51 191.656 289.467 191.546C289.376 191.35 289.285 191.154 289.191 190.952C288.428 189.252 288.288 187.816 288.344 185.967C288.347 185.714 288.349 185.461 288.352 185.2C288.363 184.473 288.379 183.79 288.482 183.102C288.548 182.656 288.171 182.238 287.726 182.314C286.058 182.511 284.299 181.46 283.946 179.818C283.885 179.532 283.848 179.211 283.825 178.835C283.822 178.266 283.826 177.696 283.836 177.127C283.831 176.845 283.826 176.562 283.82 176.272C283.832 174.265 284.281 172.902 285.3 171.19C285.461 170.876 285.618 170.561 285.772 170.244C285.842 170.105 285.911 169.966 285.982 169.824C286.043 169.702 286.167 169.624 286.304 169.624C286.476 169.624 286.627 169.502 286.661 169.333C286.708 169.094 286.733 168.968 286.773 168.768C286.829 168.491 287.026 168.265 287.294 168.175C287.514 168.102 287.694 167.934 287.78 167.718C287.81 167.642 287.841 167.565 287.872 167.487C288.23 166.59 288.694 166.027 289.326 165.34C289.416 165.243 289.54 165.188 289.673 165.188C289.863 165.188 290.036 165.074 290.111 164.899C290.129 164.857 290.151 164.806 290.183 164.731C290.533 164.1 290.921 163.663 291.444 163.194C291.512 163.133 291.601 163.1 291.693 163.1C291.732 163.1 291.771 163.1 291.81 163.1C291.954 163.1 292.071 162.983 292.071 162.839C292.071 162.836 292.071 162.833 292.071 162.83C292.071 162.691 292.182 162.578 292.321 162.578C292.467 162.578 292.586 162.455 292.573 162.31C292.554 162.107 292.526 162.006 292.428 161.766C292.367 161.615 292.257 161.488 292.118 161.403C291.847 161.237 291.575 161.073 291.302 160.912C291.123 160.806 290.973 160.658 290.868 160.479C290.724 160.235 290.675 160.136 290.593 159.927C290.541 159.795 290.417 159.707 290.275 159.707C290.11 159.707 289.966 159.589 289.94 159.426C289.776 158.414 289.748 157.554 289.941 156.542C289.967 156.409 290.083 156.315 290.218 156.315C290.378 156.315 290.509 156.185 290.509 156.026C290.509 155.953 290.509 155.88 290.509 155.807C290.509 155.655 290.63 155.532 290.782 155.532C290.922 155.532 291.041 155.426 291.057 155.287C291.063 155.238 291.068 155.188 291.074 155.137C291.078 155.104 291.085 155.071 291.097 155.04C291.399 154.22 291.916 153.829 292.576 153.248C292.809 153.04 293.042 152.831 293.283 152.616C293.771 152.235 293.869 152.158 294.154 152.143C294.298 152.135 294.415 152.024 294.415 151.88C294.415 151.736 294.532 151.617 294.676 151.617C294.74 151.617 294.804 151.617 294.869 151.617C295.064 151.617 295.238 151.492 295.3 151.306C295.316 151.256 295.333 151.205 295.35 151.155C295.417 150.953 295.575 150.793 295.778 150.728C295.941 150.677 296.038 150.652 296.193 150.624C296.368 150.592 296.498 150.444 296.498 150.266C296.498 150.134 296.569 150.011 296.683 149.947C297.515 149.479 298.349 149.014 299.184 148.551C299.433 148.41 299.682 148.269 299.939 148.125C302.295 146.821 304.669 145.961 307.267 145.282C308.13 145.045 308.97 144.756 309.812 144.454C309.951 144.413 309.954 144.134 309.811 144.117C309.22 144.05 308.63 144.015 308.016 144.014C307.597 144.014 307.597 144.014 307.169 144.013C306.881 144.014 306.593 144.015 306.297 144.016C306.01 144.015 305.724 144.014 305.43 144.013C304.205 144.015 303.008 144.027 301.794 144.198C301.038 144.295 300.94 144.308 300.583 144.137C300.473 144.085 300.405 143.974 300.405 143.851C300.405 143.673 300.549 143.527 300.727 143.527C300.78 143.527 300.834 143.527 300.887 143.527C301.07 143.527 301.237 143.424 301.319 143.26C301.328 143.242 301.337 143.224 301.346 143.206C301.411 143.077 301.521 142.976 301.656 142.925C302.478 142.618 303.305 142.375 304.174 142.242C304.263 142.229 304.354 142.244 304.434 142.284C304.446 142.29 304.458 142.296 304.47 142.302C304.67 142.402 304.912 142.323 305.011 142.123C305.062 142.021 305.155 141.943 305.265 141.914C306.782 141.508 308.268 141.346 309.839 141.235C310.595 141.185 310.595 141.185 311.472 141.031C314.382 140.667 318.231 140.674 320.929 142.14C321.221 142.299 321.598 142.166 321.698 141.849C322.086 140.724 322.534 139.632 322.996 138.536C323.088 138.317 323.18 138.098 323.275 137.872C323.911 136.372 324.596 134.914 325.342 133.465C325.617 132.921 325.869 132.378 326.104 131.816C326.446 131 326.446 131 326.886 130.185C327.183 129.531 327.275 129.099 327.25 128.471C327.242 128.278 327.081 128.13 326.888 128.13C326.775 128.13 326.665 128.078 326.595 127.99C326.327 127.654 326.287 127.592 325.925 127.037C325.791 126.834 325.657 126.631 325.519 126.422C324.578 124.812 324.492 123.492 324.805 121.753C324.851 121.496 324.802 121.203 324.586 121.056C324.52 121.011 324.441 120.972 324.317 120.916C324.187 120.858 324.103 120.733 324.103 120.591C324.103 120.423 323.985 120.275 323.821 120.24C323.763 120.228 323.705 120.215 323.647 120.203C323.132 120.06 322.691 119.867 322.23 119.629C322.099 119.562 322.019 119.428 322.019 119.282C322.019 119.112 321.911 118.959 321.751 118.904C321.651 118.869 321.551 118.835 321.45 118.8C320.71 118.471 320.158 118.091 319.57 117.57C319.471 117.482 319.415 117.356 319.415 117.223C319.415 117.033 319.302 116.86 319.127 116.785C319.069 116.76 319.011 116.735 318.952 116.71C318.297 116.343 317.928 115.949 317.446 115.375C317.295 115.198 317.144 115.021 316.989 114.839C316.844 114.66 316.699 114.482 316.55 114.298C316.403 114.12 316.256 113.942 316.104 113.758C315.817 113.327 315.776 113.265 315.77 112.763C315.768 112.585 315.67 112.422 315.511 112.342C315.351 112.262 315.248 112.098 315.248 111.919C315.248 111.886 315.248 111.853 315.248 111.819C315.248 111.579 315.113 111.36 314.898 111.252C314.895 111.251 314.892 111.249 314.888 111.247C314.783 111.195 314.693 111.115 314.633 111.014C313.669 109.409 313.625 107.744 313.902 105.958C313.926 105.801 314.06 105.686 314.219 105.686C314.365 105.686 314.495 105.59 314.535 105.45C314.56 105.359 314.586 105.268 314.613 105.175C314.624 105.136 314.639 105.096 314.658 105.06C315.382 103.621 316.639 102.916 318.121 102.405C318.949 102.225 319.695 101.402 319.333 100.636C319.065 100.069 318.785 99.5074 318.487 98.9501C317.62 97.2234 316.806 94.9816 316.951 92.9535C316.991 92.3971 317.232 91.8711 317.626 91.4761C318.37 90.7294 319.162 90.3764 320.226 90.131C320.503 90.0671 320.697 89.8121 320.671 89.5287C320.497 86.0658 321.839 83.4775 324.023 80.9289C324.487 80.4983 324.593 80.4008 324.978 80.3787C325.239 80.3638 325.477 80.2263 325.594 79.9925C325.64 79.9001 325.707 79.8171 325.79 79.7552C328.868 77.4469 333.405 77.0251 337.123 77.2407C337.765 77.3646 338.325 77.5466 338.946 77.7626C339.317 77.8416 339.688 77.9184 340.06 77.9887C340.169 78.0092 340.248 78.1024 340.248 78.2132C340.248 78.3732 340.408 78.4857 340.558 78.4296C340.596 78.4153 340.634 78.401 340.673 78.3866C340.693 78.3791 340.714 78.3735 340.735 78.3704C341.486 78.2614 341.727 78.4781 342.348 78.9206C342.948 79.3537 343.104 79.4665 343.547 79.5295C343.912 79.5814 344.262 79.3732 344.427 79.0436C344.475 78.9481 344.522 78.8522 344.571 78.7557C344.635 78.6269 344.765 78.5455 344.908 78.5455C345.078 78.5455 345.228 78.4334 345.275 78.2707C345.34 78.0441 345.406 77.8161 345.473 77.5832C346.034 75.8817 346.935 74.3646 347.8 72.8042C347.944 72.5223 348.086 72.2401 348.225 71.9564C348.284 71.8366 348.404 71.7603 348.538 71.7603C348.711 71.7603 348.86 71.6326 348.885 71.4608C348.894 71.3943 348.904 71.3227 348.923 71.1894C349.105 70.4467 349.359 69.9145 349.773 69.3086C349.842 69.2088 349.954 69.1506 350.075 69.1506C350.262 69.1506 350.423 69.0113 350.447 68.8251C350.458 68.7444 350.468 68.6631 350.479 68.5807C350.695 67.7291 351.039 67.2274 351.56 66.5246C352.069 65.8331 352.528 65.1747 352.903 64.4136C352.969 64.2796 353.103 64.1922 353.252 64.1922C353.417 64.1922 353.565 64.0868 353.617 63.9306C353.647 63.8393 353.678 63.7473 353.709 63.6539C354.11 62.7538 354.603 61.9258 355.246 61.1812C355.313 61.1038 355.409 61.0605 355.512 61.0605C355.711 61.0605 355.873 60.8993 355.873 60.7004C355.873 60.6622 355.873 60.6239 355.873 60.5856C355.873 60.4155 356.009 60.2776 356.179 60.2776C356.307 60.2776 356.424 60.1983 356.469 60.0784C356.52 59.9452 356.57 59.811 356.622 59.6741C356.89 59.0327 356.913 58.9779 357.313 58.3742C357.39 58.2592 357.517 58.1898 357.655 58.1898C357.834 58.1898 357.994 58.0746 358.049 57.9045C358.076 57.8204 358.104 57.7355 358.132 57.6496C358.573 56.6736 359.175 55.9199 359.845 55.0908C359.974 54.9283 360.104 54.7658 360.237 54.5983C361.104 53.5143 361.985 52.4441 362.905 51.4046C363.891 50.2875 364.855 49.1609 365.785 47.9957C366.931 46.5819 368.157 45.2559 369.405 43.9326C370.368 42.911 371.303 41.8755 372.193 40.7884C372.304 40.6781 372.38 40.6031 372.457 40.5435C372.934 40.1743 373.478 39.8839 373.743 39.342C373.809 39.2071 373.887 39.0782 373.979 38.9598C374.775 37.9389 375.644 37.1162 376.639 36.2714C377.568 35.4429 378.422 34.5411 379.284 33.6434C379.629 33.3239 379.757 33.2059 379.935 33.1623C380.18 33.102 380.412 32.9821 380.504 32.7463C380.515 32.717 380.529 32.6876 380.545 32.6605C381.015 31.8675 381.654 31.3131 382.338 30.7064C382.479 30.5793 382.62 30.4522 382.766 30.3212C383.175 29.9533 383.587 29.5875 383.998 29.2222C384.28 28.9694 384.28 28.9694 384.567 28.7115C385.565 27.8235 386.587 26.9634 387.612 26.1068C387.973 25.8046 387.973 25.8046 388.342 25.4962C388.824 25.1375 388.922 25.065 389.206 25.0504C389.35 25.043 389.467 24.9318 389.467 24.7876C389.467 24.6435 389.584 24.5247 389.728 24.5247C389.782 24.5247 389.836 24.5247 389.89 24.5247C390.088 24.5247 390.248 24.3661 390.248 24.1681C390.248 24.0643 390.294 23.9631 390.372 23.8951C390.979 23.3693 391.132 23.2529 391.466 23.2272C391.656 23.2126 391.811 23.0676 391.811 22.8774C391.811 22.766 391.865 22.6594 391.956 22.5954C392.448 22.2502 392.938 21.933 393.455 21.6214C393.61 21.5242 393.765 21.427 393.924 21.3268C394.939 20.7062 395.075 20.623 395.666 20.6119C395.838 20.6086 395.978 20.4728 395.978 20.3008C395.978 20.1736 396.055 20.0572 396.173 20.0099C396.764 19.7732 397.354 19.5371 397.947 19.3053C398.576 19.0604 398.576 19.0604 399.119 18.7508C399.576 18.544 399.619 18.5245 400.396 18.5226C400.544 18.5222 400.665 18.4039 400.665 18.2554ZM423.329 81.9442C422.916 81.6917 422.53 82.0499 422.527 82.5342C422.516 84.0132 422.587 85.4719 423.061 86.8965C423.148 87.2444 423.235 87.5924 423.321 87.9404C423.725 89.3422 424.154 90.7348 424.623 92.1159C424.709 92.3797 424.795 92.6434 424.884 92.9152C425.285 94.1922 425.325 94.3195 425.954 95.1897C426.027 95.2903 426.186 95.2407 426.186 95.1166C426.186 95.0457 426.243 94.9866 426.314 94.9866C426.447 94.9866 426.58 94.9866 426.714 94.9866C426.854 94.9866 426.967 95.0979 426.967 95.2375C426.967 95.3833 427.09 95.5008 427.236 95.4917C427.278 95.4891 427.329 95.4859 427.407 95.481C428.924 95.4271 430.016 95.6786 431.394 96.2915C431.711 96.4099 432.028 96.5283 432.354 96.6503C433.916 97.418 434.787 98.5717 435.42 100.109C435.518 100.345 435.584 100.594 435.625 100.846C435.695 101.271 435.756 101.697 435.803 102.125C435.815 102.234 435.863 102.335 435.94 102.413C436.03 102.503 436.082 102.626 436.079 102.754C436.055 104.047 435.879 105.288 435.597 106.518C435.322 107.716 435.826 109.008 437.038 109.214C437.263 109.252 437.494 109.285 437.737 109.318C437.846 109.332 437.946 109.381 438.023 109.459C438.114 109.549 438.236 109.603 438.364 109.605C438.644 109.61 438.923 109.61 439.203 109.606C439.348 109.604 439.467 109.718 439.467 109.863C439.467 110.006 439.582 110.123 439.725 110.123C439.984 110.123 440.244 110.123 440.508 110.123C440.652 110.123 440.769 110.238 440.769 110.382C440.769 110.526 440.886 110.645 441.03 110.645C441.182 110.645 441.336 110.645 441.491 110.645C441.527 110.645 441.56 110.665 441.577 110.697C441.624 110.793 441.763 110.752 441.748 110.646C441.618 109.72 441.394 108.912 440.983 108.022C440.733 107.427 440.556 106.828 440.379 106.208C439.999 104.897 439.521 103.69 438.897 102.473C438.733 102.131 438.696 102.055 438.688 101.793C438.683 101.637 438.562 101.511 438.406 101.511C438.268 101.511 438.148 101.411 438.126 101.275C438.066 100.916 438.006 100.555 437.945 100.189C437.922 100.048 437.802 99.945 437.66 99.945C437.506 99.945 437.376 99.8253 437.367 99.6717C437.356 99.5037 437.346 99.3346 437.335 99.1621C437.187 98.1429 436.782 97.4725 436.215 96.6268C435.764 95.9441 435.363 95.2411 434.959 94.5299C434.143 93.1159 433.256 91.7639 432.332 90.4186C431.964 89.8442 431.921 89.7763 431.737 89.2316C431.688 89.0843 431.552 88.9843 431.396 88.9843C431.241 88.9843 431.101 88.8847 431.052 88.7371C431.008 88.6073 430.983 88.5308 430.931 88.3741C430.893 88.2603 430.832 88.1547 430.753 88.065C430.529 87.8132 430.477 87.7659 430.092 87.4185C429.419 86.7438 428.748 86.0695 428.09 85.3796C427.718 84.9346 427.609 84.8036 427.367 84.7861C427.153 84.7705 426.967 84.6242 426.967 84.4096C426.967 84.331 426.941 84.2526 426.894 84.1898C426.689 83.9179 426.625 83.8445 426.405 83.6718C426.264 83.5614 426.089 83.5039 425.91 83.5039C425.876 83.5039 425.842 83.5039 425.807 83.5039C425.561 83.5039 425.336 83.3663 425.226 83.1455C425.173 83.0398 425.092 82.9482 424.991 82.8859C424.658 82.6791 424.317 82.4839 423.972 82.2969C423.76 82.1805 423.548 82.0642 423.329 81.9442Z" fill="#192D1E"/>
<path d="M339.728 121.866C340.678 122.208 341.4 122.626 342.202 123.236C347.147 126.733 352.797 127.284 358.695 127.314C359.259 127.347 359.259 127.347 359.52 127.608C359.591 127.949 359.655 128.292 359.715 128.635C360.152 130.668 361.019 132.538 362.645 133.871C362.871 134.063 362.871 134.063 363.101 134.259C366.886 137.16 372.419 136.866 376.912 136.357C380.37 135.869 383.714 134.625 386.811 133.032C387.501 132.785 387.745 132.841 388.426 133.088C388.854 133.452 388.854 133.452 389.27 133.915C389.501 134.168 389.501 134.168 389.737 134.426C389.895 134.603 390.053 134.781 390.216 134.964C390.53 135.31 390.844 135.656 391.158 136.002C391.309 136.171 391.461 136.34 391.617 136.515C392.054 136.984 392.513 137.413 392.985 137.848C393.199 138.085 393.413 138.323 393.634 138.568C393.544 139.135 393.544 139.135 393.374 139.612C393.202 139.612 393.03 139.612 392.853 139.612C392.853 139.784 392.853 139.957 392.853 140.134C393.24 140.005 393.24 140.005 393.634 139.873C394.289 139.841 394.933 139.824 395.587 139.824C395.774 139.824 395.96 139.824 396.152 139.824C397.484 139.837 398.724 140.005 400.029 140.276C402.154 140.674 404.372 140.454 406.195 139.218C407.337 138.261 408.187 137.204 408.999 135.959C410.255 136.12 411.245 136.652 412.352 137.231C415.521 138.87 418.481 140.309 422.085 139.253C422.761 139.032 423.412 138.792 424.07 138.519C424.624 138.307 424.624 138.307 425.665 138.307C427.193 142.804 427.826 146.987 427.954 151.739C427.948 154.262 427.948 154.262 428.79 156.575C430.309 157.023 431.322 156.682 432.729 156.135C438.017 154.233 443.098 153.728 448.582 155.009C448.926 155.182 449.27 155.354 449.624 155.531C446.788 156.479 443.952 157.426 441.03 158.402C441.03 158.66 441.03 158.919 441.03 159.185C441.339 159.239 441.648 159.293 441.966 159.349C446.058 160.111 449.651 161.24 452.749 164.143C452.919 164.3 453.09 164.456 453.265 164.617C454.282 165.59 455.089 166.63 455.874 167.797C455.702 167.883 455.53 167.969 455.353 168.058C454.802 167.864 454.261 167.642 453.725 167.408C453.565 167.338 453.406 167.269 453.241 167.198C452.729 166.975 452.218 166.75 451.707 166.525C451.363 166.375 451.018 166.225 450.674 166.075C448.238 165.015 448.238 165.015 447.54 164.665C447.651 164.789 447.761 164.912 447.875 165.039C448.377 165.606 448.87 166.179 449.363 166.753C449.588 167.008 449.588 167.008 449.817 167.268C454.237 172.565 456.228 180.094 456.134 186.848C455.597 186.31 455.465 186.024 455.221 185.323C455.117 185.029 455.117 185.029 455.012 184.728C454.942 184.523 454.872 184.319 454.799 184.108C454.727 183.903 454.655 183.698 454.581 183.487C454.051 181.961 454.051 181.961 454.051 181.367C453.879 181.367 453.707 181.367 453.53 181.367C453.518 181.524 453.505 181.681 453.492 181.843C452.981 187.65 451.29 196.057 446.759 200.157C446.794 199.842 446.828 199.526 446.864 199.201C447.14 196.651 447.382 194.106 447.54 191.545C447.456 191.687 447.371 191.828 447.283 191.974C444.419 196.729 441.302 201.167 437.763 205.439C437.415 205.861 437.073 206.286 436.733 206.714C430.894 214.029 422.766 217.31 414.349 220.796C403.379 225.344 392.215 230.086 382.618 237.179C381.669 237.816 381.033 238.117 379.87 237.903C378.588 237.522 377.41 236.869 376.219 236.269C375.583 235.955 374.947 235.643 374.31 235.331C374.062 235.209 374.062 235.209 373.808 235.085C371.959 234.181 370.086 233.332 368.211 232.485C363.542 230.372 358.894 228.213 354.249 226.048C353.303 225.608 352.357 225.169 351.411 224.73C317.02 208.783 317.02 208.783 310.342 191.005C309.091 187.57 308.011 184.072 306.915 180.584C305.903 186.681 305.639 192.994 306.655 199.113C301.829 193.171 300.341 185.998 301.006 178.469C301.305 176 301.882 173.598 302.488 171.19C298.377 175.419 296.096 180.523 293.634 185.804C293.548 185.804 293.462 185.804 293.374 185.804C293.217 182.404 293.374 179.567 294.676 176.409C294.744 176.238 294.813 176.067 294.883 175.891C296.115 172.88 297.827 170.198 299.604 167.484C300.202 166.567 300.73 165.66 301.186 164.665C297.306 167.264 297.306 167.264 293.634 170.146C293.462 170.06 293.29 169.973 293.113 169.885C294.606 167.442 296.331 165.406 298.322 163.36C298.47 163.206 298.619 163.052 298.772 162.893C300.485 161.119 302.218 159.438 304.154 157.906C305.093 157.148 305.978 156.335 306.866 155.517C307.385 155.055 307.92 154.64 308.478 154.226C306.42 154.39 304.449 154.756 302.435 155.196C302.103 155.266 302.103 155.266 301.764 155.338C301.565 155.381 301.366 155.425 301.161 155.469C300.665 155.531 300.665 155.531 300.145 155.27C305.979 150.744 313.279 149.745 320.48 149.651C321.884 149.616 322.842 149.371 324.103 148.746C324.361 148.66 324.618 148.574 324.884 148.485C325.074 147.969 325.242 147.445 325.405 146.919C325.596 146.493 325.792 146.069 325.991 145.647C326.514 144.516 326.956 143.379 327.374 142.206C330.181 134.527 334.172 127.833 339.728 121.866Z" fill="#A7C93F"/>
<path d="M408.015 25.212C411.291 27.7143 413.053 32.3233 414.878 35.8854C416.398 38.8441 418.018 41.737 419.678 44.6186C419.823 44.8717 419.968 45.1249 420.118 45.3857C422.257 49.1214 424.479 52.799 426.782 56.4361C427.068 56.8886 427.354 57.3415 427.639 57.795C431.009 63.1602 434.497 67.2564 439.926 70.6177C441.447 71.566 442.808 72.6689 444.158 73.8472C444.32 73.9882 444.483 74.1291 444.651 74.2743C447.373 76.8104 449.147 80.1564 450.668 83.5031C450.775 83.7332 450.881 83.9633 450.991 84.2004C452.859 88.5227 453.368 93.2999 453.354 97.9623C453.354 98.56 453.36 99.1574 453.366 99.7551C453.376 101.926 453.214 103.88 452.491 105.947C452.382 106.286 452.274 106.626 452.166 106.966C452.064 107.275 451.962 107.585 451.856 107.904C451.1 110.257 450.62 112.657 450.147 115.08C450.039 115.619 449.93 116.157 449.822 116.695C449.725 117.188 449.725 117.188 449.626 117.69C448.697 117.305 448.203 116.807 447.576 116.026C447.41 115.825 447.244 115.624 447.073 115.417C445.49 113.04 444.665 110.681 444.132 107.89C443.953 106.962 443.756 106.038 443.559 105.114C443.502 104.844 443.502 104.844 443.444 104.568C441.874 97.2403 438.15 90.4099 433.22 84.8079C433.108 84.6796 432.995 84.5512 432.879 84.4189C429.47 80.5439 425.618 76.8383 420.224 76.3947C417.673 76.2822 415.201 76.3087 412.702 76.8598C411.964 77.0124 411.252 77.0664 410.499 77.0767C410.25 77.0841 410.002 77.0915 409.746 77.0991C407.865 76.7953 406.872 75.3366 405.811 73.8961C405.664 73.6995 405.517 73.5029 405.366 73.3004C398.309 63.7767 398.309 63.7767 397.421 59.4164C397.375 59.2697 397.33 59.123 397.283 58.9719C397.025 58.8858 396.767 58.7997 396.501 58.711C398.716 70.9764 398.716 70.9764 406.09 80.5448C407.947 81.6856 409.778 81.9953 411.931 81.557C412.31 81.4627 412.689 81.3672 413.068 81.2706C414.221 81.0548 415.386 81.115 416.553 81.1544C416.563 81.4669 416.573 81.7794 416.583 82.1014C416.776 87.2478 417.734 91.8876 420.393 96.3579C420.764 97.1703 420.753 97.3088 420.46 98.1174C420.119 98.6671 420.119 98.6671 419.694 99.2469C419.542 99.4555 419.39 99.6641 419.233 99.879C419.074 100.094 418.915 100.31 418.751 100.531C418.59 100.751 418.43 100.97 418.265 101.196C417.869 101.737 417.473 102.276 417.074 102.815C416.135 102.607 415.528 102.253 414.73 101.706C410.985 99.2652 406.78 98.2067 402.365 99.0797C400.299 99.7234 398.457 100.77 396.778 102.13C396.241 102.554 396.241 102.554 395.46 102.554C395.01 101.999 395.01 101.999 394.516 101.249C391.491 96.969 386.686 94.8233 381.635 93.9088C378.771 93.4357 375.927 93.5443 373.21 94.6432C372.017 95.0836 372.017 95.0836 371.241 94.7248C370.852 94.1356 370.852 94.1356 370.492 93.3873C368.683 89.8924 366.081 88.363 362.387 87.1567C362.08 87.0547 361.772 86.9528 361.456 86.8478C360.225 86.5475 359.045 86.6798 357.791 86.7615C353.789 86.9862 351.324 86.1857 348.195 83.7017C347.7 83.1211 347.609 82.6919 347.543 81.9373C347.836 81.3837 347.836 81.3837 348.324 80.7792C349.251 79.5779 350.116 78.3536 350.959 77.0919C352.946 74.1208 355.052 71.2626 357.24 68.4383C357.649 67.9103 358.054 67.3804 358.458 66.8489C359.817 65.0614 361.219 63.3143 362.647 61.5816C363.022 61.1195 363.396 60.6574 363.77 60.1952C366.047 57.4108 368.403 54.7111 370.855 52.0812C371.235 51.6716 371.611 51.2591 371.986 50.8452C373.943 48.689 375.984 46.6236 378.052 44.5742C379.125 43.5078 380.191 42.4332 381.256 41.3585C381.667 40.9448 382.078 40.5312 382.489 40.1177C382.769 39.8356 383.049 39.5532 383.329 39.2706C384.894 37.6893 386.471 36.1427 388.168 34.7017C388.441 34.4603 388.714 34.2184 388.986 33.9759C402.617 21.9731 402.617 21.9731 408.015 25.212Z" fill="#CC3332"/>
<path d="M333.854 81.2848C334.166 81.285 334.166 81.285 334.484 81.2853C337.33 81.3526 340.099 82.0537 342.854 82.7201C342.854 82.9785 342.854 83.2368 342.854 83.503C342.606 83.6416 342.358 83.7802 342.103 83.923C341.773 84.1092 341.443 84.2954 341.113 84.4817C340.868 84.6179 340.868 84.6179 340.619 84.7569C338.63 85.849 338.63 85.849 337.386 87.6785C337.644 87.6062 337.901 87.5339 338.167 87.4594C341.83 86.445 341.83 86.445 343.375 86.3737C343.67 86.3542 343.964 86.3347 344.267 86.3146C346.549 86.2273 348.168 86.5245 350.146 87.6785C349.831 88.6264 349.486 88.8344 348.698 89.4238C348.482 89.5863 348.267 89.7488 348.046 89.9162C347.879 90.039 347.713 90.1617 347.542 90.2882C347.713 90.27 347.883 90.2517 348.059 90.2329C349.887 90.05 351.695 89.9795 353.532 89.9783C353.793 89.9752 354.054 89.972 354.323 89.9687C359.763 89.9581 364.026 91.9598 367.854 95.7686C368.332 96.3222 368.332 96.3222 368.636 96.8125C368.457 97.4486 368.457 97.4486 368.115 98.1173C367.939 98.5513 367.765 98.9861 367.594 99.4222C367.802 99.3152 368.009 99.2082 368.223 99.098C368.499 98.9574 368.775 98.8168 369.059 98.6719C369.331 98.5326 369.603 98.3934 369.883 98.2499C372.011 97.2486 373.983 97.2195 376.285 97.2203C376.473 97.22 376.661 97.2197 376.854 97.2194C379.701 97.2255 382.165 97.4245 384.782 98.6393C385.062 98.7587 385.342 98.8781 385.63 99.0012C387.474 99.8462 389.001 100.945 390.511 102.293C390.708 102.466 390.905 102.639 391.108 102.817C392.32 103.946 392.92 104.872 393.375 106.468C394.439 106.29 395.299 105.737 396.224 105.212C397.99 104.236 399.75 103.577 401.709 103.076C401.872 103.03 402.036 102.985 402.205 102.938C406.198 102.034 410.165 103.074 413.623 105.082C415.073 106.023 416.314 107.1 417.556 108.294C418.072 108.826 418.072 108.826 418.636 109.078C418.594 108.762 418.594 108.762 418.551 108.439C418.52 108.16 418.489 107.881 418.457 107.594C418.407 107.181 418.407 107.181 418.356 106.759C418.379 105.775 418.55 105.412 419.157 104.642C419.713 104.145 420.258 103.688 420.849 103.239C421.012 103.115 421.174 102.99 421.342 102.862C421.672 102.613 422.003 102.365 422.335 102.118C422.75 101.81 423.16 101.495 423.569 101.179C425.068 100.104 426.226 99.6941 428.081 99.8167C429.538 100.078 430.771 100.815 431.688 102.009C432.484 103.902 432.005 106.319 431.434 108.222C430.549 109.989 429.482 110.674 427.702 111.362C426.318 111.871 426.318 111.871 425.146 112.732C425.377 112.725 425.607 112.718 425.845 112.711C435.665 112.458 435.665 112.458 439.209 115.08C439.637 115.554 439.637 115.554 439.941 116.01C440.045 116.161 440.149 116.312 440.255 116.468C440.952 117.666 440.916 118.957 440.771 120.3C440.373 121.513 439.742 122.686 438.688 123.431C437.409 123.561 436.657 123.279 435.547 122.66C435.106 122.418 435.106 122.418 434.657 122.171C434.352 121.999 434.046 121.826 433.74 121.654C433.434 121.484 433.128 121.314 432.822 121.145C432.257 120.833 431.692 120.518 431.129 120.202C430.359 119.78 429.579 119.383 428.792 118.995C428.923 119.118 429.054 119.241 429.189 119.368C431.779 121.823 434.053 124.077 435.563 127.346C435.649 127.518 435.735 127.69 435.823 127.868C435.931 129.232 435.931 129.232 435.823 129.956C434.981 130.891 434.023 130.983 432.809 131.053C428.688 131.134 426.296 129.961 423.323 127.107C422.615 126.404 421.913 125.696 421.224 124.975C421.067 124.813 420.911 124.65 420.75 124.482C420.612 124.336 420.474 124.19 420.331 124.04C419.918 123.629 419.918 123.629 419.157 123.431C419.289 123.65 419.421 123.868 419.557 124.093C423.448 130.632 423.448 130.632 423.063 134.131C422.715 134.925 422.462 135.329 421.714 135.772C419.057 136.444 416.118 136.145 413.688 134.914C413.479 134.809 413.27 134.705 413.054 134.597C410.44 133.151 408.216 131.034 406.136 128.912C406.145 129.214 406.154 129.516 406.163 129.827C406.171 130.229 406.178 130.631 406.185 131.032C406.194 131.33 406.194 131.33 406.204 131.634C406.224 133.116 405.992 134.196 404.973 135.343C403.091 136.839 400.886 136.632 398.584 136.48C395.504 136.025 392.658 133.939 390.771 131.522C389.846 130.051 388.976 128.475 388.427 126.824C388.358 127.088 388.288 127.352 388.216 127.623C388.113 127.966 388.01 128.308 387.907 128.651C387.815 128.974 387.724 129.297 387.63 129.629C386.928 130.81 386.048 130.937 384.782 131.261C383.366 131.573 381.945 131.841 380.517 132.092C380.321 132.127 380.124 132.162 379.921 132.198C374.91 133.077 369.887 133.56 365.25 131C364.241 130.126 363.532 129.244 363.365 127.882C363.276 125.265 364.727 123.158 365.966 120.936C366.098 120.698 366.23 120.459 366.366 120.214C366.688 119.633 367.01 119.053 367.334 118.473C364.552 119.292 362.838 120.126 361.05 122.422C360.232 123.241 359.519 123.677 358.336 123.713C357.528 123.67 356.729 123.598 355.924 123.513C355.634 123.485 355.345 123.458 355.046 123.429C354.463 123.373 353.881 123.314 353.299 123.253C352.598 123.182 351.898 123.119 351.197 123.062C347.03 122.696 342.838 121.148 339.939 118.007C338.277 115.963 336.344 113.109 336.344 110.383C336.172 110.383 336 110.383 335.823 110.383C335.747 112.557 335.736 114.354 336.604 116.385C336.798 117.964 336.434 118.767 335.563 120.039C334.782 120.561 334.782 120.561 333.942 120.518C332.883 120.283 331.979 119.913 331.022 119.419C330.753 119.282 330.753 119.282 330.479 119.142C326.04 116.804 320.801 113.243 318.636 108.556C318.538 107.692 318.538 107.692 318.636 106.99C319.32 106.305 319.617 106.39 320.573 106.387C323.869 106.438 327.215 107.037 330.354 108.034C329.756 106.833 328.925 106.178 327.864 105.408C324.331 102.719 321.748 99.0031 320.459 94.7247C320.459 94.3803 320.459 94.0358 320.459 93.6809C321.204 93.7692 321.476 93.9166 322.005 94.4668C322.182 94.6973 322.359 94.9277 322.542 95.1651C322.744 95.4218 322.945 95.6785 323.153 95.9429C323.263 96.0823 323.372 96.2217 323.485 96.3654C324.273 97.3473 325.107 98.292 325.931 99.2435C326.492 99.8945 327.013 100.532 327.49 101.249C327.748 101.335 328.006 101.421 328.271 101.51C327.458 99.527 326.617 97.5582 325.751 95.5979C324.609 93.0019 324.383 89.8572 325.309 87.124C326.466 84.4865 328.144 83.0487 330.682 81.771C331.794 81.365 332.682 81.2757 333.854 81.2848Z" fill="#FDFDFD"/>
<path d="M388.428 145.093C388.32 145.19 388.211 145.287 388.099 145.387C385.223 147.968 382.995 150.396 381.397 153.966C381.3 154.162 381.204 154.359 381.104 154.561C380.799 155.511 380.811 156.42 380.827 157.407C380.828 157.596 380.828 157.785 380.828 157.98C380.819 159.008 380.819 159.008 381.137 159.968C381.171 160.577 381.197 161.186 381.218 161.795C381.356 164.41 382.143 166.273 383.741 168.319C385.257 168.228 386.049 167.807 387.094 166.753C387.228 166.623 387.363 166.493 387.501 166.359C387.773 166.094 388.043 165.828 388.312 165.56C388.641 165.234 388.98 164.918 389.319 164.603C391.561 162.488 393.193 159.904 394.825 157.309C397.372 153.284 400.596 149.741 405.421 148.648C405.904 148.568 405.904 148.568 406.397 148.485C405.043 150.445 403.41 152.051 401.71 153.705C401.945 153.6 401.945 153.6 402.185 153.494C404.886 152.301 407.587 151.112 410.336 150.035C410.525 149.96 410.714 149.885 410.909 149.808C414.021 148.607 416.579 148.858 419.678 150.051C419.936 150.223 420.194 150.396 420.46 150.573C420.46 150.745 420.46 150.918 420.46 151.095C420.259 151.111 420.058 151.127 419.851 151.143C419.59 151.165 419.329 151.187 419.06 151.209C418.67 151.241 418.67 151.241 418.273 151.273C417.6 151.317 417.6 151.317 417.074 151.617C417.263 151.709 417.452 151.801 417.646 151.895C419.225 152.703 420.566 153.459 421.501 155.01C421.729 155.776 421.729 155.776 421.762 156.314C421.563 156.244 421.364 156.174 421.16 156.102C419.05 155.422 417.222 154.9 414.991 155.01C415.071 155.232 415.071 155.232 415.153 155.459C415.587 156.708 415.893 157.87 416.033 159.185C415.144 158.888 414.973 158.646 414.405 157.929C413.353 156.706 412.51 155.866 410.854 155.731C410.146 155.728 409.447 155.746 408.741 155.792C409.171 156.395 409.6 156.998 410.043 157.619C409.012 157.619 407.98 157.619 406.918 157.619C407.088 157.759 407.258 157.898 407.433 158.041C409.759 160.028 411.331 162.221 411.898 165.269C411.942 165.499 411.986 165.73 412.031 165.967C412.062 166.14 412.094 166.314 412.126 166.492C412.588 166.411 413.049 166.33 413.51 166.248C413.767 166.202 414.023 166.157 414.288 166.11C415.012 165.981 415.012 165.981 415.772 165.709C416.177 165.688 416.582 165.681 416.988 165.684C417.22 165.685 417.453 165.686 417.692 165.686C418.055 165.69 418.055 165.69 418.425 165.693C418.67 165.694 418.915 165.695 419.167 165.697C419.772 165.7 420.376 165.704 420.98 165.709C420.895 165.968 420.809 166.226 420.72 166.492C420.271 166.712 420.271 166.712 419.681 166.886C419.462 166.954 419.243 167.021 419.017 167.091C418.779 167.163 418.541 167.234 418.295 167.308C414.64 168.467 411.204 170.024 407.813 171.81C407.653 171.893 407.494 171.977 407.329 172.064C406.558 172.482 405.96 172.907 405.355 173.538C405.184 173.538 405.012 173.538 404.835 173.538C404.769 173.685 404.703 173.831 404.635 173.982C404.002 175.165 403.078 176.158 402.23 177.192C402.041 177.436 402.041 177.436 401.847 177.685C399.615 180.477 396.349 182.567 393.376 184.499C393.525 185.541 393.879 186.216 394.418 187.109C394.418 187.367 394.418 187.626 394.418 187.892C394.209 187.851 394 187.81 393.784 187.768C392.484 187.576 391.185 187.54 389.872 187.496C388.753 187.446 387.897 187.324 386.866 186.848C385.031 186.585 383.821 187.218 382.192 188.046C380.883 188.652 379.711 188.786 378.272 188.675C377.618 188.391 377.022 188.101 376.4 187.761C374.208 186.671 372.49 186.411 370.121 187.204C369.09 187.573 368.081 187.984 367.074 188.414C367.13 188.132 367.186 187.851 367.243 187.561C367.412 186.635 367.412 186.635 367.084 186.036C366.963 185.895 366.841 185.754 366.716 185.608C365.881 184.608 365.682 183.784 365.697 182.461C365.885 181.034 366.737 179.872 367.595 178.758C367.406 178.862 367.216 178.966 367.021 179.073C365.164 180.054 363.402 180.69 361.345 181.107C361.256 181.89 361.256 181.89 361.737 182.31C361.914 182.457 362.091 182.603 362.273 182.754C362.461 182.913 362.649 183.072 362.843 183.235C363.036 183.394 363.23 183.553 363.428 183.716C363.777 184.003 364.124 184.291 364.47 184.581C364.62 184.704 364.771 184.826 364.926 184.953C365.251 185.282 365.251 185.282 365.251 185.804C363.373 186 362.285 185.686 360.824 184.499C358.385 182.416 356.247 180.132 354.232 177.632C350.096 172.546 345.63 169.32 339.73 166.492C339.73 166.32 339.73 166.148 339.73 165.97C340.934 165.97 342.137 165.97 343.376 165.97C343.719 165.21 344.061 164.448 344.402 163.687C344.499 163.472 344.596 163.256 344.696 163.034C344.789 162.826 344.882 162.617 344.978 162.402C345.107 162.115 345.107 162.115 345.239 161.823C345.451 161.295 345.597 160.783 345.72 160.229C345.406 160.156 345.406 160.156 345.085 160.082C343.809 159.566 342.865 158.756 341.814 157.88C341.56 157.68 341.306 157.479 341.044 157.273C340.203 156.569 339.558 155.769 338.9 154.895C338.653 154.573 338.406 154.251 338.159 153.929C338.033 153.764 337.907 153.599 337.777 153.429C337.381 152.915 336.979 152.406 336.574 151.898C336.377 151.651 336.377 151.651 336.177 151.399C335.925 151.083 335.672 150.766 335.418 150.451C334.9 149.796 334.528 149.285 334.262 148.485C335.21 148.631 335.862 148.869 336.659 149.4C336.855 149.528 337.05 149.657 337.252 149.79C337.452 149.924 337.652 150.059 337.859 150.198C338.064 150.334 338.269 150.469 338.481 150.609C338.985 150.943 339.489 151.279 339.991 151.617C339.916 151.378 339.84 151.139 339.763 150.893C339.666 150.583 339.57 150.273 339.47 149.953C339.373 149.644 339.277 149.336 339.177 149.017C338.949 148.224 338.949 148.224 338.949 147.702C340.013 148.131 340.755 148.895 341.57 149.676C342.867 150.899 344.191 152.056 345.581 153.174C346.33 153.776 347.067 154.392 347.803 155.01C347.709 154.736 347.615 154.463 347.519 154.181C347.396 153.821 347.274 153.461 347.152 153.101C347.09 152.921 347.028 152.741 346.964 152.555C346.701 151.776 346.501 151.14 346.501 150.312C347.239 150.658 347.857 151.047 348.494 151.554C348.763 151.765 348.763 151.765 349.036 151.98C349.226 152.129 349.415 152.279 349.61 152.432C352.64 154.783 355.868 156.634 359.262 158.402C359.348 158.316 359.434 158.23 359.522 158.141C359.356 157.959 359.19 157.777 359.019 157.589C358.803 157.351 358.588 157.114 358.367 156.869C358.152 156.633 357.938 156.397 357.717 156.153C357.178 155.532 357.178 155.532 356.918 155.01C359.755 154.731 362.28 156.049 364.481 157.748C365.95 158.996 367.341 160.326 368.735 161.657C369.38 162.266 370.048 162.845 370.719 163.424C371.268 163.906 371.803 164.401 372.338 164.898C374.986 167.532 374.986 167.532 378.012 169.624C378.024 169.416 378.037 169.208 378.05 168.994C378.08 168.579 378.08 168.579 378.109 168.156C378.128 167.883 378.146 167.611 378.164 167.33C378.272 166.492 378.272 166.492 378.534 165.72C379.264 163.485 379.033 161.238 378.061 159.136C377.003 157.24 375.638 155.748 374.105 154.227C373.894 154.014 373.682 153.802 373.465 153.583C373.078 153.197 372.692 152.811 372.304 152.426C371.757 151.874 371.225 151.312 370.704 150.736C370.482 150.491 370.482 150.491 370.255 150.241C369.939 149.79 369.939 149.79 369.939 149.007C371.035 149.141 371.688 149.815 372.478 150.524C374.414 152.218 376.463 153.745 378.533 155.271C378.544 155.119 378.555 154.967 378.567 154.811C378.827 151.939 380.089 149.764 382.178 147.789C383.654 146.639 386.563 144.47 388.428 145.093Z" fill="#192D1E"/>
<path d="M330.598 162.789C333.241 164.867 335.297 167.614 336.083 170.928C336.166 171.808 336.159 172.672 336.132 173.554C336.127 173.893 336.127 173.893 336.121 174.239C336.112 174.788 336.098 175.337 336.083 175.887C335.277 175.13 334.846 174.272 334.358 173.293C332.856 170.384 330.727 166.597 327.49 165.448C326.567 165.274 326.567 165.274 325.667 165.448C323.141 167.39 322.213 171.041 321.76 174.06C321.137 181.829 324.241 188.369 329.152 194.233C331.134 196.566 333.203 198.681 335.596 200.597C336.359 201.213 337.099 201.85 337.841 202.489C341.366 205.417 345.277 207.513 349.365 209.552C349.577 209.658 349.788 209.763 350.007 209.872C357.803 213.733 366.698 215.525 375.406 215.032C375.819 214.618 375.773 214.146 375.845 213.574C375.877 213.331 375.909 213.089 375.942 212.838C376.008 212.324 376.073 211.809 376.137 211.295C376.186 210.93 376.186 210.93 376.235 210.557C376.264 210.333 376.292 210.109 376.321 209.879C376.448 209.291 376.448 209.291 376.969 208.508C377.227 208.508 377.484 208.508 377.75 208.508C377.886 208.996 378.014 209.485 378.141 209.976C378.213 210.248 378.286 210.521 378.36 210.801C378.677 212.357 378.561 213.975 378.531 215.554C388.323 215.445 388.323 215.445 398.063 214.51C398.31 214.476 398.558 214.441 398.813 214.405C404.062 213.629 409.24 212.006 413.948 209.552C414.273 209.389 414.598 209.227 414.923 209.065C417.945 207.535 420.736 205.67 423.205 203.335C423.583 203.027 423.583 203.027 424.104 203.027C424.104 202.855 424.104 202.683 424.104 202.506C424.527 202.154 424.95 201.802 425.374 201.45C426.469 200.44 427.349 199.236 428.271 198.069C428.443 197.862 428.615 197.655 428.792 197.441C431.219 194.498 433.219 191.337 434.81 187.869C435.025 187.406 435.252 186.949 435.481 186.493C437.101 182.971 438.724 176.613 437.396 172.824C436.191 171.104 434.693 170.029 432.698 169.362C429.763 169.183 427.954 169.251 425.683 171.238C425.328 171.567 424.975 171.898 424.625 172.233C424.367 172.147 424.109 172.061 423.844 171.972C423.878 171.824 423.913 171.675 423.949 171.522C424.231 170.283 424.464 169.058 424.625 167.796C424.424 167.784 424.224 167.771 424.017 167.758C423.756 167.738 423.494 167.719 423.225 167.699C422.836 167.671 422.836 167.671 422.438 167.644C421.76 167.536 421.76 167.536 421.24 167.014C421.63 166.622 422.007 166.67 422.551 166.613C422.761 166.59 422.972 166.568 423.189 166.544C423.411 166.521 423.632 166.499 423.86 166.475C424.082 166.452 424.305 166.428 424.534 166.403C425.085 166.345 425.636 166.288 426.188 166.231C425.93 165.8 425.672 165.369 425.406 164.926C425.614 164.9 425.823 164.875 426.037 164.848C427.533 164.644 428.895 164.398 430.305 163.849C433.426 162.736 436.741 163.197 439.697 164.551C441.337 165.403 442.603 166.485 443.896 167.796C444.062 167.957 444.228 168.117 444.398 168.283C445.413 169.338 446.098 170.497 446.76 171.793C446.843 171.952 446.925 172.112 447.009 172.276C447.574 173.44 447.574 173.44 447.281 174.321C447.06 174.103 446.839 173.885 446.612 173.661C444.289 171.413 441.883 169.457 438.948 168.057C439.105 168.322 439.262 168.586 439.424 168.858C441.864 173.163 441.925 178.166 440.73 182.876C438.78 189.826 435.437 196.119 430.446 201.352C430.12 201.695 429.799 202.042 429.478 202.39C422.042 210.219 410.898 214.959 400.667 217.642C400.449 217.699 400.232 217.756 400.008 217.815C395.517 218.984 391.177 219.298 386.555 219.273C386.3 219.272 386.044 219.271 385.78 219.271C381.771 219.258 377.768 219.16 373.762 218.996C373.522 218.986 373.281 218.977 373.033 218.968C369.943 218.847 366.977 218.533 363.948 217.903C363.505 217.811 363.505 217.811 363.053 217.718C357.359 216.498 351.995 215.001 346.76 212.422C346.498 212.293 346.235 212.164 345.965 212.031C338.304 208.231 331.146 203.165 325.667 196.503C325.472 196.268 325.472 196.268 325.274 196.028C321.849 191.835 319.924 188.062 319.156 182.672C319.13 182.498 319.104 182.325 319.077 182.146C318.831 180.297 318.829 178.433 318.819 176.57C318.816 176.182 318.811 175.795 318.803 175.407C318.735 172.006 318.891 168.389 321.24 165.709C319.344 166.152 318.035 166.805 316.552 168.057C316.332 168.214 316.112 168.37 315.885 168.53C315.074 169.259 314.47 170.093 313.831 170.973C313.698 171.13 313.564 171.288 313.427 171.45C313.255 171.45 313.083 171.45 312.906 171.45C313.038 170.296 313.278 169.578 313.964 168.645C314.126 168.423 314.288 168.202 314.455 167.974C315.31 166.856 316.182 165.754 317.073 164.665C315.573 165.107 314.089 165.568 312.622 166.112C312.125 166.231 312.125 166.231 311.344 165.97C313.617 162.977 316.791 161.348 320.445 160.591C324.224 160.106 327.403 160.578 330.598 162.789Z" fill="#192D1E"/>
<path d="M461.326 108.198C461.554 108.2 461.781 108.201 462.016 108.203C465.758 108.284 465.758 108.284 467.071 109.6C466.831 109.632 466.831 109.632 466.586 109.664C465.858 109.76 465.13 109.86 464.402 109.959C464.15 109.992 463.898 110.025 463.638 110.059C463.395 110.093 463.151 110.126 462.901 110.161C462.677 110.191 462.453 110.221 462.223 110.252C461.596 110.385 461.118 110.592 460.561 110.905C460.561 111.25 460.561 111.594 460.561 111.949C460.807 112.047 461.052 112.145 461.306 112.246C462.187 112.598 463.068 112.952 463.948 113.306C464.406 113.49 464.864 113.672 465.322 113.854C472.131 116.611 476.851 121.44 479.832 128.129C480.14 129.197 480.111 130.152 480.092 131.261C478.115 130.338 476.761 129.071 475.275 127.493C473.777 125.91 472.332 124.554 470.457 123.432C470.699 124.494 471.132 125.444 471.58 126.433C473.871 131.602 474.85 137.049 472.801 142.483C471.861 144.655 470.649 146.651 469.155 148.485C468.187 148.162 468.06 147.757 467.617 146.876C467.528 146.691 467.439 146.506 467.348 146.316C467.256 146.126 467.164 145.937 467.069 145.742C466.078 143.668 465.396 141.573 464.874 139.335C464.201 136.501 464.201 136.501 462.384 134.393C462.179 136.114 462.089 137.82 462.048 139.552C461.884 146.318 461.884 146.318 460.561 148.746C457.632 148.257 454.738 144.457 453.107 142.189C450.275 137.922 447.113 131.808 447.54 126.563C447.368 126.563 447.196 126.563 447.019 126.563C447.003 126.833 446.987 127.102 446.971 127.379C446.767 129.093 446.066 130.702 445.457 132.305C445.113 132.219 444.769 132.133 444.415 132.044C443.99 130.234 443.802 128.519 443.813 126.661C443.814 126.413 443.814 126.165 443.815 125.91C443.853 123.282 444.142 120.644 445.196 118.212C446.065 118.502 446.208 118.691 446.759 119.387C449.237 122.271 452.258 123.859 455.613 125.52C455.525 125.312 455.437 125.104 455.347 124.89C455.23 124.613 455.114 124.337 454.995 124.052C454.88 123.779 454.765 123.507 454.647 123.226C454.481 122.811 454.481 122.811 454.311 122.388C454.162 122.026 454.162 122.026 454.011 121.656C453.715 120.538 453.724 119.494 453.741 118.343C453.744 118.113 453.746 117.883 453.748 117.647C453.833 111.409 453.833 111.409 455.515 109.682C457.223 108.371 459.24 108.164 461.326 108.198Z" fill="#FCFCFC"/>
<path d="M350.716 161.959C352.485 162.19 354.189 162.796 355.877 163.36C355.76 164.046 355.631 164.634 355.34 165.268C354.864 166.636 354.922 167.828 355.503 169.134C356.455 170.844 357.931 171.908 359.783 172.494C361.171 172.689 362.268 172.52 363.429 171.711C364.859 170.281 365.365 168.701 365.773 166.753C366.818 166.826 367.262 166.95 368.068 167.65C368.988 168.73 369.018 169.496 369.003 170.889C368.736 172.969 367.55 174.903 366.015 176.304C363.861 177.869 361.349 178.295 358.741 177.974C357.939 177.607 357.473 177.087 356.919 176.408C356.661 176.1 356.661 176.1 356.399 175.785C356.007 175.305 355.617 174.824 355.23 174.341C353.329 172.01 351.56 169.965 348.846 168.579C347.58 167.87 347.58 167.87 347.283 167.275C347.145 165.881 347.105 164.749 347.755 163.49C347.943 163.275 348.131 163.06 348.325 162.838C348.505 162.628 348.505 162.628 348.689 162.413C349.31 161.88 349.928 161.936 350.716 161.959Z" fill="#E0E391"/>
<path d="M381.395 176.409C382.668 177.006 383.673 177.909 384.699 178.856C385.376 179.476 385.376 179.476 386.294 179.541C387.662 179.541 388.655 180.302 389.728 181.107C390.519 181.994 390.741 182.459 390.9 183.635C390.77 184.499 390.77 184.499 390.395 184.972C389.427 185.422 388.43 185.614 387.384 185.804C387.384 185.021 387.384 185.021 387.775 184.581C387.904 184.468 388.033 184.355 388.165 184.238C386.034 184.037 384.645 184.269 382.82 185.411C381.321 186.327 380.003 186.576 378.27 186.326C377.274 185.963 376.348 185.501 375.405 185.021C373.801 184.485 372.526 184.742 370.978 185.282C370.18 185.396 370.18 185.396 369.415 185.282C368.641 184.692 368.206 184.28 367.918 183.341C368.236 182.251 369.059 181.751 369.936 181.107C370.17 180.921 370.403 180.735 370.643 180.543C372.518 179.143 373.86 178.721 376.186 179.019C376.256 178.861 376.326 178.703 376.398 178.541C377.465 176.587 379.32 176.096 381.395 176.409Z" fill="#79971E"/>
<path d="M404.541 159.136C406.469 159.87 407.729 161.11 408.723 162.912C409.329 164.461 409.199 165.864 408.706 167.424C408.144 168.457 407.539 168.868 406.543 169.411C403.791 171.049 401.724 173.297 399.838 175.871C399.124 176.682 398.442 177.113 397.383 177.332C396.026 177.376 395.121 177.297 394.043 176.425C392.416 174.781 391.793 172.673 391.699 170.406C391.708 168.946 391.708 168.946 392.529 168.123C393.376 167.797 393.376 167.797 394.417 167.797C394.44 167.948 394.462 168.099 394.485 168.255C394.759 169.777 395.147 170.615 396.24 171.711C397.156 172.17 398.105 172.112 399.105 171.972C400.815 171.281 402.218 169.941 403.02 168.284C403.884 165.974 403.642 164.047 402.751 161.794C402.649 161.531 402.547 161.267 402.441 160.995C402.372 160.828 402.302 160.661 402.23 160.49C403.547 159.201 403.547 159.201 404.541 159.136Z" fill="#DFE291"/>
<path d="M380.613 169.362C381.366 169.67 381.685 169.921 382.208 170.569C383.146 171.345 383.639 171.343 384.821 171.288C385.931 171.14 386.993 170.861 388.069 170.552C388.272 170.504 388.476 170.456 388.686 170.406C389.109 170.829 388.988 171.338 389.012 171.923C389.24 174.586 390.315 176.98 392.332 178.757C392.928 179.167 393.503 179.481 394.155 179.801C393.983 180.146 393.811 180.49 393.634 180.845C392.668 180.702 392.354 180.376 391.779 179.605C390.433 177.999 388.739 177.379 386.798 176.718C385.57 176.298 384.545 175.713 383.445 175.038C382.254 174.325 381.259 173.771 379.838 173.922C378.527 174.264 377.523 174.73 376.674 175.805C375.594 176.676 374.604 176.526 373.249 176.573C371.745 176.723 370.496 177.306 369.155 177.974C368.954 178.074 368.753 178.174 368.547 178.277C368.404 178.349 368.261 178.422 368.113 178.496C368.214 178.367 368.315 178.237 368.418 178.104C370.188 175.791 371.03 173.732 371.759 170.928C372.128 170.965 372.497 171.004 372.866 171.042C373.174 171.074 373.174 171.074 373.488 171.107C374.058 171.183 374.588 171.31 375.145 171.45C376.877 171.6 378.312 171.283 379.832 170.406C380.295 169.875 380.295 169.875 380.613 169.362Z" fill="#A7C93F"/>
<path d="M364.207 219.991C365.909 219.917 367.376 220.188 369.025 220.594C369.54 220.714 370.055 220.834 370.57 220.953C371.237 221.109 371.904 221.266 372.569 221.434C377.473 222.671 382.774 222.323 387.731 221.576C389.545 221.303 391.276 221.2 393.113 221.295C393.113 221.468 393.113 221.64 393.113 221.817C392.414 222.149 391.714 222.481 391.014 222.812C390.72 222.952 390.72 222.952 390.42 223.094C386.415 224.988 383.05 225.833 378.628 225.83C378.113 225.83 378.113 225.83 377.588 225.831C376.041 225.813 374.781 225.758 373.322 225.21C373.019 225.11 372.716 225.011 372.404 224.908C370.428 224.23 368.634 223.417 366.86 222.307C366.596 222.142 366.596 222.142 366.327 221.975C365.448 221.405 364.77 220.9 364.207 219.991Z" fill="#192D1E"/>
<path d="M324.887 156.053C329.818 155.89 332.931 157.914 336.468 161.158C336.665 161.344 336.665 161.344 336.866 161.534C337.012 161.668 337.158 161.802 337.308 161.94C337.647 162.316 337.647 162.316 337.647 162.838C336.378 162.699 335.507 162.325 334.408 161.68C334.252 161.589 334.097 161.498 333.936 161.405C332.555 160.587 331.233 159.685 329.907 158.78C328.72 157.98 327.534 157.337 326.189 156.836C325.926 156.728 325.662 156.621 325.391 156.51C325.225 156.445 325.058 156.381 324.887 156.314C324.887 156.228 324.887 156.142 324.887 156.053Z" fill="#0F1106"/>
<path d="M360.043 135.437C363.858 136.854 366.614 139.918 368.376 143.527C368.29 143.699 368.204 143.871 368.116 144.049C367.671 143.714 367.237 143.365 366.814 143.005C366.814 142.832 366.814 142.66 366.814 142.483C366.642 142.483 366.47 142.483 366.293 142.483C366.293 142.31 366.293 142.138 366.293 141.961C366.121 141.961 365.949 141.961 365.772 141.961C365.772 141.789 365.772 141.616 365.772 141.439C365.6 141.439 365.428 141.439 365.251 141.439C364.866 141.046 364.866 141.046 364.421 140.509C363.808 139.783 363.185 139.097 362.501 138.438C361.565 137.519 360.799 136.505 360.043 135.437Z" fill="#121406"/>
<path d="M390.43 141.684C390.891 141.687 390.891 141.687 391.361 141.691C391.596 141.694 391.832 141.697 392.074 141.7C392.074 141.872 392.074 142.044 392.074 142.222C391.131 142.571 390.187 142.919 389.242 143.266C388.973 143.365 388.704 143.465 388.427 143.567C388.171 143.662 387.914 143.756 387.649 143.853C387.412 143.94 387.175 144.028 386.93 144.118C386.345 144.31 386.345 144.31 385.824 144.31C385.925 143.669 386.005 143.341 386.481 142.888C386.72 142.728 386.72 142.728 386.964 142.564C387.121 142.456 387.279 142.347 387.442 142.235C388.441 141.647 389.298 141.672 390.43 141.684Z" fill="#141707"/>
<path d="M338.758 163.837C340.7 164.523 340.7 164.523 341.031 165.188C336.28 164.891 336.28 164.891 334.26 164.405C334.174 164.232 334.089 164.06 334 163.883C335.359 163.202 337.333 163.477 338.758 163.837Z" fill="#161A07"/>
<path d="M327.913 154.21C328.189 154.211 328.189 154.211 328.47 154.213C328.925 154.216 329.379 154.221 329.833 154.226C329.919 154.484 330.005 154.743 330.094 155.009C328.289 155.009 326.484 155.009 324.625 155.009C325.79 154.231 326.544 154.193 327.913 154.21Z" fill="#0B0C05"/>
<path d="M338.947 164.144C339.559 164.3 340.167 164.475 340.77 164.665C340.855 164.838 340.941 165.01 341.03 165.187C339.913 165.101 338.796 165.015 337.645 164.926C337.645 164.84 337.645 164.754 337.645 164.665C338.074 164.665 338.504 164.665 338.947 164.665C338.947 164.493 338.947 164.321 338.947 164.144Z" fill="#2D360C"/>
<path d="M396.5 58.7109C396.844 58.7971 397.187 58.8832 397.542 58.9719C397.542 59.3164 397.542 59.6609 397.542 60.0158C397.37 60.0158 397.198 60.0158 397.021 60.0158C396.935 60.2741 396.849 60.5325 396.76 60.7987C396.674 60.1097 396.589 59.4208 396.5 58.7109Z" fill="#260B06"/>
</g>
<path d="M675.6 312.2C667.6 312.2 661.333 310.066 656.8 305.8C652.267 301.267 650 294.866 650 286.6V255.4H551.2C542.933 255.4 536.267 253.666 531.2 250.2C526.4 246.733 524 241.266 524 233.8C524 229.533 525.067 224.866 527.2 219.8C529.6 214.733 533.733 208.066 539.6 199.8L649.2 40.9998C652.933 35.3998 657.067 31.1331 661.6 28.1998C666.133 25.2665 671.333 23.7998 677.2 23.7998C684.133 23.7998 689.867 25.9331 694.4 30.1998C698.933 34.1998 701.2 40.5998 701.2 49.3998V213H720.8C728.533 213 734.267 214.866 738 218.6C742 222.066 744 227.266 744 234.2C744 241.133 742 246.466 738 250.2C734.267 253.666 728.533 255.4 720.8 255.4H701.2V286.6C701.2 294.866 698.933 301.267 694.4 305.8C689.867 310.066 683.6 312.2 675.6 312.2ZM650 213V88.1998H661.6L567.2 226.6V213H650Z" fill="#CC3332"/>
<defs>
<clipPath id="clip0_8031_50359">
<rect width="200" height="226" fill="white" transform="translate(284 18)"/>
</clipPath>
</defs>
</svg>
