<svg width="366" height="66" viewBox="0 0 366 66" fill="none" xmlns="http://www.w3.org/2000/svg">
<path d="M361.661 20.2426C360.627 20.8084 359.695 21.564 359.37 21.4744C359.046 21.3849 358.98 20.7765 358.98 20.7765C358.847 18.8145 356.516 14.6421 353.23 13.1639C349.945 11.6854 349.535 11.3681 349.271 10.8343C349.007 10.3004 349.915 9.65192 350.481 9.13167C351.047 8.61142 350.796 7.76414 350.724 7.61292C350.652 7.46171 350.678 7.2733 350.68 6.8017C350.683 6.33011 349.643 6.75208 349.105 7.00237C348.567 7.25267 348.042 7.44891 347.503 7.39159C346.963 7.33426 345.731 7.45485 345.177 7.66265C344.624 7.87028 344.05 7.80934 343.44 7.51838C342.831 7.22742 343.048 6.20503 343.114 5.64516C343.18 5.08529 343.456 4.60883 343.816 4.36031C344.176 4.11178 344.583 3.55336 343.505 3.17908C342.427 2.80393 341.918 4.00084 341.839 4.48501C341.761 4.96919 341.85 6.37947 341.775 6.8294C341.701 7.27933 341.412 6.46267 341.23 5.93039C341.048 5.39811 341.086 4.97847 341.162 4.44717C341.238 3.91569 341.137 2.68813 340.115 2.9413C339.094 3.19446 339.856 4.93716 340.148 5.4596C340.44 5.9829 340.509 6.42763 340.192 6.2708C339.875 6.11397 338.299 4.96832 338.299 4.96832C337.758 4.34287 337.266 3.1975 337.266 3.1975C337.109 2.68878 336.669 1.81489 337.245 1.66471C337.82 1.51454 337.602 0.800747 337.436 0.310959C337.27 -0.178835 336.266 -0.223835 335.913 1.17417C335.56 2.57218 336.401 4.34942 336.939 5.05642C337.478 5.76324 336.962 5.81085 336.425 5.54138C335.887 5.2719 335.052 4.15723 334.647 3.46501C334.243 2.77278 334.271 2.06443 334.271 2.06443C334.247 1.39223 334.076 1.19892 333.603 1.09768C333.41 1.05678 332.699 1.14487 332.888 2.25851C333.076 3.37215 334.44 5.16526 335.068 6.06578C335.694 6.96649 334.686 6.64672 333.681 6.29392C332.675 5.94026 332.644 5.72537 332.458 5.35688C332.272 4.9884 331.201 3.58971 330.922 3.19045C330.644 2.79206 330.861 2.54787 330.669 1.85749C330.476 1.16709 329.267 1.44112 329.412 2.52346C329.557 3.60492 330.786 4.99357 331.649 5.91968C332.512 6.84578 332.064 6.6403 331.418 6.55788C330.772 6.47546 329.274 5.49514 328.752 4.83167C328.229 4.16734 327.824 3.03758 327.505 2.31367C327.187 1.58977 326.429 1.85714 326.375 2.62329C326.321 3.3903 327.267 4.75549 328.56 6.05484C329.854 7.35505 330.505 7.58147 332.351 7.97621C334.197 8.37181 333.366 8.61771 332.22 9.27471C331.074 9.93171 330.599 9.52561 330.113 9.22103C329.627 8.91628 328.787 9.83145 329.453 10.6203C330.119 11.409 331.648 10.7382 332.23 10.5199C332.813 10.3015 332.726 10.9827 333.088 11.4319C333.449 11.8801 334.366 12.1698 335.668 12.3632C336.969 12.5566 337.325 12.9916 336.605 13.7481C335.884 14.5048 334.815 14.5006 334.064 14.4404C333.314 14.3811 333.29 14.0158 333.077 13.3984C332.863 12.781 331.852 12.2834 331.408 13.2613C330.964 14.2392 331.999 14.8893 332.81 15.024C333.62 15.1588 334.655 15.6307 334.152 16.1924C333.649 16.7541 332.831 16.8171 331.957 16.7715C331.082 16.726 330.943 16.4376 330.725 15.9842C330.507 15.5305 330.098 15.3429 329.602 15.5771C329.107 15.811 328.886 16.6082 329.306 17.0836C329.726 17.5591 331.1 18.2937 333.023 18.157C334.946 18.0202 335.886 17.116 336.219 16.3591C336.551 15.6022 337.185 15.0883 337.547 15.2771C337.908 15.4659 337.78 16.0336 336.896 16.5267C336.013 17.0198 337.029 18.6184 338.14 18.0401C339.251 17.4617 339.469 13.7941 339.392 13.1088C339.315 12.4237 339.645 11.3592 340.607 10.4632C341.567 9.56833 342.329 10.0934 342.329 10.0934C343.416 10.7243 341.755 11.3304 342.081 11.8573C342.372 12.3278 343.002 11.8526 343.383 12.1804C343.755 12.5003 343.303 13.362 343.774 13.5202C344.286 13.6915 344.615 12.9678 344.632 12.6211C344.648 12.2744 345.001 12.0932 345.331 12.3266C345.661 12.5599 347.422 14.5929 348.736 16.0805C350.051 17.5672 351.183 20.3877 350.339 21.3985C349.494 22.4092 348.055 22.76 345.828 22.2969C343.6 21.8338 340.57 22.3851 340.57 22.3851C339.138 20.9746 337.339 21.4868 337.961 22.9603C338.583 24.4339 339.683 24.8782 339.683 24.8782C339.683 24.8782 339.727 25.0788 339.751 25.4105C326.689 35.5287 313.032 34.8355 311.234 34.6935C310.645 32.5184 309.004 29.5791 306.616 28.1594C303.517 26.3172 303.146 25.9556 302.944 25.3961C302.742 24.8357 303.717 24.2952 304.338 23.8426C304.959 23.3898 304.805 22.5202 304.75 22.3618C304.695 22.2033 304.742 22.0193 304.798 21.5509C304.853 21.0826 303.772 21.3844 303.209 21.5716C302.647 21.7587 302.102 21.8951 301.573 21.7762C301.044 21.6573 299.805 21.6378 299.231 21.7814C298.658 21.9239 298.095 21.7986 297.522 21.4404C296.949 21.0822 297.279 20.0916 297.408 19.5426C297.537 18.9938 297.864 18.5515 298.25 18.346C298.636 18.1397 299.103 17.6325 298.074 17.1371C297.044 16.6426 296.404 17.7729 296.272 18.2441C296.139 18.7154 296.069 20.1271 295.944 20.5653C295.819 21.0035 295.624 20.1596 295.503 19.6108C295.382 19.0619 295.466 18.6487 295.603 18.1297C295.739 17.61 295.776 16.3799 294.732 16.5144C293.688 16.6499 294.25 18.4668 294.481 19.0201C294.713 19.5734 294.731 20.0225 294.433 19.8309C294.136 19.6393 292.699 18.3219 292.699 18.3219C292.232 17.6393 291.872 16.4451 291.872 16.4451C291.773 15.9221 291.435 15.0035 292.023 14.9198C292.611 14.8362 292.475 14.1023 292.365 13.5971C292.255 13.0918 291.262 12.9327 290.755 14.2807C290.247 15.6288 290.882 17.4903 291.338 18.2535C291.794 19.0166 291.275 19.0054 290.772 18.6765C290.269 18.3476 289.563 17.1458 289.239 16.4121C288.916 15.6784 289.023 14.9783 289.023 14.9783C289.075 14.3081 288.927 14.0963 288.468 13.9426C288.281 13.8797 287.564 13.8863 287.626 15.0141C287.689 16.1419 288.842 18.078 289.364 19.0432C289.886 20.0095 288.919 19.5773 287.96 19.1121C287.001 18.6469 286.993 18.4297 286.85 18.0422C286.706 17.6548 285.799 16.1429 285.567 15.7157C285.336 15.2884 285.578 15.0712 285.464 14.3632C285.35 13.6552 284.118 13.791 284.141 14.8814C284.163 15.9718 285.228 17.4916 285.982 18.5094C286.736 19.5273 286.312 19.2723 285.68 19.1175C285.048 18.9618 283.67 17.8184 283.225 17.0996C282.781 16.3809 282.505 15.2119 282.27 14.4567C282.035 13.7006 281.252 13.8807 281.112 14.6362C280.972 15.3919 281.759 16.8557 282.898 18.2932C284.037 19.7315 284.659 20.0308 286.448 20.6329C288.238 21.2351 287.386 21.3857 286.172 21.9075C284.959 22.4293 284.532 21.9724 284.084 21.6147C283.635 21.257 282.698 22.0705 283.271 22.9295C283.844 23.7884 285.44 23.2962 286.043 23.1464C286.645 22.9957 286.484 23.6624 286.792 24.1497C287.101 24.6362 287.979 25.0277 289.251 25.3679C290.523 25.7081 290.828 26.1802 290.026 26.8503C289.225 27.5205 288.162 27.3934 287.423 27.2496C286.684 27.105 286.703 26.74 286.56 26.103C286.416 25.4652 285.469 24.8562 284.917 25.7768C284.365 26.6975 285.32 27.4616 286.111 27.687C286.903 27.9124 287.876 28.4998 287.314 29.0003C286.751 29.5008 285.931 29.4707 285.068 29.3264C284.203 29.1823 284.097 28.8798 283.931 28.4044C283.766 27.9289 283.38 27.6966 282.862 27.8724C282.343 28.0484 282.034 28.8148 282.398 29.3354C282.762 29.8551 284.045 30.7407 285.971 30.8239C287.898 30.907 288.935 30.1156 289.35 29.4014C289.766 28.6871 290.453 28.2493 290.792 28.4781C291.129 28.7071 290.938 29.2557 290.005 29.646C289.071 30.0353 289.901 31.7384 291.071 31.2908C292.24 30.8424 292.869 27.2242 292.869 26.5351C292.87 25.8461 293.318 24.8258 294.374 24.0458C295.429 23.2658 296.127 23.8739 296.127 23.8739C297.136 24.624 295.417 25.038 295.681 25.5979C295.918 26.098 296.597 25.6977 296.939 26.0673C297.273 26.4278 296.726 27.232 297.177 27.4424C297.666 27.6708 298.074 26.9895 298.13 26.6473C298.185 26.305 298.556 26.1648 298.857 26.4341C299.159 26.7032 300.68 28.9232 301.82 30.5496C302.959 32.1763 303.767 35.1062 302.814 36.0148C301.861 36.9235 300.392 37.108 298.231 36.3947C296.069 35.6816 292.995 35.8846 292.995 35.8846C291.731 34.3207 289.885 34.6246 290.338 36.1595C290.79 37.6934 291.834 38.2605 291.834 38.2605C291.834 38.2605 291.853 38.423 291.846 38.7019C291.799 38.7057 291.751 38.7176 291.709 38.7464C278.609 47.5558 265.631 46.4841 262.874 46.1299C262.677 43.8915 261.372 40.4278 259.002 38.6061C256.143 36.4077 255.817 36.0041 255.682 35.424C255.548 34.8437 256.579 34.4237 257.25 34.0477C257.921 33.6728 257.87 32.791 257.834 32.6266C257.799 32.4631 257.868 32.2855 257.978 31.8279C258.088 31.3703 256.979 31.5395 256.398 31.6584C255.817 31.7774 255.261 31.8471 254.749 31.6659C254.237 31.4848 253.008 31.3172 252.422 31.3913C251.836 31.4646 251.292 31.2731 250.765 30.8484C250.238 30.4245 250.684 29.4805 250.877 28.9505C251.069 28.4205 251.446 28.0215 251.854 27.8628C252.262 27.7041 252.786 27.2558 251.822 26.6421C250.858 26.0284 250.089 27.0736 249.901 27.5259C249.714 27.9783 249.478 29.3703 249.301 29.7906C249.125 30.2108 249.031 29.35 248.976 28.7899C248.92 28.2307 249.053 27.8306 249.249 27.3313C249.446 26.832 249.628 25.6143 248.575 25.6239C247.522 25.6333 247.865 27.5048 248.03 28.0813C248.194 28.6578 248.159 29.1066 247.886 28.8801C247.613 28.6535 246.342 27.1748 246.342 27.1748C245.959 26.4421 245.742 25.2137 245.742 25.2137C245.705 24.6821 245.478 23.7307 246.073 23.7178C246.667 23.7049 246.619 22.9605 246.569 22.4461C246.519 21.9315 245.552 21.6545 244.888 22.932C244.225 24.2096 244.636 26.1333 244.998 26.9461C245.361 27.7579 244.847 27.6851 244.386 27.2987C243.925 26.9122 243.366 25.635 243.131 24.8681C242.897 24.1011 243.086 23.4188 243.086 23.4188C243.216 22.7589 243.094 22.5317 242.657 22.3239C242.478 22.2395 241.765 22.1603 241.694 23.2868C241.623 24.4133 242.539 26.4727 242.944 27.4945C243.348 28.5154 242.439 27.971 241.541 27.3946C240.643 26.8181 240.661 26.6017 240.565 26.1998C240.468 25.7989 239.746 24.1891 239.566 23.7373C239.387 23.2855 239.653 23.0982 239.624 22.3822C239.594 21.6662 238.355 21.6531 238.248 22.7386C238.141 23.824 239.02 25.4592 239.648 26.5596C240.276 27.6599 239.886 27.3564 239.277 27.1265C238.667 26.8967 237.433 25.5966 237.077 24.8302C236.72 24.063 236.584 22.8707 236.44 22.0926C236.296 21.3144 235.497 21.3997 235.268 22.1327C235.04 22.8657 235.648 24.4125 236.61 25.9768C237.572 27.5402 238.153 27.912 239.861 28.7235C241.568 29.535 240.702 29.583 239.436 29.9558C238.169 30.3286 237.8 29.8244 237.397 29.4156C236.994 29.0069 235.966 29.7026 236.434 30.6235C236.902 31.5445 238.544 31.2467 239.161 31.1696C239.778 31.0926 239.538 31.7352 239.787 32.255C240.037 32.7748 240.862 33.2685 242.086 33.7586C243.309 34.2479 243.556 34.7529 242.681 35.3226C241.805 35.8915 240.765 35.6398 240.048 35.4075C239.332 35.1761 239.393 34.8155 239.326 34.166C239.259 33.5155 238.39 32.798 237.733 33.6464C237.076 34.4948 237.935 35.3669 238.693 35.6847C239.451 36.0027 240.349 36.7017 239.732 37.1319C239.114 37.5614 238.303 37.4338 237.462 37.1866C236.621 36.9403 236.551 36.6274 236.442 36.1353C236.334 35.6431 235.979 35.3665 235.443 35.4796C234.907 35.5926 234.509 36.3165 234.809 36.876C235.109 37.4355 236.278 38.4685 238.182 38.7807C240.086 39.0929 241.209 38.4319 241.706 37.7723C242.203 37.1127 242.938 36.7602 243.246 37.0279C243.555 37.2955 243.3 37.8171 242.327 38.0925C241.353 38.368 241.977 40.1581 243.19 39.8524C244.404 39.5476 245.457 36.0311 245.54 35.3472C245.622 34.6633 246.188 33.7036 247.328 33.056C248.468 32.4075 249.09 33.0956 249.09 33.0956C250.004 33.9606 248.248 34.1663 248.444 34.7541C248.619 35.2788 249.342 34.9631 249.637 35.3696C249.926 35.7676 249.288 36.5002 249.711 36.7633C250.17 37.0485 250.657 36.421 250.751 36.0874C250.847 35.7537 251.232 35.6593 251.499 35.9626C251.767 36.266 253.015 38.6511 253.955 40.4021C254.895 42.1521 255.351 45.1577 254.296 45.9457C253.243 46.7335 251.761 46.7412 249.699 45.7747C247.636 44.8081 244.56 44.6426 244.56 44.6426C243.488 42.9394 241.62 43.0204 241.888 44.5971C242.035 45.4665 242.394 46.0566 242.688 46.4192C228.488 54.5332 215.181 52.0588 213.327 51.6559C213.359 49.411 212.405 45.817 210.22 43.7606C207.591 41.2871 207.307 40.8539 207.231 40.2622C207.154 39.6714 208.223 39.357 208.928 39.0504C209.633 38.7448 209.67 37.8624 209.65 37.6955C209.63 37.5286 209.716 37.3599 209.872 36.9153C210.027 36.4707 208.906 36.5289 208.316 36.5885C207.726 36.6482 207.165 36.6621 206.673 36.4315C206.182 36.2001 204.976 35.9106 204.385 35.9253C203.794 35.9403 203.272 35.6946 202.789 35.2199C202.307 34.7451 202.844 33.851 203.088 33.3435C203.332 32.8359 203.747 32.4766 204.169 32.3599C204.591 32.2432 205.157 31.8492 204.259 31.1421C203.361 30.4342 202.491 31.3981 202.26 31.829C202.029 32.2601 201.656 33.6219 201.439 34.0219C201.222 34.4219 201.214 33.5564 201.214 32.9943C201.215 32.4322 201.386 32.0481 201.631 31.5709C201.877 31.0937 202.178 29.9011 201.13 29.8052C200.081 29.7093 200.237 31.6051 200.344 32.1949C200.451 32.7847 200.371 33.2276 200.122 32.9752C199.872 32.7229 198.754 31.1244 198.754 31.1244C198.445 30.3568 198.351 29.1133 198.351 29.1133C198.368 28.5811 198.235 27.6114 198.828 27.6583C199.421 27.7044 199.447 26.9594 199.448 26.4422C199.449 25.9259 198.514 25.5537 197.727 26.7576C196.94 27.9624 197.159 29.9169 197.439 30.7617C197.719 31.6055 197.215 31.4812 196.794 31.051C196.373 30.6208 195.943 29.2937 195.786 28.5076C195.629 27.7214 195.884 27.061 195.884 27.061C196.08 26.4179 195.981 26.1796 195.566 25.9291C195.396 25.8273 194.695 25.6766 194.512 26.7907C194.329 27.9049 195.039 30.0453 195.339 31.1017C195.64 32.1582 194.789 31.5258 193.953 30.8623C193.117 30.199 193.156 29.9852 193.101 29.5764C193.044 29.1678 192.484 27.4946 192.35 27.027C192.217 26.5591 192.5 26.4007 192.542 25.6848C192.583 24.9699 191.352 24.8327 191.137 25.9013C190.923 26.97 191.636 28.6854 192.153 29.8428C192.669 31.0002 192.311 30.6593 191.727 30.3701C191.143 30.0808 190.043 28.6638 189.764 27.8657C189.485 27.0667 189.468 25.8671 189.402 25.0787C189.336 24.2904 188.532 24.2947 188.232 25.0013C187.933 25.708 188.385 27.3069 189.186 28.9593C189.989 30.6107 190.531 31.0386 192.149 32.0176C193.768 32.9966 192.902 32.9563 191.605 33.2005C190.307 33.4448 189.989 32.9053 189.628 32.4588C189.267 32.0114 188.177 32.6008 188.551 33.5642C188.925 34.5276 190.59 34.3952 191.212 34.3801C191.833 34.365 191.531 34.9805 191.727 35.5223C191.924 36.0641 192.697 36.6383 193.866 37.2481C195.035 37.8578 195.231 38.3846 194.304 38.8635C193.376 39.3418 192.366 38.9873 191.675 38.6846C190.985 38.3819 191.081 38.0309 191.08 37.3775C191.078 36.724 190.282 35.9231 189.545 36.7012C188.807 37.4795 189.576 38.4329 190.299 38.8257C191.022 39.2188 191.847 40.0035 191.19 40.3693C190.533 40.735 189.738 40.5266 188.925 40.1967C188.113 39.8669 188.074 39.5491 188.015 39.0492C187.957 38.5492 187.63 38.2377 187.085 38.2967C186.541 38.3557 186.074 39.0358 186.317 39.6227C186.56 40.2096 187.621 41.3538 189.486 41.8546C191.349 42.3564 192.533 41.8102 193.093 41.204C193.653 40.5976 194.419 40.3205 194.7 40.6175C194.98 40.9144 194.675 41.408 193.679 41.5847C192.683 41.7613 193.126 43.6043 194.365 43.422C195.604 43.2397 196.999 39.8477 197.148 39.1748C197.297 38.5028 197.956 37.6053 199.155 37.074C200.354 36.5427 200.905 37.2893 200.905 37.2893C201.729 38.2409 199.96 38.2701 200.097 38.874C200.22 39.4135 200.97 39.1712 201.224 39.6063C201.471 40.031 200.764 40.6965 201.159 40.9998C201.587 41.3294 202.134 40.7539 202.261 40.4314C202.389 40.1089 202.782 40.0541 203.018 40.3822C203.254 40.7102 204.261 43.2089 205.023 45.0436C205.784 46.8793 205.941 49.9144 204.813 50.5927C203.686 51.2709 202.212 51.1303 200.254 49.9622C198.298 48.7949 195.251 48.322 195.251 48.322C194.354 46.5205 192.486 46.4141 192.596 48.01C192.613 48.2541 192.653 48.4736 192.7 48.6796C178.402 48.945 165.927 41.7035 159.224 36.8627C158.919 36.4574 158.56 36.2167 158.18 36.0958C156.766 35.0354 155.682 34.1392 154.97 33.526C155.276 33.2402 155.403 32.8493 155.24 32.5392C155.067 32.2111 154.639 32.0887 154.207 32.2112C154.242 32.1308 154.246 32.047 154.208 31.9749C154.132 31.8299 153.91 31.7807 153.722 31.8738C153.719 31.8754 153.716 31.8769 153.712 31.8785L153.461 32.0112C153.383 31.9442 153.268 31.9252 153.17 31.9741L152.88 32.1177C152.783 32.1652 152.729 32.265 152.732 32.367C151.453 33.0181 150.125 33.5551 148.759 33.9708C148.403 33.533 147.963 33.1448 147.644 32.4831C147.668 32.4853 147.691 32.4893 147.715 32.4904C148.303 32.497 148.784 32.1084 148.789 31.6219C148.793 31.1698 148.34 30.7005 147.764 30.5492C147.757 30.4949 147.753 30.4415 147.745 30.3867C147.708 30.171 147.655 29.9635 147.593 29.7596C147.85 29.8069 148.046 29.8732 148.046 29.8732C147.975 29.4264 147.576 29.3642 147.576 29.3642L147.832 29.3207C147.757 29.2737 147.676 29.2476 147.594 29.2309C148.305 29.0122 148.217 27.7296 147.5 27.8288C145.163 23.2623 140.484 24.526 138.762 26.9528C137.271 29.0528 136.462 30.6585 134.356 29.8291C134.425 29.2048 134.023 28.6139 133.399 28.4727C132.729 28.3206 132.065 28.7428 131.915 29.415C131.765 30.088 132.187 30.7567 132.856 30.909C133.146 30.9753 133.432 30.928 133.679 30.8052C133.75 30.863 133.824 30.9166 133.898 30.9567C135.956 32.0746 138.053 31.8443 138.35 31.5118C138.08 31.9898 138.76 32.5594 138.76 32.5594C138.805 32.6047 138.887 32.5855 138.99 32.5267C139.216 33.2658 139.591 33.9219 140.076 34.4564C139.615 35.4298 138.997 36.8716 138.567 38.4067C137.963 38.3494 137.088 38.7732 136.057 39.2733C136.687 38.6378 137.347 37.95 137.485 37.6837C137.5 37.6373 137.5 37.5941 137.489 37.555C137.46 37.4451 137.345 37.3578 137.211 37.2891C136.866 37.0319 136.5 36.7927 136.119 36.5711L136.383 35.5962L136.254 35.5606L133.147 34.7008C133.478 34.6908 133.856 34.733 134.223 34.7748C134.948 34.8567 135.698 34.9404 136.032 34.6063C136.192 34.4472 136.252 34.2049 136.216 33.8657C136.177 33.4921 135.817 33.0255 135.205 32.8567C134.773 32.7369 134.272 32.7722 133.717 32.9612C133.122 33.1643 132.681 33.6003 132.367 34.2957L132.356 34.2709C132.494 33.4437 132.466 32.5653 131.813 31.7331C131.459 31.2815 131.036 30.9852 130.555 30.8523C129.551 30.5748 128.576 31.1028 128.293 31.7699C128.15 32.1074 128.131 32.3781 128.232 32.596C128.425 33.0073 129.038 33.193 129.688 33.3891C130.329 33.5833 130.992 33.7837 131.405 34.221L128.1 33.3069L127.973 33.2717L127.779 33.9867C126.958 33.8711 126.402 33.8262 126.276 33.8171C126.258 33.8145 126.248 33.815 126.248 33.815C126.236 33.8256 126.22 33.874 126.213 33.9259C126.197 33.9905 126.61 35.34 126.614 36.3939C124.903 33.5522 122.957 30.0797 122.027 29.3895C120.877 28.537 118.315 27.9431 117.104 31.3653C115.893 34.7866 117.494 37.7163 118.316 36.3241C120.018 33.4415 121.065 36.4008 121.532 39.9642C122 43.5285 122.097 50.3489 123.569 52.0884C125.206 54.0217 125.514 54.891 130.224 55.6849C128.812 59.7135 126.523 61.5194 126.024 61.8741C124.05 61.7335 122.812 61.6444 122.748 61.6401C122.741 61.6398 121.953 61.5802 121.203 61.1524C120.247 60.6073 119.817 59.7378 119.888 58.4934C119.97 57.0629 120.758 56.4226 121.467 56.2998C122.01 56.206 122.765 56.3832 123.105 57.1891C123.29 57.6279 123.793 57.8335 124.229 57.648C124.665 57.4626 124.868 56.9574 124.683 56.5186C124.089 55.1119 122.679 54.3409 121.173 54.6007C119.878 54.8237 118.316 55.9501 118.175 58.3899C118.037 60.8042 119.287 62.0398 120.36 62.6511C120.762 62.8799 121.163 63.036 121.514 63.1415C122.112 63.3207 122.566 63.3556 122.636 63.3597C123.988 63.4568 155.787 65.7327 158.038 65.8099C161.7 65.9357 164.127 64.7994 165.458 62.3361C166.973 59.532 166.51 57.0059 164.044 54.613C163.494 54.0789 162.205 52.8282 162.248 52.3515C162.253 52.2991 162.31 52.1024 162.836 51.7566C163.232 51.4968 163.342 50.9627 163.083 50.5639C162.823 50.1651 162.292 50.053 161.896 50.3128C161.049 50.8682 160.607 51.4811 160.542 52.1874C160.429 53.3947 161.476 54.5141 162.856 55.8528C164.765 57.7047 165.093 59.3976 163.951 61.5108C162.946 63.3716 161.085 64.1897 158.093 64.088C157.843 64.0798 157.205 64.0426 156.272 63.9823C156.228 63.8719 156.167 63.7687 156.069 63.6886C156.063 63.6828 155.372 63.111 154.57 61.9044C153.977 61.0118 153.229 59.6047 152.693 57.6824C158.696 56.8206 160.432 50.1888 159.799 47.474C163.377 48.8117 167.767 50.1356 172.621 50.923C178.991 51.9566 186.156 52.0654 193.314 50.0685C193.473 50.2823 193.597 50.3903 193.597 50.3903C193.597 50.3903 193.48 51.5454 192.603 52.8286C191.727 54.1117 189.905 54.5514 188.938 54.7119C187.972 54.8722 186.379 56.0203 185.252 56.9751C184.124 57.9299 181.972 59.1221 180.21 60.1227C178.446 61.1234 178.531 62.6102 179.023 62.8569C179.516 63.1035 180.102 62.9222 180.605 62.4532C181.108 61.9851 182.079 61.414 182.494 61.0701C182.91 60.7259 184.964 59.277 185.856 58.6172C186.748 57.9575 187.034 57.8589 187.312 58.0493C187.59 58.2397 187.119 58.7838 185.398 60.224C183.677 61.6643 183.243 61.8727 182.797 61.6855C182.353 61.4989 181.16 63.4276 181.336 64.3198C181.511 65.2119 182.398 64.9018 183.545 64.1446C184.693 63.3873 187.731 60.182 189.406 58.728C191.082 57.2741 190.999 57.5951 193.292 57.6753C195.584 57.7563 196.25 57.1617 197.143 56.5323C198.037 55.903 200.326 57.032 201.716 57.9551C203.106 58.8782 204.437 58.7853 205.353 58.4132C206.268 58.0411 207.351 58.2579 209.261 58.8037C211.171 59.3496 213.068 57.6775 213.575 57.3607C214.082 57.0449 213.904 57.7475 213.269 58.3715C212.633 58.9947 211.971 58.6311 211.291 59.2557C210.61 59.8805 210.674 61.7329 211.419 61.806C212.165 61.879 213.51 59.9918 213.953 59.5401C214.396 59.0884 213.905 60.0276 213.432 61.0728C212.96 62.118 213.007 62.7699 213.468 62.9718C213.928 63.1731 214.437 62.3551 214.914 61.4774C215.391 60.5997 217.449 57.0084 218.16 55.2128C218.871 53.4172 217.056 53.0212 215.893 53.217C214.73 53.4129 213.604 53.8199 213.326 53.6294C213.048 53.439 213.184 52.8428 213.184 52.8428C213.23 52.6699 213.261 52.4669 213.284 52.2513C214.346 52.4751 217.949 53.1231 222.989 52.8453C228.488 52.5419 235.685 51.132 243.105 46.8574C243.108 46.8596 243.118 46.8673 243.118 46.8673C243.118 46.8673 243.116 48.0286 242.371 49.3929C241.626 50.7572 239.857 51.3773 238.911 51.6341C237.966 51.8909 236.495 53.1932 235.469 54.2553C234.442 55.3183 232.419 56.7201 230.764 57.8922C229.11 59.0643 229.341 60.5363 229.856 60.7313C230.369 60.9275 230.935 60.6883 231.389 60.1713C231.843 59.6551 232.752 58.99 233.131 58.6049C233.511 58.2208 235.411 56.5732 236.233 55.8273C237.056 55.0806 237.33 54.9548 237.626 55.1162C237.922 55.2784 237.507 55.8664 235.937 57.4717C234.368 59.0778 233.956 59.3283 233.496 59.1867C233.035 59.0451 232.039 61.0849 232.302 61.9549C232.565 62.8248 233.416 62.4277 234.483 61.559C235.549 60.6902 238.255 57.1961 239.777 55.5811C241.299 53.9662 241.249 54.2937 243.538 54.145C245.826 53.9964 246.43 53.3384 247.257 52.6224C248.083 51.9063 250.473 52.8007 251.946 53.5807C253.42 54.3608 254.736 54.1343 255.609 53.673C256.483 53.2118 257.581 53.3188 259.535 53.6707C261.49 54.0227 263.211 52.168 263.684 51.8027C264.157 51.4374 264.049 52.1547 263.479 52.8388C262.909 53.5228 262.214 53.2274 261.599 53.9166C260.983 54.6058 261.231 56.4436 261.979 56.4413C262.727 56.439 263.878 54.4263 264.274 53.9333C264.67 53.4395 264.275 54.423 263.908 55.5106C263.541 56.5982 263.653 57.2427 264.131 57.3969C264.609 57.5511 265.035 56.686 265.422 55.7652C265.81 54.8434 267.501 51.0635 268.03 49.2056C268.559 47.3478 266.714 47.1348 265.577 47.4458C264.44 47.7569 263.36 48.2755 263.064 48.1133C262.768 47.9519 262.844 47.3449 262.844 47.3449C262.874 47.1629 262.885 46.9498 262.886 46.7254C264.268 46.8955 267.699 47.1831 272.269 46.6196C277.693 45.9513 284.711 44.0795 291.773 39.3955C291.713 39.8117 291.597 40.3166 291.379 40.8627C290.801 42.3067 289.117 43.1339 288.209 43.5015C287.301 43.8693 285.996 45.3382 285.102 46.5162C284.208 47.6941 282.366 49.3285 280.863 50.691C279.358 52.0527 279.763 53.487 280.296 53.6196C280.829 53.753 281.363 53.4478 281.752 52.8804C282.142 52.313 282.965 51.5436 283.296 51.1167C283.627 50.6897 285.318 48.8262 286.047 47.9869C286.776 47.1475 287.033 46.9893 287.345 47.1147C287.658 47.2402 287.316 47.8739 285.948 49.6561C284.58 51.4383 284.201 51.7368 283.727 51.6511C283.253 51.5654 282.506 53.7099 282.87 54.5432C283.233 55.3765 284.031 54.88 284.987 53.8896C285.943 52.8992 288.216 49.1055 289.536 47.32C290.856 45.5345 290.845 45.8656 293.099 45.4442C295.352 45.0228 295.874 44.2976 296.61 43.4874C297.346 42.6772 299.823 43.2808 301.378 43.8789C302.933 44.4778 304.212 44.0951 305.025 43.5325C305.837 42.9698 306.94 42.9443 308.921 43.0608C310.903 43.1774 312.392 41.1297 312.819 40.7103C313.246 40.2909 313.223 41.0161 312.738 41.7642C312.253 42.5121 311.527 42.3007 310.998 43.0597C310.469 43.8179 310.931 45.6137 311.674 45.5225C312.417 45.4313 313.322 43.2945 313.656 42.7569C313.99 42.2193 313.715 43.2434 313.479 44.367C313.243 45.4906 313.431 46.1172 313.923 46.2133C314.416 46.3095 314.736 45.4002 315.012 44.4384C315.288 43.4774 316.52 39.5202 316.825 37.6117C317.131 35.7033 315.275 35.7124 314.183 36.157C313.091 36.6016 312.08 37.2452 311.767 37.1198C311.455 36.9943 311.458 36.3821 311.458 36.3821C311.472 36.0748 311.433 35.703 311.355 35.2953C312.516 35.3737 316.129 35.4983 320.982 34.555C326.293 33.5226 333.081 31.2017 339.738 26.1445C339.718 26.5406 339.66 27.005 339.519 27.5177C339.108 29.0181 337.529 30.032 336.667 30.5006C335.806 30.9691 334.675 32.5775 333.92 33.8504C333.164 35.1232 331.519 36.9572 330.178 38.4813C328.837 40.0055 329.4 41.3845 329.945 41.457C330.489 41.5286 330.984 41.165 331.308 40.5567C331.631 39.9486 332.362 39.0906 332.643 38.6284C332.923 38.1662 334.394 36.1225 335.023 35.2054C335.652 34.2882 335.89 34.1016 336.214 34.1912C336.539 34.2807 336.271 34.9492 335.112 36.8759C333.954 38.8027 333.612 39.142 333.131 39.111C332.649 39.08 332.149 41.2956 332.604 42.0823C333.06 42.869 333.796 42.2847 334.635 41.1923C335.473 40.099 337.304 36.0705 338.415 34.1459C339.525 32.2212 339.551 32.5515 341.742 31.8769C343.934 31.2021 344.371 30.4212 345.01 29.5324C345.649 28.6436 348.178 28.9617 349.79 29.38C351.402 29.7984 352.63 29.2726 353.374 28.6209C354.119 27.9691 355.211 27.819 357.192 27.7095C359.174 27.5999 360.422 25.3954 360.799 24.9299C361.175 24.4644 361.235 25.1884 360.837 25.9863C360.439 26.7842 359.696 26.6576 359.256 27.4717C358.815 28.2857 359.476 30.0176 360.204 29.8423C360.931 29.667 361.59 27.4412 361.861 26.8683C362.133 26.2962 361.974 27.3451 361.866 28.4884C361.759 29.6324 362.015 30.2336 362.515 30.2732C363.015 30.3129 363.23 29.3727 363.397 28.3855C363.563 27.3982 364.341 23.3259 364.43 21.395C364.539 19.4562 362.696 19.676 361.661 20.2426ZM337.489 11.2755C336.235 11.6239 335.667 11.2043 335.028 10.8591C334.39 10.5139 333.625 10.0227 334.375 9.69215C334.375 9.69215 334.824 9.40206 335.054 8.97497C335.283 8.54805 335.821 8.29863 336.012 8.81095C336.203 9.32326 336.471 9.7824 337.19 9.75658C337.908 9.73095 338.405 9.76297 338.592 10.1313C338.777 10.5008 338.743 10.9279 337.489 11.2755ZM340.569 8.73385C339.827 8.89068 338.848 8.86822 338.848 8.86822C338.848 8.86822 337.598 8.89899 337.465 8.0238C337.333 7.14861 337.543 6.99672 338.554 7.29972C339.565 7.60184 339.794 7.56496 340.448 7.75819C341.103 7.94951 341.683 8.49903 340.569 8.73385ZM291.185 24.4949C289.9 24.6977 289.382 24.2171 288.787 23.8015C288.191 23.3858 287.485 22.8109 288.268 22.5679C288.268 22.5679 288.748 22.3309 289.024 21.9326C289.3 21.5354 289.862 21.3474 289.995 21.8785C290.127 22.4087 290.342 22.8962 291.059 22.9518C291.776 23.0075 292.267 23.0968 292.411 23.4841C292.552 23.871 292.47 24.2912 291.185 24.4949ZM294.533 22.3198C293.777 22.3913 292.806 22.2572 292.806 22.2572C292.806 22.2572 291.56 22.1455 291.527 21.261C291.494 20.3764 291.721 20.2499 292.691 20.6651C293.661 21.0803 293.893 21.0696 294.521 21.3361C295.15 21.6023 295.665 22.2133 294.533 22.3198ZM244.112 33.12C242.811 33.1686 242.353 32.6283 241.811 32.1455C241.269 31.6628 240.636 31.0065 241.442 30.8595C241.442 30.8595 241.947 30.6811 242.267 30.3194C242.588 29.9576 243.169 29.8386 243.238 30.3815C243.306 30.9243 243.462 31.4326 244.168 31.5743C244.873 31.7153 245.35 31.8624 245.447 32.2633C245.543 32.6644 245.411 33.0716 244.112 33.12ZM247.694 31.3616C246.935 31.3419 245.986 31.0932 245.986 31.0932C245.986 31.0932 244.762 30.8329 244.834 29.9512C244.906 29.0695 245.146 28.9708 246.06 29.4987C246.975 30.0275 247.207 30.044 247.799 30.3836C248.392 30.7225 248.83 31.3912 247.694 31.3616ZM195.946 36.8132C194.647 36.7308 194.245 36.1481 193.753 35.6131C193.262 35.0782 192.697 34.3625 193.514 34.2969C193.514 34.2969 194.034 34.1701 194.389 33.8426C194.744 33.5148 195.334 33.4543 195.348 34.0015C195.363 34.5488 195.468 35.0703 196.156 35.2808C196.844 35.4921 197.304 35.6861 197.36 36.0947C197.417 36.5041 197.245 36.8956 195.946 36.8132ZM199.685 35.4231C198.932 35.3275 198.013 34.9852 198.013 34.9852C198.013 34.9852 196.82 34.6038 196.979 33.7343C197.137 32.8639 197.386 32.7895 198.244 33.4068C199.102 34.0241 199.331 34.0637 199.887 34.4607C200.443 34.8576 200.814 35.5659 199.685 35.4231ZM157.119 36.007C156.091 36.13 155.192 36.7209 155.192 36.7209C155.192 36.7209 151.937 38.4161 152.388 41.8415C152.458 42.3528 152.533 42.9752 152.596 43.6599C152.103 43.4062 151.698 43.1888 151.383 43.0161C151.335 42.8696 151.261 42.7241 151.143 42.5953C151.229 42.5904 151.306 42.5569 151.353 42.4902C151.447 42.3569 151.39 42.1357 151.221 42.0096C151.217 42.0075 151.214 42.0055 151.211 42.0035L150.962 41.8259C150.981 41.7272 150.965 41.6244 150.88 41.5606L150.62 41.3655C150.532 41.2994 150.426 41.3149 150.336 41.3654C149.789 40.9665 149.257 40.5474 148.743 40.1055C148.675 39.531 148.581 38.9475 148.477 38.3852C149.511 38.6922 150.231 38.7535 150.231 38.7535C149.708 38.1171 149.212 37.3471 149.346 36.0849C149.351 36.037 149.35 35.9976 149.354 35.9518C150.833 35.5103 152.268 34.9397 153.656 34.2384C153.735 34.318 153.857 34.3443 153.962 34.2922L154.252 34.1486C154.351 34.0997 154.406 33.9961 154.4 33.892L154.475 33.8508C155.067 34.3672 155.962 35.1154 157.119 36.007ZM145.719 57.3248C146.378 60.2189 147.52 62.2196 148.436 63.4461C143.853 63.1287 138.379 62.7432 133.663 62.4099C134.698 61.4613 136.291 59.6242 137.436 56.5665C139.713 56.7929 142.445 57.0409 145.719 57.3248ZM146.649 52.5873C144.856 52.3721 144.794 51.6495 145.171 48.2173C145.218 47.7858 145.21 47.367 145.178 46.9549C145.244 46.9248 145.365 46.9513 145.608 47.1103C146.336 47.6157 145.686 51.4392 146.568 51.9155C146.544 52.0114 146.537 52.1157 146.555 52.2361C146.578 52.3717 146.615 52.4755 146.649 52.5873ZM147.423 29.2049C147.416 29.2047 147.409 29.2063 147.401 29.2069C147.398 29.1978 147.394 29.1887 147.389 29.1797C147.401 29.1881 147.414 29.1971 147.423 29.2049ZM133.858 33.605C134.392 33.4213 134.789 33.3701 135.075 33.449C135.308 33.513 135.428 33.6532 135.528 33.802C135.536 33.8112 135.546 33.8234 135.55 33.8415C135.579 33.9785 135.561 34.0877 135.495 34.1675C135.331 34.3654 134.895 34.3518 134.391 34.3356C133.88 34.319 133.18 34.2515 132.743 34.4382L132.769 34.4056C133.059 34.0504 133.355 33.7786 133.858 33.605ZM130.441 33.1172C129.967 32.9452 129.557 32.7963 129.467 32.5129C129.418 32.3611 129.465 32.1846 129.621 31.9613C129.75 31.844 130.212 31.4727 130.779 31.6296C131.108 31.7201 131.352 31.9465 131.604 32.3685C132.055 33.1272 131.97 33.5721 131.936 33.9846L131.883 33.9258C131.489 33.4735 131.052 33.3394 130.441 33.1172ZM131.851 55.9243C133.001 56.0834 134.349 56.2437 135.954 56.4131C134.344 60.4198 131.918 61.9793 131.883 62.0011C131.776 62.0673 131.701 62.1624 131.643 62.2665C130.442 62.1813 129.315 62.1012 128.292 62.0286C129.393 60.895 130.848 58.9457 131.851 55.9243ZM150.703 63.6018C150.206 63.1374 148.378 61.2186 147.407 57.4703C148.387 57.5548 149.395 57.6403 150.468 57.7312C150.736 57.7543 150.997 57.7646 151.252 57.7681C152.045 60.8165 153.362 62.7853 154.256 63.8418C153.218 63.7733 152.017 63.6916 150.703 63.6018ZM151.757 51.3943C151.723 51.305 151.677 51.2276 151.62 51.1668C151.382 50.9128 151.254 50.6861 149.768 50.8605C149.692 49.2791 150.758 45.559 149.397 44.5371C149.109 44.3209 148.699 44.191 148.262 44.1109C148.534 43.8369 148.698 43.3967 148.783 42.851C148.883 42.927 148.987 43.0005 149.088 43.0743C149.081 43.164 149.102 43.2533 149.178 43.311L149.438 43.5053C149.523 43.5691 149.626 43.5562 149.715 43.5095L150.013 43.7163C150.483 44.0495 151.069 44.0331 151.324 43.669C151.328 43.6627 151.329 43.6554 151.332 43.6483C151.685 43.8391 152.128 44.0737 152.65 44.3382C152.821 46.7605 152.769 49.7148 151.757 51.3943ZM159.577 46.7556C158.751 44.722 157.402 44.2963 156.521 43.0993C155.641 41.9048 155.05 39.6799 156.446 38.8509C157.874 38.0025 155.71 41.2679 157.49 42.2422C158.872 42.9985 160.663 40.7429 159.769 37.9536C163.256 40.3952 168.054 43.3038 173.726 45.562C179.392 47.8185 185.931 49.4231 192.892 49.2603C192.932 49.3608 192.973 49.4574 193.017 49.5445C180.371 53.0061 167.725 49.8608 159.577 46.7556Z" fill="#CC3332"/>
<path d="M107.537 59.3317L106.764 60.1435L106.591 59.0311L105.583 58.5412L106.581 58.0354L106.73 56.9203L107.521 57.7196L108.622 57.5206L108.112 58.5207L108.643 59.5127L107.537 59.3317Z" fill="#CC3332"/>
<path d="M69.1082 49.6256C69.1563 49.5443 69.2478 49.4987 69.3416 49.5103L71.0968 49.7262L71.8278 48.1101C71.8667 48.0234 71.9527 47.9691 72.0477 47.9696C72.1421 47.9712 72.2267 48.0279 72.2641 48.1155L72.96 49.7507L74.7194 49.5821C74.8133 49.573 74.9039 49.6203 74.9502 49.7033C74.9965 49.7862 74.9896 49.8885 74.9332 49.9645L73.8741 51.3847L74.9025 52.8322C74.9575 52.9097 74.9623 53.0122 74.9134 53.0938C74.8653 53.1751 74.7738 53.2207 74.68 53.2091L72.9248 52.9932L72.1939 54.6093C72.155 54.696 72.0689 54.7503 71.9739 54.7498C71.8795 54.7482 71.7941 54.6916 71.7575 54.6039L71.0616 52.9687L69.3022 53.1373C69.2083 53.1464 69.1175 53.0982 69.0714 53.0161C69.0251 52.9332 69.032 52.8309 69.0884 52.7549L70.1484 51.3345L69.1199 49.887C69.0641 49.8097 69.0593 49.7072 69.1082 49.6256ZM71.3693 50.0645C71.3242 50.1471 71.2692 50.2128 71.1745 50.2014L69.8018 50.0411L70.6271 51.194C70.6874 51.2794 70.6908 51.3967 70.6288 51.4801L69.7913 52.6074L71.1876 52.4745C71.2911 52.4642 71.3896 52.5234 71.4307 52.62L71.9822 53.9167L72.5613 52.6355C72.6046 52.5398 72.7039 52.4845 72.8068 52.4968L74.1987 52.6675L73.3834 51.5196C73.3232 51.4342 73.3239 51.3197 73.3867 51.2361L74.2264 50.1102L72.8311 50.2438C72.7276 50.2541 72.6299 50.1947 72.589 50.0989L71.999 48.7806L71.3812 50.0404C71.3777 50.0493 71.3738 50.0564 71.3693 50.0645Z" fill="#CC3332"/>
<path d="M84.9814 46.7651L84.4768 45.8025L85.5421 45.9867L86.2956 45.2096L86.4525 46.2849L87.4226 46.7668L86.4545 47.2463L86.3008 48.3219L85.5452 47.5432L84.4801 47.7264L84.9814 46.7651Z" fill="#CC3332"/>
<path d="M81.7445 53.9753L80.7159 53.6139L81.0586 54.6533L80.402 55.5242L81.4899 55.5199L82.1119 56.4198L82.442 55.3779L83.4834 55.062L82.5988 54.4223L82.6207 53.3288L81.7445 53.9753Z" fill="#CC3332"/>
<path d="M76.1658 41.2737C76.2504 41.0522 76.1402 40.8036 75.9207 40.7188C75.701 40.6331 75.454 40.7433 75.3693 40.9639C75.2848 41.1854 75.3949 41.434 75.6144 41.5188C75.8341 41.6045 76.0811 41.4944 76.1658 41.2737Z" fill="#CC3332"/>
<path d="M59.6377 49.9212L59.5579 48.8214L58.739 49.552L57.6744 49.2866L58.1139 50.2973L57.5364 51.2324L58.6267 51.1258L59.3344 51.9697L59.5687 50.8941L60.5838 50.4802L59.6377 49.9212Z" fill="#CC3332"/>
<path d="M65.2651 37.1765L64.9437 36.3847L64.5146 37.1208L63.6661 37.1814L64.231 37.8214L64.0285 38.6507L64.8067 38.3096L65.5296 38.7621L65.4454 37.9109L66.095 37.3612L65.2651 37.1765Z" fill="#CC3332"/>
<path d="M55.9353 41.2314C55.7201 41.3267 55.4672 41.2283 55.372 41.0117C55.2765 40.7942 55.374 40.5411 55.5893 40.4458C55.8053 40.3504 56.0573 40.449 56.1526 40.6656C56.2488 40.882 56.1514 41.136 55.9353 41.2314Z" fill="#CC3332"/>
<path d="M0.59993 26.7116C0.384693 26.8068 0.13186 26.7084 0.0365725 26.4918C-0.0587153 26.2752 0.0386285 26.0212 0.253865 25.9259C0.469102 25.8307 0.721935 25.9291 0.817222 26.1457C0.91251 26.3623 0.815167 26.6163 0.59993 26.7116Z" fill="#CC3332"/>
<path d="M57.6702 34.1895C57.4603 34.2972 57.2032 34.2122 57.0958 34.0018C56.9882 33.7905 57.0721 33.5322 57.2811 33.4248C57.491 33.3171 57.748 33.4012 57.8556 33.6125C57.9632 33.8238 57.8801 34.0819 57.6702 34.1895Z" fill="#CC3332"/>
<path d="M100.544 56.6085C100.329 56.7038 100.076 56.6053 99.9804 56.3887C99.8851 56.1721 99.9824 55.9181 100.198 55.8228C100.413 55.7276 100.666 55.826 100.761 56.0426C100.856 56.2592 100.759 56.5123 100.544 56.6085Z" fill="#CC3332"/>
<path d="M45.3335 39.5102L44.2946 39.0078L45.3215 38.4851L45.4741 37.3368L46.2882 38.159L47.4217 37.9522L46.8976 38.9832L47.4457 40.0032L46.3078 39.8182L45.5133 40.6553L45.3335 39.5102Z" fill="#CC3332"/>
<path d="M98.2069 51.4252C97.9956 51.5305 97.7398 51.4434 97.6346 51.2307C97.5294 51.018 97.6162 50.7609 97.8267 50.6558C98.038 50.5506 98.2938 50.6376 98.399 50.8503C98.5042 51.063 98.4183 51.3199 98.2069 51.4252Z" fill="#CC3332"/>
<path d="M33.8013 38.0563C33.896 38.0515 33.984 38.103 34.027 38.1876L34.828 39.7735L36.5724 39.4883C36.6659 39.4729 36.7589 39.5144 36.8108 39.5943C36.8627 39.6742 36.8622 39.777 36.811 39.8563L35.8467 41.3438L36.9676 42.7203C37.0271 42.7941 37.0389 42.8961 36.9961 42.9808C36.9532 43.0656 36.8647 43.1168 36.7705 43.1116L35.0053 43.0131L34.3825 44.6747C34.3495 44.7637 34.2666 44.8245 34.1727 44.8292C34.0779 44.834 33.9899 44.7825 33.9469 44.698L33.146 43.112L31.4015 43.3973C31.3081 43.4126 31.2151 43.3712 31.1632 43.2912C31.1112 43.2113 31.1109 43.1087 31.163 43.0292L32.1272 41.5418L31.0055 40.1654C30.946 40.0916 30.9342 39.9896 30.977 39.9049C31.0199 39.8201 31.1075 39.7691 31.2026 39.7741L32.9678 39.8726L33.5906 38.211C33.6245 38.1218 33.7073 38.061 33.8013 38.0563ZM34.7286 40.5232C34.6352 40.5305 34.536 40.3543 34.4927 40.269L33.8524 38.9497L33.3557 40.2359C33.3192 40.3338 33.2217 40.3806 33.1184 40.3746L31.7185 40.2885L32.6068 41.3759C32.6732 41.4563 32.6793 41.5694 32.6227 41.6571L31.8587 42.8354L33.2414 42.609C33.3445 42.5925 33.4458 42.6439 33.4926 42.7375L34.1279 43.9949L34.6215 42.6777C34.658 42.5799 34.7541 42.518 34.8573 42.5231L36.2564 42.6013L35.3671 41.5097C35.3008 41.4292 35.2951 41.3142 35.3517 41.2265L36.1265 40.1703L34.7538 40.5197C34.7454 40.5224 34.7373 40.5223 34.7286 40.5232Z" fill="#CC3332"/>
<path d="M37.9469 31.7131L37.6255 30.9213L37.1955 31.6575L36.3479 31.7179L36.9128 32.3579L36.7103 33.1872L37.4886 32.847L38.2114 33.2986L38.1274 32.4483L38.777 31.8986L37.9469 31.7131Z" fill="#CC3332"/>
<path d="M25.9603 32.1202L25.6398 31.3283L25.2098 32.0645L24.3621 32.1249L24.9271 32.7649L24.7237 33.5944L25.5029 33.254L26.2248 33.7058L26.1417 32.8553L26.7911 32.3048L25.9603 32.1202Z" fill="#CC3332"/>
<path d="M17.2002 37.4655L16.2868 36.4709L17.6255 36.3493L18.282 35.1705L18.814 36.4137L20.1329 36.6792L19.1232 37.5692L19.2816 38.9126L18.1252 38.22L16.9045 38.7829L17.2002 37.4655Z" fill="#CC3332"/>
<path d="M6.68578 33.145C6.28044 33.3527 5.78381 33.1899 5.57621 32.782C5.36862 32.374 5.52941 31.8751 5.93474 31.6673C6.34008 31.4596 6.83671 31.6224 7.04431 32.0304C7.2519 32.4384 7.09129 32.9381 6.68578 33.145Z" fill="#CC3332"/>
<path d="M8.95535 26.8061C8.74543 26.9138 8.48831 26.8288 8.3809 26.6184C8.27331 26.4071 8.35721 26.1488 8.56627 26.0413C8.77619 25.9337 9.03313 26.0178 9.14072 26.2291C9.24813 26.4395 9.16527 26.6985 8.95535 26.8061Z" fill="#CC3332"/>
<path d="M34.0971 24.8528L33.7757 24.061L33.3466 24.7971L32.4981 24.8577L33.063 25.4977L32.8605 26.327L33.6387 25.9859L34.3616 26.4384L34.2774 25.5872L34.927 25.0375L34.0971 24.8528Z" fill="#CC3332"/>
<path d="M91.5031 54.6893C91.5502 54.6415 91.6213 54.6264 91.6836 54.6501L92.8552 55.1026L93.6354 54.1181C93.6769 54.0652 93.7455 54.0425 93.8111 54.0601C93.8755 54.077 93.9247 54.1314 93.9352 54.1976L94.1335 55.4424L95.3735 55.6309C95.4401 55.6411 95.4941 55.6891 95.5117 55.7547C95.529 55.8194 95.5071 55.8889 95.4552 55.9315L94.482 56.7237L94.9419 57.8976C94.967 57.9608 94.9516 58.0316 94.9045 58.0794C94.8573 58.1273 94.7862 58.1424 94.7239 58.1187L93.5523 57.6661L92.7722 58.6506C92.7306 58.7036 92.662 58.7263 92.5965 58.7087C92.5318 58.6909 92.4828 58.6374 92.4723 58.5712L92.274 57.3264L91.0339 57.1369C90.9673 57.1268 90.913 57.078 90.8957 57.0132C90.8783 56.9485 90.9003 56.879 90.9521 56.8364L91.9253 56.0441L91.4654 54.8703C91.4416 54.8087 91.4568 54.737 91.5031 54.6893ZM92.9847 55.3831C92.9394 55.4314 92.8899 55.4681 92.8274 55.4436L91.91 55.0955L92.2798 56.0309C92.307 56.0999 92.2885 56.1813 92.2321 56.2275L91.4623 56.8567L92.4461 57.007C92.5191 57.0176 92.577 57.0755 92.5882 57.1488L92.7451 58.1358L93.3635 57.355C93.4095 57.2975 93.4872 57.2756 93.5565 57.3023L94.4851 57.6606L94.1208 56.7303C94.0936 56.6613 94.1145 56.583 94.1716 56.5357L94.9424 55.9072L93.9597 55.7576C93.8865 55.7462 93.8296 55.6889 93.8176 55.6158L93.6387 54.61L92.9979 55.3695C92.9935 55.374 92.9891 55.3786 92.9847 55.3831Z" fill="#CC3332"/>
<path d="M47.7267 27.8854C47.785 27.8775 47.8419 27.905 47.8721 27.9545L48.4464 28.8915L49.5075 28.6263C49.5646 28.6124 49.6236 28.6332 49.6603 28.6794C49.6961 28.7258 49.7016 28.7895 49.6739 28.8404L49.1552 29.8081L49.9172 30.5998C49.9576 30.6426 49.9699 30.7048 49.9483 30.7589C49.9258 30.8133 49.8744 30.8494 49.8157 30.8511L48.7216 30.881L48.4216 31.9381C48.4058 31.9946 48.3583 32.0362 48.3 32.0441C48.2425 32.0518 48.1848 32.0245 48.1546 31.9751L47.5802 31.038L46.5191 31.3032C46.4621 31.3171 46.4022 31.2965 46.3664 31.2501C46.3305 31.2037 46.3251 31.14 46.3526 31.0882L46.8714 30.1215L46.1103 29.3295C46.0699 29.2868 46.0576 29.2245 46.0792 29.1704C46.1008 29.1163 46.1531 29.08 46.2119 29.0783L47.3059 29.0484L47.6059 27.9912C47.6208 27.9349 47.6684 27.8933 47.7267 27.8854ZM48.3336 28.8912C48.277 28.9032 48.2514 29.0311 48.2201 28.981L47.7808 28.317L47.5512 29.1953C47.5339 29.2575 47.482 29.3207 47.418 29.3227L46.553 29.3561L47.1575 29.9886C47.2022 30.0349 47.2123 30.1076 47.1823 30.1644L46.7716 30.9325L47.6133 30.7221C47.6762 30.706 47.7412 30.7337 47.7752 30.7886L48.2305 31.532L48.4679 30.6944C48.4852 30.6322 48.5413 30.5888 48.6054 30.5869L49.4724 30.5629L48.8689 29.9356C48.8242 29.8892 48.8145 29.8183 48.8445 29.7615L49.2236 28.8362L48.349 28.8879C48.3438 28.889 48.3387 28.8901 48.3336 28.8912Z" fill="#CC3332"/>
<path d="M14.988 30.1412C14.7747 30.2415 14.5204 30.1487 14.4201 29.9341C14.3199 29.7194 14.4116 29.464 14.6248 29.3637C14.8381 29.2635 15.0924 29.3562 15.1927 29.5708C15.2929 29.7855 15.2013 30.0409 14.988 30.1412Z" fill="#CC3332"/>
<path d="M47.237 47.9748C46.8393 48.1512 46.3744 47.969 46.1982 47.5697C46.0218 47.1695 46.2019 46.7025 46.5987 46.5263C46.9955 46.3501 47.4613 46.5321 47.6375 46.9314C47.8139 47.3316 47.6338 47.7986 47.237 47.9748Z" fill="#CC3332"/>
<path d="M65.682 45.3944C65.2843 45.5708 64.8196 45.3894 64.6432 44.9892C64.4668 44.589 64.6469 44.1221 65.0437 43.9459C65.4414 43.7695 65.9063 43.9516 66.0827 44.3518C66.2587 44.7503 66.0788 45.2182 65.682 45.3944Z" fill="#CC3332"/>
<path d="M21.6373 24.0842C21.6703 24.0628 21.7133 24.0627 21.7465 24.0844L22.3694 24.496L22.9469 24.0238C22.9773 23.9984 23.0202 23.9938 23.0564 24.0122C23.0917 24.0308 23.1129 24.0677 23.1107 24.1078L23.069 24.8552L23.7653 25.1233C23.8024 25.1379 23.8276 25.1722 23.8299 25.2122C23.8321 25.2523 23.8105 25.2893 23.775 25.3077L23.1103 25.6435L23.229 26.3829C23.2355 26.422 23.218 26.4618 23.1841 26.4834C23.151 26.5048 23.1081 26.5049 23.0748 26.4832L22.4519 26.0716L21.8744 26.5438C21.844 26.5692 21.8011 26.5738 21.765 26.5554C21.7297 26.5367 21.7084 26.4998 21.7106 26.4597L21.7523 25.7124L21.056 25.4443C21.0189 25.4297 20.9935 25.3945 20.9914 25.3553C20.9892 25.3153 21.0109 25.2783 21.0464 25.2599L21.711 24.9241L21.5924 24.1847C21.5867 24.1454 21.6042 24.1056 21.6373 24.0842ZM22.4227 24.6918C22.3911 24.7156 22.3509 24.7205 22.3175 24.6979L21.8253 24.3748L21.9208 24.9633C21.9274 25.0069 21.9063 25.051 21.8674 25.0701L21.3403 25.337L21.8923 25.5493C21.9332 25.5649 21.9598 25.6061 21.9566 25.65L21.9232 26.2425L22.381 25.8687C22.4153 25.8407 22.4632 25.8386 22.4996 25.8624L22.9934 26.1889L22.8993 25.6028C22.8919 25.5593 22.9141 25.5167 22.9529 25.4968L23.4801 25.2307L22.9282 25.0184C22.8873 25.0028 22.8608 24.9625 22.8638 24.9177L22.8922 24.3182L22.4302 24.6848C22.429 24.6877 22.426 24.6902 22.4227 24.6918Z" fill="#CC3332"/>
<path d="M113.08 61.4805C112.812 61.614 112.487 61.503 112.353 61.2333C112.22 60.9636 112.329 60.6368 112.597 60.5032C112.865 60.3697 113.191 60.4807 113.324 60.7504C113.457 61.0212 113.348 61.3478 113.08 61.4805Z" fill="#CC3332"/>
</svg>
