<svg xmlns="http://www.w3.org/2000/svg">
    <view id="snowflakes" viewBox="0 0 62 60" />
    <svg width="62" height="60" viewBox="0 0 62 60" fill="none" x="0">
        <g clip-path="url(#clip0_526_16190)">
        <path d="M22.1787 13.6855C21.981 13.3817 21.5744 13.2958 21.2707 13.4935C20.9669 13.6913 20.881 14.0978 21.0787 14.4015L41.8445 46.3004C42.0422 46.6042 42.4487 46.6901 42.7525 46.4924C43.0562 46.2946 43.1422 45.8881 42.9444 45.5844L22.1787 13.6855Z" fill="#FBEFEF"/>
        <path d="M40.0505 12.7294L22.8051 46.6609C22.6409 46.984 22.7697 47.3791 23.0928 47.5433C23.4159 47.7075 23.811 47.5787 23.9752 47.2556L41.2205 13.324C41.3847 13.0009 41.2559 12.6059 40.9328 12.4417C40.6097 12.2775 40.2147 12.4063 40.0505 12.7294Z" fill="#FBEFEF"/>
        <path d="M12.9738 30.3545C12.6119 30.3739 12.3342 30.683 12.3536 31.0449C12.373 31.4068 12.6821 31.6845 13.044 31.6651L51.0521 29.6309C51.414 29.6115 51.6917 29.3024 51.6723 28.9405C51.653 28.5786 51.3439 28.3009 50.9819 28.3203L12.9738 30.3545Z" fill="#FBEFEF"/>
        <path d="M43.1814 44.0213L41.5444 43.9124C41.4027 43.9029 41.2618 43.9397 41.1428 44.0172C41.0238 44.0946 40.9332 44.2086 40.8844 44.342L40.3215 45.883C40.2618 46.0465 40.1396 46.1796 39.9818 46.2529C39.8239 46.3263 39.6434 46.334 39.48 46.2743C39.399 46.2447 39.3247 46.1995 39.2612 46.1412C39.1977 46.0829 39.1464 46.0127 39.11 45.9345C39.0737 45.8564 39.0531 45.7718 39.0495 45.6857C39.0458 45.5996 39.0591 45.5136 39.0887 45.4327L39.8205 43.4294C39.9179 43.1626 40.0993 42.9347 40.3373 42.7797C40.5753 42.6248 40.8571 42.5512 41.1405 42.5701L43.2686 42.7117C43.4422 42.7232 43.6042 42.8033 43.7188 42.9343C43.8334 43.0652 43.8914 43.2364 43.8798 43.41C43.8741 43.496 43.8515 43.58 43.8133 43.6573C43.7751 43.7346 43.7221 43.8035 43.6572 43.8603C43.5924 43.917 43.517 43.9605 43.4353 43.9881C43.3537 44.0157 43.2674 44.027 43.1814 44.0213Z" fill="#FBEFEF"/>
        <path d="M25.9255 20.6429C25.8292 20.706 25.7181 20.7427 25.6032 20.7493L20.9776 21.0198C20.8914 21.0246 20.805 21.0124 20.7235 20.9838C20.642 20.9552 20.567 20.9108 20.5027 20.8532C20.4384 20.7955 20.3861 20.7257 20.3488 20.6478C20.3115 20.5699 20.29 20.4854 20.2854 20.3992C20.2754 20.2255 20.3348 20.0549 20.4505 19.925C20.5662 19.795 20.7287 19.7163 20.9024 19.7062L24.7809 19.4812C24.8948 19.4746 25.0051 19.4384 25.1008 19.3761C25.1965 19.3138 25.2743 19.2276 25.3264 19.1261L27.1018 15.6705C27.1814 15.5158 27.3191 15.399 27.4847 15.3458C27.6504 15.2925 27.8304 15.3073 27.9852 15.3868C28.1399 15.4663 28.2567 15.604 28.3099 15.7697C28.3631 15.9353 28.3484 16.1153 28.2689 16.2701L26.1496 20.3905C26.0981 20.4927 26.0209 20.5797 25.9255 20.6429Z" fill="#FBEFEF"/>
        <path d="M28.0756 23.9421C27.967 24.0128 27.8398 24.0498 27.7102 24.0484L23.6367 24.0026C23.5505 24.0019 23.4652 23.9842 23.3858 23.9506C23.3063 23.9169 23.2343 23.8679 23.1739 23.8064C23.1134 23.7449 23.0656 23.6721 23.0333 23.5921C23.001 23.5122 22.9848 23.4266 22.9856 23.3403C22.9865 23.2542 23.0045 23.169 23.0383 23.0897C23.0722 23.0105 23.1214 22.9387 23.183 22.8784C23.2446 22.8181 23.3175 22.7706 23.3975 22.7385C23.4775 22.7064 23.563 22.6904 23.6492 22.6914L26.8499 22.7268C26.9795 22.7282 27.1067 22.6913 27.2153 22.6205C27.324 22.5498 27.4092 22.4485 27.4604 22.3294L28.7233 19.3882C28.7573 19.309 28.8066 19.2373 28.8683 19.1771C28.93 19.1169 29.003 19.0695 29.083 19.0375C29.1631 19.0056 29.2486 18.9897 29.3348 18.9908C29.421 18.9919 29.5061 19.01 29.5853 19.044C29.6646 19.078 29.7363 19.1272 29.7965 19.1889C29.8566 19.2507 29.9041 19.3236 29.936 19.4037C29.968 19.4837 29.9839 19.5693 29.9828 19.6555C29.9817 19.7416 29.9636 19.8268 29.9296 19.906L28.3207 23.651C28.2695 23.7701 28.1843 23.8714 28.0756 23.9421Z" fill="#FBEFEF"/>
        <path d="M23.7778 17.3432C23.6588 17.4207 23.5179 17.4574 23.3762 17.448L20.757 17.2738C20.5834 17.2622 20.4214 17.1821 20.3068 17.0512C20.1921 16.9202 20.1342 16.7491 20.1458 16.5754C20.1573 16.4017 20.2374 16.2398 20.3684 16.1251C20.4994 16.0105 20.6705 15.9526 20.8442 15.9642L22.4812 16.0731C22.6228 16.0825 22.7638 16.0457 22.8828 15.9682C23.0018 15.8908 23.0924 15.7768 23.1411 15.6434L23.7041 14.1024C23.7638 13.9389 23.886 13.8059 24.0438 13.7325C24.2016 13.6591 24.3822 13.6514 24.5456 13.7112C24.7091 13.7709 24.8422 13.8931 24.9156 14.0509C24.9889 14.2087 24.9966 14.3892 24.9369 14.5527L24.0362 17.0184C23.9875 17.1518 23.8968 17.2657 23.7778 17.3432Z" fill="#FBEFEF"/>
        <path d="M43.1234 40.2784L39.245 40.5034C39.131 40.51 39.0207 40.5463 38.925 40.6086C38.8294 40.6708 38.7516 40.757 38.6994 40.8586L36.924 44.3141C36.8445 44.4689 36.7067 44.5857 36.5411 44.6389C36.3754 44.6921 36.1954 44.6774 36.0407 44.5979C35.8859 44.5183 35.7691 44.3806 35.7159 44.215C35.6627 44.0493 35.6774 43.8693 35.7569 43.7145L37.7034 39.9252C37.8078 39.7221 37.9633 39.5498 38.1547 39.4252C38.346 39.3006 38.5666 39.2281 38.7945 39.2149L43.0474 38.9685C43.2211 38.9585 43.3917 39.0178 43.5217 39.1335C43.6516 39.2492 43.7303 39.4118 43.7404 39.5855C43.7504 39.7592 43.6911 39.9297 43.5754 40.0597C43.4597 40.1896 43.2971 40.2683 43.1234 40.2784Z" fill="#FBEFEF"/>
        <path d="M40.3772 37.2931L37.1765 37.2578C37.0469 37.2563 36.9197 37.2933 36.8111 37.364C36.7024 37.4347 36.6172 37.5361 36.566 37.6552L35.303 40.5963C35.2691 40.6755 35.2198 40.7473 35.1581 40.8075C35.0964 40.8676 35.0234 40.915 34.9434 40.947C34.8633 40.979 34.7777 40.9949 34.6916 40.9938C34.6054 40.9927 34.5202 40.9746 34.441 40.9406C34.3618 40.9066 34.2901 40.8573 34.2299 40.7956C34.1698 40.7339 34.1223 40.6609 34.0904 40.5809C34.0584 40.5008 34.0425 40.4153 34.0436 40.3291C34.0447 40.2429 34.0628 40.1578 34.0968 40.0786L35.5335 36.7354C35.6358 36.4975 35.8062 36.2951 36.0232 36.1538C36.2403 36.0125 36.4943 35.9386 36.7533 35.9413L40.3919 35.9806C40.4781 35.9815 40.5632 35.9995 40.6425 36.0333C40.7217 36.0672 40.7936 36.1163 40.8538 36.178C40.9141 36.2396 40.9616 36.3125 40.9937 36.3925C41.0258 36.4725 41.0418 36.558 41.0408 36.6442C41.0399 36.7304 41.0219 36.8156 40.9881 36.8948C40.9542 36.9741 40.905 37.0459 40.8434 37.1062C40.7818 37.1664 40.7089 37.2139 40.6289 37.246C40.5489 37.2781 40.4634 37.2941 40.3772 37.2931Z" fill="#FBEFEF"/>
        <path d="M28.6592 44.757L26.5254 41.5104C26.4623 41.415 26.3753 41.3377 26.2731 41.2862C26.1709 41.2347 26.0571 41.2109 25.9428 41.217L22.0653 41.4061C21.9792 41.4104 21.8931 41.3976 21.812 41.3686C21.7308 41.3395 21.6561 41.2948 21.5923 41.2369C21.5284 41.179 21.4766 41.1091 21.4397 41.0311C21.4029 40.9532 21.3817 40.8687 21.3775 40.7826C21.3691 40.6089 21.4299 40.4389 21.5467 40.31C21.6635 40.1811 21.8267 40.1038 22.0005 40.0952L26.255 39.8862C26.4831 39.875 26.7102 39.9236 26.9139 40.0271C27.1175 40.1307 27.2906 40.2855 27.416 40.4764L29.7559 44.036C29.8509 44.1818 29.884 44.3595 29.848 44.5297C29.812 44.7 29.7098 44.849 29.564 44.944C29.419 45.0384 29.2426 45.0717 29.0731 45.0367C28.9037 45.0017 28.7549 44.9011 28.6592 44.757Z" fill="#FBEFEF"/>
        <path d="M30.768 41.1388C30.6163 41.224 30.4371 41.2455 30.2695 41.1987C30.102 41.1518 29.96 41.0403 29.8746 40.8887L28.3044 38.099C28.2408 37.9862 28.1452 37.8948 28.0298 37.8362C27.9143 37.7776 27.7841 37.7545 27.6555 37.7697L24.476 38.1458C24.3032 38.1662 24.1295 38.1171 23.9929 38.0094C23.8563 37.9018 23.768 37.7443 23.7474 37.5715C23.7264 37.3989 23.7748 37.225 23.882 37.088C23.9891 36.9511 24.1462 36.8622 24.3188 36.841L27.9328 36.4131C28.19 36.3827 28.4505 36.429 28.6814 36.5464C28.9124 36.6637 29.1034 36.8468 29.2305 37.0725L31.0155 40.2439C31.058 40.3189 31.0854 40.4016 31.0959 40.4871C31.1065 40.5727 31.1001 40.6595 31.0772 40.7426C31.0542 40.8257 31.015 40.9035 30.962 40.9715C30.9089 41.0394 30.843 41.0963 30.768 41.1388Z" fill="#FBEFEF"/>
        <path d="M26.3262 46.978C26.17 47.0547 25.9898 47.0664 25.8251 47.0103C25.6604 46.9542 25.5247 46.8351 25.4479 46.679L24.7239 45.206C24.6612 45.0786 24.5589 44.975 24.4323 44.9107C24.3058 44.8464 24.1618 44.8249 24.0219 44.8494L22.4054 45.1327C22.234 45.1626 22.0578 45.1232 21.9155 45.0232C21.7732 44.9232 21.6764 44.7708 21.6464 44.5995C21.6163 44.4281 21.6556 44.2518 21.7555 44.1094C21.8555 43.9669 22.0079 43.87 22.1792 43.8399L24.2803 43.4721C24.56 43.4231 24.848 43.4662 25.1012 43.5948C25.3543 43.7234 25.5589 43.9306 25.6843 44.1853L26.6257 46.0994C26.6638 46.1767 26.6862 46.2608 26.6917 46.3469C26.6973 46.4329 26.6858 46.5192 26.658 46.6007C26.6301 46.6823 26.5865 46.7577 26.5296 46.8224C26.4727 46.8871 26.4035 46.94 26.3262 46.978Z" fill="#FBEFEF"/>
        <path d="M42.0237 19.8908L37.773 20.0974C37.5449 20.1085 37.3178 20.0599 37.1142 19.9564C36.9105 19.8529 36.7374 19.698 36.612 19.5071L34.2721 15.9476C34.1771 15.8017 34.144 15.6241 34.18 15.4538C34.216 15.2835 34.3182 15.1345 34.464 15.0396C34.6094 14.9449 34.7864 14.9117 34.9562 14.9471C35.126 14.9826 35.2749 15.0838 35.3703 15.2288L37.5047 18.475C37.5677 18.5704 37.6547 18.6477 37.7569 18.6992C37.8591 18.7506 37.9729 18.7745 38.0872 18.7684L41.9669 18.5778C42.053 18.5736 42.1391 18.5863 42.2203 18.6154C42.3014 18.6444 42.3761 18.6892 42.4399 18.7471C42.5038 18.805 42.5557 18.8749 42.5925 18.9528C42.6293 19.0308 42.6505 19.1152 42.6547 19.2013C42.6591 19.2882 42.6463 19.375 42.6169 19.4569C42.5875 19.5387 42.5421 19.6139 42.4834 19.6781C42.4247 19.7422 42.3538 19.7941 42.2749 19.8306C42.196 19.8671 42.1106 19.8876 42.0237 19.8908Z" fill="#FBEFEF"/>
        <path d="M41.8472 16.1448L39.7456 16.513C39.4659 16.5619 39.1779 16.5189 38.9248 16.3903C38.6716 16.2617 38.467 16.0545 38.3416 15.7997L37.4002 13.8857C37.3235 13.7296 37.3118 13.5493 37.3679 13.3847C37.424 13.22 37.5432 13.0843 37.6992 13.0074C37.8554 12.9307 38.0356 12.919 38.2003 12.9751C38.3649 13.0312 38.5006 13.1504 38.5775 13.3064L39.3015 14.7794C39.3642 14.9068 39.4665 15.0104 39.593 15.0747C39.7196 15.139 39.8636 15.1605 40.0035 15.1361L41.62 14.8527C41.7914 14.8227 41.9677 14.8619 42.1101 14.9619C42.2526 15.0618 42.3495 15.2142 42.3796 15.3856C42.4095 15.5568 42.3703 15.7329 42.2704 15.8753C42.1706 16.0176 42.0184 16.1146 41.8472 16.1448Z" fill="#FBEFEF"/>
        <path d="M39.7047 23.1446L36.0913 23.5722C35.8339 23.6027 35.5732 23.5564 35.3421 23.439C35.111 23.3216 34.9198 23.1384 34.7927 22.9125L33.008 19.7416C32.9228 19.59 32.9012 19.4107 32.9481 19.2432C32.995 19.0757 33.1065 18.9337 33.2581 18.8483C33.4097 18.7631 33.589 18.7415 33.7565 18.7884C33.924 18.8353 34.0661 18.9468 34.1514 19.0983L35.7249 21.8859C35.7885 21.9987 35.8841 22.0901 35.9996 22.1487C36.115 22.2073 36.2453 22.2304 36.3739 22.2152L39.5533 21.8391C39.7261 21.8187 39.8999 21.8678 40.0365 21.9755C40.1731 22.0831 40.2613 22.2406 40.2819 22.4134C40.2923 22.4993 40.2857 22.5865 40.2623 22.6699C40.2389 22.7533 40.1992 22.8312 40.1456 22.8992C40.0919 22.9671 40.0253 23.0238 39.9497 23.0659C39.874 23.1081 39.7907 23.1348 39.7047 23.1446Z" fill="#FBEFEF"/>
        <path d="M46.6764 33.8078C46.5305 33.9027 46.3529 33.9358 46.1826 33.8998C46.0123 33.8639 45.8633 33.7617 45.7684 33.6158L43.4604 30.0355C43.3366 29.8435 43.265 29.6224 43.2529 29.3942C43.2407 29.1661 43.2883 28.9387 43.391 28.7346L45.3035 24.929C45.3422 24.852 45.3956 24.7833 45.4609 24.727C45.5261 24.6706 45.6018 24.6276 45.6836 24.6005C45.7655 24.5734 45.8519 24.5627 45.9378 24.569C46.0238 24.5753 46.1077 24.5985 46.1847 24.6372C46.2618 24.6759 46.3304 24.7294 46.3868 24.7946C46.4432 24.8599 46.4861 24.9356 46.5132 25.0174C46.5403 25.0992 46.551 25.1856 46.5447 25.2716C46.5384 25.3576 46.5152 25.4415 46.4765 25.5185L44.7334 28.9851C44.6816 29.0872 44.6573 29.2009 44.663 29.3152C44.6688 29.4295 44.7042 29.5403 44.766 29.6366L46.8707 32.9021C46.9647 33.0481 46.997 33.2254 46.9606 33.3951C46.9242 33.5648 46.822 33.7132 46.6764 33.8078Z" fill="#FBEFEF"/>
        <path d="M41.7887 33.2305L39.6114 30.3152C39.4563 30.1076 39.3661 29.8586 39.3523 29.5998C39.3385 29.3409 39.4016 29.0838 39.5337 28.8608L41.3871 25.7295C41.4758 25.5799 41.6202 25.4716 41.7887 25.4284C41.9572 25.3852 42.136 25.4107 42.2857 25.4992C42.4353 25.5879 42.5436 25.7324 42.5868 25.9009C42.63 26.0694 42.6045 26.2481 42.516 26.3978L40.8862 29.1533C40.8202 29.2647 40.7887 29.3932 40.7955 29.5225C40.8024 29.6518 40.8473 29.7762 40.9247 29.88L42.8403 32.4449C42.9443 32.5843 42.9888 32.7593 42.9639 32.9315C42.9389 33.1036 42.8467 33.2588 42.7074 33.363C42.6383 33.4146 42.5598 33.4522 42.4763 33.4734C42.3928 33.4947 42.3059 33.4993 42.2206 33.487C42.1353 33.4747 42.0532 33.4457 41.9791 33.4017C41.905 33.3577 41.8403 33.2995 41.7887 33.2305Z" fill="#FBEFEF"/>
        <path d="M48.9221 31.5849L47.5522 29.9497C47.37 29.732 47.2633 29.461 47.2482 29.1775C47.233 28.8939 47.3102 28.6132 47.4682 28.3772L48.6549 26.6047C48.7518 26.4602 48.9021 26.3601 49.0728 26.3263C49.2435 26.2926 49.4206 26.328 49.5652 26.4249C49.7097 26.5217 49.8098 26.672 49.8436 26.8427C49.8773 27.0134 49.8419 27.1905 49.7451 27.3351L48.8317 28.6987C48.7527 28.8166 48.7141 28.957 48.7217 29.0988C48.7292 29.2405 48.7826 29.376 48.8737 29.4849L49.9277 30.7431C50.0393 30.8765 50.0934 31.0488 50.078 31.2221C50.0626 31.3954 49.979 31.5555 49.8457 31.6672C49.7122 31.7786 49.54 31.8325 49.3668 31.8171C49.1937 31.8017 49.0337 31.7181 48.9221 31.5849Z" fill="#FBEFEF"/>
        <path d="M17.8415 35.3511C17.7645 35.3124 17.6958 35.2589 17.6395 35.1937C17.5831 35.1284 17.5401 35.0527 17.513 34.9709C17.486 34.8891 17.4752 34.8027 17.4815 34.7167C17.4878 34.6307 17.511 34.5468 17.5497 34.4698L19.2941 30.9992C19.346 30.8972 19.3702 30.7834 19.3645 30.6691C19.3588 30.5548 19.3233 30.444 19.2616 30.3477L17.1563 27.0825C17.0624 26.9367 17.0301 26.7596 17.0664 26.5899C17.1027 26.4203 17.2047 26.2719 17.3501 26.1773C17.4959 26.0823 17.6736 26.0492 17.8438 26.0852C18.0141 26.1212 18.1631 26.2234 18.2581 26.3692L20.5661 29.9495C20.6899 30.1415 20.7615 30.3624 20.7738 30.5905C20.786 30.8186 20.7385 31.046 20.636 31.2501L18.723 35.056C18.6846 35.1334 18.6313 35.2024 18.5662 35.2591C18.5011 35.3158 18.4254 35.3591 18.3435 35.3865C18.2616 35.4139 18.1751 35.4249 18.089 35.4188C18.0028 35.4127 17.9188 35.3897 17.8415 35.3511Z" fill="#FBEFEF"/>
        <path d="M14.4608 33.5603C14.3163 33.4635 14.2161 33.3133 14.1822 33.1427C14.1484 32.9721 14.1837 32.795 14.2803 32.6504L15.1937 31.2869C15.2727 31.1689 15.3113 31.0285 15.3037 30.8868C15.2961 30.745 15.2428 30.6095 15.1517 30.5006L14.0977 29.2424C13.9861 29.109 13.932 28.9367 13.9474 28.7634C13.9628 28.5901 14.0463 28.43 14.1797 28.3183C14.3132 28.2067 14.4855 28.1526 14.6588 28.168C14.832 28.1834 14.9921 28.2669 15.1039 28.4003L16.4732 30.0358C16.6554 30.2536 16.762 30.5245 16.7772 30.8081C16.7923 31.0916 16.7151 31.3724 16.5572 31.6083L15.371 33.3804C15.2741 33.525 15.1238 33.6251 14.9531 33.6588C14.7825 33.6926 14.6053 33.6571 14.4608 33.5603Z" fill="#FBEFEF"/>
        <path d="M21.7411 34.4873C21.5915 34.3986 21.4832 34.2541 21.44 34.0856C21.3968 33.9171 21.4223 33.7384 21.5109 33.5886L23.1415 30.8334C23.2075 30.722 23.2391 30.5935 23.2322 30.4642C23.2254 30.3349 23.1804 30.2105 23.103 30.1067L21.1875 27.5418C21.0834 27.4024 21.039 27.2274 21.0639 27.0552C21.0888 26.8831 21.1811 26.7279 21.3204 26.6237C21.4598 26.5196 21.6348 26.4752 21.8069 26.5001C21.9791 26.525 22.1343 26.6173 22.2385 26.7566L24.4162 29.6724C24.5711 29.8799 24.6612 30.1287 24.6751 30.3874C24.6889 30.646 24.6259 30.903 24.494 31.1259L22.6376 34.2561C22.549 34.4053 22.405 34.5133 22.2371 34.5567C22.0691 34.6 21.8908 34.575 21.7411 34.4873Z" fill="#FBEFEF"/>
        <path d="M32.6528 38.1899C32.5753 38.2404 32.488 38.274 32.3966 38.2884C32.3052 38.3028 32.2118 38.2977 32.1225 38.2734C32.0332 38.2492 31.9501 38.2063 31.8785 38.1477C31.807 38.089 31.7486 38.0159 31.7073 37.9331L29.8456 34.2001L26.0301 34.583C25.9104 34.5949 25.7897 34.5737 25.6813 34.5217C25.5728 34.4696 25.4807 34.3888 25.4151 34.288C25.3495 34.1872 25.3128 34.0703 25.3091 33.95C25.3054 33.8298 25.3349 33.7109 25.3942 33.6062L27.2886 30.2721L24.6283 27.0589C24.5484 26.9625 24.4978 26.8452 24.4824 26.7209C24.467 26.5966 24.4875 26.4705 24.5415 26.3575C24.5954 26.2444 24.6806 26.1492 24.787 26.0831C24.8933 26.0169 25.0163 25.9825 25.1416 25.984L29.4359 26.031L31.1309 22.0851C31.1802 21.97 31.2614 21.8713 31.3649 21.8009C31.4685 21.7304 31.59 21.6911 31.7152 21.6875C31.8404 21.6839 31.964 21.7162 32.0714 21.7805C32.1788 21.8449 32.2656 21.9387 32.3215 22.0508L34.1837 25.7835L37.9987 25.4009C38.1184 25.389 38.2391 25.4102 38.3475 25.4622C38.456 25.5142 38.5481 25.5951 38.6137 25.6959C38.6793 25.7967 38.716 25.9136 38.7197 26.0338C38.7233 26.1541 38.6939 26.273 38.6345 26.3777L36.7407 29.7114L39.4004 32.925C39.4803 33.0214 39.531 33.1387 39.5464 33.263C39.5617 33.3873 39.5413 33.5134 39.4873 33.6264C39.4333 33.7394 39.3481 33.8347 39.2418 33.9008C39.1355 33.967 39.0124 34.0014 38.8872 33.9999L34.5922 33.9518L32.8972 37.8977C32.8464 38.0171 32.7614 38.1188 32.6528 38.1899ZM33.8045 32.7418C33.9132 32.6711 34.0403 32.6341 34.1699 32.6355L37.4856 32.6696L35.4394 30.1976C35.355 30.0951 35.3036 29.9693 35.2921 29.837C35.2806 29.7047 35.3095 29.5719 35.3751 29.4564L36.8663 26.8334L33.8635 27.1344C33.7313 27.1476 33.5982 27.1203 33.4819 27.0563C33.3655 26.9922 33.2713 26.8943 33.2118 26.7756L31.7793 23.904L30.4686 26.9498C30.4175 27.069 30.3322 27.1703 30.2236 27.241C30.1149 27.3117 29.9878 27.3487 29.8581 27.3472L26.5457 27.311L28.5919 29.7831C28.6764 29.8857 28.7277 30.0115 28.7391 30.1439C28.7505 30.2763 28.7214 30.4091 28.6557 30.5246L27.1641 33.1494L30.1669 32.8484C30.2992 32.8351 30.4323 32.8622 30.5488 32.9262C30.6653 32.9902 30.7596 33.0881 30.8192 33.2068L32.2516 36.0784L33.5591 33.0348C33.61 32.9149 33.6955 32.813 33.8045 32.7418Z" fill="#FBEFEF"/>
        </g>
        <path d="M6.19141 45.5625C6.19141 45.4589 6.10746 45.375 6.00391 45.375C5.90035 45.375 5.81641 45.4589 5.81641 45.5625L5.81641 56.4375C5.81641 56.5411 5.90035 56.625 6.00391 56.625C6.10746 56.625 6.19141 56.5411 6.19141 56.4375L6.19141 45.5625Z" fill="#FBEFEF"/>
        <path d="M10.62 48.1192L1.20145 53.5559C1.11177 53.6077 1.08103 53.7224 1.1328 53.812C1.18457 53.9017 1.29924 53.9325 1.38892 53.8807L10.8074 48.444C10.8971 48.3923 10.9278 48.2776 10.8761 48.1879C10.8243 48.0982 10.7096 48.0675 10.62 48.1192Z" fill="#FBEFEF"/>
        <path d="M1.38894 48.1187C1.29926 48.0669 1.18459 48.0977 1.13281 48.1874C1.08104 48.277 1.11176 48.3917 1.20144 48.4435L10.6195 53.881C10.7091 53.9328 10.8238 53.902 10.8756 53.8124C10.9274 53.7227 10.8966 53.608 10.807 53.5562L1.38894 48.1187Z" fill="#FBEFEF"/>
        <path d="M6.4918 56.1L6.1168 55.8188C6.08434 55.7944 6.04487 55.7812 6.0043 55.7812C5.96373 55.7812 5.92425 55.7944 5.8918 55.8188L5.5168 56.1C5.47701 56.1298 5.42701 56.1426 5.37778 56.1356C5.32855 56.1286 5.28413 56.1023 5.2543 56.0625C5.23952 56.0428 5.22877 56.0204 5.22266 55.9965C5.21655 55.9727 5.2152 55.9479 5.21868 55.9235C5.22216 55.8991 5.23041 55.8757 5.24296 55.8545C5.2555 55.8333 5.2721 55.8148 5.2918 55.8L5.7793 55.4344C5.84421 55.3857 5.92316 55.3594 6.0043 55.3594C6.08544 55.3594 6.16439 55.3857 6.2293 55.4344L6.7168 55.8C6.75658 55.8298 6.78288 55.8743 6.78991 55.9235C6.79695 55.9727 6.78413 56.0227 6.7543 56.0625C6.73952 56.0822 6.72101 56.0988 6.69983 56.1113C6.67864 56.1239 6.65519 56.1321 6.63081 56.1356C6.60644 56.1391 6.58162 56.1377 6.55776 56.1316C6.53391 56.1255 6.5115 56.1148 6.4918 56.1Z" fill="#FBEFEF"/>
        <path d="M6.0037 47.8124C5.97082 47.8126 5.93849 47.804 5.90995 47.7877L4.7602 47.1314C4.7388 47.1192 4.72003 47.1028 4.70497 47.0832C4.68991 47.0637 4.67886 47.0414 4.67245 47.0175C4.66604 46.9937 4.6644 46.9688 4.66762 46.9444C4.67083 46.9199 4.67885 46.8963 4.6912 46.8749C4.71588 46.8318 4.75668 46.8002 4.80464 46.7871C4.8526 46.774 4.90379 46.7805 4.94695 46.8052L5.9107 47.3559C5.93903 47.3721 5.97108 47.3806 6.0037 47.3806C6.03632 47.3806 6.06838 47.3721 6.0967 47.3559L7.06045 46.8052C7.10362 46.7805 7.15481 46.774 7.20277 46.7871C7.25073 46.8002 7.29153 46.8318 7.3162 46.8749C7.34086 46.9181 7.34736 46.9693 7.33428 47.0173C7.3212 47.0652 7.28961 47.106 7.24645 47.1307L6.0967 47.7869C6.06846 47.8034 6.0364 47.8122 6.0037 47.8124Z" fill="#FBEFEF"/>
        <path d="M6.00396 48.9375C5.96692 48.9375 5.93071 48.9265 5.8999 48.906L4.93165 48.26C4.9111 48.2464 4.89343 48.2289 4.87966 48.2085C4.86589 48.188 4.85628 48.1651 4.85139 48.1409C4.8465 48.1168 4.84641 48.0919 4.85114 48.0677C4.85587 48.0435 4.86533 48.0205 4.87896 48C4.89262 47.9795 4.91019 47.9619 4.93065 47.9482C4.95112 47.9345 4.97408 47.925 4.99823 47.9201C5.02238 47.9153 5.04724 47.9153 5.0714 47.9201C5.09556 47.9249 5.11854 47.9344 5.13902 47.948L5.8999 48.4554C5.93071 48.476 5.96692 48.4869 6.00396 48.4869C6.041 48.4869 6.07721 48.476 6.10802 48.4554L6.8689 47.948C6.88938 47.9344 6.91236 47.9249 6.93652 47.9201C6.96067 47.9153 6.98554 47.9153 7.00969 47.9201C7.03384 47.925 7.0568 47.9345 7.07726 47.9482C7.09773 47.9619 7.1153 47.9795 7.12896 48C7.14263 48.0205 7.15213 48.0434 7.15691 48.0676C7.1617 48.0918 7.16168 48.1166 7.15686 48.1408C7.15204 48.1649 7.1425 48.1879 7.12881 48.2083C7.11511 48.2288 7.09751 48.2464 7.07702 48.26L6.10802 48.906C6.07721 48.9265 6.041 48.9375 6.00396 48.9375Z" fill="#FBEFEF"/>
        <path d="M6.0043 46.6874C5.96373 46.6874 5.92425 46.6743 5.8918 46.6499L5.2918 46.1999C5.25202 46.1701 5.22571 46.1257 5.21868 46.0764C5.21165 46.0272 5.22446 45.9772 5.2543 45.9374C5.28413 45.8976 5.32855 45.8713 5.37778 45.8643C5.42701 45.8573 5.47702 45.8701 5.5168 45.8999L5.8918 46.1812C5.92425 46.2055 5.96373 46.2187 6.0043 46.2187C6.04487 46.2187 6.08434 46.2055 6.1168 46.1812L6.4918 45.8999C6.53158 45.8701 6.58159 45.8573 6.63081 45.8643C6.68004 45.8713 6.72446 45.8976 6.7543 45.9374C6.78413 45.9772 6.79695 46.0272 6.78991 46.0764C6.78288 46.1257 6.75658 46.1701 6.7168 46.1999L6.1168 46.6499C6.08434 46.6743 6.04487 46.6874 6.0043 46.6874Z" fill="#FBEFEF"/>
        <path d="M7.0619 55.1948L6.09815 54.6441C6.06982 54.6279 6.03777 54.6194 6.00515 54.6194C5.97253 54.6194 5.94047 54.6279 5.91215 54.6441L4.9484 55.1948C4.90523 55.2194 4.85404 55.2259 4.80608 55.2128C4.75812 55.1998 4.71732 55.1682 4.69265 55.125C4.668 55.0818 4.6615 55.0307 4.67458 54.9827C4.68766 54.9347 4.71924 54.8939 4.7624 54.8693L5.81915 54.2653C5.8758 54.233 5.93991 54.2159 6.00515 54.2159C6.07039 54.2159 6.1345 54.233 6.19115 54.2653L7.2479 54.8693C7.29105 54.8939 7.32264 54.9347 7.33572 54.9827C7.3488 55.0307 7.3423 55.0818 7.31765 55.125C7.29297 55.1682 7.25217 55.1998 7.20421 55.2128C7.15625 55.2259 7.10506 55.2194 7.0619 55.1948Z" fill="#FBEFEF"/>
        <path d="M6.86913 54.0518L6.10825 53.5445C6.07744 53.5239 6.04123 53.5129 6.00419 53.5129C5.96715 53.5129 5.93094 53.5239 5.90013 53.5445L5.13925 54.0518C5.11877 54.0655 5.09579 54.075 5.07163 54.0798C5.04747 54.0846 5.02261 54.0846 4.99846 54.0797C4.97431 54.0749 4.95135 54.0654 4.93088 54.0517C4.91042 54.038 4.89285 54.0204 4.87919 53.9999C4.86552 53.9794 4.85602 53.9564 4.85123 53.9323C4.84645 53.9081 4.84646 53.8833 4.85129 53.8591C4.85611 53.835 4.86564 53.812 4.87934 53.7915C4.89304 53.7711 4.91064 53.7535 4.93113 53.7398L5.79625 53.1633C5.85784 53.1222 5.93019 53.1003 6.00419 53.1003C6.07819 53.1003 6.15054 53.1222 6.21213 53.1633L7.07725 53.7398C7.09774 53.7535 7.11534 53.7711 7.12903 53.7915C7.14273 53.812 7.15227 53.835 7.15709 53.8591C7.16191 53.8833 7.16193 53.9081 7.15714 53.9323C7.15236 53.9564 7.14286 53.9794 7.12919 53.9999C7.11553 54.0204 7.09796 54.038 7.07749 54.0517C7.05703 54.0654 7.03407 54.0749 7.00992 54.0797C6.98577 54.0846 6.9609 54.0846 6.93675 54.0798C6.91259 54.075 6.88961 54.0655 6.86913 54.0518Z" fill="#FBEFEF"/>
        <path d="M2.89963 54.0124L2.89475 52.9024C2.89452 52.8697 2.88575 52.8377 2.86931 52.8094C2.85286 52.7812 2.82931 52.7577 2.801 52.7414L1.84307 52.1822C1.82179 52.1698 1.80316 52.1534 1.78825 52.1338C1.77334 52.1142 1.76244 52.0918 1.75617 52.068C1.74991 52.0442 1.74839 52.0193 1.75172 51.9949C1.75505 51.9705 1.76315 51.947 1.77557 51.9257C1.80062 51.8828 1.84169 51.8516 1.88975 51.8389C1.93781 51.8263 1.98893 51.8332 2.03188 51.8582L3.08319 52.4714C3.13956 52.5043 3.18637 52.5513 3.21899 52.6078C3.25161 52.6644 3.26892 52.7284 3.26919 52.7937L3.27463 54.0107C3.27463 54.0605 3.25487 54.1082 3.21971 54.1433C3.18455 54.1785 3.13686 54.1982 3.08713 54.1982C3.03769 54.1983 2.99025 54.1787 2.95514 54.1439C2.92002 54.1091 2.90007 54.0619 2.89963 54.0124Z" fill="#FBEFEF"/>
        <path d="M3.9686 53.4749C3.91901 53.4717 3.87272 53.4489 3.83992 53.4116C3.80711 53.3742 3.79048 53.3254 3.79366 53.2758L3.85254 52.3631C3.85489 52.3261 3.84626 52.2893 3.82774 52.2573C3.80922 52.2253 3.78165 52.1995 3.74848 52.1831L2.92854 51.7775C2.884 51.7555 2.85003 51.7166 2.83411 51.6695C2.81818 51.6225 2.8216 51.571 2.8436 51.5264C2.86548 51.4818 2.90417 51.4477 2.95118 51.4316C2.99818 51.4155 3.04965 51.4187 3.09429 51.4406L4.02635 51.9014C4.09269 51.9343 4.14783 51.986 4.18483 52.0501C4.22183 52.1142 4.23904 52.1878 4.23429 52.2616L4.16735 53.2992C4.16585 53.3238 4.15951 53.3479 4.14871 53.37C4.1379 53.3922 4.12284 53.412 4.10438 53.4283C4.08592 53.4446 4.06443 53.4571 4.04113 53.4651C4.01784 53.4731 3.99319 53.4765 3.9686 53.4749Z" fill="#FBEFEF"/>
        <path d="M1.99535 54.1807C1.946 54.1747 1.90104 54.1494 1.87034 54.1103C1.83965 54.0712 1.82573 54.0215 1.83166 53.9722L1.88791 53.5066C1.89275 53.4663 1.88441 53.4256 1.86412 53.3905C1.84384 53.3553 1.81271 53.3277 1.77541 53.3118L1.34416 53.1277C1.29848 53.1081 1.26243 53.0712 1.24393 53.0251C1.22544 52.979 1.22602 52.9274 1.24553 52.8817C1.26506 52.836 1.30195 52.7999 1.34808 52.7813C1.39421 52.7628 1.44581 52.7634 1.49153 52.7829L2.05197 53.0223C2.12657 53.0542 2.18883 53.1094 2.2294 53.1796C2.26996 53.2499 2.28666 53.3314 2.27697 53.4119L2.20403 54.017C2.20109 54.0414 2.19335 54.0651 2.18126 54.0865C2.16918 54.108 2.15298 54.1269 2.1336 54.1421C2.11422 54.1573 2.09204 54.1685 2.06832 54.1751C2.04459 54.1817 2.0198 54.1836 1.99535 54.1807Z" fill="#FBEFEF"/>
        <path d="M9.97581 50.1415L8.92581 49.5284C8.86944 49.4955 8.82263 49.4485 8.79001 49.3919C8.75739 49.3354 8.74009 49.2713 8.73981 49.2061L8.73438 47.989C8.73438 47.9393 8.75413 47.8916 8.78929 47.8564C8.82446 47.8213 8.87215 47.8015 8.92187 47.8015C8.97144 47.8015 9.01899 47.8211 9.05413 47.8561C9.08926 47.8911 9.10913 47.9385 9.10937 47.9881L9.11444 49.0981C9.11467 49.1308 9.12344 49.1628 9.13989 49.1911C9.15633 49.2193 9.17988 49.2428 9.20819 49.2591L10.1669 49.8183C10.1882 49.8307 10.2068 49.8471 10.2217 49.8668C10.2366 49.8864 10.2475 49.9087 10.2538 49.9325C10.26 49.9563 10.2615 49.9812 10.2582 50.0056C10.2549 50.03 10.2468 50.0535 10.2344 50.0748C10.2219 50.0963 10.2053 50.1151 10.1855 50.1301C10.1657 50.1451 10.1431 50.156 10.1191 50.1622C10.095 50.1684 10.0699 50.1698 10.0454 50.1662C10.0208 50.1627 9.99713 50.1543 9.97581 50.1415Z" fill="#FBEFEF"/>
        <path d="M10.5168 49.217L9.9562 48.9776C9.8816 48.9457 9.81934 48.8905 9.77877 48.8203C9.73821 48.75 9.72151 48.6685 9.7312 48.588L9.80414 47.9829C9.81009 47.9335 9.8354 47.8886 9.8745 47.8579C9.9136 47.8272 9.96328 47.8133 10.0126 47.8192C10.062 47.8252 10.1069 47.8505 10.1376 47.8896C10.1683 47.9287 10.1822 47.9784 10.1763 48.0277L10.1201 48.4933C10.1152 48.5335 10.1236 48.5743 10.1439 48.6094C10.1641 48.6445 10.1953 48.6721 10.2326 48.6881L10.6638 48.8722C10.7095 48.8917 10.7456 48.9286 10.7642 48.9748C10.7827 49.0209 10.7821 49.0725 10.7626 49.1182C10.7431 49.1639 10.7063 49.1999 10.6602 49.2185C10.6141 49.237 10.5625 49.2365 10.5168 49.217Z" fill="#FBEFEF"/>
        <path d="M8.91422 50.5593L7.98234 50.0984C7.91594 50.0656 7.86074 50.0139 7.8237 49.9497C7.78666 49.8856 7.76944 49.8119 7.77422 49.738L7.84115 48.7006C7.84438 48.651 7.86717 48.6047 7.90451 48.5719C7.94185 48.5391 7.99068 48.5225 8.04028 48.5257C8.08988 48.5289 8.13616 48.5517 8.16896 48.589C8.20177 48.6263 8.2184 48.6752 8.21522 48.7248L8.15747 49.6375C8.15512 49.6745 8.16375 49.7112 8.18226 49.7433C8.20078 49.7753 8.22836 49.8011 8.26153 49.8175L9.08147 50.2231C9.12601 50.2451 9.15997 50.284 9.1759 50.331C9.19182 50.3781 9.18841 50.4296 9.1664 50.4742C9.15551 50.4964 9.14032 50.5162 9.12172 50.5325C9.10312 50.5488 9.08148 50.5613 9.05804 50.5692C9.03459 50.5771 9.00981 50.5803 8.98513 50.5786C8.96045 50.5769 8.93635 50.5703 8.91422 50.5593Z" fill="#FBEFEF"/>
        <path d="M8.91992 54.1991C8.87019 54.1991 8.8225 54.1793 8.78734 54.1441C8.75218 54.109 8.73242 54.0613 8.73242 54.0116L8.73786 52.7945C8.73815 52.7292 8.75549 52.6651 8.78814 52.6086C8.8208 52.5521 8.86764 52.5051 8.92405 52.4722L9.97517 51.8591C9.99644 51.8466 10.02 51.8385 10.0444 51.8352C10.0688 51.8319 10.0936 51.8334 10.1174 51.8397C10.1412 51.8459 10.1636 51.8568 10.1832 51.8717C10.2028 51.8867 10.2193 51.9053 10.2317 51.9266C10.2441 51.9478 10.2522 51.9713 10.2555 51.9958C10.2588 52.0202 10.2573 52.045 10.2511 52.0688C10.2448 52.0926 10.2339 52.115 10.219 52.1346C10.2041 52.1542 10.1855 52.1707 10.1642 52.1831L9.20642 52.7414C9.17811 52.7578 9.15457 52.7812 9.13812 52.8095C9.12167 52.8377 9.1129 52.8698 9.11267 52.9025L9.10761 54.0125C9.10736 54.0621 9.08747 54.1096 9.0523 54.1445C9.01712 54.1795 8.96952 54.1991 8.91992 54.1991Z" fill="#FBEFEF"/>
        <path d="M7.84115 53.2992L7.77422 52.2618C7.76944 52.1879 7.78666 52.1142 7.8237 52.0501C7.86074 51.9859 7.91594 51.9342 7.98234 51.9014L8.91422 51.4405C8.95878 51.4185 9.01025 51.4151 9.05733 51.431C9.1044 51.447 9.14323 51.4809 9.16528 51.5255C9.18729 51.57 9.1907 51.6215 9.17477 51.6686C9.15885 51.7157 9.12488 51.7545 9.08034 51.7765L8.26059 52.1823C8.22742 52.1987 8.19984 52.2245 8.18133 52.2565C8.16281 52.2886 8.15418 52.3254 8.15653 52.3623L8.2154 53.275C8.21859 53.3246 8.20195 53.3735 8.16915 53.4108C8.13635 53.4481 8.09006 53.4709 8.04047 53.4742C8.01589 53.4758 7.99124 53.4725 7.96793 53.4646C7.94461 53.4567 7.92308 53.4442 7.90457 53.428C7.88607 53.4117 7.87094 53.392 7.86006 53.3699C7.84918 53.3478 7.84275 53.3238 7.84115 53.2992Z" fill="#FBEFEF"/>
        <path d="M9.80432 54.017L9.7312 53.4119C9.72151 53.3314 9.73821 53.2499 9.77877 53.1796C9.81934 53.1094 9.8816 53.0542 9.9562 53.0223L10.5166 52.7829C10.5624 52.7634 10.614 52.7628 10.6601 52.7813C10.7062 52.7999 10.7431 52.836 10.7626 52.8817C10.7821 52.9274 10.7827 52.979 10.7642 53.0251C10.7456 53.0713 10.7095 53.1081 10.6638 53.1277L10.2326 53.3118C10.1953 53.3277 10.1641 53.3553 10.1439 53.3905C10.1236 53.4256 10.1152 53.4663 10.1201 53.5066L10.1763 53.9722C10.1822 54.0215 10.1683 54.0712 10.1376 54.1103C10.1069 54.1494 10.062 54.1747 10.0126 54.1807C9.96331 54.1865 9.91368 54.1726 9.87462 54.1419C9.83557 54.1112 9.81028 54.0663 9.80432 54.017Z" fill="#FBEFEF"/>
        <path d="M1.77557 50.074C1.76315 50.0528 1.75505 50.0292 1.75172 50.0048C1.74839 49.9804 1.74991 49.9556 1.75617 49.9318C1.76244 49.908 1.77334 49.8856 1.78825 49.866C1.80316 49.8464 1.82179 49.8299 1.84307 49.8175L2.80175 49.2584C2.83006 49.2421 2.85361 49.2186 2.87006 49.1903C2.8865 49.1621 2.89527 49.13 2.8955 49.0973L2.90038 47.9873C2.90063 47.9378 2.92049 47.8903 2.95563 47.8554C2.99076 47.8204 3.03831 47.8008 3.08788 47.8008C3.13761 47.8008 3.1853 47.8205 3.22046 47.8557C3.25562 47.8909 3.27538 47.9386 3.27538 47.9883L3.26994 49.2053C3.26967 49.2706 3.25236 49.3347 3.21974 49.3912C3.18712 49.4477 3.14031 49.4948 3.08394 49.5277L2.03263 50.1408C2.01138 50.1533 1.98786 50.1615 1.96343 50.165C1.93899 50.1684 1.91412 50.167 1.89024 50.1608C1.86636 50.1546 1.84394 50.1437 1.82426 50.1288C1.80458 50.1139 1.78803 50.0953 1.77557 50.074Z" fill="#FBEFEF"/>
        <path d="M1.24553 49.1182C1.22602 49.0725 1.22544 49.0209 1.24393 48.9748C1.26243 48.9287 1.29848 48.8918 1.34416 48.8722L1.77541 48.6881C1.81271 48.6721 1.84384 48.6445 1.86412 48.6094C1.88441 48.5743 1.89275 48.5335 1.88791 48.4933L1.83166 48.0277C1.82573 47.9784 1.83965 47.9287 1.87034 47.8896C1.90104 47.8505 1.946 47.8252 1.99535 47.8192C2.0447 47.8133 2.09438 47.8272 2.13348 47.8579C2.17258 47.8886 2.19789 47.9335 2.20385 47.9829L2.27678 48.588C2.28647 48.6685 2.26978 48.75 2.22921 48.8203C2.18864 48.8905 2.12639 48.9457 2.05178 48.9776L1.49153 49.217C1.44581 49.2365 1.39421 49.2371 1.34808 49.2185C1.30195 49.2 1.26506 49.1639 1.24553 49.1182Z" fill="#FBEFEF"/>
        <path d="M2.8436 50.475C2.8216 50.4304 2.81818 50.379 2.83411 50.3319C2.85003 50.2848 2.884 50.246 2.92854 50.2239L3.74848 49.8184C3.78165 49.802 3.80922 49.7762 3.82774 49.7441C3.84626 49.7121 3.85489 49.6753 3.85254 49.6384L3.79366 48.7256C3.79048 48.676 3.80711 48.6272 3.83992 48.5899C3.87272 48.5525 3.91901 48.5297 3.9686 48.5265C4.0182 48.5233 4.06703 48.54 4.10437 48.5728C4.14171 48.6056 4.1645 48.6519 4.16773 48.7014L4.23466 49.7391C4.23941 49.8129 4.22221 49.8865 4.1852 49.9506C4.1482 50.0147 4.09306 50.0664 4.02673 50.0993L3.09429 50.5594C3.04984 50.5813 2.99851 50.5847 2.95153 50.5689C2.90455 50.5531 2.86575 50.5194 2.8436 50.475Z" fill="#FBEFEF"/>
        <path d="M4.8807 53.0625C4.85427 53.0625 4.82813 53.0569 4.804 53.0461C4.77987 53.0353 4.7583 53.0195 4.7407 52.9998C4.7231 52.9801 4.70987 52.9569 4.70188 52.9317C4.69389 52.9065 4.69131 52.8799 4.69433 52.8536L4.83045 51.6695L3.85714 51.1665C3.82662 51.1507 3.80103 51.1268 3.78317 51.0974C3.76531 51.0681 3.75586 51.0343 3.75586 51C3.75586 50.9656 3.76531 50.9319 3.78317 50.9025C3.80103 50.8732 3.82662 50.8493 3.85714 50.8335L4.83045 50.3304L4.69433 49.1464C4.69023 49.1108 4.69639 49.0748 4.71208 49.0427C4.72776 49.0105 4.75233 48.9835 4.78287 48.9649C4.8134 48.9462 4.84864 48.9367 4.88442 48.9374C4.92019 48.9381 4.95501 48.9491 4.98476 48.969L6.0057 49.6496L7.02664 48.969C7.05639 48.9491 7.09121 48.9381 7.12699 48.9374C7.16276 48.9367 7.198 48.9462 7.22854 48.9649C7.25907 48.9835 7.28364 49.0105 7.29933 49.0427C7.31502 49.0748 7.32117 49.1108 7.31708 49.1464L7.18114 50.3304L8.15426 50.8335C8.18478 50.8493 8.21037 50.8732 8.22823 50.9025C8.2461 50.9319 8.25554 50.9656 8.25554 51C8.25554 51.0343 8.2461 51.0681 8.22823 51.0974C8.21037 51.1268 8.18478 51.1507 8.15426 51.1665L7.18114 51.6695L7.31708 52.8536C7.32117 52.8892 7.31502 52.9251 7.29933 52.9573C7.28364 52.9894 7.25907 53.0164 7.22854 53.0351C7.198 53.0537 7.16276 53.0633 7.12699 53.0625C7.09121 53.0618 7.05639 53.0509 7.02664 53.031L6.0057 52.35L4.98476 53.0306C4.95399 53.0513 4.91778 53.0624 4.8807 53.0625ZM6.0057 51.9375C6.04274 51.9375 6.07895 51.9484 6.10976 51.969L6.89839 52.494L6.79376 51.5831C6.78952 51.5454 6.79681 51.5073 6.81469 51.4738C6.83257 51.4403 6.86018 51.4131 6.89389 51.3956L7.65983 51L6.89389 50.604C6.86018 50.5865 6.83257 50.5593 6.81469 50.5258C6.79681 50.4923 6.78952 50.4542 6.79376 50.4165L6.89839 49.5056L6.10976 50.0306C6.07895 50.0512 6.04274 50.0621 6.0057 50.0621C5.96866 50.0621 5.93245 50.0512 5.90164 50.0306L5.11414 49.5056L5.21876 50.4165C5.223 50.4542 5.21567 50.4923 5.19776 50.5258C5.17985 50.5593 5.15219 50.5866 5.11845 50.604L4.35214 51L5.11808 51.396C5.15182 51.4134 5.17947 51.4407 5.19738 51.4741C5.2153 51.5076 5.22262 51.5457 5.21839 51.5835L5.11376 52.4944L5.90126 51.9694C5.93214 51.9486 5.9685 51.9375 6.0057 51.9375Z" fill="#FBEFEF"/>
    </svg>

    <view id="snow" viewBox="62 0 384 104" />
    <svg width="384" height="104" viewBox="0 0 384 104" fill="none" x="62">
        <path d="M198.531 15.0361C266.372 2.98134 296.248 -13.594 374.93 19.2351C380.761 21.6682 384.5 27.4362 384.5 33.7548V88C384.5 96.8366 377.337 104 368.5 104H16.5C7.66345 104 0.5 96.8366 0.5 88V26.2503C0.5 17.4137 7.6118 10.8624 16.3964 11.8194C52.7584 15.7805 141.49 25.1719 198.531 15.0361Z" fill="#FAFAFA"/>
    </svg>
</svg>
