<svg width="390" height="88" viewBox="0 0 390 88" fill="none" xmlns="http://www.w3.org/2000/svg">
<rect width="390" height="88" fill="#DED6C7"/>
<path opacity="0.7" d="M27 22.0003C27 24.2183 25.2182 26 23 26C20.7818 26 19 24.2183 19 22.0003C19 19.7822 20.7818 18.0005 23 18.0005C25.2182 17.9642 27 19.7822 27 22.0003Z" fill="white" fill-opacity="0.8"/>
<path opacity="0.7" d="M45 53.0002C45 54.6637 43.6636 56 42 56C40.3364 56 39 54.6637 39 53.0002C39 51.3367 40.3364 50.0004 42 50.0004C43.6636 49.9731 45 51.3367 45 53.0002Z" fill="white" fill-opacity="0.8"/>
<path opacity="0.7" d="M121 16.0001C121 17.1092 120.109 18 119 18C117.891 18 117 17.1092 117 16.0001C117 14.8911 117.891 14.0003 119 14.0003C120.109 13.9821 121 14.8911 121 16.0001Z" fill="white" fill-opacity="0.8"/>
<path opacity="0.7" d="M137 33.0003C137 35.2183 135.218 37 133 37C130.782 37 129 35.2183 129 33.0003C129 30.7822 130.782 29.0005 133 29.0005C135.218 28.9642 137 30.7822 137 33.0003Z" fill="white" fill-opacity="0.8"/>
<path opacity="0.7" d="M274 26.0003C274 28.2183 272.218 30 270 30C267.782 30 266 28.2183 266 26.0003C266 23.7822 267.782 22.0005 270 22.0005C272.218 21.9642 274 23.7822 274 26.0003Z" fill="white" fill-opacity="0.8"/>
<path opacity="0.7" d="M260 3.0002C260 4.66373 258.664 6 257 6C255.336 6 254 4.66373 254 3.0002C254 1.33668 255.336 0.000402076 257 0.000402076C258.664 -0.0268688 260 1.33668 260 3.0002Z" fill="white" fill-opacity="0.8"/>
<path opacity="0.7" d="M137 3.0002C137 4.66373 135.664 6 134 6C132.336 6 131 4.66373 131 3.0002C131 1.33668 132.336 0.000402076 134 0.000402076C135.664 -0.0268688 137 1.33668 137 3.0002Z" fill="white" fill-opacity="0.8"/>
<path opacity="0.7" d="M304 81.0003C304 83.2183 302.218 85 300 85C297.782 85 296 83.2183 296 81.0003C296 78.7822 297.782 77.0005 300 77.0005C302.218 76.9642 304 78.7822 304 81.0003Z" fill="white" fill-opacity="0.8"/>
<path opacity="0.7" d="M351 21.0002C351 22.6637 349.664 24 348 24C346.336 24 345 22.6637 345 21.0002C345 19.3367 346.336 18.0004 348 18.0004C349.664 17.9731 351 19.3367 351 21.0002Z" fill="white" fill-opacity="0.8"/>
<path opacity="0.7" d="M378 47.0003C378 49.2183 376.218 51 374 51C371.782 51 370 49.2183 370 47.0003C370 44.7822 371.782 43.0005 374 43.0005C376.218 42.9642 378 44.7822 378 47.0003Z" fill="white" fill-opacity="0.8"/>
<path opacity="0.7" d="M351 70.0002C351 71.6637 349.664 73 348 73C346.336 73 345 71.6637 345 70.0002C345 68.3367 346.336 67.0004 348 67.0004C349.664 66.9731 351 68.3367 351 70.0002Z" fill="white" fill-opacity="0.8"/>
<path opacity="0.7" d="M337 43.0001C337 44.1092 336.109 45 335 45C333.891 45 333 44.1092 333 43.0001C333 41.8911 333.891 41.0003 335 41.0003C336.109 40.9821 337 41.8911 337 43.0001Z" fill="white" fill-opacity="0.8"/>
<path opacity="0.7" d="M382 7.00013C382 8.10915 381.109 9 380 9C378.891 9 378 8.10915 378 7.00013C378 5.89112 378.891 5.00027 380 5.00027C381.109 4.98209 382 5.89112 382 7.00013Z" fill="white" fill-opacity="0.8"/>
<path opacity="0.7" d="M390 84.0003C390 86.2183 388.218 88 386 88C383.782 88 382 86.2183 382 84.0003C382 81.7822 383.782 80.0005 386 80.0005C388.218 79.9642 390 81.7822 390 84.0003Z" fill="white" fill-opacity="0.8"/>
<path opacity="0.7" d="M204 77.0003C204 79.2183 202.218 81 200 81C197.782 81 196 79.2183 196 77.0003C196 74.7822 197.782 73.0005 200 73.0005C202.218 72.9642 204 74.7822 204 77.0003Z" fill="white" fill-opacity="0.8"/>
<path opacity="0.7" d="M251 85.0001C251 86.1092 250.109 87 249 87C247.891 87 247 86.1092 247 85.0001C247 83.8911 247.891 83.0003 249 83.0003C250.109 82.9821 251 83.8911 251 85.0001Z" fill="white" fill-opacity="0.8"/>
<path opacity="0.7" d="M196 46.0001C196 47.1092 195.109 48 194 48C192.891 48 192 47.1092 192 46.0001C192 44.8911 192.891 44.0003 194 44.0003C195.109 43.9821 196 44.8911 196 46.0001Z" fill="white" fill-opacity="0.8"/>
<path opacity="0.7" d="M266 61.0001C266 62.1092 265.109 63 264 63C262.891 63 262 62.1092 262 61.0001C262 59.8911 262.891 59.0003 264 59.0003C265.109 58.9821 266 59.8911 266 61.0001Z" fill="white"/>
<path opacity="0.7" d="M139 84.0002C139 85.6637 137.664 87 136 87C134.336 87 133 85.6637 133 84.0002C133 82.3367 134.336 81.0004 136 81.0004C137.664 80.9731 139 82.3367 139 84.0002Z" fill="white" fill-opacity="0.8"/>
<path opacity="0.7" d="M109 36.0002C109 37.6637 107.664 39 106 39C104.336 39 103 37.6637 103 36.0002C103 34.3367 104.336 33.0004 106 33.0004C107.664 32.9731 109 34.3367 109 36.0002Z" fill="white" fill-opacity="0.6"/>
<path opacity="0.7" d="M105 76.0001C105 77.1092 104.109 78 103 78C101.891 78 101 77.1092 101 76.0001C101 74.8911 101.891 74.0003 103 74.0003C104.109 73.9821 105 74.8911 105 76.0001Z" fill="white" fill-opacity="0.8"/>
<path opacity="0.7" d="M53 20.0001C53 21.1092 52.1091 22 51 22C49.8909 22 49 21.1092 49 20.0001C49 18.8911 49.8909 18.0003 51 18.0003C52.1091 17.9821 53 18.8911 53 20.0001Z" fill="white" fill-opacity="0.8"/>
<path opacity="0.7" d="M69 82.0003C69 84.2183 67.2182 86 65 86C62.7818 86 61 84.2183 61 82.0003C61 79.7822 62.7818 78.0005 65 78.0005C67.2182 77.9642 69 79.7822 69 82.0003Z" fill="white" fill-opacity="0.8"/>
<path opacity="0.7" d="M23 77.0003C23 79.2183 21.2182 81 19 81C16.7818 81 15 79.2183 15 77.0003C15 74.7822 16.7818 73.0005 19 73.0005C21.2182 72.9642 23 74.7822 23 77.0003Z" fill="white" fill-opacity="0.8"/>
<path opacity="0.7" d="M8 48.0003C8 50.2183 6.21819 52 4.00001 52C1.78184 52 0 50.2183 0 48.0003C0 45.7822 1.78184 44.0005 4.00001 44.0005C6.21819 43.9642 8 45.7822 8 48.0003Z" fill="white" fill-opacity="0.8"/>
</svg>
