<svg xmlns="http://www.w3.org/2000/svg">
    <view id="snowflake" viewBox="0 0 42 42" />
    <svg width="42" height="42" viewBox="0 0 42 42" fill="none" x="0">
        <path d="M22.168 1.96875C22.168 1.60631 21.8742 1.3125 21.5117 1.3125C21.1493 1.3125 20.8555 1.60631 20.8555 1.96875V40.0312C20.8555 40.3937 21.1493 40.6875 21.5117 40.6875C21.8742 40.6875 22.168 40.3937 22.168 40.0312V1.96875Z" fill="#F1F5F2"/>
        <path d="M37.6679 10.918L4.70312 29.9463C4.38923 30.1275 4.28165 30.5289 4.46284 30.8428C4.64403 31.1567 5.04538 31.2642 5.35927 31.0831L38.324 12.0547C38.6379 11.8735 38.7455 11.4721 38.5643 11.1582C38.3831 10.8444 37.9818 10.7368 37.6679 10.918Z" fill="#F1F5F2"/>
        <path d="M5.35935 10.9161C5.04547 10.7349 4.64411 10.8424 4.46289 11.1563C4.28167 11.4702 4.38922 11.8715 4.70309 12.0527L37.6662 31.084C37.9801 31.2652 38.3814 31.1577 38.5626 30.8438C38.7439 30.5299 38.6363 30.1285 38.3224 29.9473L5.35935 10.9161Z" fill="#F1F5F2"/>
        <path d="M23.2203 38.85L21.9078 37.8656C21.7942 37.7804 21.6561 37.7344 21.5141 37.7344C21.3721 37.7344 21.2339 37.7804 21.1203 37.8656L19.8078 38.85C19.6686 38.9544 19.4936 38.9993 19.3213 38.9747C19.149 38.95 18.9935 38.858 18.8891 38.7187C18.8374 38.6498 18.7997 38.5714 18.7783 38.4879C18.757 38.4044 18.7522 38.3175 18.7644 38.2322C18.7766 38.1469 18.8055 38.0648 18.8494 37.9906C18.8933 37.9165 18.9514 37.8517 19.0203 37.8L20.7266 36.5203C20.9538 36.3499 21.2301 36.2578 21.5141 36.2578C21.798 36.2578 22.0744 36.3499 22.3016 36.5203L24.0078 37.8C24.1471 37.9044 24.2391 38.0599 24.2637 38.2322C24.2883 38.4045 24.2435 38.5795 24.1391 38.7187C24.0874 38.7877 24.0226 38.8458 23.9484 38.8897C23.8743 38.9336 23.7922 38.9625 23.7069 38.9747C23.6216 38.9868 23.5347 38.9821 23.4512 38.9607C23.3677 38.9393 23.2893 38.9017 23.2203 38.85Z" fill="#D5E7D9"/>
        <path d="M21.5139 9.84417C21.3989 9.84457 21.2857 9.81469 21.1858 9.75755L17.1617 7.46067C17.0868 7.41769 17.0211 7.36034 16.9684 7.29192C16.9157 7.22349 16.877 7.14534 16.8546 7.06194C16.8321 6.97853 16.8264 6.89152 16.8376 6.80589C16.8489 6.72026 16.877 6.63769 16.9202 6.56292C17.0066 6.41189 17.1494 6.30133 17.3172 6.25555C17.4851 6.20977 17.6642 6.23252 17.8153 6.3188L21.1884 8.2462C21.2876 8.30283 21.3998 8.33262 21.5139 8.33262C21.6281 8.33262 21.7403 8.30283 21.8394 8.2462L25.2126 6.3188C25.3637 6.23252 25.5428 6.20977 25.7107 6.25555C25.8785 6.30133 26.0213 6.41189 26.1077 6.56292C26.194 6.71401 26.2167 6.89317 26.1709 7.06103C26.1252 7.22888 26.0146 7.37169 25.8636 7.45805L21.8394 9.75492C21.7406 9.81254 21.6284 9.84331 21.5139 9.84417Z" fill="#D5E7D9"/>
        <path d="M21.5139 13.7814C21.3842 13.7814 21.2575 13.7431 21.1496 13.6712L17.7608 11.4104C17.6888 11.3628 17.627 11.3014 17.5788 11.2299C17.5306 11.1584 17.497 11.078 17.4799 10.9935C17.4627 10.909 17.4624 10.8219 17.479 10.7372C17.4956 10.6526 17.5286 10.572 17.5764 10.5002C17.6242 10.4284 17.6857 10.3669 17.7573 10.3189C17.8289 10.271 17.9093 10.2376 17.9938 10.2207C18.0783 10.2038 18.1654 10.2038 18.2499 10.2205C18.3345 10.2373 18.4149 10.2705 18.4866 10.3184L21.1496 12.0942C21.2575 12.1661 21.3842 12.2045 21.5139 12.2045C21.6435 12.2045 21.7702 12.1661 21.8781 12.0942L24.5411 10.3184C24.6128 10.2705 24.6933 10.2373 24.7778 10.2205C24.8624 10.2038 24.9494 10.2038 25.0339 10.2207C25.1184 10.2376 25.1988 10.271 25.2704 10.3189C25.3421 10.3669 25.4035 10.4284 25.4514 10.5002C25.4992 10.5719 25.5324 10.6523 25.5492 10.7368C25.566 10.8214 25.5659 10.9084 25.549 10.9929C25.5321 11.0774 25.4988 11.1578 25.4508 11.2294C25.4029 11.3011 25.3413 11.3625 25.2696 11.4104L21.8781 13.6712C21.7702 13.7431 21.6435 13.7814 21.5139 13.7814Z" fill="#D5E7D9"/>
        <path d="M21.5141 5.90606C21.3721 5.90606 21.2339 5.86 21.1203 5.77481L19.0203 4.19981C18.8811 4.09538 18.789 3.93991 18.7644 3.76761C18.7398 3.59532 18.7846 3.4203 18.8891 3.28106C18.9935 3.14182 19.149 3.04977 19.3213 3.02515C19.4936 3.00054 19.6686 3.04538 19.8078 3.14981L21.1203 4.13418C21.2339 4.21938 21.3721 4.26543 21.5141 4.26543C21.6561 4.26543 21.7942 4.21938 21.9078 4.13418L23.2203 3.14981C23.3596 3.04538 23.5346 3.00054 23.7069 3.02515C23.8792 3.04977 24.0346 3.14182 24.1391 3.28106C24.2435 3.4203 24.2883 3.59532 24.2637 3.76761C24.2391 3.93991 24.1471 4.09538 24.0078 4.19981L21.9078 5.77481C21.7942 5.86 21.6561 5.90606 21.5141 5.90606Z" fill="#D5E7D9"/>
        <path d="M25.2127 35.6817L21.8396 33.7543C21.7405 33.6977 21.6283 33.6679 21.5141 33.6679C21.3999 33.6679 21.2877 33.6977 21.1886 33.7543L17.8155 35.6817C17.6644 35.768 17.4852 35.7907 17.3174 35.745C17.1495 35.6992 17.0067 35.5886 16.9204 35.4376C16.8341 35.2865 16.8113 35.1073 16.8571 34.9395C16.9029 34.7716 17.0134 34.6288 17.1645 34.5425L20.8631 32.4287C21.0614 32.3154 21.2858 32.2559 21.5141 32.2559C21.7425 32.2559 21.9668 32.3154 22.1651 32.4287L25.8637 34.5425C26.0148 34.6288 26.1253 34.7716 26.1711 34.9395C26.2169 35.1073 26.1941 35.2865 26.1079 35.4376C26.0215 35.5886 25.8787 35.6992 25.7108 35.745C25.543 35.7907 25.3638 35.768 25.2127 35.6817Z" fill="#D5E7D9"/>
        <path d="M24.54 31.6818L21.8769 29.906C21.7691 29.834 21.6423 29.7956 21.5127 29.7956C21.3831 29.7956 21.2563 29.834 21.1485 29.906L18.4854 31.6818C18.4137 31.7296 18.3333 31.7629 18.2488 31.7796C18.1642 31.7964 18.0772 31.7963 17.9927 31.7794C17.9081 31.7626 17.8278 31.7292 17.7561 31.6813C17.6845 31.6333 17.623 31.5717 17.5752 31.5C17.5274 31.4283 17.4941 31.3479 17.4774 31.2633C17.4606 31.1788 17.4607 31.0918 17.4776 31.0072C17.4944 30.9227 17.5278 30.8424 17.5757 30.7707C17.6237 30.6991 17.6853 30.6376 17.757 30.5898L20.7849 28.5718C21.0005 28.4282 21.2537 28.3516 21.5127 28.3516C21.7717 28.3516 22.0249 28.4282 22.2405 28.5718L25.2684 30.5898C25.3401 30.6376 25.4017 30.6991 25.4497 30.7707C25.4976 30.8424 25.531 30.9227 25.5479 31.0072C25.5647 31.0918 25.5648 31.1788 25.548 31.2633C25.5313 31.3479 25.498 31.4283 25.4502 31.5C25.4024 31.5717 25.3409 31.6333 25.2693 31.6813C25.1976 31.7292 25.1173 31.7626 25.0328 31.7794C24.9482 31.7963 24.8612 31.7964 24.7767 31.7796C24.6921 31.7629 24.6117 31.7296 24.54 31.6818Z" fill="#D5E7D9"/>
        <path d="M10.6467 31.5439L10.6297 27.6589C10.6289 27.5445 10.5982 27.4323 10.5406 27.3334C10.4831 27.2345 10.4006 27.1524 10.3016 27.0952L6.94878 25.1382C6.8743 25.0948 6.80911 25.0371 6.75693 24.9685C6.70474 24.8999 6.66659 24.8217 6.64465 24.7383C6.62271 24.6549 6.61742 24.5681 6.62906 24.4826C6.64071 24.3972 6.66907 24.3149 6.71253 24.2405C6.80021 24.0903 6.94396 23.981 7.11217 23.9367C7.28039 23.8924 7.45931 23.9167 7.60962 24.0042L11.2892 26.1502C11.4865 26.2653 11.6503 26.4299 11.7645 26.6278C11.8787 26.8256 11.9393 27.0498 11.9402 27.2783L11.9592 31.538C11.9592 31.712 11.8901 31.879 11.767 32.002C11.644 32.1251 11.477 32.1942 11.303 32.1942C11.13 32.1942 10.9639 32.1259 10.841 32.0041C10.7181 31.8823 10.6483 31.7169 10.6467 31.5439Z" fill="#D5E7D9"/>
        <path d="M14.3901 29.6626C14.2165 29.6513 14.0545 29.5715 13.9397 29.4408C13.8249 29.3102 13.7667 29.1392 13.7778 28.9656L13.9839 25.771C13.9921 25.6418 13.9619 25.513 13.8971 25.4009C13.8323 25.2888 13.7358 25.1984 13.6197 25.141L10.7499 23.7215C10.594 23.6444 10.4751 23.5085 10.4194 23.3437C10.3636 23.1789 10.3756 22.9988 10.4526 22.8428C10.5292 22.6867 10.6646 22.5674 10.8291 22.511C10.9936 22.4546 11.1738 22.4659 11.33 22.5423L14.5922 24.1553C14.8244 24.2702 15.0174 24.4512 15.1469 24.6755C15.2764 24.8999 15.3366 25.1575 15.32 25.416L15.0857 29.0477C15.0805 29.1337 15.0583 29.2179 15.0205 29.2954C14.9827 29.3729 14.9299 29.4422 14.8653 29.4993C14.8007 29.5564 14.7255 29.6002 14.644 29.6282C14.5624 29.6562 14.4762 29.6679 14.3901 29.6626Z" fill="#D5E7D9"/>
        <path d="M7.48176 32.1325C7.30904 32.1116 7.15167 32.023 7.04424 31.8862C6.93681 31.7494 6.88812 31.5755 6.90885 31.4027L7.10573 29.7733C7.12268 29.6323 7.09347 29.4897 7.02247 29.3667C6.95148 29.2438 6.84253 29.1472 6.71198 29.0914L5.2026 28.447C5.04271 28.3785 4.91654 28.2494 4.85182 28.0879C4.78709 27.9265 4.78911 27.7459 4.85742 27.586C4.92576 27.426 5.05486 27.2996 5.21631 27.2348C5.37777 27.1699 5.55838 27.1719 5.71842 27.2401L7.67995 28.0782C7.94105 28.1897 8.15894 28.3829 8.30093 28.6288C8.44292 28.8747 8.50135 29.1599 8.46745 29.4418L8.21217 31.5596C8.20184 31.6452 8.17476 31.7279 8.13246 31.803C8.09017 31.8781 8.03348 31.9441 7.96566 31.9973C7.89783 32.0505 7.82018 32.0899 7.73715 32.113C7.65412 32.1362 7.56734 32.1428 7.48176 32.1325Z" fill="#D5E7D9"/>
        <path d="M35.4134 17.9957L31.7384 15.8497C31.5411 15.7346 31.3773 15.57 31.2631 15.3721C31.1489 15.1743 31.0884 14.9501 31.0874 14.7216L31.0684 10.4619C31.0684 10.2879 31.1375 10.1209 31.2606 9.99787C31.3836 9.8748 31.5506 9.80566 31.7246 9.80566C31.8981 9.80566 32.0645 9.87435 32.1875 9.99671C32.3105 10.1191 32.38 10.2852 32.3809 10.4586L32.3986 14.3436C32.3994 14.458 32.4301 14.5703 32.4876 14.6691C32.5452 14.768 32.6276 14.8501 32.7267 14.9074L36.0821 16.8643C36.1566 16.9077 36.2218 16.9654 36.274 17.034C36.3261 17.1026 36.3643 17.1808 36.3862 17.2642C36.4082 17.3476 36.4135 17.4345 36.4018 17.5199C36.3902 17.6053 36.3618 17.6876 36.3184 17.762C36.2747 17.8373 36.2166 17.9031 36.1473 17.9556C36.078 18.0082 35.9989 18.0464 35.9147 18.0682C35.8305 18.0899 35.7429 18.0947 35.6568 18.0822C35.5707 18.0698 35.488 18.0404 35.4134 17.9957Z" fill="#D5E7D9"/>
        <path d="M37.3099 14.7593L35.3477 13.9213C35.0866 13.8098 34.8687 13.6166 34.7267 13.3707C34.5847 13.1248 34.5263 12.8395 34.5602 12.5576L34.8155 10.4399C34.8363 10.2672 34.9249 10.1098 35.0617 10.0024C35.1986 9.89494 35.3725 9.84625 35.5452 9.86699C35.7179 9.88784 35.8753 9.97642 35.9827 10.1133C36.0902 10.2501 36.1388 10.424 36.1181 10.5967L35.9212 12.2262C35.9043 12.3672 35.9335 12.5098 36.0045 12.6327C36.0755 12.7557 36.1844 12.8523 36.315 12.908L37.8244 13.5525C37.9844 13.6208 38.1107 13.7499 38.1755 13.9114C38.2404 14.0728 38.2385 14.2534 38.1702 14.4135C38.1019 14.5733 37.9729 14.6995 37.8116 14.7644C37.6503 14.8292 37.4698 14.8274 37.3099 14.7593Z" fill="#D5E7D9"/>
        <path d="M31.6959 19.4579L28.4343 17.8448C28.2019 17.73 28.0087 17.549 27.8791 17.3245C27.7494 17.1 27.6891 16.8422 27.7059 16.5835L27.9401 12.9525C27.9514 12.7789 28.0312 12.6169 28.1619 12.5021C28.2926 12.3873 28.4635 12.3291 28.6371 12.3402C28.8107 12.3515 28.9727 12.4313 29.0875 12.562C29.2023 12.6926 29.2605 12.8636 29.2494 13.0372L29.0472 16.2318C29.039 16.361 29.0692 16.4898 29.134 16.6019C29.1988 16.714 29.2954 16.8044 29.4114 16.8618L32.2812 18.2812C32.4371 18.3584 32.556 18.4943 32.6117 18.6591C32.6675 18.8238 32.6555 19.004 32.5785 19.16C32.5404 19.2377 32.4872 19.3071 32.4221 19.3643C32.357 19.4214 32.2813 19.465 32.1992 19.4927C32.1172 19.5204 32.0304 19.5316 31.9441 19.5256C31.8577 19.5196 31.7733 19.4966 31.6959 19.4579Z" fill="#D5E7D9"/>
        <path d="M31.7207 32.1974C31.5467 32.1974 31.3797 32.1283 31.2567 32.0052C31.1336 31.8822 31.0645 31.7152 31.0645 31.5412L31.0835 27.2815C31.0845 27.053 31.1452 26.8287 31.2595 26.6309C31.3738 26.433 31.5377 26.2684 31.7351 26.1534L35.4141 24.0074C35.4885 23.964 35.5708 23.9356 35.6562 23.924C35.7417 23.9123 35.8285 23.9176 35.9119 23.9396C35.9953 23.9615 36.0735 23.9997 36.1421 24.0518C36.2107 24.104 36.2684 24.1692 36.3118 24.2437C36.3553 24.3182 36.3836 24.4004 36.3953 24.4859C36.4069 24.5713 36.4016 24.6582 36.3797 24.7415C36.3578 24.8249 36.3196 24.9031 36.2674 24.9717C36.2152 25.0404 36.1501 25.098 36.0756 25.1414L32.7235 27.0958C32.6244 27.153 32.542 27.2351 32.4844 27.334C32.4268 27.4329 32.3961 27.5451 32.3953 27.6595L32.3776 31.5445C32.3767 31.7181 32.3071 31.8842 32.184 32.0066C32.0609 32.129 31.8943 32.1976 31.7207 32.1974Z" fill="#D5E7D9"/>
        <path d="M27.9401 29.0479L27.7059 25.4168C27.6891 25.1581 27.7494 24.9003 27.8791 24.6758C28.0087 24.4514 28.2019 24.2703 28.4343 24.1555L31.6959 22.5424C31.8518 22.4654 32.032 22.4535 32.1967 22.5092C32.3615 22.565 32.4974 22.6838 32.5746 22.8397C32.6516 22.9957 32.6635 23.1759 32.6078 23.3406C32.5521 23.5054 32.4332 23.6413 32.2773 23.7184L29.4082 25.1386C29.2921 25.1959 29.1955 25.2864 29.1307 25.3985C29.0659 25.5106 29.0357 25.6393 29.0439 25.7686L29.25 28.9632C29.2612 29.1368 29.2029 29.3077 29.0881 29.4384C28.9733 29.5691 28.8113 29.6488 28.6377 29.6601C28.5517 29.6657 28.4654 29.6544 28.3838 29.6266C28.3022 29.5989 28.2269 29.5554 28.1621 29.4985C28.0973 29.4416 28.0444 29.3726 28.0063 29.2953C27.9682 29.2179 27.9457 29.1339 27.9401 29.0479Z" fill="#D5E7D9"/>
        <path d="M34.8161 31.5596L34.5602 29.4418C34.5263 29.1599 34.5847 28.8747 34.7267 28.6288C34.8687 28.3829 35.0866 28.1897 35.3477 28.0782L37.3092 27.2401C37.4692 27.1719 37.6498 27.1699 37.8113 27.2348C37.9728 27.2996 38.1019 27.426 38.1702 27.586C38.2385 27.746 38.2404 27.9266 38.1755 28.0881C38.1107 28.2495 37.9844 28.3786 37.8244 28.447L36.315 29.0914C36.1844 29.1472 36.0755 29.2438 36.0045 29.3667C35.9335 29.4897 35.9043 29.6323 35.9212 29.7733L36.1181 31.4027C36.1388 31.5755 36.0902 31.7494 35.9827 31.8862C35.8753 32.023 35.7179 32.1116 35.5452 32.1325C35.3726 32.153 35.1988 32.1042 35.0621 31.9968C34.9255 31.8894 34.837 31.7322 34.8161 31.5596Z" fill="#D5E7D9"/>
        <path d="M6.71253 17.7591C6.66907 17.6847 6.64071 17.6024 6.62906 17.517C6.61742 17.4315 6.62271 17.3447 6.64465 17.2613C6.66659 17.1779 6.70474 17.0997 6.75693 17.0311C6.80911 16.9624 6.8743 16.9048 6.94878 16.8614L10.3042 14.9044C10.4033 14.8472 10.4857 14.7651 10.5432 14.6662C10.6008 14.5673 10.6315 14.4551 10.6323 14.3407L10.6494 10.4557C10.6502 10.2822 10.7198 10.1161 10.8427 9.99378C10.9657 9.87142 11.1321 9.80273 11.3056 9.80273C11.4797 9.80273 11.6466 9.87187 11.7697 9.99495C11.8927 10.118 11.9619 10.2849 11.9619 10.459L11.9428 14.7187C11.9419 14.9471 11.8813 15.1714 11.7671 15.3692C11.653 15.567 11.4891 15.7317 11.2918 15.8468L7.61225 17.9927C7.53787 18.0366 7.45556 18.0654 7.37004 18.0774C7.28452 18.0894 7.19748 18.0844 7.11389 18.0627C7.03031 18.041 6.95183 18.003 6.88295 17.9509C6.81408 17.8988 6.75616 17.8336 6.71253 17.7591Z" fill="#D5E7D9"/>
        <path d="M4.85742 14.4135C4.78911 14.2535 4.78709 14.073 4.85182 13.9115C4.91654 13.7501 5.04271 13.621 5.20261 13.5525L6.71198 12.908C6.84253 12.8523 6.95148 12.7557 7.02247 12.6327C7.09347 12.5098 7.12268 12.3672 7.10573 12.2262L6.90886 10.5967C6.88812 10.424 6.93681 10.2501 7.04424 10.1133C7.15167 9.97642 7.30904 9.88784 7.48176 9.86699C7.65449 9.84625 7.82839 9.89494 7.96523 10.0024C8.10208 10.1098 8.19066 10.2672 8.21151 10.4399L8.46679 12.5576C8.50069 12.8395 8.44227 13.1248 8.30028 13.3707C8.15829 13.6166 7.9404 13.8098 7.67929 13.9213L5.71842 14.7593C5.55838 14.8276 5.37777 14.8295 5.21631 14.7647C5.05486 14.6998 4.92576 14.5735 4.85742 14.4135Z" fill="#D5E7D9"/>
        <path d="M10.4526 19.1629C10.3756 19.0069 10.3636 18.8268 10.4194 18.662C10.4751 18.4972 10.594 18.3613 10.7499 18.2842L13.6197 16.8647C13.7358 16.8073 13.8323 16.7169 13.8971 16.6048C13.9619 16.4927 13.9921 16.3639 13.9839 16.2347L13.7778 13.0401C13.7667 12.8665 13.8249 12.6956 13.9397 12.5649C14.0545 12.4342 14.2165 12.3544 14.3901 12.3431C14.5637 12.332 14.7346 12.3902 14.8653 12.505C14.996 12.6198 15.0757 12.7818 15.087 12.9554L15.3213 16.5871C15.338 16.8456 15.2777 17.1032 15.1482 17.3276C15.0187 17.5519 14.8257 17.7329 14.5935 17.8478L11.33 19.4582C11.1744 19.535 10.9948 19.547 10.8304 19.4916C10.6659 19.4363 10.5301 19.3181 10.4526 19.1629Z" fill="#D5E7D9"/>
        <path d="M17.5776 28.2191C17.485 28.2192 17.3936 28.1996 17.3091 28.1618C17.2247 28.124 17.1492 28.0688 17.0876 27.9998C17.026 27.9307 16.9797 27.8495 16.9517 27.7613C16.9237 27.6731 16.9147 27.58 16.9253 27.488L17.4017 23.3438L13.9951 21.5831C13.8883 21.5278 13.7987 21.4442 13.7362 21.3414C13.6737 21.2386 13.6406 21.1206 13.6406 21.0004C13.6406 20.8801 13.6737 20.7621 13.7362 20.6593C13.7987 20.5565 13.8883 20.4729 13.9951 20.4176L17.4017 18.6569L16.9253 14.5127C16.9109 14.3883 16.9325 14.2623 16.9874 14.1498C17.0423 14.0372 17.1283 13.9427 17.2351 13.8774C17.342 13.8122 17.4654 13.7788 17.5906 13.7814C17.7158 13.7839 17.8377 13.8223 17.9418 13.8919L21.5151 16.274L25.0884 13.8919C25.1925 13.8223 25.3144 13.7839 25.4396 13.7814C25.5648 13.7788 25.6881 13.8122 25.795 13.8774C25.9019 13.9427 25.9879 14.0372 26.0428 14.1498C26.0977 14.2623 26.1192 14.3883 26.1049 14.5127L25.6291 18.6569L29.035 20.4176C29.1419 20.4729 29.2314 20.5565 29.2939 20.6593C29.3565 20.7621 29.3895 20.8801 29.3895 21.0004C29.3895 21.1206 29.3565 21.2386 29.2939 21.3414C29.2314 21.4442 29.1419 21.5278 29.035 21.5831L25.6291 23.3438L26.1049 27.488C26.1192 27.6125 26.0977 27.7384 26.0428 27.8509C25.9879 27.9635 25.9019 28.058 25.795 28.1233C25.6881 28.1885 25.5648 28.2219 25.4396 28.2193C25.3144 28.2168 25.1925 28.1784 25.0884 28.1089L21.5151 25.7254L17.9418 28.1075C17.8341 28.1799 17.7073 28.2187 17.5776 28.2191ZM21.5151 24.2816C21.6447 24.2816 21.7714 24.3199 21.8793 24.3919L24.6395 26.2294L24.2733 23.0413C24.2584 22.9093 24.284 22.7759 24.3465 22.6587C24.4091 22.5415 24.5058 22.4461 24.6237 22.385L27.3045 21.0004L24.6237 19.6144C24.5058 19.5533 24.4091 19.4579 24.3465 19.3407C24.284 19.2235 24.2584 19.0901 24.2733 18.9581L24.6395 15.77L21.8793 17.6075C21.7714 17.6795 21.6447 17.7179 21.5151 17.7179C21.3854 17.7179 21.2587 17.6795 21.1509 17.6075L18.3946 15.77L18.7608 18.9581C18.7756 19.0902 18.75 19.2236 18.6873 19.3408C18.6246 19.458 18.5278 19.5534 18.4097 19.6144L15.7276 21.0004L18.4084 22.3864C18.5265 22.4473 18.6233 22.5427 18.686 22.6599C18.7487 22.7771 18.7743 22.9105 18.7595 23.0426L18.3933 26.2307L21.1495 24.3932C21.2576 24.3205 21.3849 24.2817 21.5151 24.2816Z" fill="#D5E7D9"/>
    </svg>
</svg>
